<?xml version="1.0" encoding="iso-8859-1"?>
<!-- Generator: Adobe Illustrator 19.0.0, SVG Export Plug-In . SVG Version: 6.00 Build 0)  -->
<svg version="1.1" id="Capa_1" xmlns="http://www.w3.org/2000/svg" xmlns:xlink="http://www.w3.org/1999/xlink" x="0px" y="0px"
	 viewBox="0 0 512.043 512.043" style="enable-background:new 0 0 512.043 512.043;" xml:space="preserve">
<g>
	<g>
		<path d="M511.912,187.153c-0.135-46.082-17.276-90.492-48.137-124.715c-2.113-2.596-4.357-5.083-6.724-7.45
			c-32.62-32.597-76.146-51.974-122.197-54.4c-3.505-0.386-7.029-0.583-10.556-0.589c-0.205,0-0.367,0.102-0.563,0.111
			c-46.091,0.137-90.509,17.281-124.74,48.145c-2.566,2.099-5.049,4.344-7.45,6.733c-32.586,32.612-51.957,76.125-54.383,122.163
			c-0.389,3.514-0.588,7.046-0.597,10.581c0,0.205,0.102,0.375,0.12,0.58c0.125,40.689,13.5,80.23,38.101,112.64L7.481,468.25
			c-7.311,7.355-9.482,18.385-5.503,27.962c3.979,9.577,13.326,15.822,23.696,15.831c6.792,0.01,13.308-2.686,18.108-7.492
			l167.313-167.313c29.696,22.503,65.443,35.612,102.647,37.641c3.505,0.386,7.029,0.583,10.556,0.589
			c0.205,0,0.367-0.102,0.563-0.111c46.091-0.137,90.509-17.281,124.74-48.145c2.571-2.099,5.055-4.344,7.45-6.733
			c32.586-32.612,51.957-76.125,54.383-122.163c0.389-3.514,0.588-7.046,0.597-10.581
			C512.031,187.529,511.929,187.358,511.912,187.153z M444.985,67.055c1.971,1.971,3.695,4.105,5.555,6.153
			c24.872,30.527,24.192,74.518-1.611,104.262c-25.804,29.744-69.257,36.628-102.99,16.314
			c33.569-7.531,60.724-32.125,71.532-64.786c10.809-32.661,3.686-68.598-18.762-94.668
			C415.861,42.564,431.505,53.627,444.985,67.055z M324.298,17.143c2.935,0,5.862,0.273,8.789,0.418
			c39.06,4.206,69.47,35.835,72.139,75.03s-23.173,74.654-61.302,84.117c18.399-29.052,20.213-65.625,4.779-96.356
			c-15.434-30.73-45.854-51.114-80.145-53.703C286.484,20.419,305.32,17.207,324.298,17.143z M203.611,67.055l-0.009,0.034
			c28.933-28.958,74.923-31.783,107.183-6.584c32.26,25.199,40.654,70.504,19.563,105.588c-7.532-33.57-32.128-60.726-64.792-71.533
			s-68.602-3.681-94.671,18.772C179.126,96.182,190.188,80.539,203.611,67.055z M163.214,243.465
			c-7.126-20.722-10.211-42.619-9.088-64.503c4.217-39.056,35.851-69.456,75.045-72.117s74.645,23.186,84.102,61.314
			c-29.042-18.406-65.609-20.232-96.339-4.81S165.813,209.18,163.214,243.465z M31.716,492.484c-1.616,1.62-3.814,2.523-6.102,2.507
			c-2.288-0.016-4.474-0.95-6.066-2.593c-1.605-1.601-2.507-3.775-2.507-6.042s0.902-4.441,2.507-6.042l166.229-166.229
			c1.826,2.185,3.721,4.343,5.769,6.391c2.048,2.048,4.267,3.84,6.4,5.777L31.716,492.484z M203.611,308.412l-0.009,0.034
			c-1.971-1.971-3.695-4.104-5.555-6.153c-24.872-30.527-24.192-74.518,1.611-104.262c25.804-29.744,69.257-36.627,102.99-16.314
			c-33.57,7.529-60.727,32.123-71.534,64.786c-10.808,32.663-3.681,68.601,18.773,94.668
			C232.731,332.928,217.087,321.853,203.611,308.412z M315.492,357.897l-0.009,0.043c-39.043-4.236-69.422-35.87-72.076-75.053
			c-2.654-39.182,23.183-74.624,61.298-84.085c-18.396,29.046-20.215,65.611-4.79,96.339c15.424,30.728,45.831,51.117,80.114,53.72
			C359.292,355.971,337.384,359.038,315.492,357.897z M444.985,308.412l-0.009,0.034c-28.934,29.021-74.983,31.865-107.269,6.625
			c-32.286-25.24-40.639-70.614-19.459-105.697c7.532,33.57,32.128,60.726,64.792,71.533c32.663,10.807,68.602,3.681,94.671-18.772
			C469.47,279.285,458.408,294.928,444.985,308.412z M494.47,196.506v0.034c-4.217,39.056-35.851,69.456-75.045,72.117
			c-39.193,2.661-74.645-23.185-84.102-61.314c29.042,18.406,65.609,20.232,96.339,4.81c30.73-15.422,51.121-45.832,53.719-80.116
			C492.503,152.748,495.588,174.633,494.47,196.506z"/>
	</g>
</g>
<g>
</g>
<g>
</g>
<g>
</g>
<g>
</g>
<g>
</g>
<g>
</g>
<g>
</g>
<g>
</g>
<g>
</g>
<g>
</g>
<g>
</g>
<g>
</g>
<g>
</g>
<g>
</g>
<g>
</g>
</svg>
