<?xml version="1.0" encoding="iso-8859-1"?>
<!-- Generator: Adobe Illustrator 19.0.0, SVG Export Plug-In . SVG Version: 6.00 Build 0)  -->
<svg version="1.1" id="Capa_1" xmlns="http://www.w3.org/2000/svg" xmlns:xlink="http://www.w3.org/1999/xlink" x="0px" y="0px"
	 viewBox="0 0 512.043 512.043" style="enable-background:new 0 0 512.043 512.043;" xml:space="preserve">
<g transform="translate(-1)">
	<g transform="translate(1 1)">
		<path style="fill:#FF9801;" d="M209.781,277.016L13.514,473.283c-3.205,3.201-5.005,7.545-5.005,12.075
			c0,4.53,1.801,8.874,5.005,12.075l0.085,0.085c3.201,3.205,7.545,5.005,12.075,5.005s8.874-1.801,12.075-5.005l196.267-196.267
			L209.781,277.016z"/>
		<path style="fill:#CFD8DC;" d="M334.026,175.213c-3.19,1.866-6.53,3.465-9.984,4.779c-0.886-12.377-4.406-24.422-10.325-35.328
			c-15.478-29.28-45.9-47.579-79.019-47.531c-5.726,0.02-11.439,0.563-17.067,1.621c-40.393,7.86-70.258,42.193-72.448,83.285
			c1.201-45.883,19.954-89.557,52.395-122.027c1.109-1.109,2.219-2.133,3.328-3.157C213,45.93,227.837,38.497,243.829,35.352h0.085
			c35.948-6.926,72.496,8.701,92.324,39.476S355.191,145.342,334.026,175.213z"/>
		<path style="fill:#C52828;" d="M413.898,97.133c0,49.485-40.115,89.6-89.6,89.6c1.733-1.688,3.357-3.484,4.864-5.376
			c24.126-28.356,28.192-68.681,10.212-101.282c-17.979-32.602-54.253-50.679-91.108-45.406h-0.085
			c-17.612,2.537-34.069,10.261-47.275,22.187c9.126-8.771,19.201-16.499,30.037-23.04c23.755-14.599,50.628-23.371,78.421-25.6
			c4.963-0.483,9.947-0.711,14.933-0.683c1.536,0,3.157,0,4.693,0.085C376.59,10.141,413.892,49.468,413.898,97.133z"/>
		<path style="fill:#CFD8DC;" d="M473.717,148.419v0.085c-0.068,0.1-0.098,0.221-0.085,0.341c-0.512,1.621-1.024,3.243-1.621,4.779
			c-0.597,1.536-1.195,3.243-1.877,4.864c-0.853,1.877-1.707,3.84-2.645,5.717c-0.853,1.536-1.621,2.987-2.56,4.523
			c-2.842,4.914-6.188,9.518-9.984,13.739c-1.195,1.451-2.56,2.901-3.925,4.267c-16.829,16.85-39.673,26.307-63.488,26.283
			c-2.133,0-4.181-0.085-6.315-0.256c-2.133-0.171-4.181-0.427-6.315-0.683h-0.085c-1.451-0.171-2.901-0.427-4.267-0.683
			c-17.534-3.417-33.643-12.006-46.251-24.661c48.912,0.483,89.173-38.351,90.454-87.249c1.281-48.898-36.891-89.787-85.761-91.866
			c45.904,1.105,89.612,19.873,122.027,52.395c1.109,1.109,2.133,2.219,3.157,3.328C474.965,86.412,482.356,118.589,473.717,148.419
			z"/>
		<path style="fill:#C52828;" d="M503.498,186.733c0,1.536,0,3.157-0.085,4.693c-2.237,44.973-37.504,81.299-82.39,84.867
			s-85.449-26.732-94.762-70.787c-1.303-6.173-1.961-12.464-1.963-18.773c13.658,13.685,31.382,22.577,50.517,25.344h0.085
			c37.363,5.383,74.092-13.228,91.847-46.541c17.755-33.312,12.728-74.18-12.572-102.195
			C485.912,96.573,503.583,140.781,503.498,186.733z"/>
		<path style="fill:#CFD8DC;" d="M503.413,191.427c-1.105,45.904-19.873,89.612-52.395,122.027
			c-1.109,1.109-2.219,2.133-3.328,3.157c-20.897,18.908-49.476,26.875-77.141,21.504h-0.085
			c-28.951-5.653-53.268-25.187-65.03-52.238c-11.761-27.051-9.462-58.158,6.15-83.186c5,2.54,10.193,4.68,15.531,6.4
			c8.624,33.465,35.714,58.995,69.632,65.621c5.656,1.063,11.397,1.606,17.152,1.621c12.149,0.028,24.173-2.441,35.328-7.253
			C480.594,255.617,501.6,225.514,503.413,191.427z"/>
		<g>
			<path style="fill:#C52828;" d="M374.73,338.797c-36.855,5.274-73.129-12.804-91.108-45.406s-13.913-72.926,10.212-101.282
				c1.621-0.597,3.243-1.195,4.949-1.707c0.939-0.256,1.963-0.512,2.987-0.768c3.786,3.515,7.901,6.658,12.288,9.387
				c-4.059,5.735-7.384,11.956-9.899,18.517c-9.904,25.452-7.67,54.029,6.067,77.634
				C323.964,318.777,347.708,334.835,374.73,338.797z"/>
			<path style="fill:#C52828;" d="M447.69,316.611c-33.232,31.737-77.44,49.408-123.392,49.323c-1.536,0-3.157,0-4.693-0.085
				c-2.002-0.068-3.997-0.268-5.973-0.597c-41.208-4.922-73.634-37.512-78.349-78.744s19.519-80.301,58.552-94.397
				c-24.126,28.356-28.192,68.681-10.212,101.282s54.253,50.679,91.108,45.406h0.085c5.709,0.795,11.478,1.08,17.237,0.853
				C412.701,338.62,432.358,330.48,447.69,316.611z"/>
		</g>
		<path style="fill:#CFD8DC;" d="M319.605,365.848c-35.503-0.86-69.94-12.3-98.901-32.853l-0.085-0.085
			c-21.835-26.814-26.29-63.799-11.449-95.032c14.841-31.233,46.331-51.137,80.91-51.144c1.68,1.684,3.445,3.279,5.291,4.779
			c-1.707,0.597-3.413,1.28-5.035,1.963c-3.411,1.351-6.719,2.948-9.899,4.779c-34.765,19.529-52.441,59.681-43.367,98.509
			C246.144,335.591,279.785,363.75,319.605,365.848z"/>
		<g>
			<path style="fill:#F5F5F5;" d="M313.717,144.664c-2.224,9.245-5.942,18.065-11.008,26.112c-4.93-2.626-10.103-4.769-15.445-6.4
				c-8.624-33.465-35.714-58.995-69.632-65.621c-5.656-1.063-11.397-1.606-17.152-1.621c-12.149-0.028-24.173,2.441-35.328,7.253
				c8.436-16.387,19.377-31.358,32.427-44.373c1.109-1.109,2.219-2.133,3.328-3.157C213,45.93,227.837,38.497,243.829,35.352h0.085
				c24.031,4.738,45.08,19.095,58.263,39.738S319.528,120.87,313.717,144.664z"/>
			<path style="fill:#F5F5F5;" d="M324.298,186.733c0.011,7.54,0.956,15.05,2.816,22.357c-5.338-1.72-10.531-3.86-15.531-6.4
				c-5.816-3.092-11.256-6.843-16.213-11.179c-1.845-1.5-3.611-3.095-5.291-4.779c-34.58,0.007-66.069,19.911-80.91,51.144
				c-14.841,31.233-10.386,68.218,11.449,95.032c-8.222-5.815-15.93-12.324-23.04-19.456c-1.109-1.109-2.133-2.219-3.157-3.328
				c-21.622-24.003-28.665-57.78-18.438-88.424c10.227-30.644,36.143-53.422,67.846-59.629c14.452-2.742,29.353-1.952,43.435,2.304
				c5.343,1.631,10.515,3.774,15.445,6.4c5.066-8.047,8.784-16.867,11.008-26.112c5.919,10.906,9.44,22.951,10.325,35.328
				c3.454-1.314,6.794-2.912,9.984-4.779C331.115,179.321,327.86,183.175,324.298,186.733z"/>
			<path style="fill:#F5F5F5;" d="M326.687,207.384c0.119,0.583,0.291,1.154,0.512,1.707h-0.085
				C326.943,208.493,326.858,207.981,326.687,207.384z"/>
			<path style="fill:#F5F5F5;" d="M416.799,186.733c-12.62,12.639-28.724,21.225-46.251,24.661
				c-17.534-3.417-33.643-12.006-46.251-24.661c34.58-0.007,66.069-19.911,80.91-51.144c14.841-31.233,10.386-68.218-11.449-95.032
				c8.222,5.815,15.93,12.324,23.04,19.456c1.109,1.109,2.133,2.219,3.157,3.328C451.92,98.754,450.532,153.002,416.799,186.733z"/>
			<path style="fill:#F5F5F5;" d="M449.226,269.08c-8.416,16.4-19.358,31.374-32.427,44.373c-1.109,1.109-2.219,2.133-3.328,3.157
				c-12.094,10.926-26.931,18.359-42.923,21.504h-0.085c-24.031-4.747-45.081-19.102-58.275-39.739
				c-13.195-20.638-17.389-45.769-11.613-69.573c15.531,29.27,45.968,47.559,79.104,47.531c5.726-0.02,11.439-0.563,17.067-1.621
				c5.656,1.063,11.397,1.606,17.152,1.621C426.047,276.361,438.071,273.893,449.226,269.08z"/>
		</g>
		<g>
			<path style="fill:#C52828;" d="M318.837,155.928c-2.514,6.561-5.84,12.782-9.899,18.517c-3.873-2.51-7.955-4.68-12.203-6.485
				c-15.262-6.652-32.074-8.927-48.555-6.571h-0.085c-32.753,4.734-60.229,27.136-71.462,58.264s-4.394,65.913,17.788,90.472
				c-31.619-33.308-49.27-77.467-49.323-123.392c0-1.536,0-3.157,0.085-4.693c2.245-42.684,34.328-77.839,76.629-83.968
				c4.268-0.616,8.573-0.929,12.885-0.939C272.303,97.133,305.908,120.615,318.837,155.928z"/>
			<path style="fill:#C52828;" d="M324.298,186.733c-1.024-1.024-2.048-1.963-3.072-2.901c1.024-0.256,2.048-0.512,2.987-0.768
				C324.298,184.259,324.298,185.539,324.298,186.733z"/>
		</g>
		<g>
			<path style="fill:#F44335;" d="M388.298,97.133c0.032,37.739-23.629,71.438-59.136,84.224
				c24.126-28.356,28.192-68.681,10.212-101.282c-17.979-32.602-54.253-50.679-91.108-45.406h-0.085
				c-5.709-0.795-11.478-1.08-17.237-0.853c23.755-14.599,50.628-23.371,78.421-25.6C354.41,13.563,388.329,51.771,388.298,97.133z"
				/>
			<path style="fill:#F44335;" d="M301.77,189.635c-1.024,0.256-2.048,0.512-2.987,0.768c-0.085-1.195-0.085-2.475-0.085-3.669
				C299.722,187.757,300.746,188.696,301.77,189.635z"/>
			<path style="fill:#F44335;" d="M477.898,186.733c0,1.536,0,3.157-0.085,4.693c-2.245,42.684-34.328,77.839-76.629,83.968
				c-35.809-5.089-65.017-31.265-73.984-66.304c-0.221-0.552-0.393-1.124-0.512-1.707c-0.155-0.618-0.269-1.245-0.341-1.877
				c-1.383-6.161-2.07-12.459-2.048-18.773c12.608,12.655,28.717,21.244,46.251,24.661c-3.947,0.74-7.937,1.225-11.947,1.451
				c5.417,0.257,10.845,0,16.213-0.768h0.085c2.048,0.341,4.181,0.512,6.315,0.683c2.133,0.171,4.181,0.256,6.315,0.256
				c23.815,0.024,46.659-9.433,63.488-26.283c1.365-1.365,2.731-2.816,3.925-4.267c3.796-4.22,7.142-8.825,9.984-13.739
				c0.936-1.459,1.79-2.969,2.56-4.523c0.939-1.877,1.792-3.84,2.645-5.717c0.683-1.621,1.28-3.243,1.877-4.864
				c0.597-1.621,1.109-3.157,1.621-4.779c-0.013-0.12,0.017-0.241,0.085-0.341C476.511,161.055,477.913,173.875,477.898,186.733z"/>
			<path style="fill:#F44335;" d="M326.346,205.507c0.072,0.633,0.186,1.26,0.341,1.877c-0.171-0.597-0.256-1.28-0.427-1.877
				H326.346z"/>
			<path style="fill:#F44335;" d="M374.815,338.797h-0.085c-36.855,5.274-73.129-12.804-91.108-45.406
				s-13.913-72.926,10.212-101.282c-39.033,14.097-63.266,53.165-58.552,94.397s37.141,73.822,78.349,78.744
				c27.794-2.229,54.666-11.001,78.421-25.6L374.815,338.797z"/>
			<path style="fill:#F44335;" d="M296.735,167.96c-15.262-6.652-32.074-8.927-48.555-6.571h-0.085
				c-44.191-6.328-86.309,20.805-98.816,63.659c-2.795-12.58-4.197-25.428-4.181-38.315c0-1.536,0-3.157,0.085-4.693
				c2.245-42.684,34.328-77.839,76.629-83.968C258.957,103.382,288.858,131.274,296.735,167.96z"/>
		</g>
	</g>
	<path d="M512.912,187.153c-0.134-46.082-17.276-90.492-48.137-124.715c-2.113-2.596-4.357-5.083-6.724-7.45
		c-32.62-32.597-76.146-51.974-122.197-54.4c-3.505-0.386-7.029-0.583-10.556-0.589c-0.205,0-0.367,0.102-0.563,0.111
		c-46.091,0.137-90.509,17.281-124.74,48.145c-2.566,2.099-5.049,4.343-7.45,6.733c-32.586,32.612-51.957,76.125-54.383,122.163
		c-0.389,3.514-0.588,7.046-0.597,10.581c0,0.205,0.102,0.375,0.119,0.58c0.125,40.689,13.5,80.23,38.101,112.64L8.481,468.25
		c-7.311,7.355-9.482,18.385-5.503,27.962s13.326,15.822,23.696,15.831c6.792,0.01,13.308-2.686,18.108-7.492l167.313-167.313
		c29.696,22.503,65.443,35.612,102.647,37.641c3.505,0.386,7.029,0.583,10.556,0.589c0.205,0,0.367-0.102,0.563-0.111
		c46.091-0.137,90.509-17.281,124.74-48.145c2.571-2.099,5.055-4.343,7.45-6.733c32.586-32.612,51.957-76.125,54.383-122.163
		c0.389-3.514,0.588-7.046,0.597-10.581C513.031,187.529,512.929,187.358,512.912,187.153z M495.47,196.54
		c-4.217,39.056-35.851,69.456-75.045,72.117s-74.645-23.186-84.102-61.314c29.042,18.406,65.609,20.232,96.339,4.81
		c30.73-15.422,51.121-45.832,53.719-80.116c7.121,20.712,10.206,42.596,9.088,64.469V196.54z M445.976,308.446
		c-28.934,29.021-74.983,31.865-107.269,6.625c-32.286-25.24-40.639-70.614-19.459-105.697c7.532,33.57,32.128,60.726,64.792,71.533
		s68.602,3.681,94.671-18.772c-8.24,17.149-19.303,32.792-32.725,46.276L445.976,308.446z M316.483,357.939
		c-39.043-4.236-69.422-35.87-72.076-75.053c-2.654-39.182,23.183-74.624,61.298-84.085c-18.396,29.046-20.215,65.611-4.79,96.339
		s45.831,51.117,80.114,53.72c-20.737,7.111-42.645,10.179-64.538,9.037L316.483,357.939z M204.602,308.446
		c-1.971-1.971-3.695-4.105-5.555-6.153c-24.872-30.527-24.192-74.518,1.611-104.262s69.257-36.627,102.99-16.314
		c-33.57,7.529-60.727,32.123-71.534,64.786s-3.681,68.601,18.773,94.668c-17.156-8.243-32.8-19.318-46.276-32.759L204.602,308.446z
		 M204.602,67.089c28.933-28.958,74.923-31.783,107.183-6.584s40.654,70.504,19.563,105.588
		c-7.532-33.57-32.128-60.726-64.791-71.533s-68.602-3.681-94.671,18.772c8.24-17.149,19.303-32.792,32.725-46.276L204.602,67.089z
		 M325.298,17.143c2.935,0,5.862,0.273,8.789,0.418c39.06,4.206,69.47,35.835,72.139,75.03s-23.173,74.654-61.302,84.117
		c18.399-29.052,20.213-65.626,4.779-96.356s-45.854-51.114-80.145-53.703C287.484,20.419,306.32,17.207,325.298,17.143z
		 M451.54,73.207c24.872,30.527,24.192,74.518-1.611,104.262c-25.804,29.744-69.257,36.627-102.99,16.314
		c33.569-7.531,60.724-32.125,71.532-64.786s3.686-68.598-18.762-94.668c17.153,8.234,32.797,19.297,46.276,32.725
		C447.956,69.026,449.68,71.159,451.54,73.207z M155.126,178.961c4.217-39.056,35.851-69.456,75.045-72.117
		c39.193-2.661,74.645,23.186,84.102,61.314c-29.042-18.406-65.609-20.232-96.339-4.81s-51.121,45.832-53.719,80.116
		C157.089,222.742,154.004,200.846,155.126,178.961z M32.716,492.484c-1.616,1.62-3.814,2.524-6.102,2.507s-4.474-0.95-6.066-2.593
		c-1.605-1.601-2.507-3.775-2.507-6.042s0.902-4.441,2.507-6.042l166.229-166.229c1.826,2.185,3.721,4.344,5.769,6.391
		c2.048,2.048,4.267,3.84,6.4,5.777L32.716,492.484z"/>
</g>
<g>
</g>
<g>
</g>
<g>
</g>
<g>
</g>
<g>
</g>
<g>
</g>
<g>
</g>
<g>
</g>
<g>
</g>
<g>
</g>
<g>
</g>
<g>
</g>
<g>
</g>
<g>
</g>
<g>
</g>
</svg>
