<svg height="512pt" viewBox="0 0 512 512.00787" width="512pt" xmlns="http://www.w3.org/2000/svg"><path d="m1.714844 76.808594c7.003906 13.761718 21.777344 38.722656 41.871094 51.199218 4.027343 2.492188 8.039062 4.746094 12.082031 6.921876-.289063 1.707031-.511719 3.453124-.671875 5.324218-.300782 3.484375-.269532 6.992188.09375 10.46875-35.191406 32.640625-46.34375 60.910156-49.808594 75.035156-1.28125 5.113282.089844 10.527344 3.644531 14.421876 3.558594 3.890624 8.828125 5.742187 14.035157 4.929687 15.265624-2.421875 43.519531-8.746094 61.601562-24.011719 3.601562-3.046875 7-6.160156 10.328125-9.386718 1.515625.792968 3.128906 1.5625 4.855469 2.289062 3.222656 1.367188 6.574218 2.433594 10 3.171875 20.1875 43.519531 43.585937 62.875 55.988281 70.554687 4.492187 2.796876 10.09375 3.152344 14.90625.945313 4.773437-2.179687 8.128906-6.609375 8.941406-11.792969 3.277344-18.527344 3.066407-37.507812-.628906-55.960937 10.367187 18.636719 15.855469 43.496093 15.855469 86.289062v28.75c-.964844-.511719-1.960938-.964843-2.980469-1.347656-17.867187-6.613281-42.589844 6.578125-62.089844 20.667969-1.648437-1.03125-3.464843-1.765625-5.367187-2.167969-40.34375-8.148437-99.019532 13.234375-132.417969 79.539063-2.242187 4.574218-2.472656 9.875-.640625 14.625 0 .128906 0 .257812.042969.375.085937.257812.246093.445312.347656.683593.105469.238281.207031.664063.367187.988281 2.753907 5.359376 7.886719 9.085938 13.832032 10.046876 5.855468.941406 11.777344 1.421874 17.707031 1.441406 67.6875 0 107.128906-63.566406 113.496094-87.894532.152343-.6875.261719-1.386718.324219-2.089843 21.222656-15.71875 39.617187-23.492188 48.433593-20.207031 1.167969.433593 4.328125 1.707031 6.554688 7.851562-10.851563 10.285156-19.980469 22.246094-27.035157 35.429688-2.632812 5.113281-2.511718 11.207031.316407 16.210937 2.78125 4.960937 7.871093 8.1875 13.542969 8.59375 4.34375.324219 9.683593.574219 15.523437.617187v84.152344c0 4.714844 3.820313 8.535156 8.53125 8.535156 4.714844 0 8.535156-3.820312 8.535156-8.535156v-8.53125c0-17.289062 9.941407-25.019531 29.011719-38.28125 18.800781-11.738281 34.921875-27.292968 47.324219-45.660156 11.375 55.464844 32.949219 83.863281 45.039062 95.964844 3.21875 3.238281 7.597657 5.054687 12.160157 5.042968 6.898437-.015624 13.105468-4.179687 15.738281-10.554687 6.824219-16.777344 17.722656-48.992187 13.40625-76.261719-.941407-5.90625-2.101563-11.574218-3.371094-17.203125 2.117187-1.230469 4.175781-2.566406 6.160156-4.003906 3.519531-2.527344 6.765625-5.410156 9.683594-8.609375 10.421875 1.234375 20.902344 1.890625 31.394531 1.960938 25.585938.882812 51.015625-4.269532 74.242188-15.035157 5.09375-2.578125 8.558594-7.535156 9.234375-13.203125.675781-5.671875-1.527344-11.304687-5.875-15.007812-13.832031-11.699219-41.121094-31.992188-68.382813-36.308594-5.863281-.929688-11.632812-1.578125-17.425781-2.117188-.503906-2.394531-1.128906-4.761718-1.878906-7.089843-1.296875-4.097657-3.011719-8.050781-5.121094-11.792969 23.605469-51.789062 22.863281-87.621094 20.175781-104.59375-.878906-5.679688-4.558594-10.535156-9.789062-12.921875-5.164063-2.375-11.175782-1.996094-16 1.007813-15.410156 9.542968-43.136719 29.210937-55.671875 53.820312-2.703125 5.308594-5.121094 10.589844-7.390625 15.921875-2.433594-.261719-4.878906-.398437-7.328125-.40625-4.300781-.027344-8.589844.394531-12.800781 1.261719-14.402344-13.472656-30.367188-25.171875-47.554688-34.84375 2.191406-36.785156 27.800781-64.851563 34.53125-71.574219 1.335938.371094 2.710938.582031 4.097656.621094 1.148438 0 2.289063-.117188 3.414063-.351563 40.285156-8.25 85.902343-50.847656 90.75-125.027344.257812-5.0625-1.597657-10.007812-5.117188-13.65625-.085937-.109374-.113281-.238281-.199219-.339843-.082031-.101563-.324218-.214844-.46875-.359375-.296874-.289063-.527343-.628906-.851562-.902344-4.621094-3.851562-10.800781-5.277344-16.640625-3.832031-77.117187 19.285156-90.914063 103.910156-86.980469 130.917969 0 .222656.121094.425781.160156.648437-20.757812 20.527344-34.453124 47.125-39.097656 75.945313-9.371094-4.066407-19.195312-7-29.261718-8.726563-5.667969-.886719-11.402344 1.101563-15.308594 5.304687-3.855469 4.1875-5.355469 10.023438-4 15.550782 4.265625 17.59375 14.503906 50.039062 33.988281 69.570312 4.179687 4.183594 8.472656 8.105469 12.859375 11.945313-1.003906 2.230469-1.890625 4.507812-2.65625 6.828125-1.351562 4.089844-2.277344 8.308594-2.765625 12.585937-10.921875 6.105469-21.414063 12.960938-31.390625 20.515625v-34.484375c0-57.566406-9.191406-89.171875-34.65625-117.324219.957031-1.332031 1.847656-2.710937 2.664062-4.128906 47.65625-5.742187 73.257813-22.027344 84.386719-31.4375 4.042969-3.414062 6.109375-8.625 5.503907-13.882812-.59375-5.21875-3.769532-9.785156-8.449219-12.160156-13.757813-7.015626-40.363281-18.5-63.949219-16.785157-4.703125.339844-9.277344.851563-13.839844 1.492188-.761718-1.535157-1.613281-3.097657-2.5625-4.703125-1.820312-3.039063-3.929687-5.894532-6.296875-8.53125 9.207031-46.976563 1.757813-76.417969-3.753906-89.890625-1.972656-4.898438-6.265625-8.480469-11.4375-9.535157-5.171875-1.058593-10.53125.546876-14.265625 4.277344-10.921875 10.914063-30.097656 32.667969-35.746094 55.636719-1.117187 4.558594-2.03125 9.082031-2.859375 13.65625-1.707031.246094-3.410156.578125-5.261719 1.003906-3.425781.78125-6.765624 1.886719-9.976562 3.304688-41.898438-23.382813-72.203125-25.285157-86.726562-24.191407-5.285157.382813-10.023438 3.386719-12.628907 8.003907-2.574219 4.570312-2.691406 10.125-.304687 14.796875zm115.789062 291.90625c-29.464844 23.804687-61.277344 44.550781-94.945312 61.910156 28.503906-48.671875 68.832031-61.710938 94.945312-61.910156zm-82.40625 74.8125c30.8125-16.3125 60.0625-35.417969 87.386719-57.070313-13.746094 23.433594-43.578125 56.132813-87.386719 57.070313zm293.125-319.785156c17.804688-33.433594 38.960938-64.96875 63.148438-94.113282-7.175782 55.976563-39.203125 83.777344-63.148438 94.113282zm46.601563-101.0625c-21.984375 27.070312-41.441407 56.097656-58.128907 86.71875 3.472657-26.949219 18.132813-68.722657 58.128907-86.71875zm-118.613281 316.398437c.933593 1.699219 2.078124 3.273437 3.414062 4.679687.886719.820313 1.832031 1.574219 2.832031 2.25.09375.070313.1875.179688.28125.25l.113281.066407c1.191407.828125 2.453126 1.554687 3.769532 2.167969.351562.160156.691406.332031 1.050781.484374 1.351563.574219 2.742187 1.046876 4.164063 1.417969.433593.121094.851562.222657 1.339843.324219 1.582031.378906 3.1875.660156 4.804688.855469.484375.050781 1.015625.058593 1.519531.101562 1.332031.09375 2.558594.273438 4.007812.273438.410157 0 .855469-.0625 1.308594-.070313h.261719c-.5.351563-.851563.726563-1.371094 1.085938-1.195312.851562-2.347656 1.757812-3.414062 2.652344-.632813.546874-1.210938 1.109374-1.792969 1.707031-.996094.957031-1.9375 1.910156-2.78125 2.894531-.460938.542969-.851562 1.089844-1.289062 1.644531-.761719.992188-1.457032 2.03125-2.082032 3.113281-.316406.546876-.578125 1.09375-.851562 1.640626-.53125 1.074218-.976563 2.1875-1.339844 3.328124-.078125.238282-.222656.46875-.292969.714844-.136719.480469-.210937 1.042969-.3125 1.570313-.105469.53125-.265625.855469-.324219 1.222656-.589843 4.195313.003907 8.46875 1.703126 12.347656-4.144532 2.414063-8.351563 4.71875-12.730469 6.953125-20.90625 10.660156-51.34375 10.242188-67.582031 8.96875 6.65625-13.117187 23.824218-37.835937 65.601562-62.644531zm26.085937-39.910156c.25-.050781.5-.082031.75-.09375h.335937c.570313-.007813 1.144532.046875 1.707032.164062.195312 0 .398437.085938.605468.136719.632813.160156 1.253907.367188 1.859376.613281l.777343.332031c.679688.316407 1.40625.691407 2.167969 1.128907l.851562.503906c.792969.492187 1.628907 1.074219 2.492188 1.703125l.9375.703125c.855469.671875 1.792969 1.449219 2.722656 2.277344.375.324219.734375.621093 1.109375.972656.90625.851563 1.859375 1.78125 2.824219 2.746094.460938.480469.921875.914062 1.398438 1.425781.90625.957031 1.863281 2.039062 2.808593 3.125.582031.648438 1.136719 1.261719 1.707031 1.960938l.46875.597656c-.253906.410156-.367187.851562-.605468 1.3125-.804688 1.460937-1.5 2.972656-2.082032 4.53125-.136718.386718-.375.71875-.503906 1.101562-.128906.386719-.160156.972656-.289062 1.453125-.425782 1.558594-.742188 3.148438-.949219 4.75-.050781.445313-.21875.855469-.253906 1.316407-14.582031 3.667968-25.746094 3.90625-30.4375.511718-.558594-.417968-1.035157-.9375-1.402344-1.527344-.179687-.269531-.335937-.558593-.46875-.855468-.523437-1.28125-.792969-2.652344-.792969-4.035156 0-.101563 0-.1875 0-.289063.09375-4.042969.824219-8.042969 2.167969-11.851563 1.054687-3.453124 2.558594-6.746093 4.472656-9.808593.402344-.59375.84375-1.164063 1.320313-1.703125.375-.476563.78125-.929688 1.210937-1.351563.324219-.304687.671875-.589843 1.035157-.851562.617187-.464844 1.316406-.800781 2.0625-1zm84.941406 17.289062c9.300781-10.921875 17.84375-17.3125 23.46875-17.320312 2.441407.238281 4.640625 1.582031 5.972657 3.640625.050781.070312.128906.113281.179687.179687 2.316406 3.328125 4.082031 7.003907 5.230469 10.890625 1.175781 3.410156 1.898437 6.957032 2.148437 10.554688.027344.71875.007813 1.4375-.058593 2.152344-.027344.613281-.09375 1.226562-.195313 1.832031-.085937.425781-.203125.839843-.351563 1.246093-.226562.738282-.589843 1.421876-1.074218 2.023438-.167969.1875-.355469.359375-.554688.511719-.082031.070312-.167968.136719-.257812.195312-.5.375-1.039063.6875-1.613282.941407l-.253906.109374c-.777344.320313-1.578125.570313-2.398437.75h-.117188c-2.460937.5-4.96875.707032-7.476562.625-1.441407 0-3.03125-.136718-4.710938-.308593h-.417969c-1.503906-.164063-3.140624-.410157-4.839843-.691407-.398438-.066406-.773438-.121093-1.183594-.195312-1.46875-.265625-3.054687-.617188-4.667969-.980469-.71875-.164062-1.390625-.300781-2.144531-.488281l-.792969-.214844c0-.46875-.210937-.902344-.273437-1.371094-.191407-1.550781-.496094-3.085937-.910157-4.59375-.136718-.5-.148437-1.03125-.308593-1.527343-.164063-.492188-.375-.75-.519531-1.152344-.570313-1.511719-1.25-2.980469-2.03125-4.394531-.25-.460938-.375-.980469-.648438-1.421875l.085938-.113281zm-55.210937 79.984375c-1.394532.113282-2.800782-.054687-4.128906-.496094-.128907 0-.265626 0-.394532-.058593-3.773437-1.34375-7.316406-3.269531-10.496094-5.710938-2.960937-2.078125-5.640624-4.53125-7.96875-7.304687-.414062-.546875-.800781-1.113282-1.152343-1.703125-.359375-.546875-.683594-1.117188-.964844-1.707031-.171875-.382813-.320313-.777344-.433594-1.179688-.257812-.734375-.367187-1.515625-.324219-2.292969.027344-.246093.074219-.484375.144532-.71875 0-.101562.066406-.214843.09375-.324219.195312-.59375.453125-1.164062.769531-1.707031l.101563-.171875c2.996093-4.070312 6.914062-7.378906 11.433593-9.648437l.136719-.085938c1.355469-.785156 2.894531-1.578125 4.507812-2.382812l.929688-.46875c1.339844-.648438 2.839844-1.296875 4.359375-1.945313.699219-.296875 1.347656-.597656 2.082031-.894531l.734375-.28125c.1875.210937.433594.367187.628907.578125 1.105468 1.183594 2.296874 2.285156 3.558593 3.292969.503907.410156.90625.941406 1.425781 1.324219.171876.121093.367188.179687.539063.300781 1.921875 1.363281 3.980469 2.527343 6.144531 3.460937-1.007812 14.996094-4.269531 25.660156-8.910156 29.074219-.585938.402344-1.238281.691406-1.929688.855469-.285156.085937-.578124.152344-.878906.195312zm32.761718-76.664062c1.726563.867187 3.292969 2.023437 4.632813 3.414062.835937.886719 1.585937 1.851563 2.234375 2.882813.144531.238281.265625.488281.394531.726562.410157.734375.765625 1.496094 1.058594 2.285157.152344.429687.28125.855468.398437 1.308593.21875.78125.378907 1.582031.480469 2.386719 0 .300781.058594.589844.082031.855469.078126 1.175781.042969 2.355469-.109374 3.523437v.265625c-.125.816407-.3125 1.625-.5625 2.414063l-.113282.347656c-.316406.9375-.710937 1.847656-1.175781 2.722656-.550781 1.007813-1.199219 1.957032-1.929687 2.84375-.160157.1875-.304688.390625-.476563.578125-.554687.617188-1.15625 1.1875-1.800781 1.707031-.324219.265626-.625.5625-.972656.804688-2.011719 1.398438-4.308594 2.335938-6.722657 2.746094-.054687 0-.105469.050781-.15625.058594-4.414062.710937-8.933593-.289063-12.636719-2.789063-.359374-.257813-.667968-.554687-1.007812-.855469-.640625-.519531-1.242188-1.089844-1.792969-1.703125-.152343-.164062-.28125-.351562-.425781-.515625-.742188-.90625-1.402344-1.878906-1.96875-2.90625l-.164062-.292968c-.382813-.738282-.707032-1.503907-.964844-2.292969l-.09375-.300781c-.289063-.933594-.503906-1.890626-.640625-2.859376-.148438-1.179687-.1875-2.375-.109375-3.566406 0-.253906.050781-.511718.078125-.765625.097656-.867187.269531-1.722656.511719-2.5625.109374-.390625.21875-.777343.355468-1.152343.304688-.839844.683594-1.65625 1.128906-2.429688.101563-.195312.203126-.402344.316407-.589844.652343-1.054687 1.414062-2.035156 2.269531-2.933594l.058594-.085937c1.402344-1.433594 3.046875-2.609375 4.855468-3.472656 4.625-2.339844 10.085938-2.339844 14.710938 0h.121094zm-103.671874 122.878906c-6.742188 4.46875-13.171876 9.394531-19.242188 14.738281v-38.628906c15.253906-.75 30.222656-4.4375 44.082031-10.863281 5.308594-2.707032 10.351563-5.566406 15.359375-8.535156.851563.75 1.707032 1.503906 2.652344 2.246093-11.222656 16.546875-25.824219 30.535157-42.84375 41.035157zm123.859374-29.082031c1.015626 4.667969 1.894532 9.386719 2.679688 14.285156 3.667969 23.167969-6.160156 52.003906-12.347656 67.039063-10.34375-10.34375-28.550782-34.296876-39.253906-81.691407 1.902343-.367187 3.75-.980469 5.496093-1.824219 4.246094-2.238281 7.789063-5.605468 10.242188-9.726562l.332031-.488281c.863281-1.4375 1.640625-2.925781 2.328125-4.453125.179687-.402344.375-.785156.546875-1.195313.613281-1.441406 1.160156-2.996093 1.707031-4.609375.136719-.425781.316407-.792968.453125-1.234375.167969.5625.390625 1.023438.570313 1.566407.46875 1.433593.964843 2.835937 1.511719 4.140624.324218.757813.664062 1.46875 1.003906 2.183594.578125 1.21875 1.214844 2.40625 1.914062 3.558594.375.605469.765625 1.167969 1.160156 1.707031.710938 1.03125 1.484376 2.019531 2.320313 2.953125.417969.460938.855469.851563 1.296875 1.304688.859375.832031 1.777344 1.597656 2.75 2.296875.203125.144531.382812.359375.59375.503906.4375.28125.964844.542969 1.453125.851563.347656.195312.648437.46875 1.007813.648437.355468.179687.785156.257813 1.175781.417969.90625.402344 1.839843.738281 2.789062 1.007812.933594.242188 1.878907.425782 2.835938.546875.492187.074219.996093.136719 1.527343.179688.527344.042969 1.195313.195312 1.808594.195312.484375 0 1.007813-.128906 1.5-.164062.199219-.015625.375.019531.597656 0zm12.289063-23.398438c-2.882813 2.179688-6.039063 3.964844-9.386719 5.316407-.632812.230468-1.28125.421874-1.9375.566406-.621094.175781-1.253906.3125-1.894531.40625-.421875.050781-.847656.066406-1.269531.054687-.773438.007813-1.539063-.125-2.261719-.394531-.238281-.101562-.464844-.230469-.675781-.375l-.238282-.171875c-.53125-.363281-1.011718-.792969-1.433593-1.277344l-.121094-.136719c-2.960937-4.121093-4.902344-8.886718-5.664063-13.902343v-.09375c-.332031-1.5625-.625-3.292969-.855468-5.121094-.050782-.324219-.101563-.613281-.144532-.945313-.210937-1.535156-.375-3.226562-.527343-4.941406-.058594-.683594-.136719-1.316406-.1875-2.023437 0-.265625 0-.5625 0-.851563 2.164062-.945312 4.226562-2.113281 6.152343-3.484375.160157-.109375.359376-.167969.511719-.289062.519531-.375.914063-.851563 1.40625-1.289063 1.261719-1.011718 2.449219-2.109375 3.558594-3.285156.207031-.230469.46875-.390625.675781-.621094 13.953125 5.597656 23.109375 11.945313 24.90625 17.46875.292969.976563.332032 2.011719.113282 3.011719-.3125 1.355469-.890626 2.632813-1.707032 3.761719-.050781.085937-.078125.179687-.128906.265625-2.496094 3.242187-5.5 6.0625-8.890625 8.351562zm117.613281-23.039062c-13.027344 6.648437-41.503906 16.574219-89.835937 12.058593.246093-1.921874.246093-3.867187 0-5.785156-.503907-3.015625-1.566407-5.914062-3.140625-8.535156-.855469-1.464844-1.832032-2.855469-2.917969-4.15625-.136719-.167969-.257813-.339844-.394531-.5-1.085938-1.257812-2.25-2.441406-3.480469-3.550781-.332031-.316407-.65625-.632813-1.007813-.941407-1.175781-1.015624-2.476562-2.003906-3.832031-2.984374-.375-.273438-.664062-.5625-1.058593-.855469h.523437c.339844 0 .722656.054687 1.054687.054687 1.027344 0 1.90625-.148437 2.878907-.199218 1.160156-.058594 2.34375-.101563 3.410156-.238282 1.066406-.136718 2.304687-.382812 3.414063-.613281 1.109374-.230469 2.007812-.410156 2.9375-.691406 1.027343-.316407 2.035156-.6875 3.019531-1.117188.8125-.34375 1.613281-.691406 2.355469-1.09375.9375-.507812 1.84375-1.078125 2.703124-1.707031.308594-.222656.675782-.382812.972657-.613281.445312-.351563.855469-.8125 1.339843-1.230469.257813-.238281.582032-.410156.855469-.65625 2.933594-3.046875 4.964844-6.84375 5.871094-10.972656 4.785156.476562 9.539063 1.089844 14.394531 1.859375 23.160156 3.644531 47.546875 21.898437 59.9375 32.433593zm-127.8125-125.292969c10.660156-20.90625 35.558594-38.460938 49.410156-46.984375 2.277344 14.503906 2.917969 44.558594-16.300781 89.171875-1.75-.824219-3.597656-1.421875-5.503906-1.773438-4.835937-.703124-9.773437-.03125-14.25 1.9375l-.179687.066407c-1.667969.691406-3.285157 1.496093-4.84375 2.40625-.265626.144531-.53125.28125-.796876.445312-1.457031.851563-2.925781 1.882813-4.410156 2.976563-.289062.214844-.582031.359375-.855468.582031.214843-.609375.316406-1.152344.503906-1.707031.4375-1.375.855468-2.742188 1.152344-4.054688.199218-.851562.34375-1.621094.488281-2.421875.238281-1.359375.441406-2.691406.546875-3.976562.050781-.703125.058594-1.382813.074218-2.058594.027344-1.265625-.023437-2.53125-.152343-3.789063-.058594-.605468-.164063-1.183593-.265625-1.773437-.199219-1.195313-.484375-2.371094-.851563-3.523437-.078125-.230469-.09375-.496094-.179687-.726563-.171875-.460937-.445313-.957031-.65625-1.441406-.214844-.488281-.273438-.855469-.46875-1.203125-1.988282-3.742188-4.96875-6.855469-8.621094-9.003906 1.878906-4.429688 3.925781-8.761719 6.160156-13.148438zm-19.207031 26.058594c.679687.195312 1.34375.433594 1.988281.71875.585938.207031 1.15625.457031 1.707032.75.375.210937.734374.453125 1.074218.714844.632813.445312 1.175782 1.007812 1.597656 1.65625.121094.214843.226563.4375.316407.667968.039062.101563.066406.21875.109375.332032.199218.597656.332031 1.214843.390625 1.84375v.195312c-.027344 5.046875-1.246094 10.019531-3.558594 14.507812l-.09375.210938c-.628906 1.417969-1.390625 2.945312-2.207031 4.515625-.171875.324219-.324219.640625-.503906.972656-.71875 1.332031-1.5625 2.757813-2.414063 4.191407-.367187.621093-.703125 1.210937-1.101563 1.851562-.136718.21875-.316406.46875-.453124.691406h-.109376c-4.914062-1.183594-10.039062-1.183594-14.953124 0h-.136719c-8.003907-12.734375-11.671875-23.273437-9.898438-28.792968.234375-.660157.578125-1.273438 1.023438-1.808594.210937-.25.441406-.484375.683593-.699219 1.054688-.902344 2.28125-1.585937 3.601563-2.007813.078125 0 .136719-.085937.214844-.109374 3.882812-1.179688 7.929687-1.726563 11.988281-1.621094 3.617188-.066406 7.226562.34375 10.734375 1.21875zm-119.464844-51.683594c14.445313 2.285156 43.261719 10.972656 79.757813 43.039062-1.335938 1.410157-2.484375 2.988282-3.410156 4.695313-2.113282 4.300781-2.996094 9.101563-2.5625 13.875v.589844c.140624 1.667969.386718 3.328125.734374 4.964843.085938.433594.152344.851563.257813 1.296876.355469 1.542968.851563 3.148437 1.371094 4.777343.136719.410157.199219.785157.34375 1.203125-.546875-.417968-1.078125-.707031-1.613281-1.097656-1.074219-.761719-2.140626-1.511719-3.199219-2.160156-.769531-.476563-1.539063-.855469-2.296875-1.289063-1.109375-.597656-2.21875-1.175781-3.300782-1.636719-.691406-.300781-1.367187-.511718-2.050781-.753906-1.117187-.410156-2.253906-.757812-3.414062-1.039062-.59375-.136719-1.183594-.195313-1.773438-.289063-1.152343-.207031-2.320312-.328125-3.488281-.367187-.121094 0-.25-.042969-.367188-.042969h-1.023437c-.503906 0-1.078125.125-1.613281.1875-.410156.050781-.855469 0-1.246094.066406-4.171875.730469-8.058594 2.605469-11.230469 5.410157-3.601562-3.199219-7.089843-6.492188-10.546875-9.957032-16.46875-16.5625-25.464844-45.671875-29.289062-61.472656zm-154.769531-82.953125c.214844-.585937.46875-1.15625.765625-1.707031.15625-.308594.300781-.65625.460937-.921875.1875-.300781.398438-.589844.632813-.855469.332031-.421875.738281-.777344 1.203125-1.046875.160156-.078125.324219-.140625.496094-.1875h.117187c.445313-.105469.902344-.15625 1.359375-.15625h.398438c.5.027344.996094.085937 1.484375.171875.230469 0 .4375.058594.683593.109375.5625.121094 1.195313.300781 1.84375.496094l.726563.214843c.851563.296876 1.765625.65625 2.738281 1.089844l.28125.121094c4.371094 2.078125 8.515625 4.601562 12.363282 7.535156-.144532.476563-.152344.972656-.273438 1.449219-.242188 1.007813-.429688 2.027344-.5625 3.054687-.050781.410157-.195312.8125-.230469 1.222657-.03125.410156.042969 1.066406 0 1.59375-.039062 1.046875-.019531 2.097656.0625 3.140625v1.109375c-12.171875 6.179687-19.789062 7.160156-22.992187 5.828125-.417969-.175782-.792969-.4375-1.109375-.765625-.082031-.085938-.160157-.199219-.238281-.292969-.636719-.839844-1.082032-1.808594-1.304688-2.839844 0-.09375-.085938-.171875-.109375-.265625-.640625-3.191406-.78125-6.464843-.410156-9.703125.191406-2.835937.726562-5.636718 1.59375-8.34375zm86.5-21.710937c.09375-.101563.171875-.160157.265625-.253907 1.410156-1.59375 3.203125-2.792969 5.214844-3.484375.417969-.097656.855469-.113281 1.277343-.042968.203126.042968.402344.097656.597657.164062.941406.320312 1.8125.816406 2.5625 1.46875h.058593c2.488282 2.195312 4.597657 4.792969 6.238282 7.679688 1.511718 2.402343 2.730468 4.980468 3.617187 7.679687v.042969c.183594.628906.320313 1.269531.410157 1.917968.050781.308594.128906.640626.152343.929688.027344.367188.027344.730469 0 1.09375-.019531.519531-.140625 1.035156-.347656 1.511719-.097656.179687-.210937.351562-.34375.511719-.335937.410156-.730469.773437-1.167969 1.074218l-.050781.042969c-6.871094 3.351563-14.53125 4.746094-22.144531 4.027344-.109375-.308594-.296875-.570313-.417969-.851563-.417969-1.011718-.890625-2-1.40625-2.960937-.25-.460938-.402344-.964844-.675781-1.417969-.1875-.300781-.445313-.546875-.640625-.855469-.628907-.9375-1.308594-1.84375-2.039063-2.710937-.296875-.359375-.527344-.769532-.851562-1.117188 2.269531-4.648437 5.078125-9.015625 8.371094-13.007812.449218-.46875.894531-1.015625 1.320312-1.441406zm4.480469 77.421874c-.601563.414063-1.234375.78125-1.894531 1.09375-.1875.09375-.382813.214844-.5625.289063-.382813.164063-.78125.285156-1.1875.367187-.480469.128907-.980469.171876-1.476563.121094-.191406-.03125-.378906-.082031-.5625-.152344h-.066406c-.421875-.179687-.824219-.40625-1.195313-.675781-.121094-.085937-.238281-.164062-.359375-.257812-.351562-.285157-.6875-.59375-1.007812-.917969-.203125-.199219-.390625-.378906-.605469-.609375-.210938-.230469-.648438-.785156-.980469-1.21875-.230469-.289063-.441406-.554687-.683593-.851563-.390626-.566406-.792969-1.222656-1.191407-1.894531-.179687-.300781-.359375-.554687-.546875-.855469-.511718-.921874-1.042968-1.960937-1.570312-3.070312-.078125-.164062-.15625-.292969-.238282-.460938-.597656-1.304687-1.203124-2.730468-1.800781-4.265624v-.105469c-.503906-1.296875-.992187-2.753907-1.484375-4.265625-.121094-.375-.25-.683594-.367187-1.066406.570312-.445313 1.03125-1 1.558593-1.484376.792969-.671874 1.550782-1.386718 2.261719-2.140624.128907-.136719.292969-.25.410157-.386719.53125-.613281.914062-1.320313 1.382812-1.96875.570312-.785157 1.175781-1.546875 1.707031-2.382813.085938-.152344.222657-.28125.308594-.433594.671875.101563 1.246094.238282 1.894531.347657 1.175782.214843 2.386719.417969 3.410156.648437 1.308594.292969 2.46875.597656 3.601563.914063.308594.078125.675781.152343.964844.238281 4.65625.820312 8.910156 3.160156 12.101562 6.648438.242188.390624.402344.832031.460938 1.289062v.324219c.023437 1.0625-.1875 2.121093-.617188 3.097656 0 .09375 0 .179687-.058593.265625-1.34375 2.960938-3.140626 5.695312-5.324219 8.105469-1.820313 2.175781-3.894531 4.128906-6.179688 5.820312zm-33.867188-55.378906c.128907 0 .261719 0 .390625.050782 1.46875.347656 2.863282.949218 4.121094 1.773437.078125.050781.136719.121094.214844.171875 1.09375.746094 2.066406 1.652344 2.894531 2.6875.195313.25.398437.488281.578125.75.769531 1.167969 1.347656 2.449219 1.707031 3.800781.210938.734375.359375 1.484375.453125 2.242188v.136719c.128906 1.511718-.011718 3.035156-.410156 4.496093-.242188.867188-.5625 1.710938-.964844 2.519531-.078125.152344-.136718.304688-.222656.449219-.316406.566407-.679688 1.105469-1.082031 1.613281-.1875.242188-.351563.503907-.554688.734376-1.265625 1.398437-2.820312 2.5-4.558593 3.234374l-.074219.058594c-1.414063.59375-2.921875.9375-4.457031 1.007813-1.886719.109375-3.777344-.183594-5.546876-.851563-.230468-.09375-.460937-.230468-.691406-.34375-.554687-.257812-1.085937-.566406-1.59375-.910156-1.089844-.734375-2.058594-1.636719-2.867187-2.671875-.554688-.738281-1.027344-1.527344-1.417969-2.363281-.382812-.675782-.699219-1.382813-.953125-2.117188-.191406-.558594-.34375-1.128906-.453125-1.707031 0-.238281-.070312-.46875-.09375-.707031-.070312-.617188-.089844-1.242188-.058594-1.859375.003906-.347657.027344-.691407.066406-1.035157.074219-.652343.210938-1.296874.402344-1.925781.050782-.179687.085938-.367187.144532-.546875.304687-.894531.703124-1.75 1.183593-2.5625v-.09375c.800781-1.296875 1.816407-2.453125 3.003907-3.410156 2.96875-2.519531 6.953124-3.484375 10.746093-2.605469zm-108.390625 94.320313c3.414063-12.238281 12.953125-34.304688 40.105469-60.714844.542969.476563 1.113281.921875 1.707031 1.339844.453125.339843.769532.851562 1.253906 1.140625.488282.292968 1.007813.394531 1.476563.640625.46875.246093 1.203125.683593 1.765625.914062.402344.171875.855469.265625 1.265625.402344.742187.253906 1.464844.535156 2.25.722656 1.617187.351563 3.261719.554688 4.917969.605469.398437 0 .742187.144531 1.152344.144531.40625 0 .945312-.125 1.398437-.144531 1.652344-.058594 3.300781-.226562 4.929687-.492188.199219 0 .359376 0 .554688-.054687-.449219.582031-.785156 1.164063-1.191406 1.707031-.609375.855469-1.238282 1.757813-1.75 2.628906-.417969.726563-.742188 1.453126-1.09375 2.175782-.734375 1.40625-1.308594 2.894531-1.707032 4.429687-.195312.683594-.367187 1.355469-.492187 2.03125-.128906.675781-.292969 1.605469-.378906 2.347657 0 .273437-.09375.546874-.109375.851562 0 .554688 0 1.179688.050781 1.785156 0 .261719-.042969.546875 0 .808594.300781 3.410156 1.449219 6.691406 3.34375 9.542969-2.652344 2.5-5.390625 4.929687-8.242187 7.335937-15.210938 10.667969-32.78125 17.476563-51.207032 19.851563zm76.535156-33.734375c-.484374-.378906-.945312-.789063-1.375-1.230469-.265624-.261719-.554687-.519531-.765624-.765625-.226563-.265625-.429688-.554688-.609376-.855469-.296874-.4375-.503906-.929687-.613281-1.449219-.019531-.191406-.019531-.386718 0-.578124v-.042969c.039063-.460938.128907-.910157.265625-1.351563l.144532-.449218c.160156-.40625.339843-.800782.539062-1.1875.136719-.273438.253906-.527344.425781-.851563s.503907-.796875.777344-1.195313c.273437-.402343.441406-.683593.722656-1.050781.28125-.367187.855469-1 1.257813-1.511719.28125-.332031.527344-.648437.851562-.996093.640625-.691407 1.390625-1.433594 2.175782-2.183594.222656-.214844.394531-.402344.621093-.625.976563-.894531 2.066407-1.835937 3.246094-2.796875.125-.105469.21875-.207031.355469-.308594 1.015625-.855468 2.175781-1.707031 3.347656-2.558594.390625-.292968.707031-.554687 1.125-.855468.121094.085937.265625.128906.382812.214844.121094.085937.34375.289062.539063.410156 1.296875.792968 2.652344 1.492187 4.054687 2.082031l.152344.082031c.160156.070313.339844.09375.503906.15625 1.515626.605469 3.078126 1.085938 4.675782 1.433594.136718 0 .265625.09375.410156.117188.050781.34375.066406.625.117188.949218.230468 1.5625.445312 3.078125.582031 4.453125.09375 1.03125.136719 1.945313.1875 2.894531 0 .585938.101562 1.253907.128906 1.808594.042969 1.4375.042969 2.769532 0 3.992188v.324218c-.070313 1.09375-.15625 2.109376-.289063 3.019532v.171875c-.1875 2.175781-.949218 4.257812-2.203124 6.042969-.261719.308593-.578126.570312-.929688.765624-.21875.113282-.449219.207032-.683594.273438-.945312.285156-1.9375.382812-2.917968.292969-.101563 0-.195313 0-.300782 0-3.222656-.363281-6.375-1.226563-9.332031-2.5625-2.679687-1.046875-5.222656-2.417969-7.570313-4.078125zm74.152344 77.996094c-10.5625-6.980469-28.566406-22.886719-45.285156-56.78125 1.144531-.617188 2.222656-1.34375 3.226562-2.167969 1.785157-1.542969 3.304688-3.367188 4.496094-5.402344l.308594-.496094c.566406-.984375 1.070312-2.003906 1.507812-3.054687.121094-.296875.242188-.613282.351563-.921875.429687-1.089844.792969-2.207031 1.09375-3.34375.085937-.324219.136719-.671875.210937-.996094.273438-1.195313.5625-2.367187.742188-3.664063.453125.667969.941406 1.222657 1.417969 1.835938.597656.792969 1.195312 1.605469 1.816406 2.304688.625.699218 1.195313 1.210937 1.800781 1.792968.605469.578125 1.101563 1.066406 1.707032 1.527344.648437.523438 1.324218 1.015625 2.023437 1.464844.546875.359375 1.089844.710937 1.644531 1.015625.730469.40625 1.484375.769531 2.253906 1.085937.222657.09375.4375.230469.667969.316406.449219.167969.988281.296876 1.492188.441407.332031.09375.640625.265625.972656.34375.332031.074219.851563.074219 1.238281.144531.761719.136719 1.535156.226562 2.3125.273438.355469 0 .714844.117187 1.082032.117187.367187 0 .640624-.117187.964843-.136719 1.476563-.058594 2.945313-.273437 4.378907-.640625h.117187c1.546875 3.304688 3.023437 6.65625 4.445313 10.140625 5.4375 17.765625 6.472656 36.585938 3.011718 54.84375zm35.59375-143.675782c18.390625-1.375 40.5 7.796875 53.085938 14.035156-9.90625 7.902344-30.601563 20.113282-68 25.542969-.230469-1.277343-.585938-2.53125-1.058594-3.738281-.929688-2.214844-2.21875-4.257812-3.824219-6.042969l-.253906-.296875c-.78125-.878906-1.625-1.703125-2.519531-2.46875-.222656-.1875-.460938-.367187-.691406-.554687-.925782-.757813-1.894532-1.464844-2.902344-2.113281-.253906-.164063-.554688-.308594-.851563-.472657-1.066406-.636719-2.109375-1.285156-3.300781-1.867187.382812-.109375.714844-.265625 1.089844-.382813.992187-.324219 1.964844-.660156 2.875-1.023437.539062-.222656 1.042968-.453125 1.554687-.691406.929688-.4375 1.835938-.855469 2.671875-1.375.410156-.238282.792969-.496094 1.175782-.75.824218-.523438 1.617187-1.09375 2.371093-1.707032.308594-.257812.597657-.539062.855469-.8125.710938-.648437 1.378906-1.34375 1.996094-2.082031.078125-.101563.1875-.1875.273437-.289063.238281-.308593.46875-.691406.707031-1.03125.238282-.34375.574219-.691406.792969-1.066406 1.761719-2.9375 2.761719-6.265625 2.902344-9.6875 3.679687-.484375 7.324219-.84375 11.050781-1.125zm-42.800781-110.355468c4.453125 11.871093 9.667969 35.320312 3.257813 72.535156-1.285157-.171875-2.582032-.214844-3.875-.136719-2.351563.1875-4.660157.761719-6.824219 1.707031l-.589844.230469c-1.007813.453125-1.988281.972656-2.9375 1.542969-.332031.195312-.648437.417968-.972656.632812-.9375.605469-1.84375 1.265625-2.710938 1.96875-.34375.273438-.675781.617188-1.015625.914063-.855468.75-1.707031 1.460937-2.5625 2.332031 0-.785156-.050781-1.488281-.058594-2.238281 0-1.023438 0-2.054688-.128906-3.019531-.125-.964844-.261718-1.707032-.410156-2.558594-.144531-.855469-.253906-1.46875-.441406-2.160156-.222656-.855469-.503906-1.648438-.792969-2.433594-.222656-.585938-.453125-1.175782-.71875-1.707032-.351563-.765624-.75-1.507812-1.195313-2.226562-.125-.203125-.210937-.441406-.347656-.640625-.265625-.398437-.613281-.851563-.9375-1.226563-.214844-.273437-.367187-.597656-.589844-.855468-2.238281-2.554688-5.074218-4.515625-8.253906-5.707032.683594-3.601562 1.460938-7.175781 2.347656-10.785156 6.027344-17.574218 16.242188-33.417968 29.757813-46.167968zm-50.554687 73.335937c2.675781-.667969 5.417968-1.039063 8.175781-1.101563h.222656.066406c.273438 0 .417969.050782.667969.070313.710938.023437 1.417969.105469 2.117188.246094.308593.078125.609374.179687.902343.308593.578125.167969 1.113281.457032 1.570313.851563.136718.140625.261718.296875.367187.460937.246094.402344.441407.832032.589844 1.28125 0 .128907.085937.253907.128906.402344.117188.441406.210938.886719.28125 1.339844 0 .28125.09375.542969.125.851562.054688.453126.0625.972657.078125 1.484376.015625.511718 0 .777343 0 1.222656 0 .605468-.066406 1.285156-.121094 1.96875 0 .4375-.050781.855468-.101562 1.304687-.101562.855469-.261719 1.8125-.433594 2.773438-.070312.402343-.101562.753906-.1875 1.171875-.1875.980468-.460937 2.0625-.726562 3.140625-.128906.519531-.222656.980469-.367188 1.527343-.144531.542969-.398437 1.328126-.597656 1.976563-.316406 1.09375-.613281 2.152344-1.015625 3.347656-1.835937.078125-3.660156.320313-5.453125.722657-.117188 0-.238281 0-.347656.054687-1.402344.363281-2.773438.835937-4.105469 1.40625-.460937.1875-.964844.289063-1.40625.488281-1.257813-1.257812-2.382813-2.460937-3.414063-3.628906l-.289062-.296875c-1.027344-1.160156-1.929688-2.253906-2.757812-3.304687-.085938-.109376-.195313-.230469-.273438-.332032-.894531-1.152344-1.707031-2.234375-2.347656-3.257812l-.085938-.15625c-.628906-.964844-1.175781-1.886719-1.621094-2.738282l-.066406-.144531c-1.128906-1.871093-1.742187-4.011719-1.773437-6.195312.035156-.449219.164062-.882813.375-1.28125.058593-.117188.152343-.230469.21875-.347657.605469-.855468 1.386719-1.570312 2.289062-2.101562.066407-.042969.109375-.109375.171875-.152344 2.851563-1.59375 5.941406-2.726562 9.144532-3.363281zm-27.375-1.253906c-.5625 1.167969-1.011719 2.386719-1.339844 3.644531-.542969 2.296875-.699219 4.664062-.46875 7.015625 0 .195313 0 .382813.042968.578125.117188 1.132812.308594 2.253906.574219 3.363281.074219.304688.167969.621094.253907.929688.296874 1.160156.664062 2.296875 1.101562 3.414062.085938.222657.203125.453125.296875.679688.503906 1.195312.992187 2.382812 1.648437 3.613281-.792968-.285156-1.542968-.453125-2.320312-.683594-.914062-.265625-1.835938-.5625-2.714844-.761718-.878906-.195313-1.707031-.273438-2.558594-.390626-.855468-.121093-1.519531-.214843-2.253906-.257812-.820312-.042969-1.640625-.042969-2.457031 0-.675781 0-1.339844.070312-1.996094.144531-.800781.101563-1.597656.246094-2.382812.4375-.246094.058594-.519531.078125-.757813.144531-.496094.136719-1.023437.351563-1.535156.539063-.300781.109375-.632812.152344-.921875.273437-3.148437 1.34375-5.914063 3.453126-8.039063 6.132813-3.183593-1.75-6.347656-3.589844-9.539062-5.570313-14.808594-11.183593-26.679688-25.789062-34.605469-42.566406 12.699219-.554687 36.558594 1.726563 69.972657 19.320313zm0 0"/></svg>