<?xml version="1.0" encoding="UTF-8" standalone="no"?>
<!-- Generator: Adobe Illustrator 19.0.0, SVG Export Plug-In . SVG Version: 6.00 Build 0)  -->

<svg
   xmlns:dc="http://purl.org/dc/elements/1.1/"
   xmlns:cc="http://creativecommons.org/ns#"
   xmlns:rdf="http://www.w3.org/1999/02/22-rdf-syntax-ns#"
   xmlns:svg="http://www.w3.org/2000/svg"
   xmlns="http://www.w3.org/2000/svg"
   xmlns:sodipodi="http://sodipodi.sourceforge.net/DTD/sodipodi-0.dtd"
   xmlns:inkscape="http://www.inkscape.org/namespaces/inkscape"
   version="1.1"
   id="Layer_1"
   x="0px"
   y="0px"
   viewBox="0 0 512.00377 400.14754"
   xml:space="preserve"
   sodipodi:docname="miniature_active.svg"
   width="512.00378"
   height="400.14755"
   inkscape:version="0.92.3 (2405546, 2018-03-11)"><metadata
   id="metadata75"><rdf:RDF><cc:Work
       rdf:about=""><dc:format>image/svg+xml</dc:format><dc:type
         rdf:resource="http://purl.org/dc/dcmitype/StillImage" /></cc:Work></rdf:RDF></metadata><defs
   id="defs73" /><sodipodi:namedview
   pagecolor="#ffffff"
   bordercolor="#666666"
   borderopacity="1"
   objecttolerance="10"
   gridtolerance="10"
   guidetolerance="10"
   inkscape:pageopacity="0"
   inkscape:pageshadow="2"
   inkscape:window-width="3840"
   inkscape:window-height="2066"
   id="namedview71"
   showgrid="false"
   inkscape:zoom="0.46093569"
   inkscape:cx="1.0878888"
   inkscape:cy="200.07399"
   inkscape:window-x="-11"
   inkscape:window-y="-11"
   inkscape:window-maximized="1"
   inkscape:current-layer="Layer_1" />
<path
   style="fill:#f4b759"
   d="m 8.2381388,144.66556 5.4070002,33.007 c 7.45,45.488 38.866,83.418 82.17,99.21 l 42.052001,15.335 c 12.81,4.671 25.852,-6.332 23.405,-19.745 l -8.159,-44.725 c -4.692,-25.721 -23.054,-46.828 -47.877,-55.037 v 0 c -21.810001,-7.213 -41.753001,-19.166 -58.395001,-34.999 l -9.089,-8.647 c -12.232,-11.637 -32.2430002,-1.058 -29.5140002,15.601 z"
   id="path2"
   inkscape:connector-curvature="0" />
<path
   style="fill:#e8e8e8"
   d="m 46.839139,137.70956 -9.089,-8.647 c -12.231,-11.636 -32.2410002,-1.057 -29.5120002,15.602 l 5.4070002,33.007 c 0.862,5.268 2.061,10.43 3.548,15.472 20.333,-3.837 40.861,-13.578 55.537,-35.55 -9.274,-5.687 -17.96,-12.339 -25.891,-19.884 z"
   id="path4"
   inkscape:connector-curvature="0" />
<path
   style="opacity:0.05;enable-background:new"
   d="m 161.27114,272.47156 -7.289,-39.95 c -24.15,5.659 -43.56,23.589 -51.302,46.864 l 35.186,12.831 c 12.81,4.672 25.852,-6.331 23.405,-19.745 z"
   id="path6"
   inkscape:connector-curvature="0" />
<rect
   x="268.27914"
   y="314.70956"
   style="fill:#f4b759"
   width="40.441002"
   height="47.306"
   id="rect8" />
<path
   style="fill:#4a5058"
   d="m 311.89914,362.02356 h -43.622 v 19.489 c 0,5.882 4.769,10.651 10.651,10.651 h 46.83 c 4.495,0 8.14,-3.645 8.14,-8.14 v 0 c 0.002,-12.151 -9.848,-22 -21.999,-22 z"
   id="path10"
   inkscape:connector-curvature="0" />
<path
   style="opacity:0.15;enable-background:new"
   d="m 311.89914,362.02356 h -3.181 v -47.308 h -40.441 v 66.797 c 0,5.882 4.769,10.651 10.651,10.651 h 46.83 c 4.495,0 8.14,-3.645 8.14,-8.14 0.002,-12.151 -9.848,-22 -21.999,-22 z"
   id="path12"
   inkscape:connector-curvature="0" />
<path
   style="fill:#f4b759"
   d="m 186.70114,231.76856 c -39.357,0 -71.262,31.905 -71.262,71.261 v 58.993 h 40.441 v -31.054 h 48.509 v 31.054 h 40.441 v -31.054 h 19.928 c 39.799,0 72.062,-32.264 72.062,-72.062 v -27.138 z"
   id="path14"
   inkscape:connector-curvature="0" />
<path
   style="opacity:0.05;enable-background:new"
   d="m 192.06714,231.76856 c 25.184,41.543 74.72,73.809 116.488,84.349 17.179,-13.171 28.266,-33.891 28.266,-57.211 v -27.138 z"
   id="path16"
   inkscape:connector-curvature="0" />
<path
   style="fill:#4a5058"
   d="m 316.14814,81.34856 -114.931,54.863 -1.826,-15.86 c -3.733,-32.429 -3.013,-65.216 2.141,-97.45 v 0 c 1.958,-12.243 15.564,-18.7379997 26.314,-12.561 v 0 c 28.304,16.263 54.25,36.321 77.117,59.616 z"
   id="path18"
   inkscape:connector-curvature="0" />
<path
   style="fill:#edbcb9"
   d="m 286.91114,90.71356 c -14.215,-15.786 -30.118,-29.6 -47.267,-41.06 v 0 c -6.514,-4.352 -14.25,-0.659 -14.961,7.142 v 0 c -1.875,20.539 -1.134,41.592 2.202,62.571 l 0.678,4.269 62.24,-29.711 z"
   id="path20"
   inkscape:connector-curvature="0" />
<path
   style="fill:#4a5058"
   d="m 373.08014,81.34856 114.931,54.863 1.826,-15.86 c 3.732,-32.429 3.013,-65.216 -2.141,-97.45 v 0 c -1.958,-12.243 -15.564,-18.7379997 -26.314,-12.561 v 0 c -28.304,16.263 -54.25,36.321 -77.117,59.616 z"
   id="path22"
   inkscape:connector-curvature="0" />
<path
   style="fill:#edbcb9"
   d="m 402.31714,90.71356 c 14.215,-15.786 30.118,-29.6 47.267,-41.06 v 0 c 6.514,-4.352 14.25,-0.659 14.961,7.142 v 0 c 1.875,20.539 1.134,41.592 -2.202,62.571 l -0.679,4.269 -62.24,-29.711 z"
   id="path24"
   inkscape:connector-curvature="0" />
<path
   style="fill:#f4b759"
   d="m 344.61414,72.25056 c 89.432,0 171.618,43.503 157.925,108.77 -14.362,68.459 -103.113,123.676 -157.925,123.676 -54.812,0 -143.563,-55.217 -157.925,-123.676 -13.693,-65.269 68.493,-108.77 157.925,-108.77 z"
   id="path26"
   inkscape:connector-curvature="0" />
<path
   style="fill:#e8e8e8"
   d="m 344.61414,241.18156 c -48.445,0 -119.7,-17.187 -158.384,-62.609 0.142,0.813 0.287,1.627 0.46,2.446 14.362,68.459 103.113,123.676 157.925,123.676 54.812,0 143.563,-55.217 157.925,-123.676 0.172,-0.82 0.318,-1.634 0.46,-2.446 -38.686,45.422 -109.941,62.609 -158.386,62.609 z"
   id="path28"
   inkscape:connector-curvature="0" />
<g
   id="g36"
   transform="translate(0.00313881,-55.92744)">
	<path
   style="fill:#4a5058"
   d="m 371.113,283.634 -6.169,7.346 c -10.611,12.637 -30.056,12.637 -40.666,0 l -6.169,-7.346 c -3.179,-3.785 -0.488,-9.558 4.455,-9.558 h 44.092 c 4.944,0 7.634,5.773 4.457,9.558 z"
   id="path30"
   inkscape:connector-curvature="0" />
	<path
   style="fill:#4a5058"
   d="m 159.057,417.951 h -43.622 v 19.489 c 0,5.882 4.769,10.651 10.651,10.651 h 46.83 c 4.495,0 8.14,-3.645 8.14,-8.14 v 0 c 10e-4,-12.151 -9.849,-22 -21.999,-22 z"
   id="path32"
   inkscape:connector-curvature="0" />
	<path
   style="fill:#4a5058"
   d="m 248.007,417.951 h -43.622 v 19.489 c 0,5.882 4.769,10.651 10.651,10.651 h 46.83 c 4.495,0 8.14,-3.645 8.14,-8.14 v 0 c 0.001,-12.151 -9.849,-22 -21.999,-22 z"
   id="path34"
   inkscape:connector-curvature="0" />
</g>
<path
   d="m 497.49814,123.61256 0.27,-2.348 c 3.816,-33.152 3.08,-66.67 -2.189,-99.625 -1.334,-8.34 -6.681,-15.4939997 -14.305,-19.1319997 -7.624,-3.638 -16.549,-3.30000002 -23.871,0.909 -28.937,16.6259997 -55.461,37.1319997 -78.836,60.9449997 l -1.726,1.756 c -10.566,-1.22 -21.354,-1.854 -32.229,-1.854 -10.874,0 -21.661,0.634 -32.228,1.854 l -1.724,-1.756 c -23.379,-23.816 -49.905,-44.321 -78.839,-60.9449997 -7.324,-4.20800002 -16.248,-4.55 -23.872,-0.909 -7.623,3.638 -12.971,10.7909997 -14.304,19.1319997 -5.267,32.952 -6.005,66.47 -2.19,99.625 l 0.27,2.348 c -12.812,17.713 -17.264,38.025 -12.854,59.044 2.926,13.949 8.804,27.805 17.292,41.127 h -9.467 c -8.895,0 -17.442,1.495 -25.43,4.209 l -0.307,-1.68 c -5.218,-28.609 -25.614,-52.054 -53.223,-61.185 -20.557001,-6.799 -39.714001,-18.281 -55.399001,-33.204 l -9.089,-8.647 c -8.1,-7.705 -19.72,-9.306 -29.601,-4.083 -9.8830002,5.225 -15.1010002,15.729 -13.29300019,26.76 l 5.40699999,33.007 c 7.9060002,48.269 41.3630002,88.664 87.3130002,105.42 l 15.462001,5.639 c -0.703,4.236 -1.087,8.578 -1.087,13.01 v 78.482 c 0,10.275 8.361,18.635 18.635,18.635 h 46.83 c 8.89,0 16.123,-7.233 16.123,-16.123 0,-14.899 -10.923,-27.288 -25.18,-29.595 v -15.476 h 32.545 v 42.56 c 0,10.275 8.361,18.635 18.635,18.635 h 46.83 c 2.991,0 5.784,-0.833 8.188,-2.259 2.679,1.452 5.714,2.259 8.871,2.259 h 46.83 c 8.891,0 16.123,-7.233 16.123,-16.124 0,-14.898 -10.923,-27.287 -25.18,-29.594 v -34.585 c 3.182,-2.729 6.174,-5.725 8.944,-8.979 6.618,1.187 12.986,1.815 18.967,1.815 28.899,0 66.764,-14.44 98.818,-37.686 36.166,-26.228 59.931,-59.019 66.919,-92.334 4.415,-21.022 -0.037,-41.333 -12.849,-59.048 z m -32.14,-106.35 c 2.816,-1.617 6.109,-1.743 9.038,-0.344 2.929,1.398 4.902,4.038 5.415,7.243 4.423,27.665 5.503,55.744 3.234,83.637 -13.258,-11.773 -30.69,-21.702 -51.296,-29.116 -11.138,-4.008 -22.988,-7.203 -35.29,-9.564 20.735,-20.048 43.87,-37.474 68.899,-51.856 z m -255.941,6.899 c 0.511,-3.205 2.486,-5.844 5.414,-7.243 2.929,-1.398 6.224,-1.272 9.039,0.344 25.028,14.381 48.163,31.807 68.9,51.856 -12.302,2.361 -24.153,5.557 -35.291,9.564 -20.605,7.413 -38.038,17.343 -51.296,29.116 -2.269,-27.894 -1.189,-55.973 3.234,-83.637 z m -96.653,250.404 -14.214001,-5.184 c -40.537,-14.783 -70.052,-50.418 -77.026,-92.999 l -5.407,-33.007 c -1.038,-6.337 3.564,-9.305 4.999,-10.064 1.438,-0.758 6.483,-2.889 11.131,1.535 l 9.089,8.647 c 17.383,16.538 38.611,29.262 61.393001,36.796 22.063,7.296 38.358,26.029 42.529,48.891 l 1.042,5.713 c -15.184,9.038 -27.096,23.001 -33.536,39.672 z m 60.312,109.458 c 0,0.086 -0.07,0.155 -0.155,0.155 h -46.83 c -1.471,0 -2.668,-1.197 -2.668,-2.668 v -11.506 h 35.638 c 7.728,10e-4 14.015,6.29 14.015,14.019 z m 88.794,0.156 h -46.83 c -1.471,0 -2.668,-1.197 -2.668,-2.668 v -11.506 h 35.638 c 7.729,0 14.016,6.288 14.016,14.017 0,0.087 -0.07,0.157 -0.156,0.157 z m -9.057,-29.75 v -15.477 h 7.48 v 17.73 c -2.349,-1.061 -4.856,-1.83 -7.48,-2.253 z m 11.945,-31.444 h -19.928 c -4.41,0 -7.984,3.573 -7.984,7.984 v 23.071 h -24.474 v -23.071 c 0,-4.41 -3.574,-7.984 -7.984,-7.984 h -48.508 c -4.41,0 -7.984,3.573 -7.984,7.984 v 23.071 h -24.473 v -51.008 c 0,-34.891 28.387,-63.278 63.278,-63.278 h 21.101 c 10.37,12.575 23.133,24.463 37.993,35.24 19.594,14.21 41.357,25.12 61.917,31.462 -11.671,10.606 -26.782,16.529 -42.954,16.529 z m 35.978,7.505 v 23.549 h -24.474 v -15.9 c 8.607,-1.225 16.851,-3.815 24.474,-7.649 z m 25.179,53.532 c 0,0.086 -0.069,0.156 -0.155,0.156 h -46.83 c -0.345,0 -0.656,-0.068 -0.936,-0.175 -0.002,-3.511 -0.615,-6.88 -1.731,-10.014 v -3.984 h 35.638 c 7.727,0 14.014,6.288 14.014,14.017 z m 168.81,-204.643 c -6.085,29 -28.196,59.139 -60.668,82.687 -29.467,21.371 -63.74,34.646 -89.443,34.646 -25.703,0 -59.977,-13.275 -89.443,-34.646 -32.471,-23.548 -54.583,-53.687 -60.668,-82.687 -3.77,-17.973 0.475,-34.669 12.62,-49.626 24.426,-30.083 78.394,-49.52 137.491,-49.52 59.097,0 113.065,19.438 137.491,49.52 12.145,14.957 16.39,31.653 12.62,49.626 z m -123.664,60.807 6.169,-7.346 v -0.001 c 3.487,-4.154 4.231,-9.788 1.938,-14.705 -2.291,-4.916 -7.084,-7.97 -12.509,-7.97 h -44.091 c -5.425,0 -10.218,3.054 -12.509,7.97 -2.292,4.917 -1.549,10.551 1.938,14.706 l 6.169,7.346 c 4.829,5.75 11.31,9.691 18.46,11.386 v 10.196 c 0,3.218 -2.618,5.836 -5.836,5.836 -3.217,0 -5.834,-2.618 -5.834,-5.836 0,-4.41 -3.574,-7.984 -7.984,-7.984 -4.41,0 -7.984,3.574 -7.984,7.984 0,12.022 9.781,21.803 21.802,21.803 5.241,0 10.055,-1.859 13.819,-4.951 3.764,3.092 8.58,4.951 13.819,4.951 12.022,0 21.803,-9.782 21.803,-21.803 0,-4.41 -3.573,-7.984 -7.984,-7.984 -4.41,0 -7.984,3.574 -7.984,7.984 0,3.218 -2.618,5.836 -5.836,5.836 -3.218,0 -5.836,-2.618 -5.836,-5.836 v -10.195 c 7.157,-1.693 13.641,-5.634 18.47,-11.387 z m -26.447,-3.64 c -5.499,0 -10.681,-2.416 -14.217,-6.629 l -3.181,-3.787 h 34.798 l -3.181,3.787 c -3.537,4.213 -8.719,6.629 -14.219,6.629 z m 68.826,-62.996 c -4.41,0 -7.984,3.574 -7.984,7.984 v 11.889 c 0,4.41 3.573,7.984 7.984,7.984 4.41,0 7.984,-3.574 7.984,-7.984 v -11.889 c 0,-4.411 -3.574,-7.984 -7.984,-7.984 z m -137.657,0 c -4.41,0 -7.984,3.574 -7.984,7.984 v 11.889 c 0,4.41 3.574,7.984 7.984,7.984 4.41,0 7.984,-3.574 7.984,-7.984 v -11.889 c 0,-4.411 -3.575,-7.984 -7.984,-7.984 z"
   id="path38"
   inkscape:connector-curvature="0" />
<g
   id="g40"
   transform="translate(0.00313881,-55.92744)">
</g>
<g
   id="g42"
   transform="translate(0.00313881,-55.92744)">
</g>
<g
   id="g44"
   transform="translate(0.00313881,-55.92744)">
</g>
<g
   id="g46"
   transform="translate(0.00313881,-55.92744)">
</g>
<g
   id="g48"
   transform="translate(0.00313881,-55.92744)">
</g>
<g
   id="g50"
   transform="translate(0.00313881,-55.92744)">
</g>
<g
   id="g52"
   transform="translate(0.00313881,-55.92744)">
</g>
<g
   id="g54"
   transform="translate(0.00313881,-55.92744)">
</g>
<g
   id="g56"
   transform="translate(0.00313881,-55.92744)">
</g>
<g
   id="g58"
   transform="translate(0.00313881,-55.92744)">
</g>
<g
   id="g60"
   transform="translate(0.00313881,-55.92744)">
</g>
<g
   id="g62"
   transform="translate(0.00313881,-55.92744)">
</g>
<g
   id="g64"
   transform="translate(0.00313881,-55.92744)">
</g>
<g
   id="g66"
   transform="translate(0.00313881,-55.92744)">
</g>
<g
   id="g68"
   transform="translate(0.00313881,-55.92744)">
</g>
</svg>