<?xml version="1.0" encoding="iso-8859-1"?>
<!-- Generator: Adobe Illustrator 19.0.0, SVG Export Plug-In . SVG Version: 6.00 Build 0)  -->
<svg version="1.1" id="Capa_1" xmlns="http://www.w3.org/2000/svg" xmlns:xlink="http://www.w3.org/1999/xlink" x="0px" y="0px"
	 viewBox="0 0 464.049 464.049" style="enable-background:new 0 0 464.049 464.049;" xml:space="preserve">
<g>
	<path style="fill:#FEC9A3;" d="M156.024,88.049h40v32h-40V88.049z"/>
	<path style="fill:#FEC9A3;" d="M312.024,0.049L312.024,0.049c15.464,0,28,12.536,28,28v24c0,15.464-12.536,28-28,28l0,0
		c-15.464,0-28-12.536-28-28v-24C284.024,12.585,296.56,0.049,312.024,0.049z"/>
</g>
<path style="fill:#A15D30;" d="M340.024,48.049v-20C340.087,12.62,327.63,0.063,312.201,0
	c-13.969-0.056-25.833,10.215-27.777,24.049h31.6L340.024,48.049z"/>
<path style="fill:#FEC9A3;" d="M300.024,64.049h32v32h-32V64.049z"/>
<path style="fill:#65686B;" d="M276.024,120.049v144h80V121.497c0-18.473-14.975-33.448-33.448-33.448h-14.552
	C290.351,88.049,276.024,102.376,276.024,120.049z"/>
<path style="fill:#FEC9A3;" d="M184.024,32.049L184.024,32.049c15.464,0,28,12.536,28,28v24c0,15.464-12.536,28-28,28l0,0
	c-15.464,0-28-12.536-28-28v-24C156.024,44.585,168.56,32.049,184.024,32.049z"/>
<path style="fill:#FFDDA6;" d="M220.024,208.049h-72v-72c0-13.255,10.745-24,24-24h24l21.928,18.272
	c13.15,10.963,14.923,30.511,3.959,43.661c-0.598,0.717-1.227,1.406-1.887,2.067V208.049z"/>
<path style="fill:#FFF3C9;" d="M148.024,208.049c-31.238,31.236-52.064,71.358-59.632,114.88l-14.552,83.68
	c-3.784,21.761-14.197,41.822-29.816,57.44h176v-256H148.024z"/>
<path style="fill:#FEC9A3;" d="M172.024,112.049h8l40,88l20.888-76.584c1.839-6.738,7.959-11.414,14.944-11.416
	c8.554-0.003,15.49,6.929,15.493,15.483c0,1.352-0.176,2.699-0.525,4.005l-19.944,74.808c-4.039,15.159-17.768,25.707-33.456,25.704
	c-13.125,0.013-25.129-7.397-31-19.136l-38.4-76.864C148.024,122.794,158.77,112.049,172.024,112.049z"/>
<path style="fill:#787D82;" d="M266.584,112.049c5.784,0.004,11.071,3.269,13.664,8.44l35.776,71.56v-84c0-11.046,8.954-20,20-20
	s20,8.954,20,20v85.84c-0.004,21.073-17.087,38.156-38.16,38.16c-15.61,0.002-29.648-9.504-35.44-24l-30.032-75.064
	c-3.128-7.833,0.686-16.719,8.519-19.847C262.716,112.417,264.641,112.048,266.584,112.049L266.584,112.049z"/>
<g>
	<path style="fill:#484A4D;" d="M316.024,464.049h-56l16-16v-184h40V464.049z"/>
	<path style="fill:#484A4D;" d="M356.024,264.049v88l64,56l-40,48v-32l-64-56v-104H356.024z"/>
</g>
<g>
	<path style="fill:#FFDDA6;" d="M84.024,336.049c-4.418,0.001-8.001-3.579-8.002-7.998c-0.001-3.164,1.863-6.031,4.754-7.314
		c46.998-20.875,90.578-48.719,129.272-82.592l4.704-4.112c3.479-2.723,8.507-2.111,11.231,1.368
		c2.507,3.203,2.212,7.778-0.687,10.632l-4.704,4.12c-39.904,34.944-84.849,63.669-133.32,85.208
		C86.25,335.817,85.143,336.051,84.024,336.049L84.024,336.049z"/>
	<path style="fill:#FFDDA6;" d="M68.024,432.049c-4.418-0.01-7.992-3.6-7.982-8.018c0.008-3.43,2.202-6.474,5.454-7.566
		c60.035-20.006,110.73-61.191,142.608-115.856l5.008-8.592c2.366-3.731,7.309-4.839,11.04-2.473
		c3.529,2.237,4.741,6.813,2.784,10.505l-5.016,8.592c-33.831,58.025-87.642,101.737-151.368,122.96
		C69.739,431.885,68.886,432.037,68.024,432.049z"/>
</g>
<path style="fill:#A15D30;" d="M184.024,32.049c-15.464,0-28,12.536-28,28v16l45.368-37.808
	C196.479,34.257,190.35,32.072,184.024,32.049z"/>
<path style="fill:#FFF3C9;" d="M76.024,208.049h72l24-176h-11.336c-21.646-0.002-40.615,14.485-46.312,35.368L76.024,208.049z"/>
<g>
</g>
<g>
</g>
<g>
</g>
<g>
</g>
<g>
</g>
<g>
</g>
<g>
</g>
<g>
</g>
<g>
</g>
<g>
</g>
<g>
</g>
<g>
</g>
<g>
</g>
<g>
</g>
<g>
</g>
</svg>
