<?xml version="1.0" encoding="UTF-8" standalone="no"?>
<!-- Generator: Adobe Illustrator 19.0.0, SVG Export Plug-In . SVG Version: 6.00 Build 0)  -->

<svg
   xmlns:dc="http://purl.org/dc/elements/1.1/"
   xmlns:cc="http://creativecommons.org/ns#"
   xmlns:rdf="http://www.w3.org/1999/02/22-rdf-syntax-ns#"
   xmlns:svg="http://www.w3.org/2000/svg"
   xmlns="http://www.w3.org/2000/svg"
   xmlns:sodipodi="http://sodipodi.sourceforge.net/DTD/sodipodi-0.dtd"
   xmlns:inkscape="http://www.inkscape.org/namespaces/inkscape"
   version="1.1"
   id="Layer_1"
   x="0px"
   y="0px"
   viewBox="0 0 512.00261 400.14754"
   xml:space="preserve"
   sodipodi:docname="miniature.svg"
   width="512.00262"
   height="400.14755"
   inkscape:version="0.92.3 (2405546, 2018-03-11)"><metadata
   id="metadata49"><rdf:RDF><cc:Work
       rdf:about=""><dc:format>image/svg+xml</dc:format><dc:type
         rdf:resource="http://purl.org/dc/dcmitype/StillImage" /></cc:Work></rdf:RDF></metadata><defs
   id="defs47" /><sodipodi:namedview
   pagecolor="#ffffff"
   bordercolor="#666666"
   borderopacity="1"
   objecttolerance="10"
   gridtolerance="10"
   guidetolerance="10"
   inkscape:pageopacity="0"
   inkscape:pageshadow="2"
   inkscape:window-width="3840"
   inkscape:window-height="2066"
   id="namedview45"
   showgrid="false"
   inkscape:zoom="0.46093569"
   inkscape:cx="1.0858888"
   inkscape:cy="200.07399"
   inkscape:window-x="-11"
   inkscape:window-y="-11"
   inkscape:window-maximized="1"
   inkscape:current-layer="Layer_1" />
<g
   id="g12"
   transform="translate(0.00113881,-55.92744)">
	<g
   id="g10">
		<g
   id="g8">
			<path
   d="m 413.437,229.478 c -4.41,0 -7.984,3.573 -7.984,7.984 v 11.889 c 0,4.41 3.573,7.984 7.984,7.984 4.411,0 7.984,-3.574 7.984,-7.984 v -11.889 c 0,-4.411 -3.574,-7.984 -7.984,-7.984 z"
   id="path2"
   inkscape:connector-curvature="0" />
			<path
   d="m 275.78,229.478 c -4.41,0 -7.984,3.573 -7.984,7.984 v 11.889 c 0,4.41 3.573,7.984 7.984,7.984 4.411,0 7.984,-3.574 7.984,-7.984 v -11.889 c 0,-4.411 -3.575,-7.984 -7.984,-7.984 z"
   id="path4"
   inkscape:connector-curvature="0" />
			<path
   d="m 497.495,179.54 0.27,-2.348 c 3.816,-33.152 3.08,-66.67 -2.189,-99.625 -1.334,-8.34 -6.681,-15.494 -14.305,-19.132 -7.624,-3.638 -16.549,-3.3 -23.871,0.909 -28.937,16.626 -55.461,37.132 -78.836,60.945 l -1.726,1.756 c -10.566,-1.22 -21.354,-1.854 -32.229,-1.854 -10.874,0 -21.661,0.634 -32.227,1.854 l -1.724,-1.756 C 287.278,96.473 260.753,75.968 231.82,59.344 c -7.324,-4.208 -16.248,-4.55 -23.872,-0.909 -7.623,3.638 -12.971,10.791 -14.304,19.132 -5.267,32.952 -6.005,66.47 -2.19,99.625 l 0.27,2.348 c -12.812,17.713 -17.264,38.025 -12.854,59.044 2.926,13.949 8.804,27.805 17.292,41.127 h -9.467 c -8.895,0 -17.442,1.495 -25.43,4.209 l -0.307,-1.68 C 155.74,253.631 135.344,230.186 107.735,221.055 87.178,214.256 68.021,202.774 52.336,187.851 l -9.089,-8.647 c -8.1,-7.705 -19.72,-9.306 -29.601,-4.083 -9.883,5.225 -15.101,15.729 -13.293,26.76 l 5.407,33.007 c 7.906,48.269 41.363,88.664 87.313,105.42 l 15.462,5.639 c -0.703,4.236 -1.087,8.578 -1.087,13.01 v 78.482 c 0,10.274 8.361,18.635 18.635,18.635 h 46.83 c 8.89,0 16.123,-7.233 16.123,-16.123 0,-14.899 -10.923,-27.288 -25.18,-29.595 V 394.88 h 32.545 v 42.56 c 0,10.274 8.361,18.635 18.635,18.635 h 46.83 c 2.991,0 5.784,-0.833 8.188,-2.259 2.679,1.452 5.714,2.259 8.871,2.259 h 46.83 c 8.891,0 16.123,-7.233 16.123,-16.124 0,-14.898 -10.923,-27.287 -25.18,-29.594 v -34.585 c 3.182,-2.729 6.174,-5.725 8.944,-8.979 6.618,1.187 12.986,1.815 18.967,1.815 28.899,0 66.764,-14.44 98.818,-37.686 36.166,-26.228 59.931,-59.019 66.919,-92.334 4.413,-21.022 -0.039,-41.333 -12.851,-59.048 z M 465.355,73.19 c 2.816,-1.617 6.109,-1.743 9.038,-0.344 2.93,1.398 4.902,4.038 5.415,7.243 4.423,27.665 5.503,55.744 3.234,83.637 -3.203,-2.844 -6.654,-5.578 -10.332,-8.198 1.151,-14.621 1.087,-29.243 -0.217,-43.531 -0.593,-6.497 -4.263,-11.956 -9.817,-14.608 -5.557,-2.652 -12.11,-2.069 -17.532,1.553 -12.552,8.387 -24.559,18.12 -35.761,28.943 -4.245,-1.051 -8.556,-2 -12.928,-2.839 20.736,-20.048 43.871,-37.474 68.9,-51.856 z m -8.048,72.784 c -7.837,-4.244 -16.375,-8.058 -25.561,-11.363 -1.483,-0.534 -2.984,-1.049 -4.491,-1.554 8.532,-7.654 17.49,-14.642 26.762,-20.837 0.693,-0.464 1.359,-0.62 1.78,-0.42 0.423,0.201 0.72,0.82 0.795,1.651 0.977,10.688 1.206,21.582 0.715,32.523 z M 209.414,80.089 c 0.511,-3.205 2.486,-5.844 5.414,-7.243 2.93,-1.398 6.224,-1.272 9.039,0.344 25.028,14.381 48.163,31.807 68.9,51.856 -4.373,0.839 -8.684,1.788 -12.929,2.839 -11.203,-10.824 -23.209,-20.556 -35.762,-28.944 -5.426,-3.624 -11.979,-4.202 -17.531,-1.552 -5.555,2.652 -9.224,8.113 -9.817,14.609 -1.304,14.294 -1.367,28.914 -0.217,43.529 -3.677,2.62 -7.129,5.353 -10.332,8.198 -2.268,-27.893 -1.188,-55.972 3.235,-83.636 z m 52.553,52.968 c -1.508,0.506 -3.008,1.02 -4.491,1.554 -9.184,3.304 -17.723,7.119 -25.56,11.362 -0.491,-10.937 -0.261,-21.832 0.713,-32.525 0.076,-0.831 0.374,-1.448 0.794,-1.649 0.419,-0.203 1.087,-0.046 1.782,0.42 9.271,6.195 18.228,13.183 26.762,20.838 z M 21.52,232.309 16.113,199.302 c -1.038,-6.337 3.564,-9.305 4.999,-10.064 1.438,-0.758 6.483,-2.889 11.131,1.535 l 9.089,8.647 c 6.189,5.888 12.873,11.283 19.934,16.141 -9.786,11.837 -22.426,19.747 -38.315,24.005 -0.547,-2.394 -1.03,-4.812 -1.431,-7.257 z m 91.241,98.184 -14.214,-5.184 C 65.416,313.227 39.654,287.212 27.538,254.862 c 19.558,-5.363 35.44,-15.708 47.39,-30.843 8.878,4.916 18.198,9.024 27.798,12.199 22.063,7.296 38.358,26.029 42.529,48.891 l 1.042,5.713 c -15.184,9.037 -27.096,23 -33.536,39.671 z m 60.312,109.458 c 0,0.086 -0.07,0.155 -0.155,0.155 h -46.83 c -1.471,0 -2.668,-1.196 -2.668,-2.668 v -11.506 h 35.638 c 7.728,10e-4 14.015,6.29 14.015,14.019 z m 88.794,0.156 h -46.83 c -1.471,0 -2.668,-1.196 -2.668,-2.668 v -11.506 h 35.638 c 7.729,0 14.016,6.288 14.016,14.017 0,0.087 -0.07,0.157 -0.156,0.157 z m -9.057,-29.75 V 394.88 h 7.48 v 17.73 c -2.349,-1.061 -4.856,-1.83 -7.48,-2.253 z m 11.945,-31.444 h -19.928 c -4.41,0 -7.984,3.573 -7.984,7.984 v 23.071 h -24.474 v -23.071 c 0,-4.41 -3.573,-7.984 -7.984,-7.984 h -48.508 c -4.41,0 -7.984,3.573 -7.984,7.984 v 23.071 H 123.42 V 358.96 c 0,-34.891 28.387,-63.278 63.278,-63.278 H 207.8 c 10.37,12.575 23.133,24.463 37.993,35.24 19.594,14.21 41.357,25.12 61.917,31.462 -11.672,10.606 -26.783,16.529 -42.955,16.529 z m 11.504,15.154 c 8.608,-1.224 16.851,-3.815 24.474,-7.648 v 23.549 h -24.474 z m 49.653,45.883 c 0,0.086 -0.069,0.156 -0.155,0.156 h -46.83 c -0.345,0 -0.656,-0.068 -0.936,-0.175 -0.002,-3.511 -0.615,-6.88 -1.731,-10.014 v -3.984 h 35.638 c 7.727,0 14.014,6.288 14.014,14.017 z M 434.054,317.994 c -29.467,21.371 -63.74,34.646 -89.443,34.646 -25.703,0 -59.977,-13.275 -89.443,-34.646 -22.469,-16.294 -39.973,-35.746 -50.644,-55.79 36.591,27.046 85.339,39.639 124.089,42.309 2.529,1.323 5.219,2.326 8.011,2.987 v 10.196 c 0,3.218 -2.618,5.836 -5.836,5.836 -3.218,0 -5.836,-2.618 -5.836,-5.836 0,-4.41 -3.574,-7.984 -7.984,-7.984 -4.41,0 -7.984,3.573 -7.984,7.984 0,12.022 9.782,21.803 21.803,21.803 5.241,0 10.055,-1.859 13.819,-4.951 3.764,3.092 8.58,4.951 13.819,4.951 12.022,0 21.803,-9.782 21.803,-21.803 0,-4.41 -3.573,-7.984 -7.984,-7.984 -4.411,0 -7.984,3.573 -7.984,7.984 0,3.218 -2.618,5.836 -5.836,5.836 -3.218,0 -5.836,-2.618 -5.836,-5.836 v -10.195 c 2.795,-0.662 5.487,-1.665 8.019,-2.989 38.749,-2.672 87.496,-15.264 124.087,-42.309 -10.667,20.046 -28.171,39.497 -50.64,55.791 z M 327.212,282.059 h 34.798 l -3.181,3.787 c -3.536,4.212 -8.719,6.629 -14.218,6.629 -5.5,0 -10.682,-2.416 -14.217,-6.629 z m 168.249,-51.096 c -28.83,32.594 -75.866,49.5 -116.679,55.526 2.093,-3.805 2.28,-8.361 0.384,-12.428 -2.291,-4.916 -7.084,-7.97 -12.509,-7.97 h -44.092 c -5.425,0 -10.218,3.054 -12.509,7.97 -1.896,4.067 -1.71,8.622 0.383,12.428 -40.813,-6.026 -87.852,-22.932 -116.68,-55.528 -2.271,-16.322 2.2,-31.538 13.36,-45.28 24.426,-30.083 78.393,-49.52 137.491,-49.52 59.097,0 113.065,19.438 137.491,49.52 11.161,13.744 15.631,28.96 13.36,45.282 z"
   id="path6"
   inkscape:connector-curvature="0" />
		</g>
	</g>
</g>
<g
   id="g14"
   transform="translate(0.00113881,-55.92744)">
</g>
<g
   id="g16"
   transform="translate(0.00113881,-55.92744)">
</g>
<g
   id="g18"
   transform="translate(0.00113881,-55.92744)">
</g>
<g
   id="g20"
   transform="translate(0.00113881,-55.92744)">
</g>
<g
   id="g22"
   transform="translate(0.00113881,-55.92744)">
</g>
<g
   id="g24"
   transform="translate(0.00113881,-55.92744)">
</g>
<g
   id="g26"
   transform="translate(0.00113881,-55.92744)">
</g>
<g
   id="g28"
   transform="translate(0.00113881,-55.92744)">
</g>
<g
   id="g30"
   transform="translate(0.00113881,-55.92744)">
</g>
<g
   id="g32"
   transform="translate(0.00113881,-55.92744)">
</g>
<g
   id="g34"
   transform="translate(0.00113881,-55.92744)">
</g>
<g
   id="g36"
   transform="translate(0.00113881,-55.92744)">
</g>
<g
   id="g38"
   transform="translate(0.00113881,-55.92744)">
</g>
<g
   id="g40"
   transform="translate(0.00113881,-55.92744)">
</g>
<g
   id="g42"
   transform="translate(0.00113881,-55.92744)">
</g>
</svg>