<?xml version="1.0" encoding="UTF-8" standalone="no"?>
<!-- Created with Inkscape (http://www.inkscape.org/) -->

<svg
   xmlns:dc="http://purl.org/dc/elements/1.1/"
   xmlns:cc="http://creativecommons.org/ns#"
   xmlns:rdf="http://www.w3.org/1999/02/22-rdf-syntax-ns#"
   xmlns:svg="http://www.w3.org/2000/svg"
   xmlns="http://www.w3.org/2000/svg"
   xmlns:sodipodi="http://sodipodi.sourceforge.net/DTD/sodipodi-0.dtd"
   xmlns:inkscape="http://www.inkscape.org/namespaces/inkscape"
   width="135.46666mm"
   height="90.047234mm"
   viewBox="0 0 135.46666 90.047234"
   version="1.1"
   id="svg1043"
   inkscape:version="0.92.3 (2405546, 2018-03-11)"
   sodipodi:docname="cake_layers_2.svg">
  <defs
     id="defs1037" />
  <sodipodi:namedview
     id="base"
     pagecolor="#ffffff"
     bordercolor="#666666"
     borderopacity="1.0"
     inkscape:pageopacity="0.0"
     inkscape:pageshadow="2"
     inkscape:zoom="1.4"
     inkscape:cx="-157.28235"
     inkscape:cy="-76.491796"
     inkscape:document-units="mm"
     inkscape:current-layer="g1035"
     showgrid="false"
     inkscape:window-width="3840"
     inkscape:window-height="2066"
     inkscape:window-x="-11"
     inkscape:window-y="-11"
     inkscape:window-maximized="1" />
  <metadata
     id="metadata1040">
    <rdf:RDF>
      <cc:Work
         rdf:about="">
        <dc:format>image/svg+xml</dc:format>
        <dc:type
           rdf:resource="http://purl.org/dc/dcmitype/StillImage" />
        <dc:title></dc:title>
      </cc:Work>
    </rdf:RDF>
  </metadata>
  <g
     inkscape:label="Layer 1"
     inkscape:groupmode="layer"
     id="layer1"
     transform="translate(-41.123811,-124.75446)">
    <g
       id="g1035"
       transform="matrix(0.26458333,0,0,0.26458333,41.123811,79.58823)">
      <path
         id="path923"
         d="M 457.043,502.624 H 54.957 c -25.702,0 -46.539,-20.836 -46.539,-46.539 v 0 h 495.163 v 0 c 0,25.704 -20.836,46.539 -46.538,46.539 z"
         style="fill:#d9d9db"
         inkscape:connector-curvature="0" />
      <path
         id="path925"
         d="M 40.97,456.087 H 8.419 c 0,25.702 20.836,46.539 46.539,46.539 H 87.51 C 61.806,502.624 40.97,481.789 40.97,456.087 Z"
         style="fill:#e1e1e3"
         inkscape:connector-curvature="0" />
      <g
         id="g931">
        <path
           id="path927"
           d="m 451.948,456.087 c 0,25.702 -20.836,46.539 -46.539,46.539 h 51.633 c 25.702,0 46.539,-20.836 46.539,-46.539 z"
           style="fill:#c8c6cd"
           inkscape:connector-curvature="0" />
        <path
           id="path929"
           d="m 391.863,456.087 c 0,25.702 -13.396,46.539 -29.918,46.539 h 33.194 c 16.524,0 29.918,-20.836 29.918,-46.539 z"
           style="fill:#c8c6cd"
           inkscape:connector-curvature="0" />
      </g>
      <g
         id="g941">
        <path
           id="path937"
           d="M 435.202,317.605 H 76.797 c -17.433,0 -31.565,14.132 -31.565,31.565 V 456.085 H 466.767 V 349.17 c 0,-17.432 -14.132,-31.565 -31.565,-31.565 z"
           style="fill:#e2d3a6;fill-opacity:0.80392157"
           inkscape:connector-curvature="0" />
        <path
           id="path939"
           d="M 387.543,179.126 H 125.368 c -15.115,0 -27.369,12.254 -27.369,27.369 V 317.606 H 414.912 V 206.495 c 0,-15.115 -12.254,-27.369 -27.369,-27.369 z"
           style="fill:#e2d3a6;fill-opacity:0.80392157"
           inkscape:connector-curvature="0" />
      </g>
      <g
         id="g947">
        <path
           id="path943"
           d="m 435.202,317.605 h -27.697 c 17.433,0 31.565,14.132 31.565,31.565 v 106.915 h 27.697 V 349.17 c 0,-17.432 -14.132,-31.565 -31.565,-31.565 z"
           style="fill:#d9c28b;fill-opacity:1"
           inkscape:connector-curvature="0" />
        <path
           id="path945"
           d="m 387.543,179.126 h -27.688 c 15.115,0 27.87,12.16 27.87,27.275 v 111.111 l 27.186,0.094 V 206.495 c 10e-4,-15.115 -12.253,-27.369 -27.368,-27.369 z"
           style="fill:#d9c28b;fill-opacity:1"
           inkscape:connector-curvature="0" />
      </g>
      <path
         id="path949"
         d="M 387.543,179.126 H 125.368 c -15.115,0 -27.369,12.254 -27.369,27.369 v 35.511 h 0.465 c 17.596,-0.413 17.324,-22.426 34.088,-22.52 16.822,-0.094 23.121,26.167 40.341,26.215 17.33,0.048 23.977,-26.512 41.967,-26.665 17.551,-0.15 24.124,25.02 42.249,25.004 17.962,-0.016 25.398,-24.747 41.979,-24.262 16.249,0.475 20.25,24.557 36.506,25.036 16.697,0.491 24.73,-24.566 41.979,-24.262 16.971,0.299 20.341,25.922 36.875,26.171 l 0.465,-0.031 v -40.196 c -0.001,-15.116 -12.255,-27.37 -27.37,-27.37 z"
         style="fill:#e0bab9;fill-opacity:1"
         inkscape:connector-curvature="0" />
      <path
         id="path951"
         d="m 387.543,179.126 h -27.688 c 15.115,0 27.87,12.16 27.87,27.275 v 17.986 c 9.159,7.222 14.12,22.145 26.721,22.335 l 0.465,-0.031 v -40.196 c 10e-4,-15.115 -12.253,-27.369 -27.368,-27.369 z"
         style="fill:#c9a7a6;fill-opacity:1"
         inkscape:connector-curvature="0" />
      <path
         id="path953"
         d="M 435.193,317.605 H 76.788 c -17.433,0 -31.565,14.132 -31.565,31.565 v 32.93 c 17.127,-0.787 17.019,-22.398 33.634,-22.491 16.822,-0.094 23.122,26.167 40.341,26.215 17.33,0.048 23.977,-26.512 41.967,-26.665 17.551,-0.15 24.124,25.02 42.249,25.004 17.962,-0.016 25.398,-24.747 41.979,-24.262 16.249,0.475 20.25,24.557 36.506,25.036 16.697,0.491 24.73,-24.566 41.979,-24.262 16.971,0.299 20.994,23.24 37.526,23.489 17.962,-0.016 25.398,-24.747 41.979,-24.262 16.249,0.475 20.25,24.557 36.506,25.035 10.819,0.318 18.001,-10.091 26.409,-17.376 l 0.457,-0.237 v -18.153 c 0.003,-17.433 -14.129,-31.566 -31.562,-31.566 z"
         style="fill:#e0bab9;fill-opacity:1"
         inkscape:connector-curvature="0" />
      <path
         id="path955"
         d="m 435.202,317.605 h -27.697 c 17.433,0 31.565,14.132 31.565,31.565 v 35.715 c 0.274,0.022 0.549,0.044 0.831,0.052 10.819,0.318 18.001,-10.091 26.409,-17.376 l 0.457,-0.237 v -18.153 c 0,-17.433 -14.132,-31.566 -31.565,-31.566 z"
         style="fill:#c9a7a6;fill-opacity:1"
         inkscape:connector-curvature="0" />
      <path
         id="path957"
         d="M 503.581,447.667 H 475.185 V 349.17 c 0,-22.047 -17.936,-39.983 -39.983,-39.983 H 422.875 V 206.495 c 0,-19.733 -16.055,-35.788 -35.788,-35.788 0,0 -48.36249,0.001 -262.175,0.001 -19.733,0 -35.788,16.055 -35.788,35.788 v 74.069 c 0,4.649 3.769,8.419 8.419,8.419 4.649,0 8.419,-3.769 8.419,-8.419 v -74.069 c 0,-10.449 8.502,-18.951 18.951,-18.951 h 108.18 45.814 108.18 c 10.449,0 18.951,8.502 18.951,18.951 V 309.188 H 97.544 76.797 c -22.048,0 -39.983,17.936 -39.983,39.983 v 69.082 c 0,4.649 3.769,8.418 8.419,8.418 4.65,0 8.419,-3.769 8.419,-8.418 v -69.082 c 0,-12.764 10.383,-23.146 23.146,-23.146 h 20.745 316.913 20.745 c 12.764,0 23.146,10.383 23.146,23.146 v 98.497 H 45.232 8.419 c -4.649,0 -8.419,3.769 -8.419,8.418 0,30.303 24.654,54.957 54.957,54.957 h 402.086 c 30.303,0 54.957,-24.654 54.957,-54.957 0,-4.65 -3.769,-8.419 -8.419,-8.419 z m -46.538,46.539 H 54.957 c -18.128,0 -33.341,-12.719 -37.183,-29.702 h 27.459 421.534 27.459 c -3.842,16.983 -19.055,29.702 -37.183,29.702 z"
         inkscape:connector-curvature="0"
         sodipodi:nodetypes="scsscsccssssssccssccsssssssccssccssssssssccccs" />
      <path
         id="path959"
         d="m 132.636,227.905 c 4.245,0 7.964,3.839 13.574,10.15 6.348,7.142 14.246,16.03 26.659,16.066 0.024,0 0.047,0 0.072,0 12.292,0 20.325,-8.795 26.781,-15.864 6.112,-6.692 10.186,-10.759 15.209,-10.803 4.884,-0.019 8.76,3.693 14.69,9.788 6.597,6.78 14.804,15.216 27.468,15.216 0.008,0 0.018,0 0.026,0 12.555,-0.011 20.93,-8.316 27.659,-14.989 5.804,-5.755 9.664,-9.279 13.849,-9.279 0.073,0 0.146,0.001 0.218,0.002 4.098,0.12 7.23,3.672 12,9.457 5.595,6.784 12.558,15.227 24.505,15.578 11.925,0.378 20.186,-7.82 26.843,-14.384 6.288,-6.201 10.445,-9.985 15.235,-9.874 4.69,0.064 8.485,-3.62 8.566,-8.269 0.081,-4.649 -3.62,-8.484 -8.269,-8.566 -12.217,-0.199 -20.606,8.066 -27.355,14.721 -6.11,6.024 -10.159,9.661 -14.526,9.543 -4.103,-0.12 -7.237,-3.674 -12.009,-9.461 -5.593,-6.783 -12.556,-15.224 -24.498,-15.574 -11.793,-0.351 -19.563,7.357 -26.415,14.151 -6.339,6.286 -10.567,10.102 -15.818,10.108 -0.003,0 -0.006,0 -0.009,0 -5.18,0 -9.276,-3.824 -15.401,-10.121 -6.456,-6.636 -14.481,-14.884 -26.671,-14.884 -0.076,0 -0.155,0 -0.231,0.001 -12.725,0.109 -20.916,9.077 -27.498,16.284 -5.897,6.458 -9.809,10.382 -14.351,10.382 -0.008,0 -0.015,0 -0.022,0 -4.549,-0.012 -8.369,-3.943 -14.121,-10.413 -6.26,-7.043 -14.043,-15.802 -26.151,-15.802 -0.046,0 -0.093,0 -0.14,0 -4.649,0.026 -8.397,3.816 -8.371,8.466 0.026,4.634 3.789,8.371 8.417,8.371 0.027,-0.001 0.056,-0.001 0.085,-0.001 z"
         inkscape:connector-curvature="0" />
      <path
         id="path961"
         d="m 73.119,368.981 c 4.69,-0.067 8.578,3.995 14.465,10.619 6.387,7.186 14.336,16.131 26.684,16.166 0.026,0 0.048,0 0.074,0 12.229,-0.001 19.977,-8.482 26.812,-15.967 6.38,-6.986 10.645,-11.231 16.079,-11.277 0.029,0 0.058,0 0.088,0 5.138,0 9.275,3.869 15.459,10.225 6.643,6.827 14.907,15.322 27.533,15.322 0.008,0 0.017,0 0.026,0 12.523,-0.011 20.959,-8.377 27.738,-15.099 6.172,-6.121 10.229,-9.817 14.914,-9.693 4.506,0.132 7.803,3.86 12.811,9.93 5.621,6.817 12.617,15.299 24.487,15.647 11.856,0.368 19.833,-7.532 26.883,-14.483 5.658,-5.581 10.529,-10.432 16.1,-10.302 5.034,0.089 8.49,3.67 13.713,9.506 5.707,6.378 12.809,14.315 24.647,14.492 0.042,0 0.083,10e-4 0.126,10e-4 12.522,-0.011 20.959,-8.377 27.738,-15.099 6.174,-6.121 10.244,-9.802 14.914,-9.693 4.345,0.134 7.961,-3.288 8.087,-7.627 0.127,-4.339 -3.288,-7.961 -7.627,-8.087 -11.741,-0.365 -19.55,7.405 -26.444,14.243 -5.682,5.634 -10.59,10.503 -16.62,10.541 -4.681,-0.101 -8.035,-3.589 -13.106,-9.256 -5.792,-6.472 -12.999,-14.528 -25.151,-14.741 -0.154,-0.002 -0.306,-0.004 -0.459,-0.004 -11.916,0 -20.247,8.214 -26.956,14.831 -5.503,5.427 -10.25,10.098 -15.383,9.963 -4.511,-0.132 -7.81,-3.861 -12.819,-9.935 -5.62,-6.815 -12.614,-15.296 -24.48,-15.643 -11.731,-0.365 -19.55,7.405 -26.444,14.243 -5.701,5.654 -10.624,10.535 -16.682,10.541 -0.003,0 -0.007,0 -0.011,0 -5.583,0 -9.871,-3.991 -16.266,-10.564 -6.499,-6.68 -14.576,-14.983 -26.72,-14.983 -0.075,0 -0.153,0 -0.228,10e-4 -12.678,0.108 -20.926,9.139 -27.553,16.396 -6.162,6.747 -10.264,10.848 -15.209,10.848 -0.008,0 -0.017,0 -0.025,0 -4.957,-0.013 -8.965,-4.123 -14.977,-10.888 -6.321,-7.113 -14.163,-15.929 -26.305,-15.896 -4.342,0.025 -7.84,3.564 -7.817,7.904 0.025,4.326 3.539,7.817 7.86,7.817 0.013,10e-4 0.029,10e-4 0.044,10e-4 z"
         inkscape:connector-curvature="0" />
      <g
         id="g963" />
      <g
         id="g965" />
      <g
         id="g967" />
      <g
         id="g969" />
      <g
         id="g971" />
      <g
         id="g973" />
      <g
         id="g975" />
      <g
         id="g977" />
      <g
         id="g979" />
      <g
         id="g981" />
      <g
         id="g983" />
      <g
         id="g985" />
      <g
         id="g987" />
      <g
         id="g989" />
      <g
         id="g991" />
    </g>
  </g>
</svg>
