<?xml version="1.0" encoding="UTF-8" standalone="no"?>
<!-- Created with Inkscape (http://www.inkscape.org/) -->

<svg
   xmlns:dc="http://purl.org/dc/elements/1.1/"
   xmlns:cc="http://creativecommons.org/ns#"
   xmlns:rdf="http://www.w3.org/1999/02/22-rdf-syntax-ns#"
   xmlns:svg="http://www.w3.org/2000/svg"
   xmlns="http://www.w3.org/2000/svg"
   xmlns:sodipodi="http://sodipodi.sourceforge.net/DTD/sodipodi-0.dtd"
   xmlns:inkscape="http://www.inkscape.org/namespaces/inkscape"
   width="85.999023mm"
   height="79.952888mm"
   viewBox="0 0 85.999023 79.952888"
   version="1.1"
   id="svg2013"
   inkscape:version="0.92.3 (2405546, 2018-03-11)"
   sodipodi:docname="coffee.svg">
  <defs
     id="defs2007" />
  <sodipodi:namedview
     id="base"
     pagecolor="#ffffff"
     bordercolor="#666666"
     borderopacity="1.0"
     inkscape:pageopacity="0.0"
     inkscape:pageshadow="2"
     inkscape:zoom="0.35"
     inkscape:cx="-712.10735"
     inkscape:cy="847.89715"
     inkscape:document-units="mm"
     inkscape:current-layer="layer1"
     showgrid="false"
     inkscape:window-width="3840"
     inkscape:window-height="2066"
     inkscape:window-x="-11"
     inkscape:window-y="-11"
     inkscape:window-maximized="1" />
  <metadata
     id="metadata2010">
    <rdf:RDF>
      <cc:Work
         rdf:about="">
        <dc:format>image/svg+xml</dc:format>
        <dc:type
           rdf:resource="http://purl.org/dc/dcmitype/StillImage" />
        <dc:title></dc:title>
      </cc:Work>
    </rdf:RDF>
  </metadata>
  <g
     inkscape:label="Layer 1"
     inkscape:groupmode="layer"
     id="layer1"
     transform="translate(-141.54269,-293.2199)">
    <path
       d="m 227.47643,348.23782 c -0.007,-0.13723 -0.0247,-0.27835 -0.0564,-0.4251 -0.0106,-0.042 -0.0212,-0.0825 -0.0317,-0.12347 0.0776,-0.1397 0.127,-0.29775 0.12347,-0.48225 -0.0247,-0.96838 -1.10066,-2.35409 -1.83797,-2.86914 -0.42686,-0.29634 -0.87136,-0.42475 -1.31939,-0.44203 -0.0494,-0.20991 -0.25047,-0.38947 -0.49742,-0.2914 l -1.22061,0.48437 c -1.23472,0.18873 -2.37419,0.6551 -3.43605,1.39029 -0.06,0.0402 -0.0952,0.0907 -0.11995,0.145 -0.43039,0.18767 -0.85725,0.3944 -1.27352,0.63182 -0.12348,0.0702 -0.18345,0.18556 -0.19756,0.30586 -0.92428,0.49177 -1.82739,1.03928 -2.70581,1.59879 -6.45936,2.97991 -12.81994,6.16408 -19.07822,9.5444 -1.23119,0.54716 -2.46239,1.08867 -3.70064,1.62419 -1.4605,0.23495 -2.89101,0.57926 -4.29013,1.0354 -1.11972,-0.94121 -2.44969,-1.79246 -3.84069,-1.69439 -1.91135,0.13441 -3.98674,1.28482 -5.65715,2.14771 -1.61642,0.83538 -3.16124,1.83974 -4.44782,3.15384 -1.98473,2.0267 -4.17371,6.33447 -0.68721,8.32943 1.53176,0.8763 3.48756,0.92569 5.1629,0.84385 2.01436,-0.0984 4.01144,-0.59443 5.83036,-1.44251 2.64478,-1.23296 6.35635,-3.97581 6.08683,-7.29262 0.57291,-0.38735 1.15499,-0.75424 1.74766,-1.10596 5.13292,-1.64677 10.24114,-3.36303 15.32114,-5.16926 3.08681,-1.0989 6.16303,-2.22673 9.2322,-3.38384 1.53105,-0.57856 3.06211,-1.16487 4.58964,-1.75789 0.69144,-0.26741 1.41111,-0.51541 2.11313,-0.80927 1.4605,-0.16263 2.74462,-0.95709 3.55953,-2.16641 0.29634,-0.33585 0.508,-0.72708 0.59267,-1.17863 0.0282,-0.0773 0.06,-0.15346 0.0811,-0.23213 0.0423,-0.13018 0.0247,-0.26423 -0.0423,-0.36865"
       style="fill:#000000;fill-opacity:1;fill-rule:nonzero;stroke:none;stroke-width:0.03527778"
       id="path126"
       inkscape:connector-curvature="0" />
    <path
       d="m 168.80243,298.37902 0.0868,-0.0868 c 0.14923,-0.14958 0.14923,-0.40358 0,-0.55281 -0.14993,-0.14993 -0.40287,-0.14993 -0.5528,0 l -0.0868,0.0868 c -0.14958,0.14923 -0.14958,0.40358 0,0.55281 0.14958,0.14993 0.40287,0.14958 0.5528,0"
       style="fill:#000000;fill-opacity:1;fill-rule:nonzero;stroke:none;stroke-width:0.03527778"
       id="path148"
       inkscape:connector-curvature="0" />
    <path
       d="m 164.68834,300.81072 c 0.14957,0.14922 0.40357,0.14922 0.5528,0 0.14993,-0.14958 0.14993,-0.40288 0,-0.55281 l -0.0868,-0.0868 c -0.14923,-0.14922 -0.40323,-0.14922 -0.55281,0 -0.14957,0.14993 -0.14957,0.40287 0,0.5528 l 0.0868,0.0868"
       style="fill:#000000;fill-opacity:1;fill-rule:nonzero;stroke:none;stroke-width:0.03527778"
       id="path150"
       inkscape:connector-curvature="0" />
    <path
       d="m 159.03825,301.9449 c 0.0579,0.0579 0.11606,0.11535 0.17392,0.17321 0.14993,0.14887 0.40322,0.14958 0.5528,0 0.14958,-0.14923 0.15028,-0.40323 0,-0.5528 -0.0582,-0.0575 -0.11606,-0.11536 -0.17427,-0.17286 -0.14958,-0.14923 -0.40288,-0.14993 -0.55245,0 -0.14958,0.14922 -0.15029,0.40322 0,0.55245"
       style="fill:#000000;fill-opacity:1;fill-rule:nonzero;stroke:none;stroke-width:0.03527778"
       id="path152"
       inkscape:connector-curvature="0" />
    <path
       d="m 160.88292,299.66595 h 0.066 c -0.0434,0.21943 0.0787,0.47766 0.3683,0.47766 0.50306,0 0.50377,-0.78175 0,-0.78175 -0.0367,0 -0.0695,0.005 -0.10089,0.0131 -0.0123,-0.11924 -0.0921,-0.23001 -0.24659,-0.23001 h -0.0868 c -0.33514,0 -0.33584,0.52105 0,0.52105"
       style="fill:#000000;fill-opacity:1;fill-rule:nonzero;stroke:none;stroke-width:0.03527778"
       id="path154"
       inkscape:connector-curvature="0" />
    <path
       d="m 169.82866,296.58267 c 0.21167,-0.01 0.39088,-0.1718 0.39088,-0.39087 v -0.0868 c 0,-0.20462 -0.17992,-0.40041 -0.39088,-0.39088 -0.21167,0.01 -0.39088,0.1718 -0.39088,0.39088 v 0.0868 c 0,0.20461 0.17992,0.4004 0.39088,0.39087"
       style="fill:#000000;fill-opacity:1;fill-rule:nonzero;stroke:none;stroke-width:0.03527778"
       id="path156"
       inkscape:connector-curvature="0" />
    <path
       d="m 172.34749,298.8408 h 0.0868 c 0.20461,0 0.4004,-0.17956 0.39088,-0.39087 l -0.006,-0.0416 c 0.037,0.024 0.0801,0.0416 0.13583,0.0416 h 0.0868 c 0.33549,0 0.33585,-0.52106 0,-0.52106 h -0.0868 c -0.16087,0 -0.24236,0.11995 -0.24906,0.24448 -0.0688,-0.0699 -0.16334,-0.11395 -0.27199,-0.11395 h -0.0868 c -0.20461,0 -0.40039,0.17957 -0.39086,0.39053 0.01,0.21202 0.1718,0.39087 0.39086,0.39087"
       style="fill:#000000;fill-opacity:1;fill-rule:nonzero;stroke:none;stroke-width:0.03527778"
       id="path158"
       inkscape:connector-curvature="0" />
    <path
       d="m 177.77569,299.66595 c 0.01,0.21167 0.1718,0.39088 0.39052,0.39088 h 0.0871 c 0.20426,0 0.40005,-0.17992 0.39088,-0.39088 -0.01,-0.21167 -0.17181,-0.39088 -0.39088,-0.39088 h -0.0871 c -0.20426,0 -0.40005,0.17992 -0.39052,0.39088"
       style="fill:#000000;fill-opacity:1;fill-rule:nonzero;stroke:none;stroke-width:0.03527778"
       id="path160"
       inkscape:connector-curvature="0" />
    <path
       d="m 170.47989,299.83952 c 0.01,0.21166 0.1718,0.39088 0.39088,0.39088 h 0.0868 c 0.20461,0 0.4004,-0.17957 0.39088,-0.39088 -0.01,-0.21167 -0.1718,-0.39088 -0.39088,-0.39088 h -0.0868 c -0.20426,0 -0.40005,0.17992 -0.39088,0.39088"
       style="fill:#000000;fill-opacity:1;fill-rule:nonzero;stroke:none;stroke-width:0.03527778"
       id="path162"
       inkscape:connector-curvature="0" />
    <path
       d="m 153.97835,300.88162 c 0.009,0.21202 0.17145,0.39088 0.39053,0.39088 h 0.17392 c 0.20426,0 0.40005,-0.17956 0.39088,-0.39088 -0.01,-0.21166 -0.17181,-0.39052 -0.39088,-0.39052 h -0.17392 c -0.20426,0 -0.40005,0.17956 -0.39053,0.39052"
       style="fill:#000000;fill-opacity:1;fill-rule:nonzero;stroke:none;stroke-width:0.03527778"
       id="path164"
       inkscape:connector-curvature="0" />
    <path
       d="m 163.74889,299.53578 h 0.0868 c 0.20461,0 0.40041,-0.17992 0.39088,-0.39088 -0.004,-0.0854 -0.0332,-0.16475 -0.0804,-0.23001 0.0699,-0.15417 -0.002,-0.37783 -0.22331,-0.37783 h -0.0871 c -0.1658,0 -0.24941,0.12771 -0.25118,0.25682 -0.13264,0.0639 -0.23318,0.19897 -0.22648,0.35102 0.01,0.21167 0.1718,0.39088 0.39088,0.39088"
       style="fill:#000000;fill-opacity:1;fill-rule:nonzero;stroke:none;stroke-width:0.03527778"
       id="path166"
       inkscape:connector-curvature="0" />
    <path
       d="m 175.47416,299.36186 c 0.0797,0 0.14464,-0.0226 0.19897,-0.0557 l 0.0614,0.0123 h 0.26071 c 0.33514,0 0.33584,-0.52106 0,-0.52106 0,-0.23918 -0.26317,-0.3048 -0.41522,-0.20284 -0.0325,-0.008 -0.0674,-0.0141 -0.10584,-0.0141 -0.50306,0 -0.50411,0.7814 0,0.7814"
       style="fill:#000000;fill-opacity:1;fill-rule:nonzero;stroke:none;stroke-width:0.03527778"
       id="path168"
       inkscape:connector-curvature="0" />
    <path
       d="m 180.06486,300.10551 c 0.0861,-0.0303 0.17251,-0.061 0.25894,-0.0917 0.0575,-0.0205 0.10372,-0.0586 0.13794,-0.10477 0.0857,-0.0564 0.13441,-0.14817 0.15346,-0.24659 0.31644,-0.0194 0.31256,-0.51753 -0.0166,-0.51753 h -0.0871 c -0.0688,0 -0.11959,0.025 -0.16052,0.06 -0.0314,-0.008 -0.0628,-0.0166 -0.10018,-0.0166 -0.27341,0 -0.39723,0.23107 -0.37324,0.44203 -0.10266,0.0593 -0.16722,0.17004 -0.133,0.29351 0.0353,0.12806 0.18697,0.22931 0.32032,0.18168"
       style="fill:#000000;fill-opacity:1;fill-rule:nonzero;stroke:none;stroke-width:0.03527778"
       id="path170"
       inkscape:connector-curvature="0" />
    <path
       d="m 170.04562,298.27636 v 0.0868 c 0,0.20426 0.17992,0.4004 0.39088,0.39088 0.21202,-0.01 0.39088,-0.17181 0.39088,-0.39088 v -0.0868 c 0,-0.20426 -0.17992,-0.4004 -0.39088,-0.39088 -0.21167,0.01 -0.39088,0.1718 -0.39088,0.39088"
       style="fill:#000000;fill-opacity:1;fill-rule:nonzero;stroke:none;stroke-width:0.03527778"
       id="path172"
       inkscape:connector-curvature="0" />
    <path
       d="m 166.78878,300.66467 h 0.0868 c 0.20461,0 0.4004,-0.17992 0.39088,-0.39088 -0.01,-0.21167 -0.17181,-0.39088 -0.39088,-0.39088 h -0.0868 c -0.20426,0 -0.40041,0.17992 -0.39088,0.39088 0.01,0.21166 0.1718,0.39088 0.39088,0.39088"
       style="fill:#000000;fill-opacity:1;fill-rule:nonzero;stroke:none;stroke-width:0.03527778"
       id="path174"
       inkscape:connector-curvature="0" />
    <path
       d="m 182.68283,301.01215 c 0.43321,0 0.49283,-0.57855 0.17956,-0.73942 0.32844,-0.007 0.32773,-0.52 -0.006,-0.52 -0.28115,0 -0.32385,0.36372 -0.13263,0.4819 l -0.0409,-0.004 c -0.50305,0 -0.50376,0.78176 0,0.78176"
       style="fill:#000000;fill-opacity:1;fill-rule:nonzero;stroke:none;stroke-width:0.03527778"
       id="path176"
       inkscape:connector-curvature="0" />
    <path
       d="m 158.97228,300.27379 v -0.17357 c 0,-0.33549 -0.52141,-0.33584 -0.52141,0 v 0.17357 c 0,0.33549 0.52141,0.33619 0.52141,0"
       style="fill:#000000;fill-opacity:1;fill-rule:nonzero;stroke:none;stroke-width:0.03527778"
       id="path178"
       inkscape:connector-curvature="0" />
    <path
       d="m 157.83951,301.50533 0.0116,-0.009 c 0.11077,-0.0864 0.0907,-0.27728 0,-0.3683 -0.10971,-0.10971 -0.25753,-0.0871 -0.36865,0 -0.15134,0.11818 -0.20603,0.3362 -0.14535,0.51577 0.10654,0.31573 0.60996,0.18026 0.50236,-0.13829"
       style="fill:#000000;fill-opacity:1;fill-rule:nonzero;stroke:none;stroke-width:0.03527778"
       id="path180"
       inkscape:connector-curvature="0" />
    <path
       d="m 162.29015,301.32471 c -0.19967,0.0808 -0.33373,0.27023 -0.26176,0.49142 0.0942,0.29104 0.51929,0.19932 0.51082,-0.0642 0.0632,-0.0624 0.0981,-0.14675 0.0713,-0.24518 -0.0339,-0.12382 -0.18908,-0.23495 -0.32032,-0.18203"
       style="fill:#000000;fill-opacity:1;fill-rule:nonzero;stroke:none;stroke-width:0.03527778"
       id="path182"
       inkscape:connector-curvature="0" />
    <path
       d="m 165.0517,302.09765 c -0.33514,0 -0.33585,0.5214 0,0.5214 0.33549,0 0.33584,-0.5214 0,-0.5214"
       style="fill:#000000;fill-opacity:1;fill-rule:nonzero;stroke:none;stroke-width:0.03527778"
       id="path184"
       inkscape:connector-curvature="0" />
    <path
       d="m 170.28057,301.15185 c -0.0871,0.0289 -0.17392,0.0578 -0.2607,0.0868 -0.31644,0.10548 -0.18098,0.6089 0.13864,0.50236 0.0868,-0.0289 0.17357,-0.0579 0.2607,-0.0868 0.31644,-0.10548 0.18062,-0.6089 -0.13864,-0.50236"
       style="fill:#000000;fill-opacity:1;fill-rule:nonzero;stroke:none;stroke-width:0.03527778"
       id="path186"
       inkscape:connector-curvature="0" />
    <path
       d="m 174.51884,300.36057 c 0.33514,0 0.33585,-0.52105 0,-0.52105 -0.33549,0 -0.33619,0.52105 0,0.52105"
       style="fill:#000000;fill-opacity:1;fill-rule:nonzero;stroke:none;stroke-width:0.03527778"
       id="path188"
       inkscape:connector-curvature="0" />
    <path
       d="m 174.86598,302.09765 h 0.0871 c 0.33514,0 0.33585,-0.52105 0,-0.52105 h -0.0871 c -0.33514,0 -0.33585,0.52105 0,0.52105"
       style="fill:#000000;fill-opacity:1;fill-rule:nonzero;stroke:none;stroke-width:0.03527778"
       id="path190"
       inkscape:connector-curvature="0" />
    <path
       d="m 172.78176,301.66338 h -0.0871 c -0.33514,0 -0.33549,0.52105 0,0.52105 h 0.0871 c 0.33514,0 0.3355,-0.52105 0,-0.52105"
       style="fill:#000000;fill-opacity:1;fill-rule:nonzero;stroke:none;stroke-width:0.03527778"
       id="path192"
       inkscape:connector-curvature="0" />
    <path
       d="m 167.83123,302.8794 h -0.17392 c -0.33513,0 -0.33584,0.52106 0,0.52106 h 0.17392 c 0.33514,0 0.3355,-0.52106 0,-0.52106"
       style="fill:#000000;fill-opacity:1;fill-rule:nonzero;stroke:none;stroke-width:0.03527778"
       id="path194"
       inkscape:connector-curvature="0" />
    <path
       d="m 167.7441,301.14233 c -0.33514,0 -0.33585,0.52105 0,0.52105 0.33549,0 0.33584,-0.52105 0,-0.52105"
       style="fill:#000000;fill-opacity:1;fill-rule:nonzero;stroke:none;stroke-width:0.03527778"
       id="path196"
       inkscape:connector-curvature="0" />
    <path
       d="m 158.71157,302.61905 c -0.33549,0 -0.33584,0.52106 0,0.52106 0.3355,0 0.33585,-0.52106 0,-0.52106"
       style="fill:#000000;fill-opacity:1;fill-rule:nonzero;stroke:none;stroke-width:0.03527778"
       id="path198"
       inkscape:connector-curvature="0" />
    <path
       d="m 155.68227,301.84788 0.0868,-0.0868 c 0.23777,-0.23777 -0.13089,-0.60607 -0.3683,-0.36865 l -0.0868,0.0868 c -0.23777,0.23742 0.13088,0.60607 0.3683,0.36865"
       style="fill:#000000;fill-opacity:1;fill-rule:nonzero;stroke:none;stroke-width:0.03527778"
       id="path200"
       inkscape:connector-curvature="0" />
    <path
       d="m 152.80572,301.8373 c 0.33514,0 0.33585,-0.52105 0,-0.52105 -0.33549,0 -0.33584,0.52105 0,0.52105"
       style="fill:#000000;fill-opacity:1;fill-rule:nonzero;stroke:none;stroke-width:0.03527778"
       id="path202"
       inkscape:connector-curvature="0" />
    <path
       d="m 155.93239,300.44771 h 0.0868 c 0.33514,0 0.33585,-0.52141 0,-0.52141 h -0.0868 c -0.33549,0 -0.3362,0.52141 0,0.52141"
       style="fill:#000000;fill-opacity:1;fill-rule:nonzero;stroke:none;stroke-width:0.03527778"
       id="path204"
       inkscape:connector-curvature="0" />
    <path
       d="m 162.18573,299.23168 c -0.33549,0 -0.33584,0.52105 0,0.52105 0.33514,0 0.33584,-0.52105 0,-0.52105"
       style="fill:#000000;fill-opacity:1;fill-rule:nonzero;stroke:none;stroke-width:0.03527778"
       id="path206"
       inkscape:connector-curvature="0" />
    <path
       d="m 159.15043,299.30224 c 0.0811,0.32491 0.58385,0.18732 0.50236,-0.13864 -0.0127,-0.0511 -0.0254,-0.10231 -0.0381,-0.15311 0.11288,0.19897 0.48648,0.1591 0.48648,-0.12629 v -0.0868 c 0,-0.33514 -0.52106,-0.33585 -0.52106,0 v 0.0751 l -0.0141,-0.0561 c -0.0815,-0.32527 -0.58384,-0.18768 -0.50235,0.13828 0.0289,0.11572 0.0579,0.23143 0.0868,0.34749"
       style="fill:#000000;fill-opacity:1;fill-rule:nonzero;stroke:none;stroke-width:0.03527778"
       id="path208"
       inkscape:connector-curvature="0" />
    <path
       d="m 160.29308,300.95641 c 0.28434,0.0455 0.56621,0.0307 0.83643,-0.0751 0.13088,-0.0511 0.2219,-0.17462 0.18204,-0.32067 -0.0346,-0.12453 -0.18909,-0.23354 -0.32068,-0.18168 l -0.0314,0.0106 c 0.0102,-0.0695 -0.007,-0.14323 -0.0713,-0.20779 -0.0575,-0.0582 -0.11535,-0.11606 -0.17321,-0.17427 -0.23671,-0.23813 -0.60537,0.13017 -0.3683,0.3683 l 0.0773,0.078 c -0.13617,-0.0191 -0.2734,0.0384 -0.31292,0.18203 -0.0339,0.12418 0.0423,0.2981 0.18204,0.32068"
       style="fill:#000000;fill-opacity:1;fill-rule:nonzero;stroke:none;stroke-width:0.03527778"
       id="path210"
       inkscape:connector-curvature="0" />
    <path
       d="m 163.92281,299.83952 c -0.33549,0 -0.33585,0.52105 0,0.52105 0.33514,0 0.33584,-0.52105 0,-0.52105"
       style="fill:#000000;fill-opacity:1;fill-rule:nonzero;stroke:none;stroke-width:0.03527778"
       id="path212"
       inkscape:connector-curvature="0" />
    <path
       d="m 165.65953,299.1449 h 0.17392 c 0.33549,0 0.33585,-0.52105 0,-0.52105 h -0.17392 c -0.33514,0 -0.33549,0.52105 0,0.52105"
       style="fill:#000000;fill-opacity:1;fill-rule:nonzero;stroke:none;stroke-width:0.03527778"
       id="path214"
       inkscape:connector-curvature="0" />
    <path
       d="m 167.73316,300.02402 c 0.0868,-0.0293 0.17357,-0.0582 0.2607,-0.0871 0.0981,-0.0328 0.14852,-0.10513 0.16757,-0.1845 0.0434,0.0441 0.1016,0.0681 0.16369,0.0737 0.0138,0.0748 0.042,0.14675 0.0981,0.2032 l 0.0868,0.0868 c 0.14922,0.14922 0.40358,0.14922 0.5528,0 0.14993,-0.14993 0.14993,-0.40323 0,-0.55281 l -0.0868,-0.0868 c -0.10196,-0.10195 -0.25224,-0.12911 -0.38524,-0.0914 -0.0974,-0.22189 -0.49459,-0.18767 -0.49847,0.10337 -0.0557,-0.0571 -0.13547,-0.0882 -0.23707,-0.0543 -0.0868,0.0293 -0.17356,0.0582 -0.26035,0.0871 -0.31644,0.10583 -0.18097,0.60924 0.13829,0.50271"
       style="fill:#000000;fill-opacity:1;fill-rule:nonzero;stroke:none;stroke-width:0.03527778"
       id="path216"
       inkscape:connector-curvature="0" />
    <path
       d="m 172.60784,300.10022 c 0.3355,0 0.33585,-0.52105 0,-0.52105 h -0.0868 c -0.33514,0 -0.33584,0.52105 0,0.52105 h 0.0868"
       style="fill:#000000;fill-opacity:1;fill-rule:nonzero;stroke:none;stroke-width:0.03527778"
       id="path218"
       inkscape:connector-curvature="0" />
    <path
       d="m 174.25814,298.71063 c 0.33549,0 0.33584,-0.52105 0,-0.52105 -0.33514,0 -0.33584,0.52105 0,0.52105"
       style="fill:#000000;fill-opacity:1;fill-rule:nonzero;stroke:none;stroke-width:0.03527778"
       id="path220"
       inkscape:connector-curvature="0" />
    <path
       d="m 176.68984,303.14011 c 0.33549,0 0.33619,-0.52106 0,-0.52106 -0.33514,0 -0.33585,0.52106 0,0.52106"
       style="fill:#000000;fill-opacity:1;fill-rule:nonzero;stroke:none;stroke-width:0.03527778"
       id="path222"
       inkscape:connector-curvature="0" />
    <path
       d="m 180.07721,302.01087 v 0.0868 c 0,0.33549 0.5214,0.33584 0.5214,0 v -0.0868 c 0,-0.33514 -0.5214,-0.33585 -0.5214,0"
       style="fill:#000000;fill-opacity:1;fill-rule:nonzero;stroke:none;stroke-width:0.03527778"
       id="path224"
       inkscape:connector-curvature="0" />
    <path
       d="m 176.77697,300.10022 h 0.0868 c 0.33514,0 0.33584,-0.52105 0,-0.52105 h -0.0868 c -0.33549,0 -0.33619,0.52105 0,0.52105"
       style="fill:#000000;fill-opacity:1;fill-rule:nonzero;stroke:none;stroke-width:0.03527778"
       id="path226"
       inkscape:connector-curvature="0" />
    <path
       d="m 177.72171,301.30566 -0.0868,0.0868 c -0.23742,0.23742 0.13088,0.60608 0.3683,0.36866 l 0.0871,-0.0868 c 0.23742,-0.23778 -0.13123,-0.60643 -0.36865,-0.36866"
       style="fill:#000000;fill-opacity:1;fill-rule:nonzero;stroke:none;stroke-width:0.03527778"
       id="path228"
       inkscape:connector-curvature="0" />
    <path
       d="m 177.64516,298.71063 c 0.33549,0 0.3362,-0.52105 0,-0.52105 -0.33514,0 -0.33549,0.52105 0,0.52105"
       style="fill:#000000;fill-opacity:1;fill-rule:nonzero;stroke:none;stroke-width:0.03527778"
       id="path230"
       inkscape:connector-curvature="0" />
    <path
       d="m 154.62958,303.35707 c -0.16757,0 -0.16792,0.2607 0,0.2607 0.16757,0 0.16792,-0.2607 0,-0.2607"
       style="fill:#000000;fill-opacity:1;fill-rule:nonzero;stroke:none;stroke-width:0.03527778"
       id="path232"
       inkscape:connector-curvature="0" />
    <path
       d="m 161.05649,303.09672 h -0.0868 c -0.16757,0 -0.16793,0.26035 0,0.26035 h 0.0868 c 0.16792,0 0.16792,-0.26035 0,-0.26035"
       style="fill:#000000;fill-opacity:1;fill-rule:nonzero;stroke:none;stroke-width:0.03527778"
       id="path234"
       inkscape:connector-curvature="0" />
    <path
       d="m 162.96713,304.2256 h -0.17356 c -0.16757,0 -0.16793,0.26071 0,0.26071 h 0.17356 c 0.16793,0 0.16828,-0.26071 0,-0.26071"
       style="fill:#000000;fill-opacity:1;fill-rule:nonzero;stroke:none;stroke-width:0.03527778"
       id="path236"
       inkscape:connector-curvature="0" />
    <path
       d="m 164.87813,303.1835 h -0.0871 c -0.16756,0 -0.16756,0.26035 0,0.26035 h 0.0871 c 0.16757,0 0.16792,-0.26035 0,-0.26035"
       style="fill:#000000;fill-opacity:1;fill-rule:nonzero;stroke:none;stroke-width:0.03527778"
       id="path238"
       inkscape:connector-curvature="0" />
    <path
       d="m 166.78348,301.31095 -0.0868,0.0868 c -0.11889,0.11854 0.0656,0.30304 0.18415,0.18415 l 0.0868,-0.0868 c 0.11889,-0.11888 -0.0653,-0.30303 -0.18415,-0.18415"
       style="fill:#000000;fill-opacity:1;fill-rule:nonzero;stroke:none;stroke-width:0.03527778"
       id="path240"
       inkscape:connector-curvature="0" />
    <path
       d="m 170.17615,303.1835 c -0.16792,0 -0.16792,0.26035 0,0.26035 0.16757,0 0.16792,-0.26035 0,-0.26035"
       style="fill:#000000;fill-opacity:1;fill-rule:nonzero;stroke:none;stroke-width:0.03527778"
       id="path242"
       inkscape:connector-curvature="0" />
    <path
       d="m 172.69463,302.66209 c -0.16757,0 -0.16757,0.26071 0,0.26071 0.16792,0 0.16792,-0.26071 0,-0.26071"
       style="fill:#000000;fill-opacity:1;fill-rule:nonzero;stroke:none;stroke-width:0.03527778"
       id="path244"
       inkscape:connector-curvature="0" />
    <path
       d="m 175.56095,303.00993 c -0.16757,0 -0.16792,0.26035 0,0.26035 0.16757,0 0.16792,-0.26035 0,-0.26035"
       style="fill:#000000;fill-opacity:1;fill-rule:nonzero;stroke:none;stroke-width:0.03527778"
       id="path246"
       inkscape:connector-curvature="0" />
    <path
       d="m 179.64294,301.70677 c 0.16792,0 0.16792,-0.26035 0,-0.26035 -0.16757,0 -0.16792,0.26035 0,0.26035"
       style="fill:#000000;fill-opacity:1;fill-rule:nonzero;stroke:none;stroke-width:0.03527778"
       id="path248"
       inkscape:connector-curvature="0" />
    <path
       d="m 176.9837,300.75145 c -0.16792,0 -0.16792,0.2607 0,0.2607 h 0.0536 c 0.16757,0 0.16793,-0.2607 0,-0.2607 h -0.0536"
       style="fill:#000000;fill-opacity:1;fill-rule:nonzero;stroke:none;stroke-width:0.03527778"
       id="path250"
       inkscape:connector-curvature="0" />
    <path
       d="m 180.94575,300.92537 c -0.16757,0 -0.16792,0.26035 0,0.26035 0.16757,0 0.16792,-0.26035 0,-0.26035"
       style="fill:#000000;fill-opacity:1;fill-rule:nonzero;stroke:none;stroke-width:0.03527778"
       id="path252"
       inkscape:connector-curvature="0" />
    <path
       d="m 182.33534,301.96747 c -0.16757,0 -0.16792,0.26071 0,0.26071 0.16757,0 0.16792,-0.26071 0,-0.26071"
       style="fill:#000000;fill-opacity:1;fill-rule:nonzero;stroke:none;stroke-width:0.03527778"
       id="path254"
       inkscape:connector-curvature="0" />
    <path
       d="m 184.1592,301.09893 h 0.0868 c 0.16757,0 0.16793,-0.2607 0,-0.2607 h -0.0868 c -0.16757,0 -0.16792,0.2607 0,0.2607"
       style="fill:#000000;fill-opacity:1;fill-rule:nonzero;stroke:none;stroke-width:0.03527778"
       id="path256"
       inkscape:connector-curvature="0" />
    <path
       d="m 181.38002,299.36186 c 0.16757,0 0.16792,-0.26035 0,-0.26035 -0.16757,0 -0.16792,0.26035 0,0.26035"
       style="fill:#000000;fill-opacity:1;fill-rule:nonzero;stroke:none;stroke-width:0.03527778"
       id="path258"
       inkscape:connector-curvature="0" />
    <path
       d="m 184.59347,300.75145 c 0.16757,0 0.16792,-0.26035 0,-0.26035 -0.16757,0 -0.16792,0.26035 0,0.26035"
       style="fill:#000000;fill-opacity:1;fill-rule:nonzero;stroke:none;stroke-width:0.03527778"
       id="path260"
       inkscape:connector-curvature="0" />
    <path
       d="m 162.01181,298.71063 h 0.17392 c 0.33514,0 0.33584,-0.52105 0,-0.52105 h -0.17392 c -0.33514,0 -0.33584,0.52105 0,0.52105"
       style="fill:#000000;fill-opacity:1;fill-rule:nonzero;stroke:none;stroke-width:0.03527778"
       id="path262"
       inkscape:connector-curvature="0" />
    <path
       d="m 154.03198,300.19759 0.0868,-0.0868 c 0.23742,-0.23742 -0.13088,-0.60608 -0.3683,-0.36866 l -0.0868,0.0871 c -0.23742,0.23707 0.13088,0.60572 0.3683,0.3683"
       style="fill:#000000;fill-opacity:1;fill-rule:nonzero;stroke:none;stroke-width:0.03527778"
       id="path264"
       inkscape:connector-curvature="0" />
    <path
       d="m 200.03032,333.89352 c -0.79375,0.30091 -1.59103,0.55914 -2.38125,0.76234 -2.32128,0.59761 -4.75544,1.19556 -7.1508,1.30034 l -0.0744,0.004 c 0.99166,-1.35432 1.75013,-2.90477 2.51566,-4.39632 0.27164,-0.0444 0.54328,-0.0938 0.81491,-0.1464 1.59456,-0.1718 3.18912,-0.40287 4.71312,-0.91828 1.83444,-0.62195 3.27025,-1.72756 4.73427,-2.93652 1.15006,-0.77541 2.22603,-1.65347 3.21381,-2.6282 2.04964,-1.77412 3.83117,-3.82093 3.81,-6.70454 -0.0141,-1.46085 -0.56092,-2.70898 -1.43581,-3.69217 -0.95955,-1.3328 -2.47297,-2.07927 -4.15219,-2.29694 -0.13406,-0.0275 -0.26811,-0.0529 -0.40217,-0.0741 -2.08491,-0.32385 -4.20864,0.0346 -6.24064,0.50977 -0.46214,0.10795 -0.9525,0.23601 -1.37936,0.43215 l -0.0953,-3.90772 c 0.10936,-0.0268 0.2152,-0.0533 0.32456,-0.0737 0.50447,-0.21096 1.02305,-0.39864 1.54869,-0.56444 l 0.06,-0.018 0.0317,-0.009 c 1.27353,-0.35772 2.57176,-0.62971 3.88762,-0.80222 0.0423,-0.006 0.0882,-0.0109 0.13052,-0.0166 0.26106,-0.0272 0.51859,-0.0512 0.77964,-0.0695 2.55411,-0.18027 4.99886,0.0219 6.89328,1.93216 0.86078,0.86854 1.52047,1.90677 2.00378,3.02472 0.64911,1.66158 0.9525,3.50626 0.98425,5.1823 -0.1517,7.35612 -6.55461,13.20588 -13.13392,16.10713 z m -11.11709,2.24965 c -0.34572,0.1016 -0.63993,0.26247 -0.90487,0.54081 -0.18662,0.10725 -0.37148,0.21908 -0.55104,0.34184 l 0.0723,0.003 c -1.26153,1.29081 -2.55729,2.56822 -4.06506,3.56834 -1.76353,1.16982 -3.74121,1.50779 -5.66314,2.29378 -0.10089,0.0413 -0.20144,0.0843 -0.30163,0.12805 -2.04011,0.4572 -4.1342,0.66499 -6.2237,0.74754 -2.84445,0.11218 -5.74358,0.11465 -8.56827,-0.26882 -1.06151,-0.14428 -2.10291,-0.3683 -3.11997,-0.66217 -0.17603,-0.0794 -0.35242,-0.16227 -0.52987,-0.25187 -1.80693,-0.90983 -3.61385,-1.85739 -5.31812,-2.94994 -1.84503,-1.18322 -3.45652,-2.61973 -4.91561,-4.25062 -0.46778,-0.52282 -1.04105,-1.10949 -1.60267,-1.7392 -0.12665,-0.18273 -0.25012,-0.36794 -0.3683,-0.55703 -0.11465,-0.19015 -0.22719,-0.38171 -0.33584,-0.57468 l -0.002,-0.005 c -0.0565,-0.10053 -0.10972,-0.20285 -0.1644,-0.3041 -0.75318,-1.46438 -1.2319,-3.05788 -1.72579,-4.62491 -0.57996,-1.83974 -1.12642,-3.69323 -1.52682,-5.57107 -0.0293,-0.15663 -0.0621,-0.31221 -0.0896,-0.46884 -0.31927,-1.81574 -0.46461,-3.65583 -0.54716,-5.49875 0.002,-0.10407 0.001,-0.20743 0.005,-0.3115 0.002,-0.055 -0.007,-0.10336 -0.0229,-0.1464 -0.0388,-0.97966 -0.0639,-1.95967 -0.0892,-2.93722 -0.066,-2.55129 -0.39617,-6.3313 1.44674,-8.37777 0.73413,-0.81491 1.76319,-1.22449 2.79224,-1.55292 -0.32244,0.4826 -0.51682,1.02658 -0.52458,1.63195 l -0.0589,-0.0381 c -0.41486,-0.28681 -0.80609,0.39052 -0.3944,0.67486 l 0.0363,0.0236 c 0.0176,0.0497 0.049,0.097 0.10866,0.13123 0.18768,0.1076 0.37818,0.20497 0.57079,0.29528 0.0406,0.0367 0.0882,0.0688 0.15241,0.0871 0.0445,0.0127 0.0889,0.0243 0.13335,0.0367 0.46848,0.21907 0.96061,0.3817 1.47037,0.48895 0.58808,0.14958 1.18886,0.25964 1.79705,0.35666 9.51442,2.23237 19.42077,2.51001 29.02339,0.84666 0.30585,-0.042 0.61136,-0.0829 0.91686,-0.12841 3.49251,-0.5207 7.118,-1.10807 10.27924,-2.75237 0.0787,-0.0272 0.1577,-0.0526 0.23601,-0.0797 0.036,-0.0127 0.0667,-0.0296 0.0949,-0.0483 l 0.007,0.007 c 0.042,-0.055 0.0924,-0.10125 0.14534,-0.14252 0.06,-0.0346 0.12347,-0.067 0.18344,-0.10266 0.127,-0.0723 0.14464,-0.19509 0.10584,-0.29986 0.0247,-0.0349 0.0529,-0.067 0.0811,-0.0956 -0.25753,-0.43039 -0.54646,-0.83256 -0.85902,-1.21144 0.0575,-0.008 0.11607,-0.0116 0.17533,-0.0141 0.37677,0.11465 0.75777,0.22895 1.13171,0.35031 0.39864,0.12841 0.81492,0.25647 1.22767,0.40358 0.34925,0.18979 0.67381,0.38452 0.94545,0.54398 0.90311,0.53516 1.43933,1.04281 1.64747,2.05846 0.13053,0.63253 0.20814,1.27423 0.24341,1.91805 0.004,0.0497 0,0.20638 0.004,0.40287 -0.0212,0.0575 -0.0353,0.12136 -0.0317,0.19438 0.0459,1.94063 0.0953,3.88126 0.14111,5.82225 -0.1023,0.25435 -0.13758,0.55456 -0.0811,0.91687 0.004,0.0452 0.0212,0.0783 0.0423,0.10583 -0.0459,0.56056 -0.0917,1.12113 -0.14111,1.68169 -0.007,0.0882 0.0247,0.15134 0.0776,0.19262 -0.27517,2.38125 -0.59972,4.75615 -0.99131,7.12152 -0.16933,1.03612 -0.32103,2.08562 -0.63853,3.08469 -0.0847,0.23601 -0.16933,0.47167 -0.25752,0.70591 -0.0635,0.15063 -0.127,0.30057 -0.20109,0.44803 -0.33161,0.66004 -0.69144,1.25871 -0.9278,1.91805 -0.0388,0.037 -0.0741,0.0801 -0.10231,0.13617 -1.03364,1.95298 -1.9685,4.09188 -3.4477,5.75699 z m -33.42957,5.93338 c 0.49177,0.24906 0.98954,0.48613 1.49895,0.69815 0.10548,0.0441 0.21237,0.0843 0.31856,0.12629 0.01,0.0385 0.0243,0.0776 0.0494,0.11713 0.1718,0.2734 0.35736,0.52916 0.55315,0.77046 0.0173,0.0956 0.0741,0.18345 0.18345,0.2406 l 0.0328,0.0166 c 1.17192,1.31903 2.72062,2.12125 4.5339,2.44404 2.94499,0.52458 6.05507,0.51823 9.03146,0.33796 4.19876,-0.2547 10.14413,-0.65405 12.22587,-4.91631 l 0.0462,-0.0515 c 0.0515,-0.0621 0.0815,-0.12772 0.0952,-0.19228 1.8027,0.63431 5.62293,1.85845 3.57505,3.94901 -1.38324,1.41217 -3.82623,2.01753 -5.67619,2.53224 -3.92007,1.09149 -8.00912,1.37406 -12.06253,1.37229 -4.11657,-10e-4 -8.36648,-0.0589 -12.41461,-0.86535 -1.78258,-0.3549 -4.45488,-0.77435 -5.66878,-2.28 -1.75437,-2.17595 1.74166,-3.79589 3.67806,-4.29931 z m 39.09272,-0.84809 c 1.05127,0.65195 2.05669,1.57199 2.37772,2.81306 0.4198,1.61326 -0.36336,3.25826 -1.46403,4.40338 -0.70555,0.73448 -1.52047,1.36701 -2.40594,1.92017 -0.0635,10e-4 -0.13053,0.0205 -0.20109,0.0684 -0.16227,0.115 -0.32808,0.22965 -0.49036,0.34431 -3.35774,1.86619 -7.57872,2.65571 -11.13331,3.00566 -4.95194,0.4879 -9.98891,0.22543 -14.94085,-0.13617 -5.60775,-0.40922 -11.08957,-1.45979 -16.244,-3.76908 -2.40983,-1.07985 -5.73969,-2.43946 -6.28297,-5.35728 -0.65017,-3.49427 2.52235,-5.9295 5.56859,-6.54333 0.1143,-0.0229 0.18944,-0.0822 0.23354,-0.15699 1.4665,1.45591 3.12596,2.71463 4.92125,3.73593 -2.34068,0.82514 -5.28567,2.8134 -3.36868,5.23522 1.09362,1.38148 3.10445,1.89265 4.72652,2.30434 2.04223,0.51788 4.14302,0.77894 6.24099,0.93487 4.50074,0.33408 9.09814,0.45614 13.59535,0.0229 3.83435,-0.36971 8.38236,-1.06786 11.66107,-3.24344 1.12431,-0.74613 2.14419,-2.04294 1.38184,-3.41313 -0.75283,-1.3529 -2.81447,-1.91593 -4.32718,-2.42746 1.02165,-0.635 1.99673,-1.35961 2.91818,-2.18193 2.47509,0.42192 5.08141,1.10948 7.23336,2.44051 z m -42.17529,-41.22067 c 1.04633,-0.41028 2.1149,-0.73907 3.20075,-0.99801 -0.024,0.14464 0.0547,0.30869 0.24377,0.30869 0.23777,0 0.30374,-0.26 0.20426,-0.4124 0.40005,-0.0878 0.80292,-0.16651 1.20755,-0.23566 -0.0413,0.0607 -0.066,0.13335 -0.066,0.21379 v 0.0868 c 0,0.20461 0.17991,0.4004 0.39087,0.39087 0.21167,-0.01 0.39088,-0.1718 0.39088,-0.39087 v -0.0868 c 0,-0.11642 -0.0593,-0.22896 -0.14887,-0.30339 0.38805,-0.0575 0.77787,-0.10725 1.1691,-0.14888 0.054,0.16475 0.26917,0.28117 0.42863,0.1203 0.0579,-0.0579 0.11536,-0.11606 0.17321,-0.17392 l 0.003,-0.005 c 0.34078,-0.0307 0.68156,-0.0607 1.02376,-0.0903 v 0.16687 c 0,0.33549 0.5214,0.33584 0.5214,0 v -0.17357 l -0.008,-0.0395 c 0.54504,-0.0508 1.08903,-0.11324 1.62807,-0.1972 -0.079,0.0857 -0.14005,0.18873 -0.17462,0.30621 -0.0582,0.19579 0.0699,0.43427 0.27269,0.48048 0.20391,0.0466 0.40499,-0.0575 0.47378,-0.25506 l 0.008,-10e-4 c 0.1778,0.0533 0.36865,0.0138 0.47201,-0.16263 0.0198,-0.0339 0.0321,-0.0734 0.0402,-0.1143 0.11359,0.0967 0.29351,0.11148 0.37888,-0.0593 0.0289,-0.0579 0.0579,-0.11571 0.0868,-0.17392 0.0656,-0.13158 0.013,-0.25329 -0.0766,-0.32632 0.28434,-0.0776 0.56692,-0.16545 0.84526,-0.26846 0.0536,-0.0201 0.10619,-0.0438 0.15981,-0.0649 l -0.003,0.0123 c -0.10337,0.0367 -0.20638,0.0734 -0.30974,0.11007 -0.19897,0.0706 -0.33161,0.26634 -0.2727,0.48048 0.0526,0.19262 0.28081,0.34396 0.48048,0.27305 0.2212,-0.0783 0.44203,-0.15699 0.66323,-0.23566 -0.0296,0.21379 0.0938,0.45262 0.37253,0.45262 0.49777,0 0.50271,-0.76483 0.0141,-0.78035 0.0155,-0.0603 0.018,-0.12559 -7.1e-4,-0.19297 -0.0526,-0.19261 -0.28081,-0.34396 -0.48048,-0.27305 l -0.0448,0.0159 -0.0374,-0.0169 c 0.58667,-0.25647 1.14794,-0.57114 1.65453,-0.9652 l 0.003,-0.003 c -0.0282,0.14076 0.0123,0.29634 0.12135,0.39123 l -0.12171,0.0596 c -0.18944,0.0931 -0.2413,0.36195 -0.14005,0.53481 0.11289,0.19297 0.34467,0.23354 0.53481,0.14006 l 0.34818,-0.17145 c 0.18946,-0.0931 0.24167,-0.36195 0.14042,-0.53481 -0.0437,-0.0748 -0.10795,-0.11995 -0.17815,-0.14993 0.10724,-0.23143 -0.004,-0.57256 -0.33691,-0.57256 l -0.0621,0.006 c 0.15098,-0.16934 0.29421,-0.35737 0.43568,-0.54434 l 0.0205,0.0162 0.0166,0.008 c -0.0134,0.0392 -0.0219,0.0797 -0.0198,0.12242 0.01,0.21201 0.1718,0.39087 0.39088,0.39087 h 0.0106 c -0.018,0.0751 -0.005,0.15664 0.0656,0.2279 l 0.0868,0.0868 c 0.23742,0.23742 0.60608,-0.13088 0.36866,-0.3683 l -0.0325,-0.0325 c 0.0935,-0.0723 0.15769,-0.18274 0.15205,-0.3048 -0.009,-0.21167 -0.17145,-0.39053 -0.39053,-0.39053 h -0.10901 c -0.0205,-0.0399 -0.0504,-0.0765 -0.10301,-0.10301 -0.0427,-0.0215 -0.0854,-0.043 -0.12841,-0.0646 0.121,-0.13723 0.24624,-0.25788 0.3803,-0.34607 0.14993,-0.0981 0.28434,-0.16898 0.40675,-0.21661 -0.0296,0.0942 0.008,0.18979 0.0744,0.25612 v 0.0833 c 0,0.33514 0.52105,0.33584 0.52105,0 v -0.0868 c 0,-0.0515 -0.0152,-0.0924 -0.0356,-0.12771 0.031,-0.0519 0.0384,-0.10654 0.03,-0.15875 0.52282,0.20461 0.68016,1.10455 1.04599,1.69016 -0.0328,0.012 -0.0653,0.0317 -0.0956,0.0621 l -0.0868,0.0868 c -0.23742,0.23742 0.13088,0.60607 0.3683,0.36865 l 0.0871,-0.0868 0.0434,-0.0663 c 0.15487,0.13547 0.32703,0.24695 0.50871,0.3429 -0.10478,0.0716 -0.1778,0.19015 -0.17216,0.32068 l 0.0138,0.0868 h -0.0572 c -0.33514,0 -0.33549,0.5214 0,0.5214 h 0.0871 c 0.15487,0 0.2353,-0.11218 0.24694,-0.23212 0.0318,0.009 0.0649,0.0148 0.10019,0.0148 h 0.5214 c 0.066,0 0.13018,-0.0205 0.18804,-0.0529 -0.007,0.0307 -0.0117,0.0628 -0.012,0.096 -0.001,0.30726 0.4318,0.3302 0.50588,0.0741 0.14182,-0.042 0.19756,-0.19015 0.16546,-0.31786 0.3369,0.073 0.67521,0.14006 1.01564,0.19862 l 0.037,0.0561 0.0868,0.0868 c 0.13794,0.13793 0.31644,0.0698 0.39864,-0.0564 0.17639,0.0272 0.35348,0.0519 0.53022,0.0762 -0.14957,0.2286 -0.0473,0.62124 0.3101,0.62124 h 0.16121 c 0.3041,0 0.42334,-0.28505 0.35984,-0.51082 l 0.0871,0.0109 c -0.0102,0.13723 0.0702,0.28257 0.24801,0.28257 0.15063,0 0.23001,-0.10583 0.24518,-0.22154 0.85478,0.10301 1.70956,0.20143 2.55446,0.32632 -0.0353,0.10301 -0.013,0.21978 0.11324,0.28469 l 0.17322,0.0878 c 0.21307,0.10865 0.40463,-0.0892 0.39017,-0.2667 0.87559,0.14605 1.75965,0.32914 2.63102,0.55986 l -0.0141,0.0293 c -0.061,0.22013 0.15098,0.3503 0.32208,0.3115 0.12806,0.0332 0.27834,-0.0328 0.3235,-0.16299 2.70898,0.80399 5.22887,2.14101 6.84353,4.52473 -6.76733,2.3495 -13.84158,3.65408 -20.95253,3.91019 -0.28998,0.005 -0.57996,0.0113 -0.86995,0.0131 -3.67879,0.0212 -7.35227,-0.22824 -11.00669,-0.63606 -0.8756,-0.0977 -1.74943,-0.20531 -2.62326,-0.31855 -2.57387,-0.43145 -5.12904,-1.00225 -7.65069,-1.71733 l -0.0201,-0.01 c -0.52952,-2.56681 3.68759,-4.09363 5.51251,-4.80906 z m 44.3872,14.44449 c 2.159,-0.86501 4.42384,-1.46085 6.65339,-1.50354 2.032,-0.0392 4.09223,0.65864 5.05884,2.58057 0.93839,1.87043 0.63852,4.10916 -0.32456,5.90127 -1.8168,3.37643 -5.47864,5.82294 -8.87942,7.39564 -1.905,0.88158 -3.90877,1.50635 -5.95841,1.881 l -0.004,-0.073 c 1.07597,-2.23731 1.8803,-4.61151 2.42005,-7.03474 0.66675,-3.00072 0.97014,-6.07624 1.03364,-9.14717 z m 17.00742,1.06221 c -0.6103,-4.3688 -3.4925,-8.4275 -8.16328,-8.69068 -2.99508,-0.16898 -6.1348,0.33197 -8.96408,1.50495 -0.0388,-1.03822 -0.11642,-2.10044 -0.44097,-3.04412 -0.76906,-2.2419 -3.22086,-2.87231 -5.24934,-3.51014 -0.28927,-0.0907 -0.58067,-0.17568 -0.87065,-0.26282 l -0.0505,0.0483 -0.002,0.005 c -0.2233,-0.0882 -0.45297,-0.16051 -0.68826,-0.2159 -0.0878,-0.0205 -0.16052,0.002 -0.2159,0.0462 -1.54517,-1.43862 -3.49357,-2.42711 -5.54004,-3.05435 -1.85313,-0.56797 -3.77966,-0.84772 -5.69595,-1.10384 -1.09466,-0.14605 -2.19109,-0.2794 -3.28259,-0.45014 -1.20015,-0.18803 -2.6363,-0.26952 -3.33093,-1.37513 -0.51646,-0.82162 -0.83713,-2.50437 -2.20697,-2.14136 -0.52459,0.13864 -0.74612,0.60607 -1.02977,1.01424 -0.6611,0.95144 -1.4799,1.65276 -2.53259,2.15335 -1.96603,0.93451 -4.19029,0.98213 -6.31684,1.1871 -1.87043,0.17992 -3.71545,0.52105 -5.50827,1.09149 -1.99073,0.63324 -4.04601,1.49508 -5.77109,2.68746 -0.0494,0.0342 -0.0942,0.0723 -0.14217,0.10725 -0.35278,0.1023 -0.70556,0.20496 -1.05834,0.30727 -0.0459,0.0131 -0.0801,0.036 -0.10795,0.0632 -1.09254,0.3429 -2.23624,0.74612 -3.08997,1.54093 -1.87924,1.75049 -1.96497,4.84893 -1.98931,7.2323 -0.019,1.911 0.0113,3.84669 0.12629,5.7725 -7e-4,1.93111 0.25189,3.82835 0.64947,5.70124 0.46778,2.58551 1.16734,5.13927 1.77306,7.6888 0.0215,0.0903 0.0674,0.15275 0.12277,0.1979 0.24553,1.27036 1.01952,2.33539 1.85137,3.33622 0.0434,0.0716 0.0825,0.14429 0.127,0.2159 0.82091,1.31763 1.77623,2.55094 2.84127,3.68159 -2.35021,0.50025 -4.58716,1.81998 -5.58341,4.09716 -1.00753,2.3033 -0.43885,4.79638 1.43052,6.4555 0.14499,0.12876 0.29492,0.25294 0.44767,0.37429 0.0141,0.067 0.0505,0.13371 0.11677,0.19368 1.0241,0.92216 2.19815,1.5494 3.44381,2.0581 2.78236,1.27988 5.54637,2.68852 8.41833,3.75144 1.155,0.42722 2.33857,0.72673 3.53766,0.94862 2.42887,0.62266 4.94101,0.91758 7.4743,1.06433 3.10797,0.17992 6.28333,0.35208 9.42412,0.23601 l 0.30339,0.0254 c 0.084,0.007 0.1545,-0.0109 0.21096,-0.0459 1.08654,-0.0515 2.16852,-0.13935 3.24131,-0.27552 4.51345,-0.57432 8.09062,-2.44228 11.77326,-5.02426 l 0.06,-0.0501 c 1.21708,-0.69708 2.3389,-1.5434 3.18558,-2.60738 1.70743,-2.141 1.78857,-5.00415 -0.26811,-6.93033 -2.0955,-1.96497 -5.30578,-2.86455 -8.12165,-3.38278 0.11358,-10e-4 0.23036,-0.0356 0.33796,-0.11995 0.38911,-0.30409 0.744,-0.63852 1.07491,-0.99412 5.80567,-0.19685 11.59828,-2.04859 16.24083,-5.49805 1.73213,-1.13488 3.32317,-2.46768 4.55084,-3.98639 1.38641,-1.71238 2.37419,-3.73485 2.90689,-5.87127 0.61736,-1.96357 0.84665,-4.04178 0.55033,-6.15351"
       style="fill:#000000;fill-opacity:1;fill-rule:nonzero;stroke:none;stroke-width:0.03527778"
       id="path266"
       inkscape:connector-curvature="0" />
    <path
       d="m 169.56796,297.58139 h 0.0871 c 0.33514,0 0.33585,-0.52106 0,-0.52106 h -0.0871 c -0.33514,0 -0.33585,0.52106 0,0.52106"
       style="fill:#000000;fill-opacity:1;fill-rule:nonzero;stroke:none;stroke-width:0.03527778"
       id="path268"
       inkscape:connector-curvature="0" />
    <path
       d="m 179.12189,299.23168 h 0.0868 c 0.33514,0 0.33584,-0.52105 0,-0.52105 h -0.0868 c -0.33549,0 -0.33585,0.52105 0,0.52105"
       style="fill:#000000;fill-opacity:1;fill-rule:nonzero;stroke:none;stroke-width:0.03527778"
       id="path270"
       inkscape:connector-curvature="0" />
    <path
       d="m 181.03253,299.1449 c 0.33549,0 0.33585,-0.52105 0,-0.52105 -0.33514,0 -0.33584,0.52105 0,0.52105"
       style="fill:#000000;fill-opacity:1;fill-rule:nonzero;stroke:none;stroke-width:0.03527778"
       id="path272"
       inkscape:connector-curvature="0" />
    <path
       d="m 182.16177,299.49238 c 0.33514,0 0.33585,-0.5214 0,-0.5214 -0.33549,0 -0.33584,0.5214 0,0.5214"
       style="fill:#000000;fill-opacity:1;fill-rule:nonzero;stroke:none;stroke-width:0.03527778"
       id="path274"
       inkscape:connector-curvature="0" />
    <path
       d="m 170.00223,299.9263 v -0.0868 c 0,-0.33514 -0.52105,-0.33584 -0.52105,0 v 0.0868 c 0,0.33549 0.52105,0.3362 0.52105,0"
       style="fill:#000000;fill-opacity:1;fill-rule:nonzero;stroke:none;stroke-width:0.03527778"
       id="path276"
       inkscape:connector-curvature="0" />
    <path
       d="m 167.39696,298.8842 c 0.33514,0 0.33585,-0.52106 0,-0.52106 -0.33549,0 -0.33619,0.52106 0,0.52106"
       style="fill:#000000;fill-opacity:1;fill-rule:nonzero;stroke:none;stroke-width:0.03527778"
       id="path278"
       inkscape:connector-curvature="0" />
    <path
       d="m 166.00737,299.9263 c 0.33514,0 0.33549,-0.52105 0,-0.52105 -0.33549,0 -0.33584,0.52105 0,0.52105"
       style="fill:#000000;fill-opacity:1;fill-rule:nonzero;stroke:none;stroke-width:0.03527778"
       id="path280"
       inkscape:connector-curvature="0" />
    <path
       d="m 162.96713,301.14233 c 0.33549,0 0.3362,-0.52106 0,-0.52106 -0.33514,0 -0.33584,0.52106 0,0.52106"
       style="fill:#000000;fill-opacity:1;fill-rule:nonzero;stroke:none;stroke-width:0.03527778"
       id="path282"
       inkscape:connector-curvature="0" />
    <path
       d="m 171.73931,300.88162 c 0.33549,0 0.33584,-0.52105 0,-0.52105 -0.33514,0 -0.33585,0.52105 0,0.52105"
       style="fill:#000000;fill-opacity:1;fill-rule:nonzero;stroke:none;stroke-width:0.03527778"
       id="path284"
       inkscape:connector-curvature="0" />
    <path
       d="m 172.86855,299.05812 c -0.33549,0 -0.33585,0.52105 0,0.52105 0.13511,0 0.21308,-0.0854 0.23953,-0.18627 0.13688,0.01 0.28152,-0.0709 0.28152,-0.248 v -0.0868 c 0,-0.33549 -0.52105,-0.3362 -0.52105,0"
       style="fill:#000000;fill-opacity:1;fill-rule:nonzero;stroke:none;stroke-width:0.03527778"
       id="path286"
       inkscape:connector-curvature="0" />
    <path
       d="m 175.29001,299.74215 -0.0871,0.0871 c -0.23742,0.23707 0.13123,0.60572 0.36865,0.3683 l 0.0868,-0.0868 c 0.23742,-0.23742 -0.13088,-0.60607 -0.3683,-0.36865"
       style="fill:#000000;fill-opacity:1;fill-rule:nonzero;stroke:none;stroke-width:0.03527778"
       id="path288"
       inkscape:connector-curvature="0" />
    <path
       d="m 165.13848,298.8842 h 0.0871 c 0.33514,0 0.33584,-0.52106 0,-0.52106 h -0.0871 c -0.33514,0 -0.33549,0.52106 0,0.52106"
       style="fill:#000000;fill-opacity:1;fill-rule:nonzero;stroke:none;stroke-width:0.03527778"
       id="path290"
       inkscape:connector-curvature="0" />
    <path
       d="m 168.17837,299.1449 h 0.0871 c 0.33514,0 0.33585,-0.52105 0,-0.52105 h -0.0871 c -0.33514,0 -0.33585,0.52105 0,0.52105"
       style="fill:#000000;fill-opacity:1;fill-rule:nonzero;stroke:none;stroke-width:0.03527778"
       id="path292"
       inkscape:connector-curvature="0" />
    <path
       d="m 162.70678,299.40525 h 0.0868 c 0.33549,0 0.33584,-0.52105 0,-0.52105 h -0.0868 c -0.33514,0 -0.33584,0.52105 0,0.52105"
       style="fill:#000000;fill-opacity:1;fill-rule:nonzero;stroke:none;stroke-width:0.03527778"
       id="path294"
       inkscape:connector-curvature="0" />
    <path
       d="m 146.43244,312.24777 c 0.0445,-0.50094 -0.7373,-0.49777 -0.7814,0 -0.32208,3.6389 0.0279,7.25205 1.03434,10.76325 0.13829,0.4826 0.89288,0.27729 0.75353,-0.20779 -0.98777,-3.44699 -1.3222,-6.98429 -1.00647,-10.55546"
       style="fill:#000000;fill-opacity:1;fill-rule:nonzero;stroke:none;stroke-width:0.03527778"
       id="path296"
       inkscape:connector-curvature="0" />
    <path
       d="m 149.41094,318.12223 c -0.0162,-0.50165 -0.79798,-0.50412 -0.78175,0 0.061,1.9184 0.40393,3.7719 1.04457,5.58235 0.16686,0.47096 0.92251,0.26812 0.75389,-0.20778 -0.61666,-1.74343 -0.9578,-3.52531 -1.01671,-5.37457"
       style="fill:#000000;fill-opacity:1;fill-rule:nonzero;stroke:none;stroke-width:0.03527778"
       id="path298"
       inkscape:connector-curvature="0" />
    <path
       d="m 187.13347,330.25355 c -0.45685,2.99543 -1.81292,5.67266 -3.9758,7.79922 -0.35913,0.35312 0.19367,0.90557 0.5528,0.55245 2.25037,-2.21193 3.70064,-5.02251 4.17689,-8.14389 0.0751,-0.49211 -0.67804,-0.70414 -0.75389,-0.20778"
       style="fill:#000000;fill-opacity:1;fill-rule:nonzero;stroke:none;stroke-width:0.03527778"
       id="path300"
       inkscape:connector-curvature="0" />
  </g>
</svg>
