<?xml version="1.0" encoding="UTF-8" standalone="no"?>
<!-- Created with Inkscape (http://www.inkscape.org/) -->

<svg
   xmlns:dc="http://purl.org/dc/elements/1.1/"
   xmlns:cc="http://creativecommons.org/ns#"
   xmlns:rdf="http://www.w3.org/1999/02/22-rdf-syntax-ns#"
   xmlns:svg="http://www.w3.org/2000/svg"
   xmlns="http://www.w3.org/2000/svg"
   xmlns:sodipodi="http://sodipodi.sourceforge.net/DTD/sodipodi-0.dtd"
   xmlns:inkscape="http://www.inkscape.org/namespaces/inkscape"
   width="85.999023mm"
   height="79.952888mm"
   viewBox="0 0 85.999023 79.952888"
   version="1.1"
   id="svg2030"
   inkscape:version="0.92.3 (2405546, 2018-03-11)"
   sodipodi:docname="coffee_colour.svg">
  <defs
     id="defs2024" />
  <sodipodi:namedview
     id="base"
     pagecolor="#ffffff"
     bordercolor="#666666"
     borderopacity="1.0"
     inkscape:pageopacity="0.0"
     inkscape:pageshadow="2"
     inkscape:zoom="3.959798"
     inkscape:cx="137.95822"
     inkscape:cy="123.86103"
     inkscape:document-units="mm"
     inkscape:current-layer="layer1"
     showgrid="false"
     inkscape:window-width="3840"
     inkscape:window-height="2066"
     inkscape:window-x="-11"
     inkscape:window-y="-11"
     inkscape:window-maximized="1" />
  <metadata
     id="metadata2027">
    <rdf:RDF>
      <cc:Work
         rdf:about="">
        <dc:format>image/svg+xml</dc:format>
        <dc:type
           rdf:resource="http://purl.org/dc/dcmitype/StillImage" />
        <dc:title></dc:title>
      </cc:Work>
    </rdf:RDF>
  </metadata>
  <g
     inkscape:label="Layer 1"
     inkscape:groupmode="layer"
     id="layer1"
     transform="translate(-726.56002,238.8812)">
    <path
       d="m 811.9268,-185.94215 c -0.007,-0.13723 -0.0247,-0.27835 -0.0564,-0.4251 -0.0106,-0.042 -0.0212,-0.0825 -0.0317,-0.12347 0.0776,-0.1397 0.127,-0.29775 0.12347,-0.48225 -0.0247,-0.96838 -1.10066,-2.35409 -1.83797,-2.86914 -0.42686,-0.29634 -0.87136,-0.42475 -1.31939,-0.44203 -0.0494,-0.20991 -0.25047,-0.38947 -0.49742,-0.2914 l -1.22061,0.48437 c -1.23472,0.18873 -2.37419,0.6551 -3.43605,1.39029 -0.06,0.0402 -0.0952,0.0907 -0.11995,0.145 -0.43039,0.18767 -0.85725,0.3944 -1.27352,0.63182 -0.12348,0.0702 -0.18345,0.18556 -0.19756,0.30586 -0.92428,0.49177 -1.82739,1.03928 -2.70581,1.59879 -6.45936,2.97991 -12.81994,6.16408 -19.07822,9.5444 -1.23119,0.54716 -2.46239,1.08867 -3.70064,1.62419 -1.4605,0.23495 -2.89101,0.57926 -4.29013,1.0354 -1.11972,-0.94121 -2.44969,-1.79246 -3.84069,-1.69439 -1.91135,0.13441 -3.98674,1.28482 -5.65715,2.14771 -1.61642,0.83538 -3.16124,1.83974 -4.44782,3.15384 -1.98473,2.0267 -4.17371,6.33447 -0.68721,8.32943 1.53176,0.8763 3.48756,0.92569 5.1629,0.84385 2.01436,-0.0984 4.01144,-0.59443 5.83036,-1.44251 2.64478,-1.23296 6.35635,-3.97581 6.08683,-7.29262 0.57291,-0.38735 1.15499,-0.75424 1.74766,-1.10596 5.13292,-1.64677 10.24114,-3.36303 15.32114,-5.16926 3.08681,-1.0989 6.16303,-2.22673 9.2322,-3.38384 1.53105,-0.57856 3.06211,-1.16487 4.58964,-1.75789 0.69144,-0.26741 1.41111,-0.51541 2.11313,-0.80927 1.4605,-0.16263 2.74462,-0.95709 3.55953,-2.16641 0.29634,-0.33585 0.508,-0.72708 0.59267,-1.17863 0.0282,-0.0773 0.06,-0.15346 0.0811,-0.23213 0.0423,-0.13018 0.0247,-0.26423 -0.0423,-0.36865"
       style="fill:none;fill-opacity:1;fill-rule:nonzero;stroke:#000000;stroke-width:0.66145831;stroke-miterlimit:4;stroke-dasharray:none;stroke-opacity:1"
       id="path126"
       inkscape:connector-curvature="0" />
    <path
       d="m 753.81976,-233.72208 0.0868,-0.0868 c 0.14923,-0.14958 0.14923,-0.40358 0,-0.55281 -0.14993,-0.14993 -0.40287,-0.14993 -0.5528,0 l -0.0868,0.0868 c -0.14958,0.14923 -0.14958,0.40358 0,0.55281 0.14958,0.14993 0.40287,0.14958 0.5528,0"
       style="fill:#000000;fill-opacity:1;fill-rule:nonzero;stroke:none;stroke-width:0.03527778"
       id="path148"
       inkscape:connector-curvature="0" />
    <path
       d="m 749.70567,-231.29038 c 0.14957,0.14922 0.40357,0.14922 0.5528,0 0.14993,-0.14958 0.14993,-0.40288 0,-0.55281 l -0.0868,-0.0868 c -0.14923,-0.14922 -0.40323,-0.14922 -0.55281,0 -0.14957,0.14993 -0.14957,0.40287 0,0.5528 l 0.0868,0.0868"
       style="fill:#000000;fill-opacity:1;fill-rule:nonzero;stroke:none;stroke-width:0.03527778"
       id="path150"
       inkscape:connector-curvature="0" />
    <path
       d="m 744.05558,-230.1562 c 0.0579,0.0579 0.11606,0.11535 0.17392,0.17321 0.14993,0.14887 0.40322,0.14958 0.5528,0 0.14958,-0.14923 0.15028,-0.40323 0,-0.5528 -0.0582,-0.0575 -0.11606,-0.11536 -0.17427,-0.17286 -0.14958,-0.14923 -0.40288,-0.14993 -0.55245,0 -0.14958,0.14922 -0.15029,0.40322 0,0.55245"
       style="fill:#000000;fill-opacity:1;fill-rule:nonzero;stroke:none;stroke-width:0.03527778"
       id="path152"
       inkscape:connector-curvature="0" />
    <path
       d="m 745.90025,-232.43515 h 0.066 c -0.0434,0.21943 0.0787,0.47766 0.3683,0.47766 0.50306,0 0.50377,-0.78175 0,-0.78175 -0.0367,0 -0.0695,0.005 -0.10089,0.0131 -0.0123,-0.11924 -0.0921,-0.23001 -0.24659,-0.23001 h -0.0868 c -0.33514,0 -0.33584,0.52105 0,0.52105"
       style="fill:#000000;fill-opacity:1;fill-rule:nonzero;stroke:none;stroke-width:0.03527778"
       id="path154"
       inkscape:connector-curvature="0" />
    <path
       d="m 754.84599,-235.51843 c 0.21167,-0.01 0.39088,-0.1718 0.39088,-0.39087 v -0.0868 c 0,-0.20462 -0.17992,-0.40041 -0.39088,-0.39088 -0.21167,0.01 -0.39088,0.1718 -0.39088,0.39088 v 0.0868 c 0,0.20461 0.17992,0.4004 0.39088,0.39087"
       style="fill:#000000;fill-opacity:1;fill-rule:nonzero;stroke:none;stroke-width:0.03527778"
       id="path156"
       inkscape:connector-curvature="0" />
    <path
       d="m 757.36482,-233.2603 h 0.0868 c 0.20461,0 0.4004,-0.17956 0.39088,-0.39087 l -0.006,-0.0416 c 0.037,0.024 0.0801,0.0416 0.13583,0.0416 h 0.0868 c 0.33549,0 0.33585,-0.52106 0,-0.52106 h -0.0868 c -0.16087,0 -0.24236,0.11995 -0.24906,0.24448 -0.0688,-0.0699 -0.16334,-0.11395 -0.27199,-0.11395 h -0.0868 c -0.20461,0 -0.40039,0.17957 -0.39086,0.39053 0.01,0.21202 0.1718,0.39087 0.39086,0.39087"
       style="fill:#000000;fill-opacity:1;fill-rule:nonzero;stroke:none;stroke-width:0.03527778"
       id="path158"
       inkscape:connector-curvature="0" />
    <path
       d="m 762.79302,-232.43515 c 0.01,0.21167 0.1718,0.39088 0.39052,0.39088 h 0.0871 c 0.20426,0 0.40005,-0.17992 0.39088,-0.39088 -0.01,-0.21167 -0.17181,-0.39088 -0.39088,-0.39088 h -0.0871 c -0.20426,0 -0.40005,0.17992 -0.39052,0.39088"
       style="fill:#000000;fill-opacity:1;fill-rule:nonzero;stroke:none;stroke-width:0.03527778"
       id="path160"
       inkscape:connector-curvature="0" />
    <path
       d="m 755.49722,-232.26158 c 0.01,0.21166 0.1718,0.39088 0.39088,0.39088 h 0.0868 c 0.20461,0 0.4004,-0.17957 0.39088,-0.39088 -0.01,-0.21167 -0.1718,-0.39088 -0.39088,-0.39088 h -0.0868 c -0.20426,0 -0.40005,0.17992 -0.39088,0.39088"
       style="fill:#000000;fill-opacity:1;fill-rule:nonzero;stroke:none;stroke-width:0.03527778"
       id="path162"
       inkscape:connector-curvature="0" />
    <path
       d="m 738.99568,-231.21948 c 0.009,0.21202 0.17145,0.39088 0.39053,0.39088 h 0.17392 c 0.20426,0 0.40005,-0.17956 0.39088,-0.39088 -0.01,-0.21166 -0.17181,-0.39052 -0.39088,-0.39052 h -0.17392 c -0.20426,0 -0.40005,0.17956 -0.39053,0.39052"
       style="fill:#000000;fill-opacity:1;fill-rule:nonzero;stroke:none;stroke-width:0.03527778"
       id="path164"
       inkscape:connector-curvature="0" />
    <path
       d="m 748.76622,-232.56532 h 0.0868 c 0.20461,0 0.40041,-0.17992 0.39088,-0.39088 -0.004,-0.0854 -0.0332,-0.16475 -0.0804,-0.23001 0.0699,-0.15417 -0.002,-0.37783 -0.22331,-0.37783 h -0.0871 c -0.1658,0 -0.24941,0.12771 -0.25118,0.25682 -0.13264,0.0639 -0.23318,0.19897 -0.22648,0.35102 0.01,0.21167 0.1718,0.39088 0.39088,0.39088"
       style="fill:#000000;fill-opacity:1;fill-rule:nonzero;stroke:none;stroke-width:0.03527778"
       id="path166"
       inkscape:connector-curvature="0" />
    <path
       d="m 760.49149,-232.73924 c 0.0797,0 0.14464,-0.0226 0.19897,-0.0557 l 0.0614,0.0123 h 0.26071 c 0.33514,0 0.33584,-0.52106 0,-0.52106 0,-0.23918 -0.26317,-0.3048 -0.41522,-0.20284 -0.0325,-0.008 -0.0674,-0.0141 -0.10584,-0.0141 -0.50306,0 -0.50411,0.7814 0,0.7814"
       style="fill:#000000;fill-opacity:1;fill-rule:nonzero;stroke:none;stroke-width:0.03527778"
       id="path168"
       inkscape:connector-curvature="0" />
    <path
       d="m 765.08219,-231.99559 c 0.0861,-0.0303 0.17251,-0.061 0.25894,-0.0917 0.0575,-0.0205 0.10372,-0.0586 0.13794,-0.10477 0.0857,-0.0564 0.13441,-0.14817 0.15346,-0.24659 0.31644,-0.0194 0.31256,-0.51753 -0.0166,-0.51753 h -0.0871 c -0.0688,0 -0.11959,0.025 -0.16052,0.06 -0.0314,-0.008 -0.0628,-0.0166 -0.10018,-0.0166 -0.27341,0 -0.39723,0.23107 -0.37324,0.44203 -0.10266,0.0593 -0.16722,0.17004 -0.133,0.29351 0.0353,0.12806 0.18697,0.22931 0.32032,0.18168"
       style="fill:#000000;fill-opacity:1;fill-rule:nonzero;stroke:none;stroke-width:0.03527778"
       id="path170"
       inkscape:connector-curvature="0" />
    <path
       d="m 755.06295,-233.82474 v 0.0868 c 0,0.20426 0.17992,0.4004 0.39088,0.39088 0.21202,-0.01 0.39088,-0.17181 0.39088,-0.39088 v -0.0868 c 0,-0.20426 -0.17992,-0.4004 -0.39088,-0.39088 -0.21167,0.01 -0.39088,0.1718 -0.39088,0.39088"
       style="fill:#000000;fill-opacity:1;fill-rule:nonzero;stroke:none;stroke-width:0.03527778"
       id="path172"
       inkscape:connector-curvature="0" />
    <path
       d="m 751.80611,-231.43643 h 0.0868 c 0.20461,0 0.4004,-0.17992 0.39088,-0.39088 -0.01,-0.21167 -0.17181,-0.39088 -0.39088,-0.39088 h -0.0868 c -0.20426,0 -0.40041,0.17992 -0.39088,0.39088 0.01,0.21166 0.1718,0.39088 0.39088,0.39088"
       style="fill:#000000;fill-opacity:1;fill-rule:nonzero;stroke:none;stroke-width:0.03527778"
       id="path174"
       inkscape:connector-curvature="0" />
    <path
       d="m 767.70016,-231.08895 c 0.43321,0 0.49283,-0.57855 0.17956,-0.73942 0.32844,-0.007 0.32773,-0.52 -0.006,-0.52 -0.28115,0 -0.32385,0.36372 -0.13263,0.4819 l -0.0409,-0.004 c -0.50305,0 -0.50376,0.78176 0,0.78176"
       style="fill:#000000;fill-opacity:1;fill-rule:nonzero;stroke:none;stroke-width:0.03527778"
       id="path176"
       inkscape:connector-curvature="0" />
    <path
       d="m 743.98961,-231.82731 v -0.17357 c 0,-0.33549 -0.52141,-0.33584 -0.52141,0 v 0.17357 c 0,0.33549 0.52141,0.33619 0.52141,0"
       style="fill:#000000;fill-opacity:1;fill-rule:nonzero;stroke:none;stroke-width:0.03527778"
       id="path178"
       inkscape:connector-curvature="0" />
    <path
       d="m 742.85684,-230.59577 0.0116,-0.009 c 0.11077,-0.0864 0.0907,-0.27728 0,-0.3683 -0.10971,-0.10971 -0.25753,-0.0871 -0.36865,0 -0.15134,0.11818 -0.20603,0.3362 -0.14535,0.51577 0.10654,0.31573 0.60996,0.18026 0.50236,-0.13829"
       style="fill:#000000;fill-opacity:1;fill-rule:nonzero;stroke:none;stroke-width:0.03527778"
       id="path180"
       inkscape:connector-curvature="0" />
    <path
       d="m 747.30748,-230.77639 c -0.19967,0.0808 -0.33373,0.27023 -0.26176,0.49142 0.0942,0.29104 0.51929,0.19932 0.51082,-0.0642 0.0632,-0.0624 0.0981,-0.14675 0.0713,-0.24518 -0.0339,-0.12382 -0.18908,-0.23495 -0.32032,-0.18203"
       style="fill:#000000;fill-opacity:1;fill-rule:nonzero;stroke:none;stroke-width:0.03527778"
       id="path182"
       inkscape:connector-curvature="0" />
    <path
       d="m 750.06903,-230.00345 c -0.33514,0 -0.33585,0.5214 0,0.5214 0.33549,0 0.33584,-0.5214 0,-0.5214"
       style="fill:#000000;fill-opacity:1;fill-rule:nonzero;stroke:none;stroke-width:0.03527778"
       id="path184"
       inkscape:connector-curvature="0" />
    <path
       d="m 755.2979,-230.94925 c -0.0871,0.0289 -0.17392,0.0578 -0.2607,0.0868 -0.31644,0.10548 -0.18098,0.6089 0.13864,0.50236 0.0868,-0.0289 0.17357,-0.0579 0.2607,-0.0868 0.31644,-0.10548 0.18062,-0.6089 -0.13864,-0.50236"
       style="fill:#000000;fill-opacity:1;fill-rule:nonzero;stroke:none;stroke-width:0.03527778"
       id="path186"
       inkscape:connector-curvature="0" />
    <path
       d="m 759.53617,-231.74053 c 0.33514,0 0.33585,-0.52105 0,-0.52105 -0.33549,0 -0.33619,0.52105 0,0.52105"
       style="fill:#000000;fill-opacity:1;fill-rule:nonzero;stroke:none;stroke-width:0.03527778"
       id="path188"
       inkscape:connector-curvature="0" />
    <path
       d="m 759.88331,-230.00345 h 0.0871 c 0.33514,0 0.33585,-0.52105 0,-0.52105 h -0.0871 c -0.33514,0 -0.33585,0.52105 0,0.52105"
       style="fill:#000000;fill-opacity:1;fill-rule:nonzero;stroke:none;stroke-width:0.03527778"
       id="path190"
       inkscape:connector-curvature="0" />
    <path
       d="m 757.79909,-230.43772 h -0.0871 c -0.33514,0 -0.33549,0.52105 0,0.52105 h 0.0871 c 0.33514,0 0.3355,-0.52105 0,-0.52105"
       style="fill:#000000;fill-opacity:1;fill-rule:nonzero;stroke:none;stroke-width:0.03527778"
       id="path192"
       inkscape:connector-curvature="0" />
    <path
       d="m 752.84856,-229.2217 h -0.17392 c -0.33513,0 -0.33584,0.52106 0,0.52106 h 0.17392 c 0.33514,0 0.3355,-0.52106 0,-0.52106"
       style="fill:#000000;fill-opacity:1;fill-rule:nonzero;stroke:none;stroke-width:0.03527778"
       id="path194"
       inkscape:connector-curvature="0" />
    <path
       d="m 752.76143,-230.95877 c -0.33514,0 -0.33585,0.52105 0,0.52105 0.33549,0 0.33584,-0.52105 0,-0.52105"
       style="fill:#000000;fill-opacity:1;fill-rule:nonzero;stroke:none;stroke-width:0.03527778"
       id="path196"
       inkscape:connector-curvature="0" />
    <path
       d="m 743.7289,-229.48205 c -0.33549,0 -0.33584,0.52106 0,0.52106 0.3355,0 0.33585,-0.52106 0,-0.52106"
       style="fill:#000000;fill-opacity:1;fill-rule:nonzero;stroke:none;stroke-width:0.03527778"
       id="path198"
       inkscape:connector-curvature="0" />
    <path
       d="m 740.6996,-230.25322 0.0868,-0.0868 c 0.23777,-0.23777 -0.13089,-0.60607 -0.3683,-0.36865 l -0.0868,0.0868 c -0.23777,0.23742 0.13088,0.60607 0.3683,0.36865"
       style="fill:#000000;fill-opacity:1;fill-rule:nonzero;stroke:none;stroke-width:0.03527778"
       id="path200"
       inkscape:connector-curvature="0" />
    <path
       d="m 737.82305,-230.2638 c 0.33514,0 0.33585,-0.52105 0,-0.52105 -0.33549,0 -0.33584,0.52105 0,0.52105"
       style="fill:#000000;fill-opacity:1;fill-rule:nonzero;stroke:none;stroke-width:0.03527778"
       id="path202"
       inkscape:connector-curvature="0" />
    <path
       d="m 740.94972,-231.65339 h 0.0868 c 0.33514,0 0.33585,-0.52141 0,-0.52141 h -0.0868 c -0.33549,0 -0.3362,0.52141 0,0.52141"
       style="fill:#000000;fill-opacity:1;fill-rule:nonzero;stroke:none;stroke-width:0.03527778"
       id="path204"
       inkscape:connector-curvature="0" />
    <path
       d="m 747.20306,-232.86942 c -0.33549,0 -0.33584,0.52105 0,0.52105 0.33514,0 0.33584,-0.52105 0,-0.52105"
       style="fill:#000000;fill-opacity:1;fill-rule:nonzero;stroke:none;stroke-width:0.03527778"
       id="path206"
       inkscape:connector-curvature="0" />
    <path
       d="m 744.16776,-232.79886 c 0.0811,0.32491 0.58385,0.18732 0.50236,-0.13864 -0.0127,-0.0511 -0.0254,-0.10231 -0.0381,-0.15311 0.11288,0.19897 0.48648,0.1591 0.48648,-0.12629 v -0.0868 c 0,-0.33514 -0.52106,-0.33585 -0.52106,0 v 0.0751 l -0.0141,-0.0561 c -0.0815,-0.32527 -0.58384,-0.18768 -0.50235,0.13828 0.0289,0.11572 0.0579,0.23143 0.0868,0.34749"
       style="fill:#000000;fill-opacity:1;fill-rule:nonzero;stroke:none;stroke-width:0.03527778"
       id="path208"
       inkscape:connector-curvature="0" />
    <path
       d="m 745.31041,-231.14469 c 0.28434,0.0455 0.56621,0.0307 0.83643,-0.0751 0.13088,-0.0511 0.2219,-0.17462 0.18204,-0.32067 -0.0346,-0.12453 -0.18909,-0.23354 -0.32068,-0.18168 l -0.0314,0.0106 c 0.0102,-0.0695 -0.007,-0.14323 -0.0713,-0.20779 -0.0575,-0.0582 -0.11535,-0.11606 -0.17321,-0.17427 -0.23671,-0.23813 -0.60537,0.13017 -0.3683,0.3683 l 0.0773,0.078 c -0.13617,-0.0191 -0.2734,0.0384 -0.31292,0.18203 -0.0339,0.12418 0.0423,0.2981 0.18204,0.32068"
       style="fill:#000000;fill-opacity:1;fill-rule:nonzero;stroke:none;stroke-width:0.03527778"
       id="path210"
       inkscape:connector-curvature="0" />
    <path
       d="m 748.94014,-232.26158 c -0.33549,0 -0.33585,0.52105 0,0.52105 0.33514,0 0.33584,-0.52105 0,-0.52105"
       style="fill:#000000;fill-opacity:1;fill-rule:nonzero;stroke:none;stroke-width:0.03527778"
       id="path212"
       inkscape:connector-curvature="0" />
    <path
       d="m 750.67686,-232.9562 h 0.17392 c 0.33549,0 0.33585,-0.52105 0,-0.52105 h -0.17392 c -0.33514,0 -0.33549,0.52105 0,0.52105"
       style="fill:#000000;fill-opacity:1;fill-rule:nonzero;stroke:none;stroke-width:0.03527778"
       id="path214"
       inkscape:connector-curvature="0" />
    <path
       d="m 752.75049,-232.07708 c 0.0868,-0.0293 0.17357,-0.0582 0.2607,-0.0871 0.0981,-0.0328 0.14852,-0.10513 0.16757,-0.1845 0.0434,0.0441 0.1016,0.0681 0.16369,0.0737 0.0138,0.0748 0.042,0.14675 0.0981,0.2032 l 0.0868,0.0868 c 0.14922,0.14922 0.40358,0.14922 0.5528,0 0.14993,-0.14993 0.14993,-0.40323 0,-0.55281 l -0.0868,-0.0868 c -0.10196,-0.10195 -0.25224,-0.12911 -0.38524,-0.0914 -0.0974,-0.22189 -0.49459,-0.18767 -0.49847,0.10337 -0.0557,-0.0571 -0.13547,-0.0882 -0.23707,-0.0543 -0.0868,0.0293 -0.17356,0.0582 -0.26035,0.0871 -0.31644,0.10583 -0.18097,0.60924 0.13829,0.50271"
       style="fill:#000000;fill-opacity:1;fill-rule:nonzero;stroke:none;stroke-width:0.03527778"
       id="path216"
       inkscape:connector-curvature="0" />
    <path
       d="m 757.62517,-232.00088 c 0.3355,0 0.33585,-0.52105 0,-0.52105 h -0.0868 c -0.33514,0 -0.33584,0.52105 0,0.52105 h 0.0868"
       style="fill:#000000;fill-opacity:1;fill-rule:nonzero;stroke:none;stroke-width:0.03527778"
       id="path218"
       inkscape:connector-curvature="0" />
    <path
       d="m 759.27547,-233.39047 c 0.33549,0 0.33584,-0.52105 0,-0.52105 -0.33514,0 -0.33584,0.52105 0,0.52105"
       style="fill:#000000;fill-opacity:1;fill-rule:nonzero;stroke:none;stroke-width:0.03527778"
       id="path220"
       inkscape:connector-curvature="0" />
    <path
       d="m 761.70717,-228.96099 c 0.33549,0 0.33619,-0.52106 0,-0.52106 -0.33514,0 -0.33585,0.52106 0,0.52106"
       style="fill:#000000;fill-opacity:1;fill-rule:nonzero;stroke:none;stroke-width:0.03527778"
       id="path222"
       inkscape:connector-curvature="0" />
    <path
       d="m 765.09454,-230.09023 v 0.0868 c 0,0.33549 0.5214,0.33584 0.5214,0 v -0.0868 c 0,-0.33514 -0.5214,-0.33585 -0.5214,0"
       style="fill:#000000;fill-opacity:1;fill-rule:nonzero;stroke:none;stroke-width:0.03527778"
       id="path224"
       inkscape:connector-curvature="0" />
    <path
       d="m 761.7943,-232.00088 h 0.0868 c 0.33514,0 0.33584,-0.52105 0,-0.52105 h -0.0868 c -0.33549,0 -0.33619,0.52105 0,0.52105"
       style="fill:#000000;fill-opacity:1;fill-rule:nonzero;stroke:none;stroke-width:0.03527778"
       id="path226"
       inkscape:connector-curvature="0" />
    <path
       d="m 762.73904,-230.79544 -0.0868,0.0868 c -0.23742,0.23742 0.13088,0.60608 0.3683,0.36866 l 0.0871,-0.0868 c 0.23742,-0.23778 -0.13123,-0.60643 -0.36865,-0.36866"
       style="fill:#000000;fill-opacity:1;fill-rule:nonzero;stroke:none;stroke-width:0.03527778"
       id="path228"
       inkscape:connector-curvature="0" />
    <path
       d="m 762.66249,-233.39047 c 0.33549,0 0.3362,-0.52105 0,-0.52105 -0.33514,0 -0.33549,0.52105 0,0.52105"
       style="fill:#000000;fill-opacity:1;fill-rule:nonzero;stroke:none;stroke-width:0.03527778"
       id="path230"
       inkscape:connector-curvature="0" />
    <path
       d="m 739.64691,-228.74403 c -0.16757,0 -0.16792,0.2607 0,0.2607 0.16757,0 0.16792,-0.2607 0,-0.2607"
       style="fill:#000000;fill-opacity:1;fill-rule:nonzero;stroke:none;stroke-width:0.03527778"
       id="path232"
       inkscape:connector-curvature="0" />
    <path
       d="m 746.07382,-229.00438 h -0.0868 c -0.16757,0 -0.16793,0.26035 0,0.26035 h 0.0868 c 0.16792,0 0.16792,-0.26035 0,-0.26035"
       style="fill:#000000;fill-opacity:1;fill-rule:nonzero;stroke:none;stroke-width:0.03527778"
       id="path234"
       inkscape:connector-curvature="0" />
    <path
       d="m 747.98446,-227.8755 h -0.17356 c -0.16757,0 -0.16793,0.26071 0,0.26071 h 0.17356 c 0.16793,0 0.16828,-0.26071 0,-0.26071"
       style="fill:#000000;fill-opacity:1;fill-rule:nonzero;stroke:none;stroke-width:0.03527778"
       id="path236"
       inkscape:connector-curvature="0" />
    <path
       d="m 749.89546,-228.9176 h -0.0871 c -0.16756,0 -0.16756,0.26035 0,0.26035 h 0.0871 c 0.16757,0 0.16792,-0.26035 0,-0.26035"
       style="fill:#000000;fill-opacity:1;fill-rule:nonzero;stroke:none;stroke-width:0.03527778"
       id="path238"
       inkscape:connector-curvature="0" />
    <path
       d="m 751.80081,-230.79015 -0.0868,0.0868 c -0.11889,0.11854 0.0656,0.30304 0.18415,0.18415 l 0.0868,-0.0868 c 0.11889,-0.11888 -0.0653,-0.30303 -0.18415,-0.18415"
       style="fill:#000000;fill-opacity:1;fill-rule:nonzero;stroke:none;stroke-width:0.03527778"
       id="path240"
       inkscape:connector-curvature="0" />
    <path
       d="m 755.19348,-228.9176 c -0.16792,0 -0.16792,0.26035 0,0.26035 0.16757,0 0.16792,-0.26035 0,-0.26035"
       style="fill:#000000;fill-opacity:1;fill-rule:nonzero;stroke:none;stroke-width:0.03527778"
       id="path242"
       inkscape:connector-curvature="0" />
    <path
       d="m 757.71196,-229.43901 c -0.16757,0 -0.16757,0.26071 0,0.26071 0.16792,0 0.16792,-0.26071 0,-0.26071"
       style="fill:#000000;fill-opacity:1;fill-rule:nonzero;stroke:none;stroke-width:0.03527778"
       id="path244"
       inkscape:connector-curvature="0" />
    <path
       d="m 760.57828,-229.09117 c -0.16757,0 -0.16792,0.26035 0,0.26035 0.16757,0 0.16792,-0.26035 0,-0.26035"
       style="fill:#000000;fill-opacity:1;fill-rule:nonzero;stroke:none;stroke-width:0.03527778"
       id="path246"
       inkscape:connector-curvature="0" />
    <path
       d="m 764.66027,-230.39433 c 0.16792,0 0.16792,-0.26035 0,-0.26035 -0.16757,0 -0.16792,0.26035 0,0.26035"
       style="fill:#000000;fill-opacity:1;fill-rule:nonzero;stroke:none;stroke-width:0.03527778"
       id="path248"
       inkscape:connector-curvature="0" />
    <path
       d="m 762.00103,-231.34965 c -0.16792,0 -0.16792,0.2607 0,0.2607 h 0.0536 c 0.16757,0 0.16793,-0.2607 0,-0.2607 h -0.0536"
       style="fill:#000000;fill-opacity:1;fill-rule:nonzero;stroke:none;stroke-width:0.03527778"
       id="path250"
       inkscape:connector-curvature="0" />
    <path
       d="m 765.96308,-231.17573 c -0.16757,0 -0.16792,0.26035 0,0.26035 0.16757,0 0.16792,-0.26035 0,-0.26035"
       style="fill:#000000;fill-opacity:1;fill-rule:nonzero;stroke:none;stroke-width:0.03527778"
       id="path252"
       inkscape:connector-curvature="0" />
    <path
       d="m 767.35267,-230.13363 c -0.16757,0 -0.16792,0.26071 0,0.26071 0.16757,0 0.16792,-0.26071 0,-0.26071"
       style="fill:#000000;fill-opacity:1;fill-rule:nonzero;stroke:none;stroke-width:0.03527778"
       id="path254"
       inkscape:connector-curvature="0" />
    <path
       d="m 769.17653,-231.00217 h 0.0868 c 0.16757,0 0.16793,-0.2607 0,-0.2607 h -0.0868 c -0.16757,0 -0.16792,0.2607 0,0.2607"
       style="fill:#000000;fill-opacity:1;fill-rule:nonzero;stroke:none;stroke-width:0.03527778"
       id="path256"
       inkscape:connector-curvature="0" />
    <path
       d="m 766.39735,-232.73924 c 0.16757,0 0.16792,-0.26035 0,-0.26035 -0.16757,0 -0.16792,0.26035 0,0.26035"
       style="fill:#000000;fill-opacity:1;fill-rule:nonzero;stroke:none;stroke-width:0.03527778"
       id="path258"
       inkscape:connector-curvature="0" />
    <path
       d="m 769.6108,-231.34965 c 0.16757,0 0.16792,-0.26035 0,-0.26035 -0.16757,0 -0.16792,0.26035 0,0.26035"
       style="fill:#000000;fill-opacity:1;fill-rule:nonzero;stroke:none;stroke-width:0.03527778"
       id="path260"
       inkscape:connector-curvature="0" />
    <path
       d="m 747.02914,-233.39047 h 0.17392 c 0.33514,0 0.33584,-0.52105 0,-0.52105 h -0.17392 c -0.33514,0 -0.33584,0.52105 0,0.52105"
       style="fill:#000000;fill-opacity:1;fill-rule:nonzero;stroke:none;stroke-width:0.03527778"
       id="path262"
       inkscape:connector-curvature="0" />
    <path
       d="m 739.04931,-231.90351 0.0868,-0.0868 c 0.23742,-0.23742 -0.13088,-0.60608 -0.3683,-0.36866 l -0.0868,0.0871 c -0.23742,0.23707 0.13088,0.60572 0.3683,0.3683"
       style="fill:#000000;fill-opacity:1;fill-rule:nonzero;stroke:none;stroke-width:0.03527778"
       id="path264"
       inkscape:connector-curvature="0" />
    <path
       d="m 785.04765,-198.20758 c -0.79375,0.30091 -1.59103,0.55914 -2.38125,0.76234 -2.32128,0.59761 -4.75544,1.19556 -7.1508,1.30034 l -0.0744,0.004 c 0.99166,-1.35432 1.75013,-2.90477 2.51566,-4.39632 0.27164,-0.0444 0.54328,-0.0938 0.81491,-0.1464 1.59456,-0.1718 3.18912,-0.40287 4.71312,-0.91828 1.83444,-0.62195 3.27025,-1.72756 4.73427,-2.93652 1.15006,-0.77541 2.22603,-1.65347 3.21381,-2.6282 2.04964,-1.77412 3.83117,-3.82093 3.81,-6.70454 -0.0141,-1.46085 -0.56092,-2.70898 -1.43581,-3.69217 -0.95955,-1.3328 -2.47297,-2.07927 -4.15219,-2.29694 -0.13406,-0.0275 -0.26811,-0.0529 -0.40217,-0.0741 -2.08491,-0.32385 -4.20864,0.0346 -6.24064,0.50977 -0.46214,0.10795 -0.9525,0.23601 -1.37936,0.43215 l -0.0953,-3.90772 c 0.10936,-0.0268 0.2152,-0.0533 0.32456,-0.0737 0.50447,-0.21096 1.02305,-0.39864 1.54869,-0.56444 l 0.06,-0.018 0.0317,-0.009 c 1.27353,-0.35772 2.57176,-0.62971 3.88762,-0.80222 0.0423,-0.006 0.0882,-0.0109 0.13052,-0.0166 0.26106,-0.0272 0.51859,-0.0512 0.77964,-0.0695 2.55411,-0.18027 4.99886,0.0219 6.89328,1.93216 0.86078,0.86854 1.52047,1.90677 2.00378,3.02472 0.64911,1.66158 0.9525,3.50626 0.98425,5.1823 -0.1517,7.35612 -6.55461,13.20588 -13.13392,16.10713 z m -11.11709,2.24965 c -0.34572,0.1016 -0.63993,0.26247 -0.90487,0.54081 -0.18662,0.10725 -0.37148,0.21908 -0.55104,0.34184 l 0.0723,0.003 c -1.26153,1.29081 -2.55729,2.56822 -4.06506,3.56834 -1.76353,1.16982 -3.74121,1.50779 -5.66314,2.29378 -0.10089,0.0413 -0.20144,0.0843 -0.30163,0.12805 -2.04011,0.4572 -4.1342,0.66499 -6.2237,0.74754 -2.84445,0.11218 -5.74358,0.11465 -8.56827,-0.26882 -1.06151,-0.14428 -2.10291,-0.3683 -3.11997,-0.66217 -0.17603,-0.0794 -0.35242,-0.16227 -0.52987,-0.25187 -1.80693,-0.90983 -3.61385,-1.85739 -5.31812,-2.94994 -1.84503,-1.18322 -3.45652,-2.61973 -4.91561,-4.25062 -0.46778,-0.52282 -1.04105,-1.10949 -1.60267,-1.7392 -0.12665,-0.18273 -0.25012,-0.36794 -0.3683,-0.55703 -0.11465,-0.19015 -0.22719,-0.38171 -0.33584,-0.57468 l -0.002,-0.005 c -0.0565,-0.10053 -0.10972,-0.20285 -0.1644,-0.3041 -0.75318,-1.46438 -1.2319,-3.05788 -1.72579,-4.62491 -0.57996,-1.83974 -1.12642,-3.69323 -1.52682,-5.57107 -0.0293,-0.15663 -0.0621,-0.31221 -0.0896,-0.46884 -0.31927,-1.81574 -0.46461,-3.65583 -0.54716,-5.49875 0.002,-0.10407 10e-4,-0.20743 0.005,-0.3115 0.002,-0.055 -0.007,-0.10336 -0.0229,-0.1464 -0.0388,-0.97966 -0.0639,-1.95967 -0.0892,-2.93722 -0.066,-2.55129 -0.39617,-6.3313 1.44674,-8.37777 0.73413,-0.81491 1.76319,-1.22449 2.79224,-1.55292 -0.32244,0.4826 -0.51682,1.02658 -0.52458,1.63195 l -0.0589,-0.0381 c -0.41486,-0.28681 -0.80609,0.39052 -0.3944,0.67486 l 0.0363,0.0236 c 0.0176,0.0497 0.049,0.097 0.10866,0.13123 0.18768,0.1076 0.37818,0.20497 0.57079,0.29528 0.0406,0.0367 0.0882,0.0688 0.15241,0.0871 0.0445,0.0127 0.0889,0.0243 0.13335,0.0367 0.46848,0.21907 0.96061,0.3817 1.47037,0.48895 0.58808,0.14958 1.18886,0.25964 1.79705,0.35666 9.51442,2.23237 19.42077,2.51001 29.02339,0.84666 0.30585,-0.042 0.61136,-0.0829 0.91686,-0.12841 3.49251,-0.5207 7.118,-1.10807 10.27924,-2.75237 0.0787,-0.0272 0.1577,-0.0526 0.23601,-0.0797 0.036,-0.0127 0.0667,-0.0296 0.0949,-0.0483 l 0.007,0.007 c 0.042,-0.055 0.0924,-0.10125 0.14534,-0.14252 0.06,-0.0346 0.12347,-0.067 0.18344,-0.10266 0.127,-0.0723 0.14464,-0.19509 0.10584,-0.29986 0.0247,-0.0349 0.0529,-0.067 0.0811,-0.0956 -0.25753,-0.43039 -0.54646,-0.83256 -0.85902,-1.21144 0.0575,-0.008 0.11607,-0.0116 0.17533,-0.0141 0.37677,0.11465 0.75777,0.22895 1.13171,0.35031 0.39864,0.12841 0.81492,0.25647 1.22767,0.40358 0.34925,0.18979 0.67381,0.38452 0.94545,0.54398 0.90311,0.53516 1.43933,1.04281 1.64747,2.05846 0.13053,0.63253 0.20814,1.27423 0.24341,1.91805 0.004,0.0497 0,0.20638 0.004,0.40287 -0.0212,0.0575 -0.0353,0.12136 -0.0317,0.19438 0.0459,1.94063 0.0953,3.88126 0.14111,5.82225 -0.1023,0.25435 -0.13758,0.55456 -0.0811,0.91687 0.004,0.0452 0.0212,0.0783 0.0423,0.10583 -0.0459,0.56056 -0.0917,1.12113 -0.14111,1.68169 -0.007,0.0882 0.0247,0.15134 0.0776,0.19262 -0.27517,2.38125 -0.59972,4.75615 -0.99131,7.12152 -0.16933,1.03612 -0.32103,2.08562 -0.63853,3.08469 -0.0847,0.23601 -0.16933,0.47167 -0.25752,0.70591 -0.0635,0.15063 -0.127,0.30057 -0.20109,0.44803 -0.33161,0.66004 -0.69144,1.25871 -0.9278,1.91805 -0.0388,0.037 -0.0741,0.0801 -0.10231,0.13617 -1.03364,1.95298 -1.9685,4.09188 -3.4477,5.75699 z m -33.42957,5.93338 c 0.49177,0.24906 0.98954,0.48613 1.49895,0.69815 0.10548,0.0441 0.21237,0.0843 0.31856,0.12629 0.01,0.0385 0.0243,0.0776 0.0494,0.11713 0.1718,0.2734 0.35736,0.52916 0.55315,0.77046 0.0173,0.0956 0.0741,0.18345 0.18345,0.2406 l 0.0328,0.0166 c 1.17192,1.31903 2.72062,2.12125 4.5339,2.44404 2.94499,0.52458 6.05507,0.51823 9.03146,0.33796 4.19876,-0.2547 10.14413,-0.65405 12.22587,-4.91631 l 0.0462,-0.0515 c 0.0515,-0.0621 0.0815,-0.12772 0.0952,-0.19228 1.8027,0.63431 5.62293,1.85845 3.57505,3.94901 -1.38324,1.41217 -3.82623,2.01753 -5.67619,2.53224 -3.92007,1.09149 -8.00912,1.37406 -12.06253,1.37229 -4.11657,-0.001 -8.36648,-0.0589 -12.41461,-0.86535 -1.78258,-0.3549 -4.45488,-0.77435 -5.66878,-2.28 -1.75437,-2.17595 1.74166,-3.79589 3.67806,-4.29931 z m 39.09272,-0.84809 c 1.05127,0.65195 2.05669,1.57199 2.37772,2.81306 0.4198,1.61326 -0.36336,3.25826 -1.46403,4.40338 -0.70555,0.73448 -1.52047,1.36701 -2.40594,1.92017 -0.0635,0.001 -0.13053,0.0205 -0.20109,0.0684 -0.16227,0.115 -0.32808,0.22965 -0.49036,0.34431 -3.35774,1.86619 -7.57872,2.65571 -11.13331,3.00566 -4.95194,0.4879 -9.98891,0.22543 -14.94085,-0.13617 -5.60775,-0.40922 -11.08957,-1.45979 -16.244,-3.76908 -2.40983,-1.07985 -5.73969,-2.43946 -6.28297,-5.35728 -0.65017,-3.49427 2.52235,-5.9295 5.56859,-6.54333 0.1143,-0.0229 0.18944,-0.0822 0.23354,-0.15699 1.4665,1.45591 3.12596,2.71463 4.92125,3.73593 -2.34068,0.82514 -5.28567,2.8134 -3.36868,5.23522 1.09362,1.38148 3.10445,1.89265 4.72652,2.30434 2.04223,0.51788 4.14302,0.77894 6.24099,0.93487 4.50074,0.33408 9.09814,0.45614 13.59535,0.0229 3.83435,-0.36971 8.38236,-1.06786 11.66107,-3.24344 1.12431,-0.74613 2.14419,-2.04294 1.38184,-3.41313 -0.75283,-1.3529 -2.81447,-1.91593 -4.32718,-2.42746 1.02165,-0.635 1.99673,-1.35961 2.91818,-2.18193 2.47509,0.42192 5.08141,1.10948 7.23336,2.44051 z m -42.17529,-41.22067 c 1.04633,-0.41028 2.1149,-0.73907 3.20075,-0.99801 -0.024,0.14464 0.0547,0.30869 0.24377,0.30869 0.23777,0 0.30374,-0.26 0.20426,-0.4124 0.40005,-0.0878 0.80292,-0.16651 1.20755,-0.23566 -0.0413,0.0607 -0.066,0.13335 -0.066,0.21379 v 0.0868 c 0,0.20461 0.17991,0.4004 0.39087,0.39087 0.21167,-0.01 0.39088,-0.1718 0.39088,-0.39087 v -0.0868 c 0,-0.11642 -0.0593,-0.22896 -0.14887,-0.30339 0.38805,-0.0575 0.77787,-0.10725 1.1691,-0.14888 0.054,0.16475 0.26917,0.28117 0.42863,0.1203 0.0579,-0.0579 0.11536,-0.11606 0.17321,-0.17392 l 0.003,-0.005 c 0.34078,-0.0307 0.68156,-0.0607 1.02376,-0.0903 v 0.16687 c 0,0.33549 0.5214,0.33584 0.5214,0 v -0.17357 l -0.008,-0.0395 c 0.54504,-0.0508 1.08903,-0.11324 1.62807,-0.1972 -0.079,0.0857 -0.14005,0.18873 -0.17462,0.30621 -0.0582,0.19579 0.0699,0.43427 0.27269,0.48048 0.20391,0.0466 0.40499,-0.0575 0.47378,-0.25506 l 0.008,-10e-4 c 0.1778,0.0533 0.36865,0.0138 0.47201,-0.16263 0.0198,-0.0339 0.0321,-0.0734 0.0402,-0.1143 0.11359,0.0967 0.29351,0.11148 0.37888,-0.0593 0.0289,-0.0579 0.0579,-0.11571 0.0868,-0.17392 0.0656,-0.13158 0.013,-0.25329 -0.0766,-0.32632 0.28434,-0.0776 0.56692,-0.16545 0.84526,-0.26846 0.0536,-0.0201 0.10619,-0.0438 0.15981,-0.0649 l -0.003,0.0123 c -0.10337,0.0367 -0.20638,0.0734 -0.30974,0.11007 -0.19897,0.0706 -0.33161,0.26634 -0.2727,0.48048 0.0526,0.19262 0.28081,0.34396 0.48048,0.27305 0.2212,-0.0783 0.44203,-0.15699 0.66323,-0.23566 -0.0296,0.21379 0.0938,0.45262 0.37253,0.45262 0.49777,0 0.50271,-0.76483 0.0141,-0.78035 0.0155,-0.0603 0.018,-0.12559 -7.1e-4,-0.19297 -0.0526,-0.19261 -0.28081,-0.34396 -0.48048,-0.27305 l -0.0448,0.0159 -0.0374,-0.0169 c 0.58667,-0.25647 1.14794,-0.57114 1.65453,-0.9652 l 0.003,-0.003 c -0.0282,0.14076 0.0123,0.29634 0.12135,0.39123 l -0.12171,0.0596 c -0.18944,0.0931 -0.2413,0.36195 -0.14005,0.53481 0.11289,0.19297 0.34467,0.23354 0.53481,0.14006 l 0.34818,-0.17145 c 0.18946,-0.0931 0.24167,-0.36195 0.14042,-0.53481 -0.0437,-0.0748 -0.10795,-0.11995 -0.17815,-0.14993 0.10724,-0.23143 -0.004,-0.57256 -0.33691,-0.57256 l -0.0621,0.006 c 0.15098,-0.16934 0.29421,-0.35737 0.43568,-0.54434 l 0.0205,0.0162 0.0166,0.008 c -0.0134,0.0392 -0.0219,0.0797 -0.0198,0.12242 0.01,0.21201 0.1718,0.39087 0.39088,0.39087 h 0.0106 c -0.018,0.0751 -0.005,0.15664 0.0656,0.2279 l 0.0868,0.0868 c 0.23742,0.23742 0.60608,-0.13088 0.36866,-0.3683 l -0.0325,-0.0325 c 0.0935,-0.0723 0.15769,-0.18274 0.15205,-0.3048 -0.009,-0.21167 -0.17145,-0.39053 -0.39053,-0.39053 h -0.10901 c -0.0205,-0.0399 -0.0504,-0.0765 -0.10301,-0.10301 -0.0427,-0.0215 -0.0854,-0.043 -0.12841,-0.0646 0.121,-0.13723 0.24624,-0.25788 0.3803,-0.34607 0.14993,-0.0981 0.28434,-0.16898 0.40675,-0.21661 -0.0296,0.0942 0.008,0.18979 0.0744,0.25612 v 0.0833 c 0,0.33514 0.52105,0.33584 0.52105,0 v -0.0868 c 0,-0.0515 -0.0152,-0.0924 -0.0356,-0.12771 0.031,-0.0519 0.0384,-0.10654 0.03,-0.15875 0.52282,0.20461 0.68016,1.10455 1.04599,1.69016 -0.0328,0.012 -0.0653,0.0317 -0.0956,0.0621 l -0.0868,0.0868 c -0.23742,0.23742 0.13088,0.60607 0.3683,0.36865 l 0.0871,-0.0868 0.0434,-0.0663 c 0.15487,0.13547 0.32703,0.24695 0.50871,0.3429 -0.10478,0.0716 -0.1778,0.19015 -0.17216,0.32068 l 0.0138,0.0868 h -0.0572 c -0.33514,0 -0.33549,0.5214 0,0.5214 h 0.0871 c 0.15487,0 0.2353,-0.11218 0.24694,-0.23212 0.0318,0.009 0.0649,0.0148 0.10019,0.0148 h 0.5214 c 0.066,0 0.13018,-0.0205 0.18804,-0.0529 -0.007,0.0307 -0.0117,0.0628 -0.012,0.096 -10e-4,0.30726 0.4318,0.3302 0.50588,0.0741 0.14182,-0.042 0.19756,-0.19015 0.16546,-0.31786 0.3369,0.073 0.67521,0.14006 1.01564,0.19862 l 0.037,0.0561 0.0868,0.0868 c 0.13794,0.13793 0.31644,0.0698 0.39864,-0.0564 0.17639,0.0272 0.35348,0.0519 0.53022,0.0762 -0.14957,0.2286 -0.0473,0.62124 0.3101,0.62124 h 0.16121 c 0.3041,0 0.42334,-0.28505 0.35984,-0.51082 l 0.0871,0.0109 c -0.0102,0.13723 0.0702,0.28257 0.24801,0.28257 0.15063,0 0.23001,-0.10583 0.24518,-0.22154 0.85478,0.10301 1.70956,0.20143 2.55446,0.32632 -0.0353,0.10301 -0.013,0.21978 0.11324,0.28469 l 0.17322,0.0878 c 0.21307,0.10865 0.40463,-0.0892 0.39017,-0.2667 0.87559,0.14605 1.75965,0.32914 2.63102,0.55986 l -0.0141,0.0293 c -0.061,0.22013 0.15098,0.3503 0.32208,0.3115 0.12806,0.0332 0.27834,-0.0328 0.3235,-0.16299 2.70898,0.80399 5.22887,2.14101 6.84353,4.52473 -6.76733,2.3495 -13.84158,3.65408 -20.95253,3.91019 -0.28998,0.005 -0.57996,0.0113 -0.86995,0.0131 -3.67879,0.0212 -7.35227,-0.22824 -11.00669,-0.63606 -0.8756,-0.0977 -1.74943,-0.20531 -2.62326,-0.31855 -2.57387,-0.43145 -5.12904,-1.00225 -7.65069,-1.71733 l -0.0201,-0.01 c -0.52952,-2.56681 3.68759,-4.09363 5.51251,-4.80906 z m 44.3872,14.44449 c 2.159,-0.86501 4.42384,-1.46085 6.65339,-1.50354 2.032,-0.0392 4.09223,0.65864 5.05884,2.58057 0.93839,1.87043 0.63852,4.10916 -0.32456,5.90127 -1.8168,3.37643 -5.47864,5.82294 -8.87942,7.39564 -1.905,0.88158 -3.90877,1.50635 -5.95841,1.881 l -0.004,-0.073 c 1.07597,-2.23731 1.8803,-4.61151 2.42005,-7.03474 0.66675,-3.00072 0.97014,-6.07624 1.03364,-9.14717 z m 17.00742,1.06221 c -0.6103,-4.3688 -3.4925,-8.4275 -8.16328,-8.69068 -2.99508,-0.16898 -6.1348,0.33197 -8.96408,1.50495 -0.0388,-1.03822 -0.11642,-2.10044 -0.44097,-3.04412 -0.76906,-2.2419 -3.22086,-2.87231 -5.24934,-3.51014 -0.28927,-0.0907 -0.58067,-0.17568 -0.87065,-0.26282 l -0.0505,0.0483 -0.002,0.005 c -0.2233,-0.0882 -0.45297,-0.16051 -0.68826,-0.2159 -0.0878,-0.0205 -0.16052,0.002 -0.2159,0.0462 -1.54517,-1.43862 -3.49357,-2.42711 -5.54004,-3.05435 -1.85313,-0.56797 -3.77966,-0.84772 -5.69595,-1.10384 -1.09466,-0.14605 -2.19109,-0.2794 -3.28259,-0.45014 -1.20015,-0.18803 -2.6363,-0.26952 -3.33093,-1.37513 -0.51646,-0.82162 -0.83713,-2.50437 -2.20697,-2.14136 -0.52459,0.13864 -0.74612,0.60607 -1.02977,1.01424 -0.6611,0.95144 -1.4799,1.65276 -2.53259,2.15335 -1.96603,0.93451 -4.19029,0.98213 -6.31684,1.1871 -1.87043,0.17992 -3.71545,0.52105 -5.50827,1.09149 -1.99073,0.63324 -4.04601,1.49508 -5.77109,2.68746 -0.0494,0.0342 -0.0942,0.0723 -0.14217,0.10725 -0.35278,0.1023 -0.70556,0.20496 -1.05834,0.30727 -0.0459,0.0131 -0.0801,0.036 -0.10795,0.0632 -1.09254,0.3429 -2.23624,0.74612 -3.08997,1.54093 -1.87924,1.75049 -1.96497,4.84893 -1.98931,7.2323 -0.019,1.911 0.0113,3.84669 0.12629,5.7725 -7e-4,1.93111 0.25189,3.82835 0.64947,5.70124 0.46778,2.58551 1.16734,5.13927 1.77306,7.6888 0.0215,0.0903 0.0674,0.15275 0.12277,0.1979 0.24553,1.27036 1.01952,2.33539 1.85137,3.33622 0.0434,0.0716 0.0825,0.14429 0.127,0.2159 0.82091,1.31763 1.77623,2.55094 2.84127,3.68159 -2.35021,0.50025 -4.58716,1.81998 -5.58341,4.09716 -1.00753,2.3033 -0.43885,4.79638 1.43052,6.4555 0.14499,0.12876 0.29492,0.25294 0.44767,0.37429 0.0141,0.067 0.0505,0.13371 0.11677,0.19368 1.0241,0.92216 2.19815,1.5494 3.44381,2.0581 2.78236,1.27988 5.54637,2.68852 8.41833,3.75144 1.155,0.42722 2.33857,0.72673 3.53766,0.94862 2.42887,0.62266 4.94101,0.91758 7.4743,1.06433 3.10797,0.17992 6.28333,0.35208 9.42412,0.23601 l 0.30339,0.0254 c 0.084,0.007 0.1545,-0.0109 0.21096,-0.0459 1.08654,-0.0515 2.16852,-0.13935 3.24131,-0.27552 4.51345,-0.57432 8.09062,-2.44228 11.77326,-5.02426 l 0.06,-0.0501 c 1.21708,-0.69708 2.3389,-1.5434 3.18558,-2.60738 1.70743,-2.141 1.78857,-5.00415 -0.26811,-6.93033 -2.0955,-1.96497 -5.30578,-2.86455 -8.12165,-3.38278 0.11358,-0.001 0.23036,-0.0356 0.33796,-0.11995 0.38911,-0.30409 0.744,-0.63852 1.07491,-0.99412 5.80567,-0.19685 11.59828,-2.04859 16.24083,-5.49805 1.73213,-1.13488 3.32317,-2.46768 4.55084,-3.98639 1.38641,-1.71238 2.37419,-3.73485 2.90689,-5.87127 0.61736,-1.96357 0.84665,-4.04178 0.55033,-6.15351"
       style="fill:#000000;fill-opacity:1;fill-rule:nonzero;stroke:none;stroke-width:0.03527778"
       id="path266"
       inkscape:connector-curvature="0" />
    <path
       d="m 754.58529,-234.51971 h 0.0871 c 0.33514,0 0.33585,-0.52106 0,-0.52106 h -0.0871 c -0.33514,0 -0.33585,0.52106 0,0.52106"
       style="fill:#000000;fill-opacity:1;fill-rule:nonzero;stroke:none;stroke-width:0.03527778"
       id="path268"
       inkscape:connector-curvature="0" />
    <path
       d="m 764.13922,-232.86942 h 0.0868 c 0.33514,0 0.33584,-0.52105 0,-0.52105 h -0.0868 c -0.33549,0 -0.33585,0.52105 0,0.52105"
       style="fill:#000000;fill-opacity:1;fill-rule:nonzero;stroke:none;stroke-width:0.03527778"
       id="path270"
       inkscape:connector-curvature="0" />
    <path
       d="m 766.04986,-232.9562 c 0.33549,0 0.33585,-0.52105 0,-0.52105 -0.33514,0 -0.33584,0.52105 0,0.52105"
       style="fill:#000000;fill-opacity:1;fill-rule:nonzero;stroke:none;stroke-width:0.03527778"
       id="path272"
       inkscape:connector-curvature="0" />
    <path
       d="m 767.1791,-232.60872 c 0.33514,0 0.33585,-0.5214 0,-0.5214 -0.33549,0 -0.33584,0.5214 0,0.5214"
       style="fill:#000000;fill-opacity:1;fill-rule:nonzero;stroke:none;stroke-width:0.03527778"
       id="path274"
       inkscape:connector-curvature="0" />
    <path
       d="m 755.01956,-232.1748 v -0.0868 c 0,-0.33514 -0.52105,-0.33584 -0.52105,0 v 0.0868 c 0,0.33549 0.52105,0.3362 0.52105,0"
       style="fill:#000000;fill-opacity:1;fill-rule:nonzero;stroke:none;stroke-width:0.03527778"
       id="path276"
       inkscape:connector-curvature="0" />
    <path
       d="m 752.41429,-233.2169 c 0.33514,0 0.33585,-0.52106 0,-0.52106 -0.33549,0 -0.33619,0.52106 0,0.52106"
       style="fill:#000000;fill-opacity:1;fill-rule:nonzero;stroke:none;stroke-width:0.03527778"
       id="path278"
       inkscape:connector-curvature="0" />
    <path
       d="m 751.0247,-232.1748 c 0.33514,0 0.33549,-0.52105 0,-0.52105 -0.33549,0 -0.33584,0.52105 0,0.52105"
       style="fill:#000000;fill-opacity:1;fill-rule:nonzero;stroke:none;stroke-width:0.03527778"
       id="path280"
       inkscape:connector-curvature="0" />
    <path
       d="m 747.98446,-230.95877 c 0.33549,0 0.3362,-0.52106 0,-0.52106 -0.33514,0 -0.33584,0.52106 0,0.52106"
       style="fill:#000000;fill-opacity:1;fill-rule:nonzero;stroke:none;stroke-width:0.03527778"
       id="path282"
       inkscape:connector-curvature="0" />
    <path
       d="m 756.75664,-231.21948 c 0.33549,0 0.33584,-0.52105 0,-0.52105 -0.33514,0 -0.33585,0.52105 0,0.52105"
       style="fill:#000000;fill-opacity:1;fill-rule:nonzero;stroke:none;stroke-width:0.03527778"
       id="path284"
       inkscape:connector-curvature="0" />
    <path
       d="m 757.88588,-233.04298 c -0.33549,0 -0.33585,0.52105 0,0.52105 0.13511,0 0.21308,-0.0854 0.23953,-0.18627 0.13688,0.01 0.28152,-0.0709 0.28152,-0.248 v -0.0868 c 0,-0.33549 -0.52105,-0.3362 -0.52105,0"
       style="fill:#000000;fill-opacity:1;fill-rule:nonzero;stroke:none;stroke-width:0.03527778"
       id="path286"
       inkscape:connector-curvature="0" />
    <path
       d="m 760.30734,-232.35895 -0.0871,0.0871 c -0.23742,0.23707 0.13123,0.60572 0.36865,0.3683 l 0.0868,-0.0868 c 0.23742,-0.23742 -0.13088,-0.60607 -0.3683,-0.36865"
       style="fill:#000000;fill-opacity:1;fill-rule:nonzero;stroke:none;stroke-width:0.03527778"
       id="path288"
       inkscape:connector-curvature="0" />
    <path
       d="m 750.15581,-233.2169 h 0.0871 c 0.33514,0 0.33584,-0.52106 0,-0.52106 h -0.0871 c -0.33514,0 -0.33549,0.52106 0,0.52106"
       style="fill:#000000;fill-opacity:1;fill-rule:nonzero;stroke:none;stroke-width:0.03527778"
       id="path290"
       inkscape:connector-curvature="0" />
    <path
       d="m 753.1957,-232.9562 h 0.0871 c 0.33514,0 0.33585,-0.52105 0,-0.52105 h -0.0871 c -0.33514,0 -0.33585,0.52105 0,0.52105"
       style="fill:#000000;fill-opacity:1;fill-rule:nonzero;stroke:none;stroke-width:0.03527778"
       id="path292"
       inkscape:connector-curvature="0" />
    <path
       d="m 747.72411,-232.69585 h 0.0868 c 0.33549,0 0.33584,-0.52105 0,-0.52105 h -0.0868 c -0.33514,0 -0.33584,0.52105 0,0.52105"
       style="fill:#000000;fill-opacity:1;fill-rule:nonzero;stroke:none;stroke-width:0.03527778"
       id="path294"
       inkscape:connector-curvature="0" />
    <path
       d="m 731.44977,-219.85333 c 0.0445,-0.50094 -0.7373,-0.49777 -0.7814,0 -0.32208,3.6389 0.0279,7.25205 1.03434,10.76325 0.13829,0.4826 0.89288,0.27729 0.75353,-0.20779 -0.98777,-3.44699 -1.3222,-6.98429 -1.00647,-10.55546"
       style="fill:#000000;fill-opacity:1;fill-rule:nonzero;stroke:none;stroke-width:0.03527778"
       id="path296"
       inkscape:connector-curvature="0" />
    <path
       d="m 734.42827,-213.97887 c -0.0162,-0.50165 -0.79798,-0.50412 -0.78175,0 0.061,1.9184 0.40393,3.7719 1.04457,5.58235 0.16686,0.47096 0.92251,0.26812 0.75389,-0.20778 -0.61666,-1.74343 -0.9578,-3.52531 -1.01671,-5.37457"
       style="fill:#000000;fill-opacity:1;fill-rule:nonzero;stroke:none;stroke-width:0.03527778"
       id="path298"
       inkscape:connector-curvature="0" />
    <path
       d="m 772.1508,-201.84755 c -0.45685,2.99543 -1.81292,5.67266 -3.9758,7.79922 -0.35913,0.35312 0.19367,0.90557 0.5528,0.55245 2.25037,-2.21193 3.70064,-5.02251 4.17689,-8.14389 0.0751,-0.49211 -0.67804,-0.70414 -0.75389,-0.20778"
       style="fill:#000000;fill-opacity:1;fill-rule:nonzero;stroke:none;stroke-width:0.03527778"
       id="path300"
       inkscape:connector-curvature="0" />
    <path
       style="fill:#d1f0f5;fill-opacity:1;stroke:#000000;stroke-width:1.90894973;stroke-miterlimit:4;stroke-dasharray:none;stroke-opacity:1"
       d="m 90.708331,190.92596 c -6.340636,-0.33511 -13.971836,-1.3881 -19.066629,-2.63092 -2.66851,-0.65095 -3.856194,-1.12196 -7.679362,-3.04542 C 49.665538,178.05679 42.086267,173.14521 34.195117,165.95966 30.367561,162.47434 21.745805,153.03949 20.284323,150.73697 17.440071,146.25593 15.299365,141.02341 11.950289,130.36612 5.6860606,110.43236 4.3993231,103.41914 3.5869975,84.78299 3.0074855,71.487983 2.8505529,60.852564 3.1828705,57.395052 4.0775016,48.087093 6.6620846,42.607395 11.71286,39.310214 c 1.730274,-1.129536 4.710746,-2.523423 6.180992,-2.890687 l 0.674118,-0.168393 -0.623653,1.544011 c -0.34301,0.849206 -0.687722,2.084959 -0.766026,2.746118 -0.140709,1.188067 -0.152099,1.20097 -0.975257,1.104871 -0.675869,-0.0789 -0.913738,0.02616 -1.261758,0.557305 -0.802298,1.224462 -0.06407,2.399776 2.280639,3.630948 3.984144,2.092014 4.873429,2.319748 23.862672,6.110902 30.387432,6.066773 62.238743,6.848465 93.105773,2.284993 21.81129,-3.224644 27.93042,-4.355868 35.64314,-6.589232 3.65791,-1.059216 9.05474,-3.094159 11.66229,-4.39741 1.18062,-0.590072 2.43068,-1.161047 2.77792,-1.268833 1.10036,-0.34156 2.20424,-1.35867 2.36908,-2.182851 0.12869,-0.643469 -0.0291,-1.058367 -0.88573,-2.32902 -0.57327,-0.850342 -1.275,-1.801771 -1.55939,-2.114287 -0.73546,-0.80819 -0.40817,-0.752849 4.22932,0.715136 4.20804,1.33204 6.54987,2.444134 9.68149,4.597575 2.08239,1.431933 3.0758,2.566715 3.95217,4.514585 1.15547,2.568208 1.44198,5.344522 1.66365,16.120998 0.30555,14.854048 0.30063,16.378444 -0.0877,27.14785 -0.17198,4.768927 -1.50042,15.051497 -3.60521,27.905467 -1.83016,11.17679 -2.14264,12.16735 -6.7502,21.39803 -6.17234,12.36552 -9.1292,17.63081 -12.11169,21.56734 -2.13528,2.8183 -2.01128,2.69134 -3.05469,3.12731 -1.67267,0.69889 -3.99828,2.61769 -8.362,6.89929 -9.20587,9.03262 -13.25809,11.55049 -25.00128,15.5347 -3.4724,1.1781 -6.88166,2.38879 -7.57614,2.69041 -3.08897,1.34156 -13.21107,2.75673 -23.48605,3.28359 -4.35218,0.22317 -19.257339,0.27183 -22.980969,0.075 z m 69.493899,-20.0906 c 4.94614,-4.66862 10.1441,-13.04854 12.67296,-20.43077 1.15308,-3.36607 2.30715,-8.24997 2.30715,-9.76362 0,-1.11124 -0.63835,-1.81848 -1.63456,-1.81095 -0.9675,0.007 -1.19071,0.44035 -1.79533,3.4831 -1.89155,9.5192 -6.45359,18.42043 -13.06207,25.48611 -2.15949,2.30889 -2.38011,2.97157 -1.27792,3.83855 0.36597,0.28787 0.82734,0.5234 1.02527,0.5234 0.19792,0 0.99195,-0.59662 1.7645,-1.32582 z M 33.199713,115.95713 c 0.308698,-0.21622 0.561269,-0.55843 0.561269,-0.76046 0,-0.20203 -0.386391,-1.64452 -0.858645,-3.20554 -1.63965,-5.41978 -2.929428,-12.579621 -2.929428,-16.261885 0,-1.402728 -0.344997,-2.606608 -0.836547,-2.919164 -0.559039,-0.355465 -1.608482,-0.200697 -2.065825,0.304659 -0.40449,0.446958 -0.435793,0.806105 -0.280636,3.219862 0.351515,5.468508 1.231884,10.306238 2.961267,16.272518 0.429896,1.48312 1.001009,2.93205 1.269138,3.21986 0.579697,0.62223 1.40638,0.6716 2.179407,0.13015 z M 22.07968,113.26857 c 0.481389,-0.39951 0.401363,-1.02534 -0.682238,-5.33527 -2.565215,-10.202923 -3.689255,-21.935127 -3.062003,-31.959737 0.2686,-4.292691 0.25751,-4.678991 -0.147165,-5.126151 -0.617572,-0.682411 -1.79574,-0.511786 -2.438641,0.35317 -0.476824,0.641518 -0.51744,1.158832 -0.626405,7.978271 -0.160987,10.075271 0.441207,16.907362 2.241309,25.428377 1.188712,5.62693 1.962826,8.27719 2.567832,8.79124 0.553551,0.47033 1.492519,0.41353 2.147311,-0.1299 z"
       id="path1406"
       inkscape:connector-curvature="0"
       transform="matrix(0.26458333,0,0,0.26458333,726.56002,-238.8812)" />
    <path
       style="fill:#d1f0f5;fill-opacity:1;stroke:#000000;stroke-width:1.90894973;stroke-miterlimit:4;stroke-dasharray:none;stroke-opacity:1"
       d="m 185.28386,161.16192 c 0,-0.0771 0.43633,-0.78733 0.96962,-1.57836 1.56511,-2.32153 3.47838,-5.67181 5.88241,-10.30052 l 2.2493,-4.33081 1.06831,-0.15913 c 0.58757,-0.0875 2.82976,-0.38926 4.98265,-0.67053 13.76655,-1.79855 20.38078,-4.45397 29.96921,-12.03178 1.55175,-1.22636 4.16552,-3.22112 5.80838,-4.43282 3.22146,-2.37598 4.48519,-3.44756 9.6999,-8.22505 5.81917,-5.33127 8.78064,-8.92464 10.9698,-13.31046 2.007,-4.02087 2.69881,-6.896479 2.70363,-11.237945 0.003,-2.674528 -0.11129,-3.844663 -0.5302,-5.42957 -0.77622,-2.936756 -2.3127,-5.854253 -4.58561,-8.707277 -4.37646,-5.493467 -8.63116,-7.804033 -16.7619,-9.102762 -4.77588,-0.762854 -11.8333,-0.625341 -17.32355,0.337549 -4.28667,0.751806 -9.66682,2.005881 -11.00598,2.565415 -0.517,0.216019 -0.9787,0.35407 -1.02599,0.306779 -0.0473,-0.04729 -0.16167,-3.284171 -0.25418,-7.193069 -0.14194,-5.997918 -0.11262,-7.125892 0.18789,-7.227588 0.19585,-0.06628 1.78377,-0.630856 3.52872,-1.254621 4.86293,-1.738346 11.84946,-3.364778 18.16684,-4.229159 3.26633,-0.446917 12.9503,-0.447505 15.40483,-9.35e-4 6.0872,1.107486 10.69241,3.554162 14.63408,7.774857 6.11496,6.547845 9.41353,15.118964 10.37494,26.958626 0.96474,11.88066 -3.81746,25.35065 -13.14362,37.02156 -2.91078,3.6426 -8.78121,9.44145 -12.87555,12.71857 -8.41059,6.73185 -18.84811,12.71386 -26.90525,15.42009 -3.71333,1.24723 -13.39074,3.70757 -18.92966,4.8126 -5.44181,1.08565 -13.25902,1.97375 -13.25902,1.50634 z"
       id="path1416"
       inkscape:connector-curvature="0"
       transform="matrix(0.26458333,0,0,0.26458333,726.56002,-238.8812)" />
    <path
       style="fill:#d1f0f5;fill-opacity:1;stroke:#000000;stroke-width:1.90894973;stroke-miterlimit:4;stroke-dasharray:none;stroke-opacity:1"
       d="m 116.46722,229.58923 c -0.83337,-0.0486 -4.07218,-0.20956 -7.19734,-0.35769 C 80.158854,227.8517 61.914127,224.88002 43.862507,218.57804 35.50306,215.65968 25.573629,211.25714 20.617838,208.27175 13.046059,203.71048 9.4011236,199.0873 8.4959085,192.8965 c -0.5196325,-3.55379 -0.039546,-6.452 1.6568975,-10.00244 2.706791,-5.66498 8.926634,-10.52213 16.325837,-12.74903 1.43571,-0.4321 2.933033,-0.88786 3.327382,-1.0128 0.6705,-0.21244 0.907316,-0.0549 3.65156,2.42844 3.554146,3.21629 7.956325,6.54489 12.095576,9.14578 2.754295,1.73065 3.021069,1.96007 2.525382,2.1718 -5.206887,2.224 -8.088287,3.99958 -10.718754,6.60512 -2.452113,2.42887 -3.430448,4.44785 -3.430448,7.07937 0,1.63032 0.112852,2.07584 0.959981,3.78989 2.458489,4.97441 7.61505,7.9692 18.438726,10.7087 10.070266,2.54882 19.566135,3.69173 37.848378,4.5554 8.075611,0.3815 28.405224,0.16428 34.382164,-0.36737 20.69291,-1.84064 33.36429,-4.79587 43.51319,-10.14817 6.8967,-3.63717 10.04828,-7.07347 10.34959,-11.28459 0.36486,-5.09947 -3.77122,-8.84677 -13.33041,-12.07741 -1.73619,-0.58677 -3.2432,-1.1421 -3.34889,-1.23407 -0.10569,-0.092 0.91709,-0.91884 2.27285,-1.83748 1.35575,-0.91863 3.76456,-2.71284 5.3529,-3.98712 l 2.8879,-2.31687 2.92048,0.55749 c 10.03568,1.91574 19.18519,5.2977 25.17711,9.3063 2.82428,1.88945 5.73643,4.91658 6.85703,7.12775 3.06997,6.05773 1.33544,13.20595 -4.73585,19.51699 -2.18704,2.27341 -6.05538,5.36928 -8.26356,6.61341 -0.66798,0.37635 -1.66907,0.99565 -2.22465,1.37621 -1.4243,0.97559 -5.25913,2.86693 -8.42236,4.15389 -10.17933,4.14145 -22.30222,6.71198 -38.29616,8.12026 -4.01626,0.35364 -25.82172,0.68531 -29.80054,0.45328 z"
       id="path1418"
       inkscape:connector-curvature="0"
       transform="matrix(0.26458333,0,0,0.26458333,726.56002,-238.8812)" />
  </g>
</svg>
