<?xml version="1.0" encoding="UTF-8" standalone="no"?>
<!-- Created with Inkscape (http://www.inkscape.org/) -->

<svg
   xmlns:dc="http://purl.org/dc/elements/1.1/"
   xmlns:cc="http://creativecommons.org/ns#"
   xmlns:rdf="http://www.w3.org/1999/02/22-rdf-syntax-ns#"
   xmlns:svg="http://www.w3.org/2000/svg"
   xmlns="http://www.w3.org/2000/svg"
   xmlns:sodipodi="http://sodipodi.sourceforge.net/DTD/sodipodi-0.dtd"
   xmlns:inkscape="http://www.inkscape.org/namespaces/inkscape"
   width="32.76939mm"
   height="27.585985mm"
   viewBox="0 0 32.76939 27.585985"
   version="1.1"
   id="svg1324"
   inkscape:version="0.92.3 (2405546, 2018-03-11)"
   sodipodi:docname="croissant_colour.svg">
  <defs
     id="defs1318" />
  <sodipodi:namedview
     id="base"
     pagecolor="#ffffff"
     bordercolor="#666666"
     borderopacity="1.0"
     inkscape:pageopacity="0.0"
     inkscape:pageshadow="2"
     inkscape:zoom="7.9195959"
     inkscape:cx="31.995931"
     inkscape:cy="69.596721"
     inkscape:document-units="mm"
     inkscape:current-layer="layer1"
     showgrid="false"
     inkscape:window-width="1918"
     inkscape:window-height="2054"
     inkscape:window-x="1910"
     inkscape:window-y="0"
     inkscape:window-maximized="0" />
  <metadata
     id="metadata1321">
    <rdf:RDF>
      <cc:Work
         rdf:about="">
        <dc:format>image/svg+xml</dc:format>
        <dc:type
           rdf:resource="http://purl.org/dc/dcmitype/StillImage" />
        <dc:title></dc:title>
      </cc:Work>
    </rdf:RDF>
  </metadata>
  <g
     inkscape:label="Layer 1"
     inkscape:groupmode="layer"
     id="layer1"
     transform="translate(-108.34745,-153.93915)">
    <g
       transform="translate(65.909623,35.623858)"
       id="layer1-3"
       inkscape:label="Layer 1"
       style="fill:#deaa87">
      <path
         inkscape:connector-curvature="0"
         d="m 58.713282,119.95212 c 0.197556,-0.0652 0.210608,-0.25894 0.28434,-0.41067 -0.246944,-0.22366 -0.204259,0.26956 -0.28434,0.41067"
         style="fill:#deaa87;fill-opacity:1;fill-rule:evenodd;stroke:none;stroke-width:0.03527778"
         id="path384" />
      <path
         inkscape:connector-curvature="0"
         d="m 54.797097,120.78252 c 0.186266,-0.0127 0.231775,-0.12305 0.267406,-0.23978 -0.142523,0.0426 -0.249063,0.11109 -0.267406,0.23978"
         style="fill:#deaa87;fill-opacity:1;fill-rule:evenodd;stroke:none;stroke-width:0.03527778"
         id="path386" />
      <path
         inkscape:connector-curvature="0"
         d="m 53.274861,121.22639 c 0.123825,-0.0766 0.262467,-0.14221 0.254704,-0.30978 -0.129468,-0.0179 -0.296685,0.20987 -0.254704,0.30978"
         style="fill:#deaa87;fill-opacity:1;fill-rule:evenodd;stroke:none;stroke-width:0.03527778"
         id="path388" />
      <path
         inkscape:connector-curvature="0"
         d="m 61.31502,120.58077 c -0.120298,-0.17706 -0.16863,-0.58526 -0.08784,-0.74994 0.376412,0.0808 0.1778,0.5351 0.08784,0.74994 z m -0.176038,-0.97289 c -0.101952,0.19004 -0.17286,0.70404 -0.01976,1.07982 0.01024,0.0247 0.240594,0.42763 0.339019,0.4173 0.226131,-0.024 0.06808,-0.34495 0.07373,-0.51608 0.0046,-0.11716 0.178504,-0.30911 0.148167,-0.50479 -0.04375,-0.27408 -0.281871,-0.44002 -0.541163,-0.47625"
         style="fill:#deaa87;fill-opacity:1;fill-rule:evenodd;stroke:none;stroke-width:0.03527778"
         id="path390" />
      <path
         inkscape:connector-curvature="0"
         d="m 62.445672,120.08826 c 0.251531,-0.17667 0.755298,-0.46246 1.145823,-0.54254 -0.113948,0.37017 -0.288925,0.71233 -0.452967,1.06288 -0.156633,0.33486 -0.388408,0.68944 -0.352073,1.09266 0.150635,-0.15945 0.174977,-0.38146 0.255058,-0.57259 0.16369,-0.39162 0.394407,-0.75749 0.56021,-1.13027 0.0882,-0.19716 0.203907,-0.39479 0.223663,-0.61528 -0.04621,-0.002 -0.06738,-0.0389 -0.124179,-0.0251 -0.370062,0.277 -1.091846,0.31006 -1.255535,0.73022"
         style="fill:#deaa87;fill-opacity:1;fill-rule:evenodd;stroke:none;stroke-width:0.03527778"
         id="path392" />
      <path
         inkscape:connector-curvature="0"
         d="m 56.657998,121.01899 c 0.256472,-0.0745 0.650875,-0.18274 0.770822,0.0278 -0.128765,0.32385 -0.578909,0.083 -0.770822,-0.0278 z m 0.688975,-0.29256 c -0.315735,-0.0771 -0.93486,0.0706 -1.131003,0.22931 0.07726,0.11437 0.251528,0.2413 0.364066,0.29284 0.07373,0.0328 0.216959,0.042 0.326319,0.0839 0.138642,0.0529 0.218368,0.11646 0.307623,0.1119 0.268817,-0.0138 0.540808,-0.27767 0.488244,-0.47169 -0.02011,-0.0751 -0.263525,-0.22367 -0.355249,-0.24628"
         style="fill:#deaa87;fill-opacity:1;fill-rule:evenodd;stroke:none;stroke-width:0.03527778"
         id="path394" />
      <path
         inkscape:connector-curvature="0"
         d="m 54.726895,122.1108 c -0.128765,-0.28042 0.131585,-0.56762 0.425802,-0.55534 -0.103365,0.21209 -0.16369,0.45339 -0.425802,0.55534 z m -0.22719,0.0652 c 0.0042,0.0117 0.06844,0.11119 0.0949,0.12636 0.348895,0.20493 0.607129,-0.42623 0.745419,-0.63747 0.08925,-0.13656 0.236714,-0.2293 0.15381,-0.33902 -0.510117,-0.15169 -1.175809,0.34742 -0.994127,0.85013"
         style="fill:#deaa87;fill-opacity:1;fill-rule:evenodd;stroke:none;stroke-width:0.03527778"
         id="path396" />
      <path
         inkscape:connector-curvature="0"
         d="m 52.440895,122.16689 c 0.128762,-0.055 0.309385,-0.28084 0.250118,-0.33238 -0.07902,0.11398 -0.181327,0.21138 -0.250118,0.33238"
         style="fill:#deaa87;fill-opacity:1;fill-rule:evenodd;stroke:none;stroke-width:0.03527778"
         id="path398" />
      <path
         inkscape:connector-curvature="0"
         d="m 54.017811,121.76148 c 0.0702,-0.0267 0.177446,-0.133 0.109361,-0.18796 -0.01693,0.0762 -0.127352,0.0878 -0.109361,0.18796"
         style="fill:#deaa87;fill-opacity:1;fill-rule:evenodd;stroke:none;stroke-width:0.03527778"
         id="path400" />
      <path
         inkscape:connector-curvature="0"
         d="m 56.312982,121.4885 c -0.906285,1.1049 -1.789642,2.32791 -2.679346,3.42826 -0.121708,0.15064 -0.342196,0.31683 -0.259646,0.5497 0.238125,-0.003 0.369358,-0.23922 0.45085,-0.4167 -0.149225,0.005 -0.111477,0.13836 -0.261054,0.14291 0.874536,-1.27 1.901471,-2.4353 2.799644,-3.68928 -0.0085,-0.0174 -0.02469,-0.0237 -0.05045,-0.0149"
         style="fill:#deaa87;fill-opacity:1;fill-rule:evenodd;stroke:none;stroke-width:0.03527778"
         id="path402" />
      <path
         inkscape:connector-curvature="0"
         d="m 59.493628,121.22184 c -0.04022,-0.16976 0.117475,-0.20214 0.130879,-0.33486 -0.125235,0.0423 -0.228246,0.20602 -0.130879,0.33486"
         style="fill:#deaa87;fill-opacity:1;fill-rule:evenodd;stroke:none;stroke-width:0.03527778"
         id="path404" />
      <path
         inkscape:connector-curvature="0"
         d="m 52.038374,122.71867 c 0.164748,-0.12954 0.275873,-0.29531 0.3683,-0.4735 -0.177446,0.11935 -0.290336,0.28441 -0.3683,0.4735"
         style="fill:#deaa87;fill-opacity:1;fill-rule:evenodd;stroke:none;stroke-width:0.03527778"
         id="path406" />
      <path
         inkscape:connector-curvature="0"
         d="m 64.24378,120.76668 c -0.0441,0.14291 -0.129117,0.28512 -0.164748,0.41314 -0.03845,0.14111 -0.08325,0.3598 0.02999,0.4251 0.08255,-0.52984 0.390877,-0.90343 0.427918,-1.46541 -0.03422,2.7e-4 -0.04621,-0.0307 -0.07832,-0.0336 -0.140407,0.1972 -0.131586,0.38918 -0.214842,0.66078"
         style="fill:#deaa87;fill-opacity:1;fill-rule:evenodd;stroke:none;stroke-width:0.03527778"
         id="path408" />
      <path
         inkscape:connector-curvature="0"
         d="m 53.573311,122.34438 c 0.07055,-0.0522 0.150987,-0.0985 0.155927,-0.19622 -0.08043,0.0459 -0.125235,0.11603 -0.155927,0.19622"
         style="fill:#deaa87;fill-opacity:1;fill-rule:evenodd;stroke:none;stroke-width:0.03527778"
         id="path410" />
      <path
         inkscape:connector-curvature="0"
         d="m 48.978735,123.65629 c 0.0067,-0.29944 0.47766,-0.44553 0.753885,-0.32812 -0.08714,0.21251 -0.489302,0.42869 -0.753885,0.32812 z m 0.882295,-0.54297 c -0.20955,0.007 -0.50165,-0.0514 -0.668867,0.002 -0.188383,0.0606 -0.464608,0.39053 -0.453318,0.53704 0.0321,0.40735 0.660752,0.26938 0.968375,0.0634 0.248354,-0.16647 0.264229,-0.42612 0.526695,-0.52602 -0.04092,-0.16189 -0.214487,-0.081 -0.372885,-0.0762"
         style="fill:#deaa87;fill-opacity:1;fill-rule:evenodd;stroke:none;stroke-width:0.03527778"
         id="path412" />
      <path
         inkscape:connector-curvature="0"
         d="m 56.684811,121.8272 c 7.94e-4,0.0342 -0.03069,0.0462 -0.03351,0.0779 -0.03669,0.0287 -0.02752,0.0889 -0.04833,0.12845 -0.648404,0.85411 -1.325737,1.74378 -1.971675,2.58272 -0.215545,0.28042 -0.469193,0.54472 -0.583142,0.87133 0.170747,0.002 0.139349,-0.16055 0.193675,-0.25012 0.44944,-0.74426 1.223082,-1.3994 1.64465,-2.14105 0.02646,-0.0288 0.08149,-0.0376 0.107599,-0.0674 0.09878,-0.22821 0.261056,-0.413 0.4445,-0.58279 0.07408,-0.22006 0.399343,-0.36957 0.343606,-0.61267 -0.03281,-0.002 -0.0501,-0.0244 -0.09737,-0.006"
         style="fill:#deaa87;fill-opacity:1;fill-rule:evenodd;stroke:none;stroke-width:0.03527778"
         id="path414" />
      <path
         inkscape:connector-curvature="0"
         d="m 60.55302,121.12553 c 0.0064,0.0532 -0.123122,0.1149 -0.0441,0.15169 0.0053,-0.0586 0.167216,-0.12523 0.0441,-0.15169"
         style="fill:#deaa87;fill-opacity:1;fill-rule:evenodd;stroke:none;stroke-width:0.03527778"
         id="path416" />
      <path
         inkscape:connector-curvature="0"
         d="m 65.43758,120.35848 c -0.281517,0.27094 -0.328083,0.70394 -0.50306,1.04885 0.216958,-0.21442 0.528812,-0.69039 0.50306,-1.04885"
         style="fill:#deaa87;fill-opacity:1;fill-rule:evenodd;stroke:none;stroke-width:0.03527778"
         id="path418" />
      <path
         inkscape:connector-curvature="0"
         d="m 53.08683,122.95884 c -0.105833,0.18345 -0.301977,0.30375 -0.360185,0.5201 0.124177,-0.15737 0.375708,-0.33351 0.360185,-0.5201"
         style="fill:#deaa87;fill-opacity:1;fill-rule:evenodd;stroke:none;stroke-width:0.03527778"
         id="path420" />
      <path
         inkscape:connector-curvature="0"
         d="m 66.336105,121.22431 c 0.111477,-0.2103 0.533752,-0.32562 0.789868,-0.26293 -0.02363,0.32703 -0.539395,0.39303 -0.789868,0.26293 z m 0.242358,-0.37896 c -0.165452,0.0572 -0.640291,0.25785 -0.585258,0.46539 0.03739,0.14178 0.585965,0.19152 0.795515,0.16644 0.322085,-0.0384 0.670983,-0.36834 0.583845,-0.60812 -0.07655,-0.21001 -0.441325,-0.1451 -0.794102,-0.0237"
         style="fill:#deaa87;fill-opacity:1;fill-rule:evenodd;stroke:none;stroke-width:0.03527778"
         id="path422" />
      <path
         inkscape:connector-curvature="0"
         d="m 54.446436,123.33381 c 0.104421,-0.0356 0.136171,-0.12125 0.179211,-0.19967 -0.0822,0.0509 -0.13335,0.1228 -0.179211,0.19967"
         style="fill:#deaa87;fill-opacity:1;fill-rule:evenodd;stroke:none;stroke-width:0.03527778"
         id="path424" />
      <path
         inkscape:connector-curvature="0"
         d="m 57.588273,122.71645 c -0.339725,0.60152 -0.880885,1.06331 -1.121126,1.73401 0.131585,-0.0307 0.105481,-0.16979 0.171098,-0.24599 0.151341,-0.0433 0.127352,-0.20878 0.26317,-0.26307 0.175332,-0.46563 0.65405,-0.72154 0.810683,-1.20015 -0.04586,-0.002 -0.05362,-0.0583 -0.123825,-0.0248"
         style="fill:#deaa87;fill-opacity:1;fill-rule:evenodd;stroke:none;stroke-width:0.03527778"
         id="path426" />
      <path
         inkscape:connector-curvature="0"
         d="m 52.509686,123.73319 c -0.05927,0.10802 -0.194029,0.16302 -0.208846,0.30096 0.106188,-0.0613 0.248005,-0.20603 0.208846,-0.30096"
         style="fill:#deaa87;fill-opacity:1;fill-rule:evenodd;stroke:none;stroke-width:0.03527778"
         id="path428" />
      <path
         inkscape:connector-curvature="0"
         d="m 53.309786,124.18612 c 0.249767,-0.19716 0.417687,-0.45293 0.589492,-0.70513 -0.261763,0.19018 -0.40993,0.45932 -0.589492,0.70513"
         style="fill:#deaa87;fill-opacity:1;fill-rule:evenodd;stroke:none;stroke-width:0.03527778"
         id="path430" />
      <path
         inkscape:connector-curvature="0"
         d="m 46.86242,125.30841 c 0.02188,-0.28126 0.461081,-0.46894 0.7874,-0.40611 -0.16016,0.19222 -0.44309,0.5934 -0.7874,0.40611 z m -0.13476,-0.21526 c -0.20955,0.35278 0.132643,0.557 0.490712,0.46179 0.275166,-0.0733 0.342196,-0.40143 0.585613,-0.46535 0.09913,-0.0143 0.188735,0.10018 0.286102,-0.004 -0.07691,-0.63087 -1.132417,-0.37857 -1.362427,0.008"
         style="fill:#deaa87;fill-opacity:1;fill-rule:evenodd;stroke:none;stroke-width:0.03527778"
         id="path432" />
      <path
         inkscape:connector-curvature="0"
         d="m 54.168447,123.64747 c 0.06738,-0.0274 0.127,-0.0604 0.117826,-0.14111 -0.07514,0.0222 -0.08784,0.0879 -0.117826,0.14111"
         style="fill:#deaa87;fill-opacity:1;fill-rule:evenodd;stroke:none;stroke-width:0.03527778"
         id="path434" />
      <path
         inkscape:connector-curvature="0"
         d="m 58.37144,122.81318 c -0.283633,0.60745 -0.760587,1.07943 -1.059743,1.6757 0.225425,-0.13833 0.306916,-0.40153 0.463198,-0.61031 0.186266,-0.24874 0.430035,-0.46856 0.613127,-0.70915 0.06844,-0.091 0.166864,-0.2388 0.09878,-0.37702 -0.03845,0.007 -0.0769,0.0138 -0.115358,0.0208"
         style="fill:#deaa87;fill-opacity:1;fill-rule:evenodd;stroke:none;stroke-width:0.03527778"
         id="path436" />
      <path
         inkscape:connector-curvature="0"
         d="m 52.168549,124.2257 c 0.05821,-0.0131 0.08326,-0.0498 0.07585,-0.109 -0.05891,0.0134 -0.08396,0.0493 -0.07585,0.109"
         style="fill:#deaa87;fill-opacity:1;fill-rule:evenodd;stroke:none;stroke-width:0.03527778"
         id="path438" />
      <path
         inkscape:connector-curvature="0"
         d="m 63.72308,122.51223 c 0.04163,-0.35387 0.542925,-0.14316 0.707318,-0.0568 -0.100187,0.2304 -0.5842,0.16468 -0.707318,0.0568 z m 0.358068,-0.40005 c -0.311501,-0.055 -0.442735,0.10558 -0.627237,0.23357 0.03493,0.15836 0.04904,0.19156 0.06279,0.34714 0.179565,-0.012 0.362302,0.15627 0.578908,0.15807 0.326319,0.004 0.687565,-0.23248 0.63641,-0.45021 -0.03457,-0.14386 -0.422275,-0.24832 -0.650875,-0.28857"
         style="fill:#deaa87;fill-opacity:1;fill-rule:evenodd;stroke:none;stroke-width:0.03527778"
         id="path440" />
      <path
         inkscape:connector-curvature="0"
         d="m 52.759453,124.97987 c 0.158395,-0.22073 0.340429,-0.4258 0.478367,-0.66075 -0.182034,0.1101 -0.452615,0.44207 -0.478367,0.66075"
         style="fill:#deaa87;fill-opacity:1;fill-rule:evenodd;stroke:none;stroke-width:0.03527778"
         id="path442" />
      <path
         inkscape:connector-curvature="0"
         d="m 65.921238,123.02238 c -0.07267,-0.14923 -0.131233,-0.31859 -0.203906,-0.46535 0.299156,0.0547 0.530225,0.20821 0.664633,0.50091 -0.183443,0.0314 -0.321379,-0.003 -0.460727,-0.0356 z m -0.254706,-0.7433 c -0.07867,0.0604 -0.142875,0.13049 -0.202142,0.20422 0.02963,0.12277 0.20038,0.29422 0.197557,0.56169 0.227541,0.22779 0.619125,0.21689 0.959556,0.28071 -0.0019,-0.0486 0.05398,-0.0575 0.08043,-0.0867 -0.195436,-0.53552 -0.578201,-0.80162 -1.035401,-0.95994"
         style="fill:#deaa87;fill-opacity:1;fill-rule:evenodd;stroke:none;stroke-width:0.03527778"
         id="path444" />
      <path
         inkscape:connector-curvature="0"
         d="m 48.291522,126.46016 c -0.162629,-0.0913 -0.01058,-0.29986 0.05292,-0.36791 0.02611,-0.009 0.04163,-0.002 0.0501,0.0149 0.0024,0.14273 -0.04762,0.2497 -0.103013,0.35302 z m -0.267052,-0.0233 c -0.0013,0.0734 0.03881,0.15558 0.04163,0.2322 0.0113,0.29422 -0.164394,0.67345 0.07373,0.79968 0.140759,-0.15875 0.07091,-0.33017 0.124177,-0.50091 0.113948,-0.36587 0.463905,-0.66037 0.307623,-1.20442 -0.351366,-0.12552 -0.542218,0.32427 -0.547158,0.67345"
         style="fill:#deaa87;fill-opacity:1;fill-rule:evenodd;stroke:none;stroke-width:0.03527778"
         id="path446" />
      <path
         inkscape:connector-curvature="0"
         d="m 52.63104,125.19443 c 0.01728,-0.0558 0.06386,-0.0913 0.06738,-0.15557 -0.07444,0.003 -0.13829,0.11811 -0.06738,0.15557"
         style="fill:#deaa87;fill-opacity:1;fill-rule:evenodd;stroke:none;stroke-width:0.03527778"
         id="path448" />
      <path
         inkscape:connector-curvature="0"
         d="m 56.20609,124.85711 c 0.239538,0.0635 0.406755,0.2311 0.49883,0.5074 -0.309388,0.0377 -0.361247,-0.29669 -0.49883,-0.5074 z m -0.307268,-0.11219 c 0.148873,0.30166 0.453673,0.97981 0.871008,0.84709 0.111477,-0.0357 0.19826,-0.16729 0.189793,-0.27382 -0.01871,-0.24582 -0.790926,-0.90026 -1.060801,-0.57327"
         style="fill:#deaa87;fill-opacity:1;fill-rule:evenodd;stroke:none;stroke-width:0.03527778"
         id="path450" />
      <path
         inkscape:connector-curvature="0"
         d="m 52.391153,125.45337 c -0.01164,0.0731 -0.105129,0.0896 -0.05892,0.20218 0.136525,-0.0248 0.311857,-0.11437 0.248002,-0.21237 -0.06209,0.0437 -0.138287,0.0546 -0.189087,0.0102"
         style="fill:#deaa87;fill-opacity:1;fill-rule:evenodd;stroke:none;stroke-width:0.03527778"
         id="path452" />
      <path
         inkscape:connector-curvature="0"
         d="m 57.624963,125.81952 c 0.413102,-0.44979 0.742598,-0.95705 1.074209,-1.46293 -0.02328,0.004 -0.04657,0.009 -0.06985,0.0127 -0.34149,0.47829 -0.712965,0.93666 -1.004359,1.45023"
         style="fill:#deaa87;fill-opacity:1;fill-rule:evenodd;stroke:none;stroke-width:0.03527778"
         id="path454" />
      <path
         inkscape:connector-curvature="0"
         d="m 50.548595,126.50564 c -0.01588,-0.16962 0.02188,-0.39893 0.22366,-0.35208 -0.03069,0.14785 -0.07408,0.28692 -0.22366,0.35208 z m 0.414867,-0.48218 c -0.08396,-0.17141 -0.375709,-0.11395 -0.480132,-0.009 -0.235656,0.23774 -0.174625,0.79583 -0.141465,1.19807 0.05786,0.0243 0.122415,0.0381 0.216959,0.009 -0.170037,-0.38735 0.593725,-0.81248 0.404638,-1.19807"
         style="fill:#deaa87;fill-opacity:1;fill-rule:evenodd;stroke:none;stroke-width:0.03527778"
         id="path456" />
      <path
         inkscape:connector-curvature="0"
         d="m 59.480222,124.31072 c -0.161219,0.17844 -0.262467,0.42856 -0.427215,0.67522 -0.276577,0.41413 -0.56515,0.76511 -0.843137,1.15785 -0.08643,0.12235 -0.493184,0.47625 -0.185563,0.56018 0.07126,-0.0183 0.01834,-0.12238 0.01304,-0.19364 0.365477,-0.40114 0.662868,-0.85023 0.960612,-1.29865 0.209198,-0.27301 0.491067,-0.49664 0.532696,-0.88607 -0.0085,-0.0174 -0.024,-0.0237 -0.05045,-0.0149"
         style="fill:#deaa87;fill-opacity:1;fill-rule:evenodd;stroke:none;stroke-width:0.03527778"
         id="path458" />
      <path
         inkscape:connector-curvature="0"
         d="m 68.920906,123.33879 c 0.248005,-0.11148 0.284692,-0.36933 0.42545,-0.55521 -0.27446,0.014 -0.341842,0.34216 -0.42545,0.55521"
         style="fill:#deaa87;fill-opacity:1;fill-rule:evenodd;stroke:none;stroke-width:0.03527778"
         id="path460" />
      <path
         inkscape:connector-curvature="0"
         d="m 55.462788,126.16418 c -0.161925,-0.0473 -0.178858,-0.28719 -0.126293,-0.43176 0.02294,-0.004 0.04621,-0.009 0.06949,-0.0127 0.05256,0.0973 0.118533,0.36117 0.0568,0.44442 z m 0.04022,-0.70128 c -0.589844,-0.002 -0.378532,0.72594 -0.124532,1.0276 0.0081,0.11367 -0.07902,0.16122 -0.04233,0.29461 0.127,0.0511 0.372182,0.036 0.41275,-0.0991 -0.251177,-0.34509 0.109008,-0.87563 -0.245885,-1.22315"
         style="fill:#deaa87;fill-opacity:1;fill-rule:evenodd;stroke:none;stroke-width:0.03527778"
         id="path462" />
      <path
         inkscape:connector-curvature="0"
         d="m 60.215057,125.06285 c -0.559152,0.81347 -1.292225,1.50741 -1.79705,2.35934 0.573616,-0.51566 1.024466,-1.25483 1.548341,-1.88419 0.169334,-0.20355 0.462492,-0.37744 0.422982,-0.69853 -0.130882,-0.0489 -0.254707,0.0604 -0.174273,0.22338"
         style="fill:#deaa87;fill-opacity:1;fill-rule:evenodd;stroke:none;stroke-width:0.03527778"
         id="path464" />
      <path
         inkscape:connector-curvature="0"
         d="m 52.293787,127.02598 c 0.02752,-0.19085 0.467783,-0.21508 0.635703,-0.18683 -0.03034,0.25217 -0.44097,0.24472 -0.635703,0.18683 z m 0.431799,-0.38943 c -0.334081,0.0244 -0.765174,0.18274 -0.709789,0.4403 0.03951,0.18246 0.534458,0.25535 0.753533,0.19788 0.149931,-0.0396 0.274108,-0.2176 0.398285,-0.31143 0.101248,-0.0769 0.269875,-0.08 0.197908,-0.22723 -0.182737,-0.0366 -0.370062,-0.11892 -0.639937,-0.0995"
         style="fill:#deaa87;fill-opacity:1;fill-rule:evenodd;stroke:none;stroke-width:0.03527778"
         id="path466" />
      <path
         inkscape:connector-curvature="0"
         d="m 57.417882,127.31636 c -0.136877,-0.0353 -0.112887,-0.39152 0.0448,-0.4148 -2.64e-4,0.14841 0.01871,0.31034 -0.0448,0.4148 z m 0.0064,0.42968 c 0.190854,-0.0303 0.170391,-0.20564 0.172508,-0.36685 0.08361,-0.1753 0.135467,-0.52808 -0.0141,-0.73876 -0.56656,-0.0765 -0.525992,0.84706 -0.158398,1.10561"
         style="fill:#deaa87;fill-opacity:1;fill-rule:evenodd;stroke:none;stroke-width:0.03527778"
         id="path468" />
      <path
         inkscape:connector-curvature="0"
         d="m 59.34652,127.66003 c -0.255413,0.32096 -0.697442,0.63955 -0.665692,1.07763 0.151342,-0.0596 0.111477,-0.22613 0.177094,-0.34286 0.09525,-0.17075 0.278341,-0.33719 0.410281,-0.50546 0.410633,-0.52035 0.821619,-1.03544 1.118658,-1.61396 -0.02963,0.004 -0.0374,-0.024 -0.07338,-0.0106 -0.338667,0.45504 -0.614185,0.9525 -0.966962,1.39527"
         style="fill:#deaa87;fill-opacity:1;fill-rule:evenodd;stroke:none;stroke-width:0.03527778"
         id="path470" />
      <path
         inkscape:connector-curvature="0"
         d="m 64.299165,125.94839 c 0.06386,0.002 0.10019,-0.11645 0.04833,-0.12887 0.0024,0.0561 -0.07303,0.0579 -0.04833,0.12887"
         style="fill:#deaa87;fill-opacity:1;fill-rule:evenodd;stroke:none;stroke-width:0.03527778"
         id="path472" />
      <path
         inkscape:connector-curvature="0"
         d="m 54.697613,128.14468 c -0.281165,0.0285 -0.473781,0.11783 -0.682273,0.1954 -0.04304,-0.37384 0.512233,-0.4003 0.682273,-0.1954 z m -0.534458,-0.30978 c -0.3048,0.0773 -0.561269,0.63253 -0.19826,0.75392 0.321027,-0.18341 1.033991,-0.14993 1.157816,-0.47307 -0.161573,-0.10513 -0.681566,-0.35098 -0.959556,-0.28085"
         style="fill:#deaa87;fill-opacity:1;fill-rule:evenodd;stroke:none;stroke-width:0.03527778"
         id="path474" />
      <path
         inkscape:connector-curvature="0"
         d="m 61.179905,128.14083 c 0.111831,-0.0437 0.111477,-0.16577 0.116065,-0.2843 -0.122063,-0.0463 -0.180623,0.20133 -0.116065,0.2843"
         style="fill:#deaa87;fill-opacity:1;fill-rule:evenodd;stroke:none;stroke-width:0.03527778"
         id="path476" />
      <path
         inkscape:connector-curvature="0"
         d="m 46.813737,132.15892 c -0.48119,-0.0923 0.155223,-0.72733 0.366183,-0.35347 -0.06174,0.15944 -0.220133,0.2526 -0.366183,0.35347 z m 0.433916,-0.50905 c -0.218368,-0.074 -0.291393,-0.22793 -0.500943,-0.12416 -0.191207,0.0936 -0.343959,0.41906 -0.34149,0.49209 0.0092,0.27024 0.276577,0.40474 0.557742,0.30552 0.06914,-0.0243 0.202141,-0.17419 0.313973,-0.24833 0.156985,-0.10335 0.398637,-0.13725 0.379235,-0.28401 -0.01871,-0.13932 -0.192617,-0.0681 -0.408517,-0.14111"
         style="fill:#deaa87;fill-opacity:1;fill-rule:evenodd;stroke:none;stroke-width:0.03527778"
         id="path478" />
      <path
         inkscape:connector-curvature="0"
         d="m 45.868293,133.14421 c -0.05045,-0.20353 0.05398,-0.30013 0.08608,-0.44662 0.0949,0.0769 0.04445,0.39233 -0.08608,0.44662 z m 0.332669,-1.06536 c -0.369007,0.0889 -0.699559,0.97193 -0.467784,1.37694 0.673807,0.007 0.376415,-0.83151 0.56656,-1.22728 -0.05044,-0.024 -0.05644,-0.11369 -0.09878,-0.14966"
         style="fill:#deaa87;fill-opacity:1;fill-rule:evenodd;stroke:none;stroke-width:0.03527778"
         id="path480" />
      <path
         inkscape:connector-curvature="0"
         d="m 48.47038,132.98298 c -0.06667,-0.21373 -0.0141,-0.48672 0.153813,-0.60206 0.04198,0.26527 0.08184,0.52944 -0.153813,0.60206 z m 0.04622,0.2548 c 0.429332,-0.0484 0.440267,-0.92287 0.105833,-1.26338 -0.292451,0.1017 -0.624768,1.32195 -0.105833,1.26338"
         style="fill:#deaa87;fill-opacity:1;fill-rule:evenodd;stroke:none;stroke-width:0.03527778"
         id="path482" />
      <path
         inkscape:connector-curvature="0"
         d="m 58.176707,130.5757 c 0.08608,-0.0416 0.140758,-0.10516 0.156281,-0.19582 -0.117475,-0.0956 -0.168981,0.0805 -0.156281,0.19582"
         style="fill:#deaa87;fill-opacity:1;fill-rule:evenodd;stroke:none;stroke-width:0.03527778"
         id="path484" />
      <path
         inkscape:connector-curvature="0"
         d="m 50.286832,133.63424 c -0.165804,-0.12168 -0.168627,-0.58387 -0.111125,-0.74538 0.261408,0.0776 0.23848,0.58705 0.111125,0.74538 z m -0.03704,-0.99838 c -0.0013,-0.0948 0.02963,-0.16827 -0.0046,-0.28608 -0.475898,0.0391 -0.360892,1.66342 0.111477,1.53527 0.185208,-0.0507 0.300215,-0.49844 0.216958,-0.78135 -0.06914,-0.23385 -0.258937,-0.28511 -0.32385,-0.46784"
         style="fill:#deaa87;fill-opacity:1;fill-rule:evenodd;stroke:none;stroke-width:0.03527778"
         id="path486" />
      <path
         inkscape:connector-curvature="0"
         d="m 47.27023,132.96148 c -0.23636,0.0995 -0.224367,0.55149 -0.297392,0.8672 -0.07161,0.31185 -0.162276,0.60717 -0.204258,0.85053 -0.07514,0.43574 -0.190145,0.8971 -0.18556,1.34979 7.94e-4,0.12347 -0.02787,0.40983 0.191206,0.39536 -0.08255,-0.45255 -0.024,-0.7542 0.03422,-1.13027 0.08855,-0.57395 0.194027,-1.09568 0.333023,-1.59177 0.07197,-0.25535 0.225071,-0.51966 0.156279,-0.72168 -0.0042,-0.0142 -0.0081,-0.0269 -0.02752,-0.0192"
         style="fill:#deaa87;fill-opacity:1;fill-rule:evenodd;stroke:none;stroke-width:0.03527778"
         id="path488" />
      <path
         inkscape:connector-curvature="0"
         d="m 52.04543,132.64509 c 0.0046,0.22117 -0.366183,0.48217 -0.549627,0.26748 0.06914,-0.17006 0.339725,-0.37649 0.549627,-0.26748 z m -0.766233,0.25865 c 0.01024,0.19224 0.281516,0.33404 0.506941,0.29063 0.292452,-0.055 0.494242,-0.4462 0.606777,-0.6124 -0.150283,-0.0572 -0.329141,-0.2304 -0.560562,-0.1852 -0.224366,0.0437 -0.561623,0.35691 -0.553156,0.50697"
         style="fill:#deaa87;fill-opacity:1;fill-rule:evenodd;stroke:none;stroke-width:0.03527778"
         id="path490" />
      <path
         inkscape:connector-curvature="0"
         d="m 48.206855,133.50898 c 0.0042,0.0305 -0.02363,0.0378 -0.01058,0.0741 -0.03351,0.0102 -0.01093,0.0597 -0.006,0.0966 -0.186621,0.51125 -0.273756,1.11842 -0.38594,1.69692 -0.08326,0.42788 -0.180268,0.88373 -0.244826,1.28832 -0.01939,0.12348 -0.07761,0.36408 0.07973,0.44001 0.116768,-0.0402 0.01799,-0.23082 0.03387,-0.3412 0.08678,-0.36477 0.180268,-0.72526 0.200376,-1.13661 0.110422,-0.32921 0.1778,-0.68902 0.240597,-1.04855 0.06279,-0.36049 0.213428,-0.7225 0.162628,-1.08231 -0.02328,0.005 -0.04657,0.009 -0.06985,0.0127"
         style="fill:#deaa87;fill-opacity:1;fill-rule:evenodd;stroke:none;stroke-width:0.03527778"
         id="path492" />
      <path
         inkscape:connector-curvature="0"
         d="m 44.816661,134.86621 c 0.173215,0.0719 0.282224,0.23564 0.30974,0.51745 -0.161573,0.0448 -0.376063,-0.32315 -0.30974,-0.51745 z m -0.264935,-0.4068 c -0.202848,0.11287 -0.06103,0.2723 0.01058,0.45269 0.08184,0.2067 0.141462,0.4808 0.252236,0.6 0.08643,0.0927 0.378883,0.22544 0.486127,0.17528 0.196498,-0.0916 0.06209,-0.55907 -0.06068,-0.7305 -0.166865,-0.23399 -0.511175,-0.32535 -0.688269,-0.49747"
         style="fill:#deaa87;fill-opacity:1;fill-rule:evenodd;stroke:none;stroke-width:0.03527778"
         id="path494" />
      <path
         inkscape:connector-curvature="0"
         d="m 47.345372,135.22037 c 0.04339,-0.12527 0.0011,-0.30938 0.149579,-0.36201 -0.03316,0.1327 0.02117,0.32535 -0.149579,0.36201 z m 0.168629,-0.91544 c -0.196498,0.066 -0.451556,0.90868 -0.343606,1.13868 0.61454,0.2333 0.521052,-0.66105 0.569031,-1.08397 -0.06421,-0.0459 -0.147463,-0.0812 -0.225425,-0.0547"
         style="fill:#deaa87;fill-opacity:1;fill-rule:evenodd;stroke:none;stroke-width:0.03527778"
         id="path496" />
      <path
         inkscape:connector-curvature="0"
         d="m 49.693107,135.10571 c -0.05433,-0.11713 0.01799,-0.30758 0.03951,-0.4378 0.09137,0.0886 0.111829,0.39191 -0.03951,0.4378 z m 0.109363,-0.71368 c 0.02646,-0.0628 0.06844,-0.11466 0.03175,-0.22118 -0.07691,-0.0706 -0.150638,-0.0437 -0.235657,0.0187 -0.05257,0.36188 -0.19332,0.66325 -0.135112,1.10092 0.496356,0.43298 0.772936,-0.60606 0.339019,-0.89848"
         style="fill:#deaa87;fill-opacity:1;fill-rule:evenodd;stroke:none;stroke-width:0.03527778"
         id="path498" />
      <path
         inkscape:connector-curvature="0"
         d="m 49.070103,134.30948 c -0.163335,0.40005 -0.09349,0.96105 -0.310443,1.32402 0.0078,0.34713 -0.2286,0.72595 -0.07373,1.04249 0.122766,-0.13794 0.104423,-0.37373 0.107243,-0.5938 0.148521,-0.43711 0.307271,-0.86747 0.320675,-1.39774 0.06491,-0.0819 0.111125,-0.26776 0.0254,-0.38737 -0.02328,0.004 -0.04657,0.008 -0.06914,0.0124"
         style="fill:#deaa87;fill-opacity:1;fill-rule:evenodd;stroke:none;stroke-width:0.03527778"
         id="path500" />
      <path
         inkscape:connector-curvature="0"
         d="m 51.540957,135.5358 c -0.161925,-0.21732 -0.2413,-0.78424 -0.106892,-0.9853 0.344313,0.11245 0.456142,0.81869 0.106892,0.9853 z m -0.188735,-1.30569 c -0.04939,-0.0455 -0.123825,0.0622 -0.20461,0.061 0.09313,0.51511 -0.04269,1.30955 0.416628,1.50358 0.309034,-0.16302 0.48119,-0.50064 0.398288,-0.83785 -0.08396,-0.339 -0.464963,-0.50092 -0.610306,-0.72678"
         style="fill:#deaa87;fill-opacity:1;fill-rule:evenodd;stroke:none;stroke-width:0.03527778"
         id="path502" />
      <path
         inkscape:connector-curvature="0"
         d="m 52.763332,121.17527 c 0.138996,-0.10555 0.328083,-0.17709 0.448381,-0.29644 -0.219075,0.0505 -0.347133,0.16482 -0.448381,0.29644"
         style="fill:#deaa87;fill-opacity:1;fill-rule:evenodd;stroke:none;stroke-width:0.03527778"
         id="path504" />
      <path
         inkscape:connector-curvature="0"
         d="m 52.35023,121.53754 c 0.07443,-0.0631 0.18415,-0.10195 0.202142,-0.20394 -0.07902,0.0466 -0.233185,0.14813 -0.202142,0.20394"
         style="fill:#deaa87;fill-opacity:1;fill-rule:evenodd;stroke:none;stroke-width:0.03527778"
         id="path506" />
      <path
         inkscape:connector-curvature="0"
         d="m 52.794378,121.74384 c 0.178504,-0.14633 0.326319,-0.31432 0.433917,-0.50906 -0.211667,0.12281 -0.308682,0.32604 -0.433917,0.50906"
         style="fill:#deaa87;fill-opacity:1;fill-rule:evenodd;stroke:none;stroke-width:0.03527778"
         id="path508" />
      <path
         inkscape:connector-curvature="0"
         d="m 51.867278,123.75397 c -0.02506,-0.25354 0.0074,-0.46743 0.208492,-0.56374 0.04833,0.26956 -0.06879,0.42485 -0.208492,0.56374 z m 0.383469,-0.78655 c -0.06103,-0.0583 -0.157692,-0.0649 -0.252235,-0.0742 -0.01834,-0.067 0.03916,-0.0807 0.02045,-0.14718 -0.267052,0.25302 -0.460727,0.55743 -0.656873,0.86085 -0.407459,0.50024 -0.833612,0.98778 -1.099254,1.58683 -0.131233,0.0808 -0.27658,0.2497 -0.242358,0.37881 0.178858,0.0117 0.34431,-0.13902 0.222953,-0.35168 0.508,-0.61983 0.877713,-1.33558 1.447097,-1.91283 -0.0021,0.31997 -0.08678,0.73738 0.0695,1.0397 0.04833,0.0279 0.195439,0.001 0.231423,-0.042 -0.07091,-0.54391 0.482248,-0.756 0.259291,-1.33833"
         style="fill:#deaa87;fill-opacity:1;fill-rule:evenodd;stroke:none;stroke-width:0.03527778"
         id="path510" />
      <path
         inkscape:connector-curvature="0"
         d="m 68.670788,122.09249 c 0.120298,0.0825 -0.111831,0.23742 -0.126293,0.35772 -0.07197,-0.11779 0.100187,-0.23989 0.126293,-0.35772 z m -0.144991,-0.6671 c 0.05997,-0.0181 0.08184,0.0179 0.08643,0.08 -0.06809,0.0674 -0.125238,-0.009 -0.08643,-0.08 z m 6.422317,2.82966 c -0.05821,0.29267 -0.408868,0.38654 -0.610658,0.58911 0.0042,0.0814 0.03281,0.12802 0.0568,0.18133 -0.07091,0.23565 -0.525285,0.30896 -0.8001,0.33612 0.166865,-0.20066 0.545042,-0.17254 0.498827,-0.545 -0.0021,-0.0543 -0.07161,-0.0134 -0.08184,-0.0568 -0.164041,0.0821 -0.246943,0.22049 -0.370768,0.33059 -0.118182,-0.0922 -0.305858,-0.0841 -0.47343,-0.10555 -0.107243,0.25079 -0.469545,0.4064 -0.396168,0.71797 -0.118182,0.0194 -0.204965,0.14538 -0.315735,0.1047 0.09454,-0.23675 0.121353,-0.41091 0.214841,-0.66103 -0.01833,-0.0314 -0.0448,-0.052 -0.06315,-0.0836 -0.356306,0.1447 -0.456493,0.46633 -0.768702,0.64174 0.09419,-0.23852 0.352071,-0.36379 0.385937,-0.64421 -0.01939,-0.031 -0.04657,-0.0497 -0.0822,-0.0568 -0.245533,0.25538 -0.41628,0.56226 -0.638175,0.83358 -0.07761,0.0134 -0.154871,0.0276 -0.231775,0.0416 0.04233,-0.16401 0.289277,-0.2551 0.151693,-0.48151 0.06668,-0.1076 0.245182,-0.1827 0.153811,-0.33941 -0.370062,0.13727 -0.352071,0.64495 -0.814917,0.65059 0.06138,-0.20711 0.268465,-0.31365 0.364421,-0.49678 -0.128413,-0.0846 -0.167923,0.17639 -0.294923,0.22116 -0.185208,-0.0532 -0.369358,0.13589 -0.505177,0.1155 0.04621,-0.20645 0.3937,-0.30593 0.281869,-0.55358 -0.430742,0.2092 -0.467784,0.87877 -1.094669,0.82049 0.154517,-0.3386 0.564444,-0.49981 0.680154,-0.86526 -0.213077,-0.0864 -0.321379,0.23136 -0.440267,0.34354 -0.354893,0.24627 -0.583845,0.58028 -1.006474,0.77995 -0.04974,-0.0722 0.08396,-0.20944 0.158046,-0.31527 0.08255,-0.11755 0.182033,-0.22409 0.227893,-0.32855 0.05009,0.001 0.05786,-0.0271 0.08784,-0.0402 0.181681,-0.25852 0.43815,-0.46563 0.581731,-0.75064 -0.06668,-0.1856 -0.318206,-0.0583 -0.26529,0.11963 -0.286456,0.36889 -0.561268,0.74496 -0.905932,1.0735 -0.08043,-0.002 -0.220133,-0.0703 -0.191558,-0.13272 -0.0049,-0.12276 0.08078,0.0335 0.162276,-0.0299 0.141817,-0.0836 0.246947,-0.19265 0.269524,-0.35952 -0.06174,-0.0719 -0.109009,0.0893 -0.162277,0.0292 0.137935,-0.42429 0.504824,-0.68957 0.689326,-1.0819 -0.273402,0.0611 -0.422627,0.34671 -0.569031,0.55771 -0.156633,0.22585 -0.290335,0.47762 -0.423333,0.69892 0.02257,-0.16757 -0.05221,-0.30868 -0.03775,-0.4717 0.01693,-0.19014 0.183444,-0.30275 0.275871,-0.45653 0.04163,-0.0692 0.03528,-0.15656 0.07797,-0.22959 0.224365,-0.38459 0.615949,-0.72428 0.758472,-1.09431 -0.147815,-0.0981 -0.187325,0.16291 -0.322088,0.20203 -0.171802,0.3193 -0.355951,0.63045 -0.602543,0.89863 -0.123825,-0.36657 0.33161,-0.53029 0.27799,-0.84006 -0.238831,0.1108 -0.2286,0.39521 -0.429331,0.53276 -0.03281,-0.7451 0.491065,-1.27952 0.840667,-1.82742 -0.404986,-0.0208 -0.442382,0.66325 -0.743653,0.78066 0.08325,-0.56335 0.49177,-0.90096 0.680153,-1.39129 -0.01341,-0.0289 -0.04692,-0.0289 -0.05856,-0.0606 -0.242006,0.15624 -0.253647,0.47155 -0.591959,0.56112 -0.05292,-0.45462 0.319262,-0.61517 0.423684,-0.96131 -0.0021,-0.0751 -0.07338,-0.05 -0.09066,-0.10365 -0.106537,0.0652 -0.300567,0.16372 -0.427567,0.14954 0.0067,-0.17819 -0.03139,-0.38629 -0.03104,-0.56832 0.46214,0.12555 0.933449,0.003 1.340907,0.13931 0.191911,0.0642 0.367242,0.19018 0.549275,0.25894 0.559507,0.21099 1.13524,0.38957 1.749425,0.54405 0.325615,0.30096 0.783167,0.30124 1.163815,0.4826 0.24765,0.11741 0.47766,0.3507 0.716137,0.51608 0.240948,0.16658 0.445207,0.38104 0.673455,0.54719 0.02468,0.0713 -0.06138,0.066 -0.02117,0.14775 0.150987,0.28938 0.446969,0.60152 0.370062,0.98545 z m -1.703562,1.55318 c 0.05538,-0.10047 0.319617,-0.15064 0.454729,-0.1301 -0.0575,0.12375 -0.317852,0.17349 -0.454729,0.1301 z m -1.122188,0.012 c -0.08361,0.0233 -0.132995,-0.002 -0.193675,-0.0127 0.126648,-0.1076 0.163338,-0.27835 0.343607,-0.34918 0.0024,0.15695 -0.138994,0.21413 -0.149932,0.36188 z m -3.595861,0.22186 c -0.07832,-0.004 -0.154165,-0.012 -0.164042,-0.11356 0.04586,-0.0575 0.173567,-0.0564 0.193321,0.0131 0.02822,0.0599 -0.03704,0.0547 -0.02928,0.10047 z m -7.3025,-1.8802 c -0.07973,0.0369 -0.05962,-0.0925 -0.04481,-0.1119 0.0635,-0.0479 0.08255,0.10872 0.04481,0.1119 z m 0.91581,-1.67362 c 0.02646,-0.008 0.04198,-0.002 0.05045,0.0149 0.136525,0.0416 0.1778,0.36159 0.166511,0.51996 -0.140407,-0.0638 -0.236715,-0.33514 -0.216959,-0.53482 z m 5.978877,0.78134 c -0.01693,0.69825 -0.196495,1.45492 -0.30127,2.15981 -0.05786,-0.0244 -0.06879,-0.11603 -0.141465,-0.11825 -0.271285,0.41949 -0.420158,0.92357 -0.825852,1.25056 0.03845,-0.49982 0.311854,-0.837 0.38382,-1.31339 0.122767,-0.0737 0.202142,-0.27439 0.113949,-0.42722 -0.200025,0.19403 -0.250474,0.49185 -0.368652,0.73671 -0.11924,0.24585 -0.267759,0.46563 -0.400757,0.69455 -0.135466,-0.0624 -0.226131,-0.10996 -0.355248,0.0166 0.0441,-0.69148 0.445207,-1.13605 0.644173,-1.71979 -0.01871,-0.0314 -0.04586,-0.0501 -0.08184,-0.0569 -0.281165,0.33168 -0.386292,0.78493 -0.602192,1.16141 7.94e-4,0.27796 -0.09313,0.48892 -0.183798,0.70348 0.01376,0.0564 -0.02082,0.0444 -0.02294,0.004 0.05856,-0.0885 -0.07902,-0.18839 -0.02716,-0.28223 -0.273404,0.22931 -0.339021,0.60219 -0.642408,0.8104 0.132292,-0.502 0.434269,-0.88663 0.560562,-1.39386 0.07056,-0.0116 0.08079,-0.0649 0.126296,-0.0941 -0.01553,-0.37609 0.453671,-0.52214 0.394052,-0.86155 -0.227541,0.15377 -0.4064,0.5147 -0.4953,0.83192 -0.229306,0.26596 -0.292452,0.64766 -0.474133,0.9471 -0.08819,0.0205 -0.08149,-0.0963 -0.178858,-0.0631 -0.22084,0.25192 -0.198261,0.67236 -0.486482,0.87767 -0.01058,-0.13546 0.103717,-0.18478 0.111832,-0.3073 -0.102659,-0.009 -0.109009,0.15282 -0.172861,0.10308 0.183444,-0.77678 0.642409,-1.36355 0.941917,-2.061 -0.179213,-0.0281 -0.225073,0.20507 -0.277638,0.31366 -0.183443,0.37497 -0.394758,0.80119 -0.575733,1.1811 -0.07585,0.012 -0.100187,-0.0497 -0.193675,-0.0131 -0.114652,0.25827 -0.105479,0.60223 -0.282575,0.81703 -0.121354,-1.12391 0.597606,-1.66507 0.912638,-2.48595 -0.01905,-0.0314 -0.04622,-0.0502 -0.08185,-0.0572 -0.323496,0.32287 -0.536575,0.72221 -0.753886,1.11799 0.08678,0.0719 0.07373,-0.0963 0.17639,-0.0801 -0.107598,0.28364 -0.267054,0.5679 -0.421217,0.84215 -0.150283,0.26663 -0.329496,0.54639 -0.511881,0.73861 -0.0448,-0.13656 0.02506,-0.32452 -0.09454,-0.38943 0.03422,-0.14495 0.15875,-0.22722 0.141111,-0.40858 0.280458,-0.38587 0.391935,-0.88925 0.678391,-1.27138 0.05503,-0.34713 0.454732,-0.56127 0.35419,-0.94933 -0.237067,0.15985 -0.379238,0.38556 -0.509765,0.61888 0.04127,0.0652 0.07479,-0.0393 0.138642,-0.0255 0.02363,0.0977 -0.04622,0.13021 -0.05892,0.20217 -0.08149,0.0402 -0.05927,-0.0695 -0.10936,-0.0755 -0.04657,0.0156 -0.03493,0.0699 -0.05221,0.10513 -0.0113,0.0742 0.05856,0.0317 0.100541,0.0296 -0.109008,0.33624 -0.271639,0.635 -0.427566,0.93875 -0.08079,-2.7e-4 -0.05856,-0.14955 -0.126296,-0.16856 -0.09948,0.0462 -0.08325,0.17212 -0.120296,0.26141 -0.08432,0.0147 -0.05856,-0.13021 -0.159808,-0.0907 -0.336905,0.3065 -0.23848,0.91476 -0.539046,1.24601 -0.01728,-0.25932 0.157339,-0.54402 0.138641,-0.81495 -0.01058,-0.15737 -0.06949,-0.33059 0.113948,-0.42721 0.134057,-0.67028 0.745773,-1.11619 0.802923,-1.77243 -0.02611,0.009 -0.04198,0.002 -0.05045,-0.0147 -0.213783,0.0948 -0.186973,0.35666 -0.368652,0.47379 0.0019,0.0751 0.05644,0.0737 0.05221,0.15737 -0.17639,0.26913 -0.244123,0.61418 -0.522111,0.81276 -0.05397,0.45544 -0.290337,0.78423 -0.541162,1.10353 0.0575,-0.25728 0.02716,-0.57478 0.142875,-0.79209 -0.07302,-0.26663 0.174625,-0.31101 0.1397,-0.55094 -0.127352,-0.0343 -0.166863,0.14884 -0.1397,0.28787 -0.110067,0.15268 -0.0822,0.40142 -0.184854,0.55975 -0.0085,0.32247 -0.123121,0.62978 -0.191913,0.92012 -0.03069,0.12774 -0.0113,0.28649 -0.126646,0.35775 -0.134762,-0.39123 0.05186,-0.73244 0.01058,-1.12614 0.08749,-0.12845 0.16016,-0.26705 0.183795,-0.44027 0.334082,-0.46316 0.440267,-1.08479 0.825148,-1.51309 0.06385,-0.19223 0.237067,-0.30869 0.236361,-0.54529 -0.01905,-0.0307 -0.04657,-0.0497 -0.08184,-0.0568 -0.200731,0.0634 -0.149931,0.30082 -0.311856,0.3912 0.0085,0.0465 0.01659,0.0927 0.02506,0.13892 -0.277636,0.48934 -0.470607,1.03752 -0.779286,1.50495 -0.06491,-0.187 0.03704,-0.28289 -0.07161,-0.39327 -0.09102,0.0853 -0.08114,0.24059 -0.07162,0.3955 -0.164042,-0.14581 -0.165452,-0.40337 -0.10936,-0.60152 0.07161,-0.0382 0.08925,-0.0893 0.162276,-0.0296 0.01482,-0.0504 0.02223,-0.10625 0.07162,-0.133 -0.0042,-0.0811 -0.03246,-0.12774 -0.0568,-0.18065 0.212021,-0.40679 0.458613,-0.7892 0.667808,-1.19807 -0.31397,-0.0353 -0.342193,0.38696 -0.463195,0.61034 -0.136173,0.25012 -0.29845,0.49389 -0.396171,0.71797 -0.07832,-0.40541 -0.182737,-0.80091 -0.08608,-1.13291 0.07902,-0.27188 0.359481,-0.41271 0.404283,-0.67165 0.06808,-0.0292 0.0889,0.009 0.143582,-0.002 0.367593,-0.19791 0.06703,-0.98104 -0.258588,-1.02941 0.0011,-0.12347 -0.01659,-0.15628 -0.107596,-0.19611 -0.302683,0.29493 -0.02506,0.8653 0.191204,1.18527 -0.297743,0.13793 -0.240593,0.52186 -0.524227,0.66957 -0.02893,0.23812 -0.1651,0.50493 -0.324556,0.58498 0.05856,-0.34781 -0.0695,-0.62837 -0.02506,-0.92823 0.05503,-0.37137 0.508704,-0.61267 0.4191,-0.98531 -0.180975,0.0635 -0.192265,0.289 -0.256823,0.4294 -0.07091,0.15381 -0.189442,0.28469 -0.229659,0.44841 -0.07056,0.012 -0.08114,0.0656 -0.126293,0.0948 0.01482,0.31362 -0.244123,0.4378 -0.19403,0.7765 0.05856,0.0925 0.160163,0.0283 0.263525,0 0.02681,0.17435 0.0085,0.31683 0.0141,0.47586 -0.04939,0.0508 -0.129472,-0.05 -0.221192,-0.0314 -0.130168,-0.46454 -0.310085,-1.00499 -0.373939,-1.53529 0.277283,-0.42153 0.535871,-0.85686 0.739775,-1.32993 -0.370417,0.27658 -0.484011,0.9066 -0.821619,1.2736 -0.151342,-0.23111 -0.367593,-0.41741 -0.223308,-0.70143 0.02928,-0.0575 0.115358,-0.10224 0.16016,-0.1724 0.05786,-0.0911 0.05821,-0.21636 0.111831,-0.30731 0.116417,-0.19787 0.346075,-0.34008 0.30974,-0.53523 -0.22719,0.0282 -0.264231,0.32356 -0.364066,0.49706 -0.112538,0.19445 -0.220134,0.39483 -0.383824,0.52437 -0.03316,-0.12778 -0.100189,-0.20574 -0.151341,-0.30773 0.07973,-0.28885 0.301625,-0.47942 0.38735,-0.76411 -0.243065,0.13546 -0.257882,0.42869 -0.467432,0.58744 -0.125235,-0.11532 -0.154868,-0.20214 -0.144991,-0.40432 0.09878,-0.0868 0.198263,-0.17321 0.177096,-0.34286 0.162277,-0.19869 0.39511,-0.34752 0.49036,-0.59172 -0.15734,-0.10431 -0.261408,0.1476 -0.286102,0.26706 -0.240241,0.18492 -0.29845,0.49568 -0.465666,0.73063 -0.173567,-0.0604 -0.224367,-0.26031 -0.26529,-0.40636 -0.26529,-0.0882 -0.750007,-0.48232 -0.40146,-0.76482 0.0039,-0.27478 0.304093,-0.44842 0.229303,-0.71078 -0.207433,0.24444 -0.228245,0.64297 -0.458962,0.89641 -0.125238,-0.0865 -0.353131,-0.16771 -0.3302,-0.37084 -0.136173,0.0423 -0.232833,-0.0742 -0.320323,-0.18094 0.03634,-0.27877 0.246944,-0.43642 0.358069,-0.66326 -0.0088,-0.0847 -0.110771,-0.0346 -0.155575,-0.0671 0.475546,-0.39645 1.279173,-0.38269 1.915583,-0.51537 0.429331,-0.0892 0.770467,-0.17007 1.162405,-0.18687 0.276225,-0.012 0.486126,0.0232 0.835728,-0.009 0.310798,-0.0272 0.626182,-0.0459 0.924632,-0.0476 0.264231,-0.002 0.573616,0.11452 0.897115,0.19569 0.437443,0.1101 0.847725,0.12566 1.218493,0.25756 0.3175,0.11286 0.602192,0.28399 0.898877,0.33899 0.08291,-0.0317 0.10654,0.0219 0.189796,-0.0102 0.474134,0.31253 0.92851,0.18341 1.296459,0.55425 0.385937,0.38834 0.305858,1.00471 0.422626,1.66963 0.04304,0.24666 0.164749,0.4717 0.02469,0.66502 0.1905,0.26321 0.06668,0.69991 -0.04445,0.94149 z m -0.624062,3.15143 c -0.0374,-0.29915 0.149577,-0.60963 0.246237,-0.88194 -0.0032,0.26733 -0.02716,0.69564 -0.246237,0.88194 z m -0.486481,0.35098 c -0.01871,-0.0285 0.01024,-0.16467 0.0508,-0.24804 0.07232,-0.14883 0.184856,-0.28857 0.261056,-0.4064 0.02963,0.23001 0.01093,0.60124 -0.311856,0.65444 z m -0.3556,-0.24624 c -0.123119,-0.13546 0.03351,-0.31118 0.14111,-0.40887 -0.02117,0.15448 -0.02998,0.31722 -0.14111,0.40887 z m -0.395817,0.45448 c 0.06562,-0.1228 0.143933,-0.23745 0.195792,-0.37016 0.113241,0.002 0.0949,0.19335 0.128058,0.31157 -0.153107,0.0197 -0.2032,0.0582 -0.32385,0.0586 z m 0.145343,-0.6485 c -0.0074,0.0692 0.04339,0.0544 0.0441,0.1119 -0.100542,0.0853 -0.111477,0.23343 -0.259292,0.28606 -0.0448,-0.13613 0.09172,-0.31185 0.215192,-0.39796 z m -0.458962,0.63362 c -0.128058,0.0244 -0.112538,-0.22793 -0.04657,-0.25439 0.09243,0.009 0.03316,0.1754 0.04657,0.25439 z m -0.312208,0.12841 c -0.05645,-0.0388 -0.02117,-0.11712 0.04868,-0.12841 0.01659,0.0656 0.02574,0.12636 -0.04868,0.12841 z m -0.658638,0.19156 c -0.03316,-0.0701 0.02328,-0.0783 0.0254,-0.1239 0.08008,-0.005 0.08079,0.14111 -0.0254,0.1239 z m -1.046692,-0.0974 c -0.09137,-0.0296 0.02787,-0.20944 0.124532,-0.23728 0.02717,0.12665 -0.132998,0.12333 -0.124532,0.23728 z m -0.509762,0.35595 c -0.05151,-0.14428 0.03986,-0.18905 -0.01198,-0.33291 0.06209,0.0412 0.209198,0.35165 0.01198,0.33291 z m -0.420864,0.0523 c -0.02681,-0.10611 0.04868,-0.14182 0.05468,-0.22504 0.01834,0.0205 0.04092,0.21661 -0.05468,0.22504 z m -0.452261,0.0106 c -0.08608,-0.15832 0.02328,-0.34505 0.0822,-0.46947 0.01376,0.10403 0.06456,0.40887 -0.0822,0.46947 z m -0.08431,-0.46316 c 0.05151,-0.20778 0.190851,-0.35387 0.286456,-0.53026 0.09102,0.14926 -0.01024,0.50091 -0.286456,0.53026 z m -0.06597,0.82518 c 0.08149,-0.1137 0.354894,-0.17568 0.520345,-0.16619 -0.140403,0.0907 -0.33937,0.21911 -0.520345,0.16619 z m -0.658638,0.45435 c -0.0049,-0.042 -0.03704,-0.0434 -0.04022,-0.0886 0.01728,-0.0215 0.04798,-0.0338 0.08855,-0.0398 0.01659,0.0653 0.02574,0.12636 -0.04833,0.12844 z m 0.024,-3.42512 c 0.0074,0.0724 7.94e-4,0.13476 -0.01236,0.19336 -0.09137,-0.006 -0.07832,-0.19061 0.01236,-0.19336 z m -0.317852,0.22503 c -0.120298,-0.3478 0.131585,-0.61034 0.22366,-0.8781 0.03739,-0.0154 0.04692,0.0104 0.05468,0.0385 0.03104,0.22271 -0.11148,0.40792 -0.176742,0.60579 -0.03316,0.0991 0.04586,0.22863 -0.1016,0.23385 z m 0.16016,0.61708 c -0.07302,0.007 -0.135466,0 -0.194027,-0.0128 -0.03457,-0.0984 0.01553,-0.13752 -0.01905,-0.23566 0.05503,-0.0568 0.214487,-0.0405 0.188029,-0.15377 0.140055,0.0696 0,0.27904 0.02506,0.40223 z m -1.91276,-3.81564 c 0.07902,0.003 0.107595,0.0786 0.125942,0.16827 -0.07091,-0.0138 -0.103717,-0.0836 -0.125942,-0.16827 z m -0.877363,-1.01329 c 0.318203,0.22271 0.56515,0.54794 0.787045,0.90954 -0.303387,-0.22504 -0.607835,-0.60248 -0.787045,-0.90954 z m -0.427215,-0.37673 c 0.157692,0.035 0.275518,0.12842 0.340783,0.29711 -0.15734,-0.0364 -0.22366,-0.20422 -0.340783,-0.29711 z m 2.6162,8.08962 c -0.15875,-0.31404 0.0011,-0.68654 -0.10301,-0.96241 -0.235657,0.25368 -0.114655,0.84529 -0.0088,1.26957 -0.144637,0.29147 -0.368652,0.5278 -0.659342,0.71798 0.0074,-0.58279 0.31115,-1.06673 0.28293,-1.60652 -0.245182,0.1276 -0.18768,0.46274 -0.233892,0.68859 -0.07796,0.37885 -0.2159,0.76662 -0.274463,1.12642 -0.13617,0.0307 -0.26035,0.0452 -0.3556,0.0165 -0.0088,-0.34357 0.227897,-0.51717 0.227897,-0.85482 -0.209199,0.13229 -0.267759,0.44457 -0.383824,0.78716 -0.08749,0.25989 -0.131585,0.87767 -0.429683,0.79579 -0.04657,-0.34533 0.137232,-0.80683 0.212725,-1.0674 -0.340783,0.21125 -0.176035,0.85118 -0.538692,0.98309 0.0019,0.10403 0.06244,0.12319 0.06491,0.2275 -0.09349,-0.0405 -0.216252,-0.0387 -0.265287,-0.14319 0.03034,-0.19043 0.20602,-0.381 0.107595,-0.59365 -0.410985,0.1742 -0.14252,0.81869 -0.452967,1.06288 -0.132291,-0.0699 -0.137228,-0.11532 -0.09701,-0.26952 -0.136173,0.14852 -0.136173,0.3919 -0.25894,0.54927 -0.194733,-0.11672 -0.26176,-0.33309 -0.225073,-0.58098 -0.313266,-0.004 -0.15522,0.48355 -0.312208,0.65429 -0.08537,-0.0127 -0.08043,-0.15586 -0.191204,-0.13229 -0.03175,0.24694 0.249767,0.64947 -0.04198,0.82104 -0.08996,-0.14332 -0.211667,-0.24061 -0.269875,-0.42982 -0.124177,-0.026 -0.122767,0.0508 -0.250473,0.0696 -0.805744,-0.97054 -1.858786,-1.58406 -3.024362,-2.03452 -0.04445,-0.0243 -0.03175,-0.1301 -0.07585,-0.15409 -0.278341,0.0702 -0.422981,-0.0526 -0.521758,-0.24031 -0.07973,-0.0356 -0.1905,0.0402 -0.23636,0.019 -0.615962,-0.17279 -1.171587,-0.4331 -1.804118,-0.58166 -0.860425,-0.0921 -1.685219,-0.37923 -2.566104,-0.56307 -0.317855,-0.0663 -0.643115,0.0671 -1.03999,0.0692 -0.486481,0.002 -0.932743,-0.0667 -1.501068,0.0332 -0.177449,0.0306 -0.343607,0.13642 -0.4953,0.0419 -0.372888,0.3186 -0.946505,0.26004 -1.414288,0.37607 -0.273754,0.0685 -0.444852,0.26677 -0.688975,0.29255 -0.122767,-0.28511 0.0254,-0.47529 0.136879,-0.6944 0.446262,-0.87588 1.045985,-1.60268 1.668637,-2.40839 0.600782,-0.7771 1.375482,-1.35435 2.055638,-2.11945 0.412044,-0.46355 0.815975,-0.80751 1.318329,-1.17186 0.6096,-0.44277 1.463323,-0.85481 2.187927,-1.258 0.376767,-0.21005 0.788458,-0.36591 1.1684,-0.54766 0.234598,-0.11147 0.462492,-0.29986 0.694973,-0.38872 0.642408,-0.24628 1.285523,-0.34177 1.962502,-0.52381 0.365125,-0.0981 0.736954,-0.29601 1.137004,-0.32632 0.359127,-0.0262 0.797984,0.0708 1.248479,-0.10625 1.108075,0.98255 2.229556,1.94567 3.047296,3.34617 0.258234,0.20489 0.498827,0.58236 0.540809,1.00224 0.02151,0.0963 0.127703,0.069 0.168275,0.13726 0.119943,0.53192 0.381351,1.05682 0.519641,1.67594 0.130175,0.58209 0.322085,1.17839 0.412396,1.74312 0.09984,0.63111 -0.07796,0.93457 -0.442736,1.25274 z m -1.44921,1.50703 c 0.09772,-0.005 0.138993,0.0724 0.153458,0.18729 -0.09843,0.0836 -0.193675,-0.0715 -0.153458,-0.18729 z m -1.164873,1.09637 c -0.02822,-0.14069 0.04586,-0.21167 0.06138,-0.32234 0.100893,0.0469 0.142168,0.35624 -0.06138,0.32234 z m -0.04833,0.39164 c -0.0095,-0.0674 -0.04022,-0.14924 -0.01058,-0.18948 0.08573,-0.026 0.117123,0.0258 0.174625,0.0402 -0.03634,0.0622 -0.04515,0.144 -0.164042,0.14924 z m -0.271992,-0.0462 c -0.08467,0.0154 -0.102658,-0.0653 -0.159453,-0.0911 0.0113,-0.0932 0.05821,-0.1622 0.07373,-0.25219 0.139349,0.031 0.132292,0.23455 0.08573,0.34327 z m -0.262818,0.52558 c 0.01447,-0.13119 -0.03034,-0.30441 0.02117,-0.41024 0.245885,-0.0244 0.184501,0.39329 -0.02117,0.41024 z m -0.233894,-0.1006 c -0.199318,-0.0987 -0.197202,-0.3587 -0.119943,-0.52875 0.142168,0.0452 0.200025,0.41699 0.119943,0.52875 z m -0.149577,0.3616 c -0.04092,-0.12099 -0.195088,-0.20312 -0.109008,-0.339 0.07832,0.0533 0.291745,0.26211 0.109008,0.339 z m -0.553863,0.2446 c -0.158043,-0.14511 -0.08713,-0.44028 -0.191203,-0.65939 0.174625,0.10225 0.578553,0.51428 0.191203,0.65939 z m -0.475895,0.54074 c -0.07937,0.0371 -0.05891,-0.0927 -0.04445,-0.11176 0.06385,-0.0484 0.0829,0.10901 0.04445,0.11176 z m -0.159808,-0.61695 c 0.07655,-0.003 0.140758,0.0109 0.14111,0.1181 -0.04233,0.005 -0.04374,0.0371 -0.08855,0.0398 -0.03739,-0.0243 -0.04127,-0.0962 -0.05256,-0.15792 z m -0.246947,1.14502 c -0.128058,-0.24061 0.08925,-0.44263 0.249415,-0.47584 0.04903,0.25039 -0.04833,0.39894 -0.249415,0.47584 z m 0.154165,0.45089 c -0.19191,-0.0533 -0.124883,-0.35553 0.07549,-0.37248 0.0056,0.14566 -0.02469,0.26596 -0.07549,0.37248 z m -1.401233,-3.50201 c -0.0067,-0.0384 -0.0141,-0.0773 -0.02117,-0.11575 0.04128,-0.0106 0.05433,0.0195 0.09666,0.007 0.02434,0.0702 -0.0011,0.10696 -0.07549,0.10901 z m 0.03739,0.4717 c -0.168626,-0.21703 0.122063,-0.47033 0.316442,-0.36834 -0.14111,0.0981 -0.228245,0.23358 -0.316442,0.36834 z m 0.416984,0.45076 c -0.0095,-0.14814 0.127354,-0.19541 0.103365,-0.35346 -0.109361,0.023 -0.22225,0.20739 -0.301274,0.3175 -0.03245,-0.21829 0.05927,-0.526 0.26529,-0.6463 0.151694,0.0441 0.26529,0.14401 0.360185,0.26995 -0.210253,0.0285 -0.201787,0.33225 -0.427566,0.41231 z m 0.195088,1.99788 c 7.93e-4,0.10652 0.05574,0.13325 0.06526,0.22779 -0.06562,0.0622 -0.08608,0.15627 -0.17921,0.19968 -0.0021,-0.12279 -0.01447,-0.25329 -0.04798,-0.39784 0.05398,-0.01 0.10795,-0.0194 0.161925,-0.0296 z m -0.134057,-1.53072 c 0.16369,-0.0889 0.293159,-0.20189 0.256823,-0.4294 0.236712,0.34961 0.0046,0.71658 -0.113948,0.95388 -0.116768,-0.0744 -0.08713,-0.36119 -0.142875,-0.52448 z m 0.08996,1.15603 c 0.0032,0.10156 -0.02646,0.24378 -0.143582,0.26527 -0.105127,-0.557 -0.3556,-1.26931 -0.186618,-1.68837 0.03633,-0.0134 0.0441,0.0145 0.07408,0.0106 -0.01447,0.31282 0.242358,0.97262 0.256117,1.41249 z m 0.343251,-0.6124 c 0.01693,0.0927 0.03351,0.18548 0.0508,0.27795 -0.09208,0.0846 -0.157337,0.18769 -0.263525,0.2628 -0.05574,-0.12031 -0.111125,-0.37717 -0.09243,-0.50905 0.140051,0.067 0.204964,-0.0177 0.305151,-0.0317 z m 0.07408,-1.04248 c 0.0021,-0.10157 -0.138642,-0.15697 -0.0695,-0.25053 0.0896,0.0466 0.216959,0.0378 0.246237,0.17046 -0.05292,0.031 -0.09031,0.0726 -0.176741,0.0801 z m 0.01447,2.0552 c 0.147461,0.13271 0.115711,0.48231 -0.1016,0.49678 -0.04692,-0.059 -0.05468,-0.175 -0.09278,-0.24625 0.05433,-0.0907 0.131588,-0.1655 0.194381,-0.25053 z m -0.01447,-1.792 c 0.0028,-0.0586 -0.0019,-0.12251 0.07161,-0.13229 0.01976,0.074 -0.0071,0.11672 -0.07161,0.13229 z m -0.217662,1.83403 c -0.0049,-0.11892 -0.05397,-0.17528 -0.07338,-0.27381 0.06703,-0.0987 0.137232,-0.29173 0.286105,-0.26735 0.08643,0.28925 0.0081,0.46468 -0.212725,0.54116 z m 0.560562,-0.60399 c -0.0042,0.0914 -0.05856,0.14827 -0.160512,0.17253 -0.01765,-0.10694 0.0575,-0.14952 0.160512,-0.17253 z m -0.194027,-0.0127 c -0.05221,-0.17184 0.08643,-0.31778 0.181681,-0.32026 0.07197,0.12278 -0.04692,0.27409 -0.181681,0.32026 z m 0.113948,-0.6904 c 0.05539,0.17956 -0.01622,0.27161 -0.157692,0.31543 -0.03986,-0.18245 -0.15875,-0.57712 0.07585,-0.6361 0.05257,0.15875 0.02434,0.26045 -0.06103,0.32246 0.01199,0.0502 0.100187,-0.008 0.142875,-0.002 z m -2.150888,-1.83471 c -0.01587,-0.15671 0.101955,-0.3157 0.259292,-0.2861 -0.01482,0.14499 -0.155575,0.20284 -0.259292,0.2861 z m 0.370065,0.19582 c 0.0085,-0.20284 0.168275,-0.4615 0.36054,-0.25689 -0.140407,0.0719 -0.248005,0.16581 -0.36054,0.25689 z m 0.18556,-0.0336 c 0.05115,0.0833 -0.0896,0.20716 -0.08396,0.32608 -0.0046,0.12347 0.108656,0.0765 0.125942,0.16893 -0.100894,0.12554 -0.119592,0.30827 -0.261057,0.40611 -0.0635,-0.1327 -0.106185,-0.29504 -0.134408,-0.47803 0.183091,-0.0956 0.254354,-0.26913 0.353483,-0.42309 z m -1.711325,-0.86141 c -0.01693,-0.0463 -0.104775,-0.13793 -0.05679,-0.18132 0.03986,-0.0599 0.07408,0.0169 0.143227,-0.002 0.02893,0.10061 0.01834,0.1743 -0.08643,0.18312 z m 0.67804,0.83358 c -0.01799,-0.0592 -0.0099,-0.10086 0.05221,-0.1047 0.01765,0.0588 0.0099,0.10043 -0.05221,0.1047 z m 0.286102,-0.004 c -0.06068,-0.067 0.07161,-0.14386 0.105481,-0.21015 0.08255,0.0715 0.01834,0.21442 -0.105481,0.21015 z m -0.282221,-0.23562 c -0.08326,-0.007 -0.08855,-0.12485 -0.225073,-0.0547 -0.09631,0.0484 -0.0113,0.22158 -0.14746,0.24169 -0.110773,-0.24557 0.5207,-0.7867 0.766585,-0.52144 -0.07655,0.19085 -0.212725,0.2431 -0.394052,0.33447 z m -0.267054,-0.54959 c 0.0078,0.13659 -0.134054,0.33655 -0.279752,0.43356 -0.05009,-0.14926 -0.01659,-0.24063 0.06491,-0.29919 -0.0013,-0.0656 -0.09031,-0.006 -0.105127,-0.0525 0.04516,-0.0886 0.107244,-0.29393 0.252942,-0.18909 0.006,0.0649 -0.07691,0.0681 -0.09913,0.11356 0.01058,0.0998 0.127355,0.001 0.166159,-0.006 z m -0.614892,0.30332 c -0.01976,-0.0744 0.0074,-0.1167 0.07161,-0.13297 0.01976,0.0744 -0.0071,0.11617 -0.07161,0.13297 z m -0.747177,-0.55835 c -0.0695,-0.0692 0.04304,-0.18563 0.01905,-0.29076 0.14464,-0.0141 0.216255,0.0777 0.330555,0.10735 -0.04339,0.11176 -0.235657,0.1203 -0.349605,0.18341 z m 0.66534,0.2377 c -0.09913,0.17474 -0.13335,0.39441 -0.286457,0.53069 -0.05785,-0.0626 -0.08537,-0.16909 -0.101245,-0.29256 0.171802,-0.05 0.224012,-0.18232 0.387702,-0.23813 z m -0.366535,0.0907 c -0.02257,-0.21896 0.238828,-0.49237 0.436033,-0.36614 -0.108305,0.14784 -0.24483,0.27615 -0.436033,0.36614 z m -1.343025,-0.28222 c 0.02999,-0.0539 0.04233,-0.1192 0.117826,-0.14139 -0.02151,0.0588 -0.01693,0.13642 -0.117826,0.14139 z m 0.219075,0.15145 c -0.05433,0.13116 -0.07479,0.28564 -0.196499,0.37042 -0.05927,-0.11328 -0.180975,-0.31793 -0.07514,-0.41702 0.06103,0.0582 0.178152,0.0353 0.271639,0.0466 z m 0.639937,-0.42764 c -0.02787,0.22394 -0.242711,0.31778 -0.313971,0.51181 -0.275521,-0.14069 0.07867,-0.46383 0.313971,-0.51181 z m -0.791634,-0.1433 c -0.110066,0.0724 -0.151693,0.1917 -0.317852,0.22518 -0.02611,-0.2202 0.202849,-0.26391 0.257175,-0.42898 0.280107,0.0335 0.524934,0.1185 0.738717,0.24871 -0.209198,-0.0169 -0.415573,0.0265 -0.67804,-0.0449 z m -1.326089,-0.18976 c -0.07126,-0.0656 -0.126648,-0.23495 -0.109363,-0.33898 0.132292,-0.0448 0.160867,0.0606 0.271286,0.0466 -0.02222,0.11892 -0.0568,0.2304 -0.161923,0.29242 z m 0.734836,0.22546 c 0.0095,0.23358 -0.189442,0.48645 -0.303742,0.70129 -0.03563,-0.0751 -0.08961,-0.12418 -0.09243,-0.24627 0.161925,-0.1312 0.147815,-0.38379 0.396172,-0.45502 z m -0.471665,0.30096 c -0.115359,-0.0192 -0.140052,-0.16909 -0.193675,-0.27587 0.132291,-0.13935 0.297743,-0.35818 0.532693,-0.36023 -0.1016,0.22007 -0.19967,0.44235 -0.339018,0.6361 z m -2.802467,-0.28085 c -0.05997,0.0285 -0.05503,-0.0378 -0.101245,-0.0296 -0.03246,-0.16482 0.106891,-0.2092 0.240241,-0.25865 0.0013,0.12911 -0.08572,0.19649 -0.138996,0.28829 z m 0.273757,-0.0737 c 0.121001,0.14704 0.180268,0.4396 0,0.52628 -0.130175,0.002 -0.127352,-0.18616 -0.212725,-0.24833 0.05257,-0.10541 0.05468,-0.24585 0.212725,-0.27795 z m -0.0314,-0.56871 c -0.0071,-0.0385 -0.0141,-0.0769 -0.02117,-0.11561 0.08431,-0.0343 0.191206,-0.0791 0.258939,-0.023 0.0078,0.10062 -0.13476,0.17957 -0.237773,0.13865 z m 0.302683,0.61528 c -0.239887,-0.0769 -0.03598,-0.37218 0.158398,-0.31609 -0.0021,0.13998 -0.111831,0.20641 -0.158398,0.31609 z m 0.288573,0.66492 c -0.161573,-0.2049 -0.413808,-0.58456 0.08008,-0.612 0.195792,0.19113 0.0822,0.49099 -0.08008,0.612 z m 0.394052,-1.38741 c 0.02506,-0.0385 0.125238,-0.0565 0.162279,-0.0289 0.01871,0.0805 -0.06456,0.0902 -0.06738,0.15557 -0.05856,-0.003 -0.06773,-0.0783 -0.0949,-0.12664 z m 0.138996,0.23812 c -0.05751,0.11893 -0.212373,0.26734 -0.387704,0.23813 0.07408,-0.0925 0.259998,-0.44027 0.387704,-0.23813 z m -0.267758,0.50342 c -0.0081,-0.0787 0.06562,-0.16718 0.145343,-0.1221 -0.02469,0.0561 -0.04762,0.17996 -0.145343,0.1221 z m 0.667454,0.11821 c 0.0013,0.20243 -0.245886,0.292 -0.263525,0.526 -0.147813,-0.10764 -0.252942,-0.23538 -0.260702,-0.3828 -0.01553,-0.2854 0.5207,-0.63006 0.524226,-0.1432 z m -0.02294,-0.52214 c -0.0088,-0.0366 -0.005,-0.0907 -0.03986,-0.0889 0.07655,-0.18426 0.342193,-0.17459 0.505176,-0.11536 0.06103,0.25538 -0.293862,0.18411 -0.465312,0.20422 z m 0.595487,0.51361 c 0.01871,0.17543 -0.106186,0.2505 -0.145344,0.3853 -0.09066,-0.0608 -0.190852,-0.24239 -0.164042,-0.37677 0.09983,0.002 0.182386,0.0285 0.309386,-0.008 z m -0.237771,-0.12443 c -0.05786,-0.21389 0.257527,-0.3514 0.254704,-0.0459 -0.04092,0.0441 -0.200729,0.0737 -0.254704,0.0459 z M 46.5495,129.9108 c -0.08678,-0.10901 -0.152752,-0.24761 -0.214842,-0.39162 0.178154,-0.59161 0.694973,0.20849 0.214842,0.39162 z m -0.225071,-1.10765 c 0.02328,-0.17406 0.249412,-0.33627 0.43815,-0.22271 -0.05927,0.13518 -0.261408,0.41423 -0.43815,0.22271 z m -2.758723,1.41026 c -0.04022,-0.0278 -0.06138,-0.14566 -0.03352,-0.18549 0.05257,-0.0174 0.08961,-0.0127 0.119946,0.002 0.02857,0.10061 -0.01199,0.15353 -0.08643,0.18341 z m 0.324556,-0.3223 c 0.2413,-0.0445 0.186971,0.31983 0.01236,0.33292 -0.06703,-0.0832 -0.07655,-0.27587 -0.01236,-0.33292 z m -0.238479,0.66531 c -0.07549,-0.0832 -0.05539,-0.24737 0.07373,-0.25259 0.0568,0.0857 0.08572,0.25672 -0.07373,0.25259 z m 0.116065,-0.81072 c 0.248001,0.0498 -0.05574,0.26776 0,0 z m 0.423685,0.0907 c -0.217662,-0.10626 -0.08078,-0.40859 0.159808,-0.43575 0.12418,0.1972 -0.04939,0.33652 -0.159808,0.43575 z m 0.334433,-0.13272 c 0.156282,0.1524 0.1143,0.38132 -0.05891,0.46535 -0.255413,-0.0678 -0.178858,-0.40883 0.05891,-0.46535 z m 0.267407,0.0237 c -0.34149,-0.15215 -0.04727,-0.6551 0.263525,-0.52669 0.04268,0.26596 -0.167569,0.3569 -0.263525,0.52669 z m -0.0024,0.90908 c -0.109009,-0.0565 -0.15875,-0.19868 -0.243772,-0.29034 0.0314,-0.11285 0.07691,-0.21664 0.189442,-0.27382 0.249415,0.0809 0.313267,0.45159 0.05433,0.56416 z m 0.362653,-1.16593 c 0.12559,0.0229 0.130175,0.22115 0.22084,0.2946 -0.03845,0.176 -0.155928,0.29697 -0.257176,0.42968 -0.149932,-0.007 -0.172509,-0.1983 -0.267407,-0.28649 0.05786,-0.17611 0.137938,-0.33694 0.303742,-0.4378 z m -0.05009,-0.54117 c 0.005,-0.1651 0.18556,-0.20849 0.38735,-0.2377 -0.01304,0.1827 -0.194027,0.28635 -0.38735,0.2377 z m 0.361243,0.6755 c -0.119237,-0.12827 -0.28575,-0.424 -0.01834,-0.49844 0.135819,0.10474 0.277283,0.43713 0.01834,0.49844 z m 0.577498,-0.77389 c -0.04163,-0.0477 -0.05151,-0.14016 -0.140758,-0.11825 -0.07796,-0.006 -0.06527,0.0494 -0.107598,0.0674 0.05468,0.18136 0.178506,0.36904 -0.04022,0.43784 -0.07761,-0.0632 -0.110419,-0.19128 -0.170392,-0.27976 0.07691,-0.23385 0.28928,-0.36022 0.611013,-0.32632 -0.01693,0.0966 -0.06738,0.16937 -0.152048,0.21911 z m 0.07549,0.15378 c 0.07973,-0.0278 0.123121,-0.002 0.151696,0.0441 0.0078,0.066 -0.02222,0.10583 -0.09878,0.11356 -0.03775,-0.0243 -0.04128,-0.0966 -0.05292,-0.15766 z m -0.358069,1.18925 c -0.08784,-0.11645 -0.156633,-0.26141 -0.218723,-0.41519 0.164042,-0.45861 0.558448,0.29447 0.218723,0.41519 z m 0.234244,-0.9518 c 0.05821,0.15378 0.250473,0.36298 0.06068,0.46744 -0.161221,-0.0502 -0.346782,-0.41314 -0.06068,-0.46744 z m -1.417109,-0.29326 c 0.08467,-0.0154 0.169688,-0.0303 0.254707,-0.0461 -0.06703,0.16961 -0.167569,0.3157 -0.275873,0.45681 -0.0568,-0.0147 -0.09701,-0.055 -0.118179,-0.1221 -0.01939,-0.1421 0.207433,-0.11285 0.139345,-0.28857 z m -0.839962,0.24804 c 0.105127,-0.0339 0.239887,-0.13586 0.366184,-0.09 0.03528,0.092 -0.01376,0.12523 0.01447,0.21233 -0.08078,0.0255 -0.116417,0.0816 -0.140759,0.14581 0.04375,0.0434 0.05362,-0.0272 0.119946,0.002 -0.0071,0.0692 -0.03069,0.12704 -0.09067,0.16027 -0.06527,0.036 -0.05009,-0.0445 -0.06315,-0.0844 -0.175683,-0.0262 -0.178858,0.14926 -0.265641,0.11991 -0.09842,-0.16786 0.118888,-0.26074 0.05962,-0.46567 z m 12.146137,5.49948 c -0.276225,0.3955 -0.632883,1.02058 -0.783873,1.48195 0.312915,-0.41052 0.549275,-0.98282 0.886532,-1.30914 -0.01659,0.35953 -0.04269,0.71272 -0.261409,0.93238 0.06138,0.0576 0.100894,-0.14386 0.20461,-0.0609 0.0053,0.16578 -0.0049,0.32067 -0.0085,0.48011 -0.463196,0.39439 -0.746477,0.91364 -0.977546,1.46926 0.2159,-0.0878 0.278694,-0.39232 0.416984,-0.60179 0.160866,-0.24419 0.35066,-0.4717 0.560562,-0.60399 0.01622,0.0991 -7.94e-4,0.17528 -7.94e-4,0.26279 -0.363008,0.38944 -0.691798,0.80326 -0.804333,1.36605 0.318204,-0.33307 0.411691,-0.82103 0.777168,-1.12186 0.09737,0.64134 -0.309385,0.93307 -0.463902,1.4005 -0.811707,-0.36683 -2.054897,-0.23702 -3.071249,-0.18452 -0.337256,0.017 -0.742598,0.23635 -1.067858,0.31322 -0.586317,0.13835 -1.049163,0.31436 -1.505656,0.53594 -0.743302,0.36159 -1.536346,0.83576 -1.98755,1.43756 -0.295275,0.393 -0.43815,0.87588 -0.686859,1.2252 -0.274812,0.006 -0.378529,-0.23315 -0.604308,-0.29711 -0.26176,-0.50408 -0.793396,-0.88688 -1.165929,-1.41495 -0.174273,-0.24832 -0.410633,-0.5122 -0.549275,-0.78603 -0.138642,-0.2734 -0.219781,-0.59478 -0.399346,-0.88402 -0.299154,-0.483 -0.472017,-0.88717 -0.608187,-1.63655 -0.122063,-0.67276 -0.205317,-1.27731 -0.46849,-1.92402 -0.02787,-0.10018 0.09067,-0.0991 0.140758,-0.14538 -0.427566,-0.8876 -0.307623,-2.26688 -0.304093,-3.12663 0.103716,-0.14428 0.06032,-0.39012 0.111828,-0.57036 0.12065,-0.0311 0.166159,-0.11465 0.257175,-0.16619 0.09278,0.11243 -0.08678,0.19043 -0.06138,0.32163 0.217313,0.0515 0.216255,-0.34947 0.395817,-0.45435 0.100542,0.14746 0.09419,0.44884 0.334788,0.39413 -0.05433,-0.24847 -0.403225,-0.68944 -0.03528,-0.85521 0.304096,0.10333 0.08678,0.36312 0.05433,0.56445 0.111829,0.15776 0.26317,-0.10901 0.3429,-0.086 0.126645,0.14456 0.452967,0.32233 0.554212,0.019 0.01588,-0.0486 -0.176035,-0.0943 -0.0067,-0.1662 0.06562,0.0846 0.160515,0.1881 0.324557,0.20423 -0.254,-0.20698 -0.309388,-0.60703 0.05891,-0.72884 0.07832,0.17116 0.256116,0.37193 0.179213,0.58995 0.131233,0.0627 0.258937,0.13257 0.355245,0.24652 7.94e-4,-0.20105 -0.29986,-0.53054 -0.02506,-0.66573 0.353835,0.35676 0.475896,1.04743 0.961671,1.21323 0.0071,-0.15874 -0.218017,-0.30236 -0.3556,-0.50933 -0.126646,-0.19156 -0.262113,-0.42168 -0.344663,-0.5836 -0.0508,-0.0987 -0.127354,-0.25107 -0.128412,-0.31186 -0.0071,-0.40456 0.442737,0.0752 0.322087,0.32466 0.270579,0.11565 0.322438,0.54751 0.521404,0.7662 0.05821,-0.32205 -0.22225,-0.64946 -0.334079,-0.92011 0.07408,-0.13713 0.08749,-0.31708 0.265288,-0.38308 0.322439,0.43116 0.621241,0.89612 0.917575,1.36493 0.117118,-0.15627 -0.07268,-0.35344 -0.166515,-0.52006 -0.155927,-0.27905 -0.46849,-0.53756 -0.22084,-0.82116 0.262115,0.49911 0.589492,0.90301 0.966259,1.2361 -0.06914,-0.31076 -0.366888,-0.54116 -0.530225,-0.81252 0.158398,-0.0913 0.03422,-0.25739 0.172862,-0.36653 0.294569,0.30522 0.473427,0.77692 0.770113,1.08024 -0.03175,-0.31433 -0.296334,-0.54681 -0.395463,-0.86142 0.207434,-0.0653 0.196144,-0.28222 0.389467,-0.35775 0.275167,0.54751 0.495652,1.17436 0.938387,1.481 -0.125235,-0.42443 -0.524579,-0.70418 -0.632883,-1.24894 0.23354,-0.0204 0.143229,-0.26554 0.351367,-0.30329 0.04269,0.11921 0.197201,0.23453 0.113948,0.36227 0.468487,0.29697 0.513291,1.2065 1.140528,1.27594 0.0829,-0.25426 -0.206726,-0.45573 -0.288218,-0.66489 -0.111832,0.061 0.07091,0.20062 0.0039,0.28607 -0.222605,-0.11645 -0.297746,-0.44662 -0.435682,-0.68683 0.188736,-0.0307 0.111477,-0.24623 0.172861,-0.36629 0.07232,0.0205 0.106188,-0.0843 0.138996,-0.025 0.08819,0.001 0.154162,0.18549 0.119943,0.26529 0.300567,0.37497 0.498475,0.89736 0.822677,1.23858 -0.05045,-0.33652 -0.312561,-0.62055 -0.435327,-0.94976 0.176035,0.0321 0.177448,-0.0839 0.311502,-0.12841 0.253648,0.58854 0.559506,1.10215 0.961673,1.47573 -0.03634,-0.3299 -0.452967,-0.60991 -0.567973,-1.021 -0.04304,-0.0645 -0.09137,-0.12097 -0.130527,-0.19113 0.0099,-0.26498 0.06421,-0.6022 0.397933,-0.57503 0.04727,0.27545 -0.186973,0.35595 -0.149931,0.62505 0.183091,0.0561 0.102306,-0.20062 0.271991,-0.21647 0.278342,0.76716 0.634296,1.42268 1.1303,1.87606 -0.179917,-0.56376 -1.086908,-1.2539 -0.608187,-1.89909 0.08361,0.0258 0.171095,0.0452 0.252942,0.0735 0.275166,0.986 0.626885,1.8616 1.070327,2.6052 -0.16369,-0.6882 -0.543984,-1.31934 -0.733777,-2.06803 0.07055,-0.0317 0.104068,-0.0896 0.195791,-0.10749 0.408162,0.93018 0.631119,2.12893 1.110544,2.957 0.03739,-0.20643 -0.12841,-0.37014 -0.210257,-0.63225 -0.229658,-0.73587 -0.448733,-1.488 -0.635,-2.18156 0.164749,-0.012 0.222957,0.0726 0.364422,0.03 0.257175,0.90483 0.466725,1.87883 0.853368,2.5961 -0.06808,-0.43891 -0.267052,-1.04249 -0.38876,-1.48415 -0.01482,-0.0544 -0.05962,-0.12485 -0.0568,-0.18135 0.01236,-0.23991 0.265993,-0.37014 0.324556,-0.58498 0.216604,0.26252 -0.151696,0.45861 -0.160514,0.69853 0.183091,0.0522 0.165806,-0.2085 0.313973,-0.24791 0.107243,0.53441 0.208491,1.4672 0.377825,2.08415 0.03139,0.11217 0.1016,0.19719 0.1016,0.29283 -2.65e-4,0.16151 -0.186267,0.25287 -0.168982,0.38944 0.225777,-0.10694 0.202494,-0.38668 0.465667,-0.46744 0.232127,0.24419 -0.06032,0.54929 -0.23636,0.80864 -0.138642,0.20491 -0.329497,0.37317 -0.27799,0.57712 0.32879,-0.41383 0.516467,-0.92508 0.969081,-1.25277 0.148871,0.24763 0.04657,0.31364 -0.07796,0.4925 z m -0.113241,3.99232 c -0.103011,-0.0168 -0.119592,-0.15875 -0.222957,-0.17487 0.06068,-0.22158 0.108305,-0.45159 0.328438,-0.56266 0.03528,0.29449 0.01304,0.54886 -0.105481,0.73753 z m -0.880182,0.15917 c 0.01553,-0.0233 0.06103,-0.0251 0.06138,-0.0588 0.06668,-0.009 0.05962,0.0892 0.07585,0.15378 -0.08184,0.0201 -0.127352,-0.0117 -0.137232,-0.0949 z m -0.328083,0.0357 c 0.09102,0.0197 0.13829,0.11811 0.08396,0.19996 -0.07867,0.006 -0.06068,-0.12661 -0.08396,-0.19996 z m -0.334785,-0.13063 c 0.02257,-0.004 0.04586,-0.008 0.06914,-0.0123 0.0314,0.15695 0.242713,0.2395 0.145346,0.40389 -0.132646,-0.0283 -0.245533,-0.22408 -0.214489,-0.39165 z m -2.12866,0.2668 c 0.01341,0.11712 -0.03951,0.18863 -0.0695,0.27545 -0.126294,-0.0226 -0.212019,-0.10294 -0.23989,-0.26733 0.111479,-0.0149 0.250473,-0.0692 0.309388,-0.008 z m 0.161925,0.49664 c -0.08043,0.0286 -0.0829,-0.0554 -0.0949,-0.12622 0.02328,-0.004 0.04622,-0.008 0.0695,-0.0127 0.0085,0.0465 0.01693,0.0924 0.0254,0.13892 z m 0.355599,-0.0165 c -0.07267,0.0201 -0.102306,-0.0864 -0.07126,-0.13049 0.05927,-0.008 0.05962,0.069 0.07126,0.13049 z m -0.216958,-0.53481 c 0.0762,-0.0558 0.251529,-0.042 0.316442,-0.10513 0.127703,0.055 -0.01447,0.21869 -0.01482,0.31362 -0.132998,-0.0226 -0.243771,-0.0769 -0.301625,-0.20849 z m -0.439563,-0.44619 c 0.262115,-0.14855 0.711907,-0.20122 0.98143,-0.13024 -0.313622,0.0236 -0.67804,0.12142 -0.98143,0.13024 z m 1.126067,0.27407 c 0.08961,-0.10512 0.289983,-0.13271 0.436033,-0.10336 0.01164,0.1771 -0.06068,0.29559 -0.113945,0.42679 -0.153459,-0.0409 -0.272347,-0.13187 -0.322088,-0.32343 z m 0.0085,0.57218 c -0.105833,0.007 -0.200025,-0.003 -0.252587,-0.0737 -0.0019,-0.0818 0.04621,-0.13021 0.08643,-0.18274 0.07514,0.0462 0.173567,0.1852 0.166158,0.25647 z m -1.696542,0.14068 c -0.02294,-0.0966 0.0702,-0.11313 0.05891,-0.202 0.09172,0.0525 0.154869,0.14591 0.193323,0.27616 -0.08537,0.0561 -0.191558,-0.009 -0.252237,-0.0742 z m -0.482245,-0.67825 c 0.03669,-0.0819 0.25047,-0.12844 0.338667,-0.10915 -0.04833,0.0812 -0.214842,0.0802 -0.338667,0.10915 z m 0.252235,0.86318 c -0.07514,0.0564 -0.164042,-0.085 -0.237773,-0.12386 0.0374,-0.10294 0.204258,0.0346 0.237773,0.12386 z m -0.176742,-0.44591 c 0.13829,-0.0181 0.22225,-0.0339 0.305507,-0.0314 0.01164,0.0818 -0.04727,0.11536 -0.03634,0.19762 -0.123825,-0.005 -0.227894,-0.041 -0.269169,-0.16619 z m 5.263092,1.05445 c 0.08855,0.30692 -0.386292,0.8085 -0.07197,1.18526 0.14464,-0.29806 0.05821,-0.75628 0.21731,-1.04454 0.149225,0.1305 0.409224,0.22998 0.458965,0.41946 0.06527,0.25329 -0.294216,0.8001 -0.131233,1.12433 0.180268,-0.26031 0.09984,-0.70058 0.280458,-0.96019 0.104775,0.0729 0.171802,0.19996 0.248357,0.31348 -0.02822,0.20356 -0.25259,0.63433 -0.0046,0.76662 0.12418,-0.10294 0.01024,-0.37041 0.1016,-0.49706 0.282575,0.17004 0.484365,0.48549 0.496359,0.89119 0.09737,0.007 0.09631,-0.0551 0.126296,-0.095 0.378177,0.156 0.586317,0.54116 0.936625,0.81071 0.28716,0.22159 0.660752,0.33719 0.890762,0.5563 0.248356,0.23784 0.407106,0.58028 0.13194,0.86155 -0.461434,0.47128 -1.527882,0.62054 -2.32904,0.61338 -0.04057,-0.0476 -0.06209,-0.12418 -0.102658,-0.1724 -0.455787,-0.0724 -0.93345,0.081 -1.375127,0.20175 -0.127352,-0.031 -0.191559,-0.15201 -0.262819,-0.26349 -0.278696,-0.0307 -0.500591,0.13476 -0.673806,0.24197 -0.02998,-0.16895 0.12559,-0.20987 0.09878,-0.37716 -0.293862,-0.21978 -0.531284,0.21802 -0.730602,0.32424 -0.103365,-0.19759 0.109715,-0.54567 -0.164042,-0.63994 -0.29986,0.0285 -0.347133,0.23178 -0.536927,0.33652 -0.138641,-0.24021 0.227542,-0.52599 0.128762,-0.74083 -0.136877,-0.2963 -0.610303,0.14111 -0.65687,0.33418 -0.07338,-0.001 -0.08502,-0.0918 -0.198263,-0.0357 -0.02294,-0.0836 -0.01728,-0.20891 -0.06914,-0.25054 -0.08996,-0.0359 -0.267758,0.0551 -0.336901,-0.0109 -0.05151,-0.19763 0.08502,-0.26501 0.0085,-0.48013 -0.08608,-0.0896 -0.251179,-0.0656 -0.357716,-0.12637 -0.05257,0.30802 -0.174273,0.56805 -0.387705,0.76412 0.01659,-0.32769 0.02188,-0.59365 0.05715,-0.87133 -0.02082,-0.12551 -0.163335,-0.0762 -0.257175,-0.097 -0.11077,-0.29696 0.07444,-0.5782 -0.05009,-0.80394 -0.39511,0.40075 0.159809,1.46018 -0.345723,1.78498 -0.150635,-0.57464 0.05045,-1.15178 -0.277283,-1.52851 0.05327,-0.39825 0.04198,-0.83718 0.08678,-1.2361 0.02117,-0.19089 0.184856,-0.40958 0.0381,-0.58113 -0.212019,0.27837 -0.191559,0.77653 -0.234244,1.215 -0.04833,0.49389 -0.176035,0.97582 -0.118533,1.45701 0.01728,0.14111 0.07691,0.35235 -0.08184,0.46923 -0.489305,-0.76662 -0.238125,-1.68836 -0.17004,-2.38552 0.05151,-0.5249 0.08361,-1.04207 0.156633,-1.51172 -0.02469,-0.0426 -0.07338,-0.05 -0.12841,-0.0482 -0.207433,0.31393 -0.130175,0.73159 -0.154516,1.12846 -0.03246,0.53912 -0.14605,1.08977 -0.244475,1.55155 -0.09384,-0.0405 -0.151342,-0.13271 -0.246592,-0.17074 0.174977,-0.80327 0.291393,-1.64786 0.436737,-2.47153 0.150638,-0.0576 0.216255,-0.17388 0.282575,-0.29005 0.144992,-0.0342 0.198967,0.0624 0.340783,0.0335 0.05327,0.21816 -0.130878,0.44457 0.01236,0.59588 0.118534,-0.26212 0.11924,-0.60565 0.278342,-0.83993 0.192265,0.0832 0.49389,0.0934 0.547865,-0.14718 -0.03951,0.28444 -0.204965,0.58607 -0.127,0.88417 0.175683,-0.20218 0.157337,-0.5387 0.263525,-0.78963 0.182737,0.0872 0.437443,0.0703 0.511175,0.31405 0.169685,-0.0988 0.08854,-0.37109 0.221192,-0.49499 0.158395,0.0156 0.270226,0.0984 0.446968,0.0868 0.04057,0.0649 0.0024,0.12774 0.06068,0.20422 0.211315,-0.0226 0.07267,-0.28719 0.19544,-0.37041 0.14464,-0.0403 0.234243,0.0794 0.337256,0.0106 -0.0067,-0.18521 -0.179916,-0.13025 -0.255058,-0.21693 7.94e-4,-0.20916 0.118533,-0.33623 0.17145,-0.50944 0.362654,0.10625 0.215545,0.47445 0.216252,0.79759 0.213077,-0.007 0.08819,-0.24874 0.204258,-0.32342 0.150283,0.0652 0.226132,0.23812 0.3683,0.3157 -0.0071,0.13726 -0.01659,0.39056 0.147108,0.28402 -0.04057,-0.2202 0.0702,-0.46644 0.141817,-0.67137 0.15381,0.0695 0.29069,0.16439 0.448027,0.22958 0.0056,0.22832 -0.112535,0.47308 -0.0441,0.67773 0.171801,-0.0444 0.102658,-0.42609 0.203903,-0.58706 0.656522,0.17723 0.01622,0.84212 0.210257,1.42102 0.171802,-0.23837 0.07902,-0.66075 0.242358,-0.90523 0.113242,0.13837 0.325967,0.17682 0.372533,0.33941 z m 2.176285,1.97351 c 0.297392,0.27256 0.618067,0.67303 0.892175,0.96227 -0.498827,-0.30303 -0.893585,-0.75558 -1.313037,-1.17298 0.05962,-0.0586 0.330904,0.12731 0.420862,0.21071 z m -0.173567,3.26069 c 0.06527,-0.1542 0.359482,-0.19759 0.56233,-0.19759 -0.05292,0.15903 -0.42404,0.0981 -0.56233,0.19759 z m -1.905703,-0.085 c 0.09489,-0.12319 0.341135,-0.14111 0.511527,-0.21234 0.03281,0.19636 -0.365125,0.2709 -0.511527,0.21234 z m -0.721784,0.10749 c -0.06809,-0.0577 -0.118888,-0.14069 -0.143229,-0.26098 0.05574,-0.036 0.103013,-0.0769 0.200025,-0.0844 -0.01976,0.19374 0.140054,0.30412 0.317854,0.30123 -0.07761,0.16937 -0.233539,-0.0254 -0.37465,0.0441 z m -0.4191,-0.0677 c 0.0381,-0.0508 0.164042,-0.0653 0.151342,0.0448 -0.06985,0.0134 -0.149931,0.0409 -0.151342,-0.0448 z m -0.340783,-0.29711 c 0.04833,0.14182 0.0032,0.21883 -0.04233,0.29531 -0.09313,0.0269 -0.152048,0.005 -0.216959,-0.009 0.04163,-0.2074 0.231775,-0.31182 0.40005,-0.43145 7.94e-4,0.0816 -0.117475,0.0805 -0.140758,0.14496 z m -0.621596,0.13698 c -0.07055,0.0342 -0.04621,-0.0699 -0.08608,-0.08 -0.08079,0.0179 -0.09137,0.0849 -0.17286,0.10295 -0.186973,-0.24808 0.09384,-0.49432 0.324553,-0.58488 0.07091,0.25111 -0.04445,0.37388 -0.06562,0.56198 z m -0.622652,-0.53272 c -0.04903,0.15667 -0.05927,0.43074 -0.299508,0.46066 -0.07797,-0.069 -0.09631,-0.18726 -0.09666,-0.26942 -2.64e-4,-0.18242 0.364419,-0.67246 0.554212,-0.77018 7.94e-4,0.1954 -0.100187,0.39261 -0.158044,0.57894 z m -0.800452,0.33652 c -0.32244,-0.0292 -0.128058,-0.47724 -0.0081,-0.57288 0.09066,0.0988 -0.0092,0.39194 0.0081,0.57288 z m -0.214138,-0.65472 c -0.0081,-0.0597 0.01728,-0.0963 0.0755,-0.10968 0.0081,0.0592 -0.01728,0.0959 -0.0755,0.10968 z m -0.543628,0.43324 c -0.101249,-0.35496 0.17145,-0.623 0.347837,-0.85273 0.08114,0.34082 0.02612,0.76027 -0.347837,0.85273 z m -1.174399,-0.40858 c 0.160161,-0.0846 0.197909,-0.25439 0.233892,-0.42538 0.07938,0.15018 0.03951,0.3919 0.10936,0.60177 -0.154868,-8e-4 -0.266345,-0.0638 -0.343252,-0.17639 z m -0.797983,-0.83605 c 0.136173,0.0466 0.129823,0.22408 0.132998,0.33443 -0.125238,0.005 -0.09172,-0.21868 -0.132998,-0.33443 z m 0.07373,-4.34344 c 0.06703,-0.0613 0.232127,-0.055 0.3429,-0.0864 0.05292,0.0674 -0.01765,0.19608 -0.04657,0.27132 -0.12065,-0.0304 -0.250121,-0.0479 -0.296333,-0.18492 z m 0.199319,0.44207 c 0.03069,0.10858 0.0067,0.17999 -0.05503,0.22504 -0.449792,0.0561 -0.294569,-0.57037 0.05503,-0.22504 z m -0.682977,3.35347 c -0.556331,-0.59545 -0.174977,-1.45549 -0.0374,-2.05024 0.04833,-0.0477 0.08714,-0.10199 0.141113,-0.14541 -0.02681,-0.20779 0.05609,-0.33899 0.101246,-0.49703 0.216254,0.001 0.134056,-0.20398 0.317854,-0.22546 0.06526,0.55202 -0.06491,1.10835 -0.158398,1.63202 -0.04939,0.27682 -0.08855,0.58621 -0.240594,0.78479 -0.0113,-0.0613 -0.01516,-0.13328 -0.05221,-0.15794 -0.200728,0.13642 0.145347,0.50546 -0.07161,0.65927 z m -0.212373,-2.3537 c -0.122767,0.0219 -0.15875,-0.0825 -0.237418,-0.12456 0.01447,-0.13822 0.05186,-0.26074 0.07162,-0.39579 0.160512,0.0529 0.241297,0.37469 0.165803,0.52035 z m 0.24906,-1.26502 c 0.05045,-0.0244 0.131588,-0.0719 0.185563,-0.0343 0.01622,0.0859 -0.01164,0.14083 -0.03563,0.19829 -0.07973,-0.012 -0.140406,-0.0505 -0.149931,-0.16397 z m 0.0695,0.51329 c -0.03457,0.0369 -0.02963,0.10117 -0.07161,0.13299 -0.162983,-0.008 -0.225422,-0.16192 -0.351718,-0.22337 0.0035,-0.0991 0.04163,-0.1735 0.07373,-0.25288 0.160866,0.0507 0.246237,0.21058 0.349602,0.34326 z m -0.951793,0.29242 c 0.09031,-0.19403 0.06879,-0.46535 0.359833,-0.52007 -0.02011,0.19554 -0.04833,0.38488 -0.08784,0.56624 -0.09243,-0.0762 -0.151693,-0.0441 -0.271991,-0.0462 z m 0.346427,2.04254 c -0.03845,0.13656 -0.12065,0.35952 -0.183092,0.4396 -0.126294,-0.15695 -0.120295,-0.33722 -0.06949,-0.51361 -0.02822,-0.0371 -0.08855,-0.0275 -0.128413,-0.0484 0.05468,-0.21209 0.03951,-0.47237 0.118182,-0.66753 0.07126,-0.0113 0.136525,0.0633 0.189441,-0.0102 0.07585,-0.11394 -0.0314,-0.59901 0.0949,-0.66325 0.06562,-0.0338 0.178152,0.0375 0.210609,0.10516 0.08608,0.17681 -0.166159,1.12681 -0.23213,1.35819 z m -0.03845,0.84392 c 0.01553,-0.0233 0.06138,-0.0251 0.06138,-0.0586 0.117475,0.0236 0.06209,0.25188 0.08643,0.34283 -0.07444,-0.0581 -0.113948,-0.16687 -0.147814,-0.28427 z m -0.527402,-1.19603 c -0.06738,0.009 -0.14958,0.04 -0.189442,0.0103 0.0053,-0.12385 0.10795,-0.18104 0.08396,-0.32631 0.0032,-0.0818 -0.09207,-0.0226 -0.10936,-0.0755 0.08749,-0.23633 0.03563,-0.56914 0.335137,-0.65899 0.100896,0.29489 -0.04798,0.7433 -0.120295,1.05046 z m 0.03951,0.6149 c 0.05997,-0.008 0.06032,0.0696 0.07162,0.13024 -0.09772,0.0265 -0.07796,-0.0726 -0.07162,-0.13024 z m -0.487891,-1.10766 c -0.01482,-0.25301 0.0949,-0.42015 0.06773,-0.68199 0.02363,-0.0376 0.111476,-0.031 0.10301,-0.0906 0.03775,-0.016 0.04692,0.01 0.05468,0.0378 -0.13829,0.20105 0.01024,0.6011 -0.225425,0.73477 z m 0.04621,1.04426 c -0.208847,-0.0999 -0.27799,-0.42802 -0.13688,-0.62135 0.12065,0.26858 0.361598,0.50518 0.34925,0.86995 -0.115004,-0.0197 -0.20461,-0.0751 -0.21237,-0.2486 z m -5.069417,-7.76427 c 0.397933,0.78948 0.457903,1.60721 0.60325,2.66581 -0.395817,-0.62934 -0.588434,-1.82204 -0.60325,-2.66581 z m 0.518583,-7.82078 c 0.465312,-0.41381 0.696383,-0.98915 1.211085,-1.36881 -0.09913,0.31256 -0.510823,0.71727 -0.785635,1.07597 -0.261057,0.34054 -0.474488,0.70556 -0.764823,0.92826 0.05186,-0.25438 0.274815,-0.39056 0.339373,-0.63542 z m 1.347962,-1.53666 c 0.0074,0.0656 -0.02257,0.10583 -0.09913,0.11313 0.02294,-0.0448 0.03175,-0.0998 0.09913,-0.11313 z m 5.092348,-4.10598 c -0.294216,0.23315 -0.651933,0.38805 -0.970843,0.58303 -0.323498,0.1972 -0.5969,0.43932 -0.888648,0.63969 -0.03281,0.0579 -0.05821,0.12101 -0.168275,0.12594 0.496358,-0.56031 1.183216,-1.0965 2.027766,-1.34866 z m 7.478535,-1.23762 c -0.08326,-0.0161 -0.118181,-0.10199 -0.191558,-0.133 0.05433,-0.0563 0.164748,0.054 0.191558,0.133 z m 0.461434,-0.75353 c -0.08008,0.12664 -0.525286,0.40611 -0.109715,0.45092 0.09878,-0.13409 0.186973,-0.27591 0.3937,-0.33489 -0.08184,0.1997 -0.219779,0.36064 -0.332669,0.53869 -0.2413,-0.0606 -0.398991,-0.24296 -0.593725,-0.3707 0.144285,-0.13092 0.452967,-0.25121 0.642409,-0.28402 z m 16.658517,3.60401 c -0.312912,-0.23565 -0.791278,-0.48193 -1.062918,-0.71617 -0.112535,-0.0963 -0.20814,-0.24448 -0.318207,-0.30124 -0.154162,-0.0801 -0.3683,-0.10061 -0.55527,-0.16193 -0.178155,-0.059 -0.348898,-0.15765 -0.522465,-0.24059 -0.359481,-0.17187 -0.75071,-0.25262 -1.119717,-0.37084 -0.415925,-0.13395 -0.764468,-0.26458 -1.101018,-0.39853 -0.20038,-0.0798 -0.369007,-0.15946 -0.560213,-0.18493 -0.35842,-0.0486 -0.806095,0.0215 -1.111249,-0.0617 -0.135467,-0.20422 -0.31891,-0.33831 -0.418746,-0.59365 -0.478014,-0.22655 -0.840316,-0.61916 -1.475671,-0.61736 -0.213077,-0.14291 -0.48401,-0.11398 -0.730954,-0.2026 -0.140406,-0.0507 -0.270933,-0.14951 -0.416279,-0.18726 -0.258937,-0.0687 -0.54116,-0.0748 -0.814917,-0.13973 -0.253293,-0.0593 -0.503767,-0.19541 -0.762,-0.24405 -0.302329,-0.0579 -0.63147,0.0218 -0.951442,0.0289 -0.427918,0.009 -0.827968,-0.23248 -1.256945,-0.20256 -0.161573,0.0113 -0.3302,0.0773 -0.505531,0.11575 -0.305859,0.0663 -0.638882,0.0219 -0.915811,0.0945 -0.248356,0.0649 -0.459316,0.24557 -0.707673,0.31997 -0.733777,0.21872 -1.624893,0.24945 -2.052815,0.68337 -0.250825,-0.19555 -0.451201,-0.29323 -0.835728,-0.25549 -0.449088,0.0441 -0.922163,0.0815 -1.286582,0.16165 -0.389466,0.086 -0.786693,0.33475 -1.235781,0.43988 -0.404635,0.0941 -0.837142,0.12389 -1.227667,0.22256 -0.399343,0.101 -0.89535,0.28332 -1.286227,0.42485 -0.377473,0.13642 -0.704498,0.37356 -1.053041,0.52628 -0.397934,0.1736 -0.821973,0.29668 -1.20015,0.50475 -0.575379,0.31613 -1.012825,0.88555 -1.533171,1.3068 -0.276225,0.22366 -0.585964,0.38696 -0.8509,0.58483 -0.275873,0.20645 -0.524933,0.43424 -0.764471,0.66506 -0.997654,0.9616 -1.8415,2.01496 -2.624312,2.94005 -0.192265,0.36502 -0.371123,0.71187 -0.55598,1.15397 -0.09278,0.22049 -0.296685,0.6452 -0.263525,0.78945 0.03881,0.16898 0.287163,0.18231 0.340784,0.29696 -0.109009,0.10422 -0.178504,-0.0638 -0.313619,-0.0147 -0.29351,0.20536 -0.32879,0.89532 0.144992,0.93035 -0.04092,-0.11261 -0.328083,-0.52574 -0.07126,-0.65694 0.07867,0.22574 0.118178,0.50796 0.345016,0.58349 -0.359833,1.68629 -0.249766,3.93098 -0.02328,5.93726 0.04868,0.42651 0.192969,0.67772 0.277635,1.00184 0.05045,0.19402 0.04833,0.41768 0.109009,0.6022 0.06526,0.1972 0.213076,0.3926 0.299156,0.59199 0.183444,0.42513 0.4191,0.75876 0.654402,1.10134 0.117475,0.17074 0.276225,0.31641 0.37465,0.48189 0.147815,0.25012 0.206375,0.43505 0.376767,0.62551 0.14746,0.16578 0.305858,0.30978 0.47131,0.48825 0.154165,0.16824 0.263879,0.37468 0.429331,0.52073 0.110773,0.0984 0.270227,0.14704 0.378884,0.24226 0.182739,0.16055 0.293864,0.38174 0.536223,0.45268 0.121708,2.6e-4 0.0949,-0.17776 0.219427,-0.11187 -0.0039,0.4057 0.538691,0.36876 0.654402,0.57574 0.133704,0.23879 0.0127,0.65581 0.399698,0.62092 0.137935,-0.12523 -0.183798,-0.16866 -0.05045,-0.27792 0.415573,0.0433 0.401463,0.70651 0.732721,0.87161 0.09525,-0.0147 0.1905,-0.0296 0.25047,-0.069 0.452967,0.53894 1.164519,0.72979 1.791052,1.03847 0.23989,0.11783 0.473075,0.23566 0.724255,0.29958 0.378177,0.0948 0.842078,0.0853 1.046336,0.3598 0.137232,0.001 0.16863,-0.0723 0.269524,-0.0967 0.173214,0.18245 0.385585,0.11508 0.620889,0.12665 0.107244,0.005 0.242359,0.0784 0.377119,0.0992 0.16651,0.026 0.333375,0.002 0.437798,0.0398 0.105479,0.0391 0.141817,0.14851 0.265287,0.14315 0.173921,-0.0169 0.31468,0.0135 0.422982,0.0914 0.606776,-0.25177 1.0414,0.052 1.55575,0.004 0.119943,-0.0109 0.227189,-0.0511 0.347485,-0.0627 0.27164,-0.0266 0.555273,0.0373 0.839965,0.0147 0.263876,-0.0205 0.590901,-0.11578 0.852664,-0.17846 0.207786,-0.0497 0.490361,-0.14112 0.697087,-0.24624 0.193675,-0.0984 0.3302,-0.30484 0.496713,-0.42514 0.09666,-0.0692 0.18415,-0.0903 0.238125,-0.13864 0.159809,-0.1422 0.130879,-0.30166 0.217311,-0.51787 0.05715,-0.14401 0.166158,-0.22818 0.145343,-0.38556 -0.05186,-0.386 -0.589137,-0.55562 -0.831495,-0.75819 -0.557038,-0.46591 -1.024467,-1.14614 -1.59738,-1.55183 0.03246,-0.0938 -0.02928,-0.12732 -0.06103,-0.20461 -0.06526,-0.0536 -0.123825,0.0642 -0.189441,0.0106 -0.225425,-0.24984 -0.505532,-0.42058 -0.702734,-0.70982 -0.05468,-0.0479 0.01516,-0.13974 -0.01905,-0.23563 -0.325614,-0.001 -0.640646,-0.23318 -0.602191,-0.6805 -0.09313,-0.004 -0.01905,0.10791 -0.125942,0.0945 -0.119592,-0.15875 -0.23848,-0.31818 -0.351721,-0.48617 -0.01236,-0.11603 0.125238,-0.21551 0.0381,-0.31778 -0.07408,-0.0922 -0.126646,0.17886 -0.185209,0.0335 -0.01024,-0.25012 0.335492,-0.25369 0.231775,-0.56872 0.202142,-0.22793 0.151342,-0.58276 0.183447,-0.96586 0.02188,-0.26182 0.07373,-0.5253 0.04022,-0.701 -0.03775,-0.1983 -0.165806,-0.40708 -0.149225,-0.69068 0.01765,-0.29145 0.122412,-0.6802 0.189794,-1.06329 0.13829,-0.78149 0.09172,-1.61506 0.554567,-2.08635 0.927806,-0.47804 1.661231,-1.16527 2.400651,-1.79889 0.990249,-0.84902 1.817159,-1.73276 2.40524,-2.82884 0.0095,0.11285 0.05221,0.17847 0.149577,0.16439 0.13335,-0.0561 -0.01482,-0.3073 0.09913,-0.37715 0.358775,-0.0211 0.624416,-0.11328 0.8763,-0.18232 0.145698,-0.0406 0.314676,-0.0357 0.43956,-0.0801 0.148873,-0.0533 0.282929,-0.17184 0.43815,-0.22338 0.5588,-0.18383 1.272116,-0.13268 1.926521,-0.32519 0.610304,-0.18027 1.187095,-0.40432 1.69686,-0.40393 0.187325,-0.27517 0.618773,-0.38142 0.814917,-0.65028 0.362302,0.1965 0.806449,0.01 1.315859,5.3e-4 0.359834,-0.007 0.690034,0.0317 1.025525,-0.0188 0.217313,-0.0321 0.431448,-0.14675 0.663223,-0.16785 0.125236,-0.0117 0.275167,0.0317 0.414515,0.0444 0.161925,0.0149 0.318204,-0.0168 0.475896,-0.0147 0.137231,0.002 0.276931,0.06 0.415221,0.0444 0.109008,-0.0127 0.216604,-0.074 0.319617,-0.0818 0.111828,-0.009 0.231068,0.0463 0.341135,0.0339 0.49389,-0.0564 0.7366,-0.45434 1.195916,-0.52807 0.3048,-0.25866 0.519994,-0.52808 0.676275,-0.8883 0.07796,-0.17995 0.18909,-0.42372 0.185209,-0.55989 -0.0035,-0.15519 -0.102308,-0.59934 -0.142524,-0.78773 -0.05644,-0.26211 -0.186971,-0.40251 -0.359834,-0.53273"
         style="fill:#deaa87;fill-opacity:1;fill-rule:evenodd;stroke:none;stroke-width:0.03527778"
         id="path512" />
      <path
         inkscape:connector-curvature="0"
         d="m 57.125078,122.27382 c -0.21308,0.0345 -0.204965,0.22257 -0.351721,0.30304 -0.0092,0.0909 0.0695,0.0557 0.07161,0.13077 -0.281517,0.47308 -0.705202,0.95568 -0.916165,1.41016 0.08961,-0.14785 0.210608,-0.23745 0.292454,-0.36407 0.189087,-0.29217 0.426509,-0.713 0.668161,-0.93461 0.144639,-0.13367 0.300566,-0.28991 0.290335,-0.50722 -0.02681,-5.3e-4 -0.04092,-0.0195 -0.05468,-0.0381"
         style="fill:#deaa87;fill-opacity:1;fill-rule:evenodd;stroke:none;stroke-width:0.03527778"
         id="path514" />
      <path
         inkscape:connector-curvature="0"
         d="m 54.073903,123.25804 c 0.0762,-0.0484 0.121002,-0.11893 0.155927,-0.19583 -0.10019,0.019 -0.158044,0.17293 -0.155927,0.19583"
         style="fill:#deaa87;fill-opacity:1;fill-rule:evenodd;stroke:none;stroke-width:0.03527778"
         id="path516" />
      <path
         inkscape:connector-curvature="0"
         d="m 58.869563,124.11035 c 0.02469,-0.0638 0.136525,-0.0674 0.113948,-0.16397 -0.09631,0.002 -0.150989,0.13708 -0.113948,0.16397"
         style="fill:#deaa87;fill-opacity:1;fill-rule:evenodd;stroke:none;stroke-width:0.03527778"
         id="path518" />
    </g>
  </g>
</svg>
