<?xml version="1.0" encoding="UTF-8" standalone="no"?>
<!-- Created with Inkscape (http://www.inkscape.org/) -->

<svg
   xmlns:dc="http://purl.org/dc/elements/1.1/"
   xmlns:cc="http://creativecommons.org/ns#"
   xmlns:rdf="http://www.w3.org/1999/02/22-rdf-syntax-ns#"
   xmlns:svg="http://www.w3.org/2000/svg"
   xmlns="http://www.w3.org/2000/svg"
   xmlns:sodipodi="http://sodipodi.sourceforge.net/DTD/sodipodi-0.dtd"
   xmlns:inkscape="http://www.inkscape.org/namespaces/inkscape"
   width="45.270958mm"
   height="34.799782mm"
   viewBox="0 0 45.270958 34.799782"
   version="1.1"
   id="svg4625"
   sodipodi:docname="rolada.svg"
   inkscape:version="0.92.3 (2405546, 2018-03-11)">
  <defs
     id="defs4619" />
  <sodipodi:namedview
     id="base"
     pagecolor="#ffffff"
     bordercolor="#666666"
     borderopacity="1.0"
     inkscape:pageopacity="0.0"
     inkscape:pageshadow="2"
     inkscape:zoom="5.6"
     inkscape:cx="39.6688"
     inkscape:cy="45.760373"
     inkscape:document-units="mm"
     inkscape:current-layer="layer1"
     showgrid="false"
     inkscape:window-width="3840"
     inkscape:window-height="2066"
     inkscape:window-x="-11"
     inkscape:window-y="-11"
     inkscape:window-maximized="1" />
  <metadata
     id="metadata4622">
    <rdf:RDF>
      <cc:Work
         rdf:about="">
        <dc:format>image/svg+xml</dc:format>
        <dc:type
           rdf:resource="http://purl.org/dc/dcmitype/StillImage" />
        <dc:title></dc:title>
      </cc:Work>
    </rdf:RDF>
  </metadata>
  <g
     inkscape:label="Layer 1"
     inkscape:groupmode="layer"
     id="layer1"
     transform="translate(-37.614475,-121.31984)">
    <path
       id="path1510"
       style="fill:#000000;fill-opacity:1;fill-rule:evenodd;stroke:none;stroke-width:0.03527778"
       d="m 46.308693,125.6749 c 0.157337,0.037 0.226128,0.16298 0.412043,0.17181 -0.333727,-0.24272 -0.731308,-0.59232 -1.168048,-0.61843 0.155575,0.30833 0.762706,0.32879 0.721431,0.72108 0.362657,0.14147 0.673807,0.33444 0.927452,0.58456 -0.494945,-0.10019 -0.790575,-0.3997 -1.304925,-0.48084 0.0095,0.18627 0.04904,0.22472 -0.06914,0.30903 0.197908,0.27164 0.558093,0.381 0.721431,0.68721 0.100894,-0.15875 -0.194381,-0.21695 -0.206023,-0.37782 0.234598,-0.0896 0.338315,0.37288 0.652992,0.20602 0.01833,-0.21343 -0.169334,-0.22049 -0.275167,-0.30903 0.158044,-0.16016 0.54116,0.17357 0.721783,0.10301 -0.197201,-0.37677 -0.769056,-0.67345 -1.133826,-0.9966"
       inkscape:connector-curvature="0" />
    <path
       id="path1512"
       style="fill:#000000;fill-opacity:1;fill-rule:evenodd;stroke:none;stroke-width:0.03527778"
       d="m 44.761761,125.88092 c 0.144285,-0.10054 0.551392,-0.0473 0.516115,0.24095 -0.236363,0.11148 -0.464257,-0.0568 -0.516115,-0.24095 z m -0.240242,-0.0342 c -0.04198,0.4004 0.773994,0.78175 1.066094,0.30938 -0.0088,-0.47448 -1.00612,-0.8823 -1.066094,-0.30938"
       inkscape:connector-curvature="0" />
    <path
       id="path1514"
       style="fill:#000000;fill-opacity:1;fill-rule:evenodd;stroke:none;stroke-width:0.03527778"
       d="m 45.759063,128.5959 c -0.13476,0.0378 -0.137935,-0.20496 -0.03457,-0.20637 0.06068,0.073 0.07726,0.1016 0.03457,0.20637 z m -0.240945,-0.41239 c -0.32879,0.2741 0.268462,1.05727 0.515408,0.5154 -0.0074,-0.30339 -0.319265,-0.67945 -0.515408,-0.5154"
       inkscape:connector-curvature="0" />
    <path
       id="path1516"
       style="fill:#000000;fill-opacity:1;fill-rule:evenodd;stroke:none;stroke-width:0.03527778"
       d="m 48.782721,129.62637 c -0.123118,0.0815 -0.341135,0.0123 -0.343603,-0.13759 0.05644,-0.18521 0.40146,-0.0942 0.343603,0.13759 z m -0.137228,-0.41205 c -1.037522,-0.27234 0.09419,1.33068 0.343251,0.48119 0.07549,-0.25788 -0.190148,-0.44097 -0.343251,-0.48119"
       inkscape:connector-curvature="0" />
    <path
       id="path1518"
       style="fill:#000000;fill-opacity:1;fill-rule:evenodd;stroke:none;stroke-width:0.03527778"
       d="m 51.462776,129.93611 c 0.194027,-0.19862 0.849487,-0.21802 0.928158,0.13722 -0.229658,0.22966 -0.775406,0.0363 -0.928158,-0.13722 z m -0.13688,-0.51577 c -0.08361,0.0875 0.03387,0.16722 0.06844,0.24095 -0.06527,0.10619 -0.20955,0.1337 -0.240593,0.27482 0.177445,0.41662 0.939445,0.5662 1.408993,0.37747 0.264935,-0.66534 -0.684035,-1.15465 -1.23684,-0.89324"
       inkscape:connector-curvature="0" />
    <path
       id="path1520"
       style="fill:#000000;fill-opacity:1;fill-rule:evenodd;stroke:none;stroke-width:0.03527778"
       d="m 55.689405,131.82593 c -0.119592,-0.006 -0.172509,-0.079 -0.205669,-0.1718 0.08784,-0.15275 0.337608,0.0152 0.205669,0.1718 z m -0.446262,-0.24059 c -0.05398,0.30939 0.389818,0.64276 0.721428,0.37818 0.116065,-0.59514 -0.640643,-0.84208 -0.721428,-0.37818"
       inkscape:connector-curvature="0" />
    <path
       id="path1522"
       style="fill:#000000;fill-opacity:1;fill-rule:evenodd;stroke:none;stroke-width:0.03527778"
       d="m 57.751744,131.82593 c -0.105126,0.0251 -0.101248,-0.0593 -0.206375,-0.0346 0.0046,-0.14993 0.213077,-0.0984 0.206375,0.0346 z m 0.343607,0.20638 c -0.08396,-0.0198 -0.176742,-0.03 -0.172157,-0.13758 0.08396,0.0194 0.177094,0.0293 0.172157,0.13758 z m -0.893588,-0.48119 c -0.189087,-0.0332 -0.56797,-0.33267 -0.68721,-0.10371 1.073502,0.30127 1.841148,0.9084 2.817635,1.30598 -0.605012,-0.50553 -1.175102,-1.04669 -1.95862,-1.37407 -0.147815,-0.0335 -0.05997,0.16863 -0.171805,0.1718"
       inkscape:connector-curvature="0" />
    <path
       id="path1524"
       style="fill:#000000;fill-opacity:1;fill-rule:evenodd;stroke:none;stroke-width:0.03527778"
       d="m 43.009513,131.61956 c 0.310446,0.2286 0.544338,0.5327 0.928158,0.68721 -0.324202,-0.21449 -0.473427,-0.60325 -0.928158,-0.68721"
       inkscape:connector-curvature="0" />
    <path
       id="path1526"
       style="fill:#000000;fill-opacity:1;fill-rule:evenodd;stroke:none;stroke-width:0.03527778"
       d="m 53.249594,132.82218 c -0.265289,0.16828 -0.695676,-0.0162 -0.686858,-0.34361 0.06385,-0.11888 0.201083,-0.16474 0.377825,-0.1718 -0.07162,0.248 0.401815,0.14358 0.309033,0.51541 z m -0.343251,-0.72143 c -0.296688,-0.0642 -0.58138,0.15063 -0.584555,0.44662 -0.0049,0.54998 1.21779,0.84878 1.134181,0.10301 -0.02611,-0.23142 -0.249766,-0.48437 -0.549626,-0.54963"
       inkscape:connector-curvature="0" />
    <path
       id="path1528"
       style="fill:#000000;fill-opacity:1;fill-rule:evenodd;stroke:none;stroke-width:0.03527778"
       d="m 48.198521,132.44436 c 0.192972,0.46072 1.035405,0.86642 1.47814,1.30598 -0.221543,-0.43251 -1.002948,-0.89817 -1.47814,-1.30598"
       inkscape:connector-curvature="0" />
    <path
       id="path1530"
       style="fill:#000000;fill-opacity:1;fill-rule:evenodd;stroke:none;stroke-width:0.03527778"
       d="m 58.988584,134.05937 c -0.349956,0.14217 -0.715433,-0.13935 -0.549981,-0.51541 0.28081,-0.0645 0.6731,0.17675 0.549981,0.51541 z m -0.412046,-0.85901 c -0.709787,0.14922 -0.378177,1.35713 0.480483,1.09996 0.07656,-0.0843 0.135467,-0.18627 0.172157,-0.30974 0.108302,-0.0166 0.09067,0.11889 0.17145,0.0346 -0.175332,-0.35524 -0.278694,-0.93944 -0.82409,-0.82479"
       inkscape:connector-curvature="0" />
    <path
       id="path1532"
       style="fill:#000000;fill-opacity:1;fill-rule:evenodd;stroke:none;stroke-width:0.03527778"
       d="m 50.947368,133.64733 c 0.42192,0.47131 0.942975,0.84384 1.443566,1.23684 -0.439915,-0.45438 -0.816681,-0.96979 -1.443566,-1.23684"
       inkscape:connector-curvature="0" />
    <path
       id="path1534"
       style="fill:#000000;fill-opacity:1;fill-rule:evenodd;stroke:none;stroke-width:0.03527778"
       d="m 61.841144,134.88417 c -0.186266,-0.043 -0.375708,-0.0826 -0.378531,-0.30939 0.200025,-0.11465 0.536223,0.0667 0.378531,0.30939 z m 0,-0.54963 c -0.778933,-0.4311 -0.744714,0.96943 0.03422,0.79057 0.360185,-0.0833 0.17639,-0.67415 -0.03422,-0.79057"
       inkscape:connector-curvature="0" />
    <path
       id="path1536"
       style="fill:#000000;fill-opacity:1;fill-rule:evenodd;stroke:none;stroke-width:0.03527778"
       d="m 62.596794,134.50634 c 0.123825,-0.009 0.166159,0.0632 0.274813,0.0684 -0.04269,-0.0952 -0.236713,-0.26247 -0.274813,-0.0684"
       inkscape:connector-curvature="0" />
    <path
       id="path1538"
       style="fill:#000000;fill-opacity:1;fill-rule:evenodd;stroke:none;stroke-width:0.03527778"
       d="m 62.974619,134.67814 c 0.919338,0.46638 1.665816,1.10596 2.474382,1.68346 -0.713671,-0.75812 -1.531055,-1.31304 -2.40559,-1.75225 -0.05821,-0.0127 -0.06491,0.0265 -0.06879,0.0688"
       inkscape:connector-curvature="0" />
    <path
       id="path1540"
       style="fill:#000000;fill-opacity:1;fill-rule:evenodd;stroke:none;stroke-width:0.03527778"
       d="m 72.184235,135.57138 c 0.143227,-0.0409 0.509058,-0.0974 0.515408,0.10301 -0.157692,0.0762 -0.443796,0.0183 -0.515408,-0.10301 z m -0.172157,-0.0688 c 0,-0.0459 0,-0.0917 0,-0.13722 0.04586,0 0.09208,0 0.137936,0 0.01553,0.10689 -0.03034,0.15345 -0.137936,0.13722 z m -0.27446,-0.13722 c 0.0388,0.58243 0.959554,0.81103 1.236837,0.30903 -0.210254,-0.36372 -0.928158,-0.84208 -1.236837,-0.30903"
       inkscape:connector-curvature="0" />
    <path
       id="path1542"
       style="fill:#000000;fill-opacity:1;fill-rule:evenodd;stroke:none;stroke-width:0.03527778"
       d="m 42.047488,135.60595 c -0.07267,-0.0984 -0.220133,-0.12383 -0.377825,-0.13758 0.01659,0.15486 0.258588,0.0843 0.377825,0.13758"
       inkscape:connector-curvature="0" />
    <path
       id="path1544"
       style="fill:#000000;fill-opacity:1;fill-rule:evenodd;stroke:none;stroke-width:0.03527778"
       d="m 42.768919,135.74318 c 0.03634,0.0896 0.1397,0.11254 0.274815,0.10301 -0.01376,-0.11218 -0.167923,-0.0836 -0.274815,-0.10301"
       inkscape:connector-curvature="0" />
    <path
       id="path1546"
       style="fill:#000000;fill-opacity:1;fill-rule:evenodd;stroke:none;stroke-width:0.03527778"
       d="m 64.658426,136.53376 c -0.265996,-0.0205 -0.465666,-0.1069 -0.515056,-0.34396 0.110419,-0.13935 0.310444,-0.003 0.480835,0 0.006,0.11782 0.115007,0.24659 0.03422,0.34396 z m -0.755648,-0.34396 c -0.0441,0.35031 0.691442,0.76835 0.996242,0.44697 0.123119,-0.62301 -0.929567,-0.97931 -0.996242,-0.44697"
       inkscape:connector-curvature="0" />
    <path
       id="path1548"
       style="fill:#000000;fill-opacity:1;fill-rule:evenodd;stroke:none;stroke-width:0.03527778"
       d="m 69.84708,136.08678 c 0.14323,0.14359 0.299863,0.27341 0.481542,0.37854 -0.09631,-0.1905 -0.256117,-0.3175 -0.481542,-0.37854"
       inkscape:connector-curvature="0" />
    <path
       id="path1550"
       style="fill:#000000;fill-opacity:1;fill-rule:evenodd;stroke:none;stroke-width:0.03527778"
       d="m 60.706611,136.80857 c 0.162983,-0.004 0.433565,-0.11324 0.446969,0.13794 -0.150284,0.078 -0.427212,0.0247 -0.446969,-0.13794 z m -0.309033,-0.13723 c -0.132644,0.53022 0.987425,0.7874 0.996243,0.23989 0.0074,-0.40711 -0.7112,-0.47943 -0.996243,-0.23989"
       inkscape:connector-curvature="0" />
    <path
       id="path1552"
       style="fill:#000000;fill-opacity:1;fill-rule:evenodd;stroke:none;stroke-width:0.03527778"
       d="m 66.857643,136.80857 c 0.03916,0.16686 0.219779,0.19297 0.240946,0.37782 0.15875,-0.0547 0.283633,-0.024 0.412046,0.0342 -0.146757,-0.19508 -0.407107,-0.4265 -0.652992,-0.41204"
       inkscape:connector-curvature="0" />
    <path
       id="path1554"
       style="fill:#000000;fill-opacity:1;fill-rule:evenodd;stroke:none;stroke-width:0.03527778"
       d="m 72.150014,137.66793 c 0.268464,-0.0406 0.503062,-0.115 0.721431,-0.20637 0,-0.0459 0,-0.0917 0,-0.13758 -0.278694,-0.0557 -0.6477,0.0815 -0.721431,0.34395"
       inkscape:connector-curvature="0" />
    <path
       id="path1556"
       style="fill:#000000;fill-opacity:1;fill-rule:evenodd;stroke:none;stroke-width:0.03527778"
       d="m 66.17043,137.90818 c 0,-0.13723 -0.06879,-0.20602 -0.06879,-0.34361 0.245181,-0.0515 0.342548,0.35172 0.06879,0.34361 z m -0.480835,-0.10301 c 0.121708,-0.14676 0.364773,-0.03 0.377825,0.13723 -0.148873,0.097 -0.329142,-0.024 -0.377825,-0.13723 z m -0.240594,-0.0342 c -0.06103,0.42227 0.582436,0.50376 0.962377,0.3436 0.655461,-0.82726 -0.886531,-0.86959 -0.962377,-0.3436"
       inkscape:connector-curvature="0" />
    <path
       id="path1558"
       style="fill:#000000;fill-opacity:1;fill-rule:evenodd;stroke:none;stroke-width:0.03527778"
       d="m 67.476062,137.77095 c 0.08643,-0.0557 -0.06068,-0.16581 -0.06844,-0.2406 -0.100894,0.0702 0.04692,0.17957 0.06844,0.2406"
       inkscape:connector-curvature="0" />
    <path
       id="path1560"
       style="fill:#000000;fill-opacity:1;fill-rule:evenodd;stroke:none;stroke-width:0.03527778"
       d="m 75.242464,137.90818 c 0.442737,0.0388 0.621241,0.34149 1.065037,0.37782 -0.107598,-0.32385 -0.745421,-0.70591 -1.065037,-0.37782"
       inkscape:connector-curvature="0" />
    <path
       id="path1562"
       style="fill:#000000;fill-opacity:1;fill-rule:evenodd;stroke:none;stroke-width:0.03527778"
       d="m 63.387015,138.66383 c -0.09631,0.30198 -0.785987,0.049 -0.790221,-0.27446 0.216252,-0.28787 0.883002,-0.0141 0.790221,0.27446 z m -1.065035,-0.48049 c -0.06632,0.54363 0.746125,1.10243 1.237191,0.65299 0.09807,-0.79621 -0.828675,-1.25765 -1.237191,-0.65299"
       inkscape:connector-curvature="0" />
    <path
       id="path1564"
       style="fill:#000000;fill-opacity:1;fill-rule:evenodd;stroke:none;stroke-width:0.03527778"
       d="m 67.201247,138.18334 c -0.153104,0 -0.02506,0.20109 0.06879,0.17181 0.0254,-0.10548 -0.09419,-0.0663 -0.06879,-0.17181"
       inkscape:connector-curvature="0" />
    <path
       id="path1566"
       style="fill:#000000;fill-opacity:1;fill-rule:evenodd;stroke:none;stroke-width:0.03527778"
       d="m 56.582993,138.32057 c 0.855837,0.67945 1.69686,1.37337 2.680403,1.92405 -0.808566,-0.68015 -1.737783,-1.23966 -2.50825,-1.95862 -0.08008,-0.0106 -0.131937,0.006 -0.172153,0.0346"
       inkscape:connector-curvature="0" />
    <path
       id="path1568"
       style="fill:#000000;fill-opacity:1;fill-rule:evenodd;stroke:none;stroke-width:0.03527778"
       d="m 73.386853,138.63031 c 0.06562,0.19756 0.312561,0.21414 0.515409,0.27446 0.03034,-0.061 0.09596,-0.0875 0.06844,-0.20602 -0.164396,-0.0473 -0.455789,-0.19685 -0.583848,-0.0684"
       inkscape:connector-curvature="0" />
    <path
       id="path1570"
       style="fill:#000000;fill-opacity:1;fill-rule:evenodd;stroke:none;stroke-width:0.03527778"
       d="m 67.785801,139.42018 c 0.252236,-0.0942 0.655461,-0.32737 0.824794,-0.61842 -0.44944,0.0314 -0.673452,0.28857 -0.824794,0.61842"
       inkscape:connector-curvature="0" />
    <path
       id="path1572"
       style="fill:#000000;fill-opacity:1;fill-rule:evenodd;stroke:none;stroke-width:0.03527778"
       d="m 69.812862,139.42018 c 0.299156,0.037 0.798689,-0.17462 0.756002,-0.48119 -0.326671,0.0864 -0.585611,0.23919 -0.756002,0.48119"
       inkscape:connector-curvature="0" />
    <path
       id="path1574"
       style="fill:#000000;fill-opacity:1;fill-rule:evenodd;stroke:none;stroke-width:0.03527778"
       d="m 46.102669,138.97321 c 0.0049,0.0755 0.08643,0.0737 0.17145,0.0692 0.02434,-0.11924 -0.120298,-0.12348 -0.17145,-0.0692"
       inkscape:connector-curvature="0" />
    <path
       id="path1576"
       style="fill:#000000;fill-opacity:1;fill-rule:evenodd;stroke:none;stroke-width:0.03527778"
       d="m 75.792445,139.07658 c 0.20179,0.19014 0.535165,0.42298 0.824442,0.41239 -0.08008,-0.3122 -0.477309,-0.48083 -0.824442,-0.41239"
       inkscape:connector-curvature="0" />
    <path
       id="path1578"
       style="fill:#000000;fill-opacity:1;fill-rule:evenodd;stroke:none;stroke-width:0.03527778"
       d="m 57.132971,139.48897 c 0.4953,0.37536 1.11478,0.80928 1.54658,1.13383 -0.414867,-0.47837 -0.916871,-0.8703 -1.54658,-1.13383"
       inkscape:connector-curvature="0" />
    <path
       id="path1580"
       style="fill:#000000;fill-opacity:1;fill-rule:evenodd;stroke:none;stroke-width:0.03527778"
       d="m 78.781885,140.2792 c 0.138287,0.2166 0.289983,0.42051 0.515408,0.54962 0.09737,-0.2995 -0.222956,-0.63923 -0.515408,-0.54962"
       inkscape:connector-curvature="0" />
    <path
       id="path1582"
       style="fill:#000000;fill-opacity:1;fill-rule:evenodd;stroke:none;stroke-width:0.03527778"
       d="m 57.029609,140.31342 c 0.36971,0.34113 0.888294,0.53234 1.237192,0.89394 -0.184505,-0.36548 -0.789165,-0.79093 -1.237192,-0.89394"
       inkscape:connector-curvature="0" />
    <path
       id="path1584"
       style="fill:#000000;fill-opacity:1;fill-rule:evenodd;stroke:none;stroke-width:0.03527778"
       d="m 78.43863,141.24122 c 0.136525,0.27552 0.283988,0.54046 0.583496,0.65299 0.154517,-0.29033 -0.350308,-0.63994 -0.583496,-0.65299"
       inkscape:connector-curvature="0" />
    <path
       id="path1586"
       style="fill:#000000;fill-opacity:1;fill-rule:evenodd;stroke:none;stroke-width:0.03527778"
       d="m 57.063828,141.31001 c -0.03281,0.001 -0.02574,0.042 -0.03422,0.0688 0.416277,0.36265 0.912635,0.64558 1.340202,0.99659 -0.282575,-0.50764 -0.83185,-0.74894 -1.305983,-1.06539"
       inkscape:connector-curvature="0" />
    <path
       id="path1588"
       style="fill:#000000;fill-opacity:1;fill-rule:evenodd;stroke:none;stroke-width:0.03527778"
       d="m 65.311418,142.30661 c 0.230362,-0.078 0.385585,-0.52352 0.275167,-0.72143 -0.231775,0.10019 -0.261409,0.40287 -0.275167,0.72143"
       inkscape:connector-curvature="0" />
    <path
       id="path1590"
       style="fill:#000000;fill-opacity:1;fill-rule:evenodd;stroke:none;stroke-width:0.03527778"
       d="m 72.493268,141.89421 c 0.0078,0.22155 0.254,0.20426 0.481187,0.20673 -0.05609,-0.19438 -0.289629,-0.34431 -0.481187,-0.20673"
       inkscape:connector-curvature="0" />
    <path
       id="path1592"
       style="fill:#000000;fill-opacity:1;fill-rule:evenodd;stroke:none;stroke-width:0.03527778"
       d="m 75.689435,142.2036 c 0.407458,0.24483 0.680508,0.62547 1.064683,0.89323 -0.268817,-0.38382 -0.401463,-0.90381 -1.064683,-0.89323"
       inkscape:connector-curvature="0" />
    <path
       id="path1594"
       style="fill:#000000;fill-opacity:1;fill-rule:evenodd;stroke:none;stroke-width:0.03527778"
       d="m 80.706287,142.30661 c -0.03986,-0.006 -0.06138,0.008 -0.06879,0.0346 0.10795,0.3616 0.262467,0.67628 0.515408,0.89324 0.0011,-0.0335 0.04233,-0.0268 0.06879,-0.0346 0.08255,-0.41768 -0.404283,-0.55527 -0.515408,-0.89323"
       inkscape:connector-curvature="0" />
    <path
       id="path1596"
       style="fill:#000000;fill-opacity:1;fill-rule:evenodd;stroke:none;stroke-width:0.03527778"
       d="m 69.538047,142.92538 c 0.289983,-0.0423 0.339373,-0.32561 0.687213,-0.30938 -0.01236,-0.43568 -0.726371,-0.0444 -0.687213,0.30938"
       inkscape:connector-curvature="0" />
    <path
       id="path1598"
       style="fill:#000000;fill-opacity:1;fill-rule:evenodd;stroke:none;stroke-width:0.03527778"
       d="m 80.190878,143.37235 c 0.09666,0.31574 0.173567,0.65088 0.412398,0.82409 0.278342,-0.30692 -0.180975,-0.69144 -0.412398,-0.82409"
       inkscape:connector-curvature="0" />
    <path
       id="path1600"
       style="fill:#000000;fill-opacity:1;fill-rule:evenodd;stroke:none;stroke-width:0.03527778"
       d="m 52.357068,143.88741 c 0.08502,0.004 0.105833,0.0646 0.17145,0 -0.01834,-0.0275 -0.03598,-0.0554 -0.03422,-0.10301 -0.09066,-0.01 -0.148166,0.0123 -0.137228,0.10301"
       inkscape:connector-curvature="0" />
    <path
       id="path1602"
       style="fill:#000000;fill-opacity:1;fill-rule:evenodd;stroke:none;stroke-width:0.03527778"
       d="m 65.139614,144.19644 c -0.07161,0.25012 0.01516,0.62159 0.103364,0.82479 0.140759,-0.0907 0.23354,-0.88335 -0.103364,-0.82479"
       inkscape:connector-curvature="0" />
    <path
       id="path1604"
       style="fill:#000000;fill-opacity:1;fill-rule:evenodd;stroke:none;stroke-width:0.03527778"
       d="m 68.850837,145.22726 c 0.133702,-0.23248 0.271639,-0.46108 0.343606,-0.7553 -0.354542,-0.0152 -0.479425,0.50306 -0.343606,0.7553"
       inkscape:connector-curvature="0" />
    <path
       id="path1606"
       style="fill:#000000;fill-opacity:1;fill-rule:evenodd;stroke:none;stroke-width:0.03527778"
       d="m 64.212162,145.74337 c 0.16651,-0.26282 0.172156,-0.7119 0.240241,-0.9973 -0.361598,0.079 -0.334433,0.65229 -0.240241,0.9973"
       inkscape:connector-curvature="0" />
    <path
       id="path1608"
       style="fill:#000000;fill-opacity:1;fill-rule:evenodd;stroke:none;stroke-width:0.03527778"
       d="m 81.668312,144.98702 c 0.06068,0.56126 0.03775,1.40758 0,1.95862 0.262818,-0.46637 0.308327,-1.45062 0.10301,-1.9932 -0.05539,-0.01 -0.05891,0.0328 -0.10301,0.0346"
       inkscape:connector-curvature="0" />
    <path
       id="path1610"
       style="fill:#000000;fill-opacity:1;fill-rule:evenodd;stroke:none;stroke-width:0.03527778"
       d="m 80.843518,147.04865 c 0.1651,-0.31327 0.127352,-0.98002 0.171802,-1.51201 -0.02222,0 -0.04551,0 -0.06879,0 -0.218723,0.29881 -0.259643,1.16064 -0.10301,1.51201"
       inkscape:connector-curvature="0" />
    <path
       id="path1612"
       style="fill:#000000;fill-opacity:1;fill-rule:evenodd;stroke:none;stroke-width:0.03527778"
       d="m 74.314305,145.64001 c 0.20955,0.36406 0.312563,0.80751 0.206375,1.23719 0.365832,-0.18979 0.353132,-1.27247 -0.206375,-1.23719"
       inkscape:connector-curvature="0" />
    <path
       id="path1614"
       style="fill:#000000;fill-opacity:1;fill-rule:evenodd;stroke:none;stroke-width:0.03527778"
       d="m 81.496862,148.62945 c 0.269168,-0.11642 0.379589,-0.83608 0.206023,-1.06504 -0.34008,0.0833 -0.09419,0.75318 -0.206023,1.06504"
       inkscape:connector-curvature="0" />
    <path
       id="path1616"
       style="fill:#000000;fill-opacity:1;fill-rule:evenodd;stroke:none;stroke-width:0.03527778"
       d="m 67.92303,147.59828 c 0.05786,0.36195 0.328438,0.67063 0.618773,0.68791 -0.05468,-0.38135 -0.341841,-0.52952 -0.618773,-0.68791"
       inkscape:connector-curvature="0" />
    <path
       id="path1618"
       style="fill:#000000;fill-opacity:1;fill-rule:evenodd;stroke:none;stroke-width:0.03527778"
       d="m 78.472497,148.42307 c 0.200379,-0.0476 0.320675,-0.43779 0.171804,-0.61877 -0.312562,-0.004 -0.170746,0.41099 -0.171804,0.61877"
       inkscape:connector-curvature="0" />
    <path
       id="path1620"
       style="fill:#000000;fill-opacity:1;fill-rule:evenodd;stroke:none;stroke-width:0.03527778"
       d="m 64.349393,149.14521 c 0.03175,-0.33338 0.0067,-0.89782 -0.137231,-1.1684 -0.243416,0.28434 -0.0127,0.93839 0.137231,1.1684"
       inkscape:connector-curvature="0" />
    <path
       id="path1622"
       style="fill:#000000;fill-opacity:1;fill-rule:evenodd;stroke:none;stroke-width:0.03527778"
       d="m 65.139614,148.07982 c 0.06668,0.30233 0.230012,0.79869 0.446971,1.06539 -0.08608,-0.41804 -0.09878,-0.90911 -0.446971,-1.06539"
       inkscape:connector-curvature="0" />
    <path
       id="path1624"
       style="fill:#000000;fill-opacity:1;fill-rule:evenodd;stroke:none;stroke-width:0.03527778"
       d="m 80.534485,149.42002 c 0.255762,-0.23883 0.416277,-0.74965 0.515408,-1.03081 -0.375004,-0.0307 -0.59055,0.72284 -0.515408,1.03081"
       inkscape:connector-curvature="0" />
    <path
       id="path1626"
       style="fill:#000000;fill-opacity:1;fill-rule:evenodd;stroke:none;stroke-width:0.03527778"
       d="m 75.173672,149.42002 c 0.351367,-0.0381 0.326673,-0.45261 0.377825,-0.79057 -0.07902,-0.0349 -0.110419,-0.11818 -0.240594,-0.10301 0.01304,0.29386 -0.05468,0.6043 -0.137231,0.89358"
       inkscape:connector-curvature="0" />
    <path
       id="path1628"
       style="fill:#000000;fill-opacity:1;fill-rule:evenodd;stroke:none;stroke-width:0.03527778"
       d="m 72.665422,150.45084 c 0.282223,-0.1778 0.676981,-0.41981 0.652992,-0.79058 -0.317852,0.16369 -0.569029,0.3937 -0.652992,0.79058"
       inkscape:connector-curvature="0" />
    <path
       id="path1630"
       style="fill:#000000;fill-opacity:1;fill-rule:evenodd;stroke:none;stroke-width:0.03527778"
       d="m 69.64106,149.86664 c 0.104068,0.22895 0.921808,0.19896 1.031168,0 -0.203906,-0.19826 -0.771525,-0.0667 -1.031168,0"
       inkscape:connector-curvature="0" />
    <path
       id="path1632"
       style="fill:#000000;fill-opacity:1;fill-rule:evenodd;stroke:none;stroke-width:0.03527778"
       d="m 64.692997,150.24482 c 0.162279,0.3182 0.278342,0.68333 0.584554,0.85866 0.0388,-0.36266 -0.345371,-0.77576 -0.584554,-0.85866"
       inkscape:connector-curvature="0" />
    <path
       id="path1634"
       style="fill:#000000;fill-opacity:1;fill-rule:evenodd;stroke:none;stroke-width:0.03527778"
       d="m 79.67547,151.41322 c 0.437798,-0.13582 0.499533,-0.64629 0.68721,-1.03117 -0.424391,-0.008 -0.597604,0.70449 -0.68721,1.03117"
       inkscape:connector-curvature="0" />
    <path
       id="path1636"
       style="fill:#000000;fill-opacity:1;fill-rule:evenodd;stroke:none;stroke-width:0.03527778"
       d="m 77.785287,150.5542 c -0.217665,0.13688 -0.300919,0.40887 -0.412398,0.65299 0.359833,0.001 0.551746,-0.33796 0.481541,-0.65299 -0.02328,0 -0.04621,0 -0.06914,0"
       inkscape:connector-curvature="0" />
    <path
       id="path1638"
       style="fill:#000000;fill-opacity:1;fill-rule:evenodd;stroke:none;stroke-width:0.03527778"
       d="m 65.998628,152.10008 c 0.09278,0.31996 0.199673,0.62582 0.378177,0.85936 -0.02151,-0.25753 -0.03281,-0.81245 -0.378177,-0.85936"
       inkscape:connector-curvature="0" />
    <path
       id="path1640"
       style="fill:#000000;fill-opacity:1;fill-rule:evenodd;stroke:none;stroke-width:0.03527778"
       d="m 78.128893,152.34032 c -0.07761,0.15134 -0.235656,0.22295 -0.274463,0.41275 0.278342,0.10054 0.506942,-0.12947 0.54963,-0.37818 -0.04974,-0.0529 -0.176038,-0.0303 -0.275167,-0.0346"
       inkscape:connector-curvature="0" />
    <path
       id="path1642"
       style="fill:#000000;fill-opacity:1;fill-rule:evenodd;stroke:none;stroke-width:0.03527778"
       d="m 68.850837,153.09667 c 0.277635,0.17145 0.667456,0.4064 1.065741,0.34396 -0.130527,-0.30445 -0.78246,-0.41804 -1.065741,-0.34396"
       inkscape:connector-curvature="0" />
    <path
       id="path1644"
       style="fill:#000000;fill-opacity:1;fill-rule:evenodd;stroke:none;stroke-width:0.03527778"
       d="m 75.483412,153.37149 c -0.306211,0.0864 -0.69709,0.37817 -0.859719,0.72178 0.385233,0.004 0.663221,-0.38876 0.893937,-0.65264 0.0053,-0.0402 -0.0081,-0.061 -0.03422,-0.0691"
       inkscape:connector-curvature="0" />
    <path
       id="path1646"
       style="fill:#000000;fill-opacity:1;fill-rule:evenodd;stroke:none;stroke-width:0.03527778"
       d="m 70.672228,153.85338 c 0.301273,0.0783 0.51929,-0.21025 0.790223,-0.27517 -0.167571,-0.36442 -0.690739,0.0395 -0.790223,0.27517"
       inkscape:connector-curvature="0" />
    <path
       id="path1648"
       style="fill:#000000;fill-opacity:1;fill-rule:evenodd;stroke:none;stroke-width:0.03527778"
       d="m 67.751228,154.05905 c -0.129823,-0.21414 -0.506589,-0.18097 -0.721783,-0.30939 -0.07585,0.29246 0.457906,0.55139 0.721783,0.30939"
       inkscape:connector-curvature="0" />
    <path
       id="path1650"
       style="fill:#000000;fill-opacity:1;fill-rule:evenodd;stroke:none;stroke-width:0.03527778"
       d="m 68.954201,154.16206 c 0.110067,0.19897 0.353836,0.26494 0.549275,0.37783 -0.07761,-0.24201 -0.236008,-0.57221 -0.549275,-0.37783"
       inkscape:connector-curvature="0" />
    <path
       id="path1652"
       style="fill:#000000;fill-opacity:1;fill-rule:evenodd;stroke:none;stroke-width:0.03527778"
       d="m 71.32522,154.78048 c 0.322792,0.10901 1.053748,0.0511 1.305983,-0.13758 -0.340077,-0.24836 -1.04281,-0.0282 -1.305983,0.13758"
       inkscape:connector-curvature="0" />
    <path
       id="path1654"
       style="fill:#000000;fill-opacity:1;fill-rule:evenodd;stroke:none;stroke-width:0.03527778"
       d="m 70.22526,145.46785 c -0.05186,0.0857 -0.21308,0.0617 -0.205671,0.20638 0.08043,0.13723 0.246239,0.18873 0.274462,0.37782 -0.116771,-0.009 -0.278341,0.0268 -0.343254,-0.0339 -0.01728,-0.38346 0.0099,-0.72319 0.103013,-0.99695 0.375708,0.043 0.02787,0.2346 0.17145,0.44662 z m 2.199568,1.85597 c 0.250473,-0.0162 0.408517,0.49636 0.137232,0.5842 -0.173567,-0.067 -0.133705,-0.34714 -0.137232,-0.5842 z M 71.59968,145.1246 c 0.184505,0.0399 0.17145,-0.012 0.343607,-0.0342 0.167216,0.70767 0.655108,1.44815 0.652991,2.09585 -0.417335,-0.60184 -0.810331,-1.22802 -0.996598,-2.06163 z m -1.065387,1.40899 c 0.19685,0.0325 0.349602,0.29104 0.275167,0.48084 -0.100896,-0.15099 -0.2032,-0.30092 -0.275167,-0.48084 z m -0.102658,0.20603 c 0.09454,0.19226 0.258937,0.31291 0.274812,0.5842 -0.170037,-0.0755 -0.359479,-0.48119 -0.274812,-0.5842 z m 1.030816,-1.30634 c -0.330906,-0.18556 -0.6858,-0.52529 -0.652991,-0.96132 0.476954,0.061 0.564443,0.51223 0.652991,0.96132 z m 0.240594,-1.47708 c 0.04057,-0.0395 0.121356,-0.0392 0.206023,-0.0346 0.28575,0.66569 0.64276,1.44145 0.722135,2.19957 -0.545041,-0.48648 -0.602898,-1.45944 -0.928158,-2.165 z m 0.17145,1.03082 c -0.327377,-0.13089 -0.514702,-0.40146 -0.65264,-0.72144 -0.136877,-0.0342 -0.103362,0.10266 -0.239887,0.0684 0.307975,-0.98742 0.854075,0.0829 0.892527,0.653 z m -1.545873,-0.37783 c -0.01164,-0.12629 0.0381,-0.19085 0.06879,-0.27517 0.136879,-0.0222 0.138289,0.091 0.274814,0.0691 0.02188,0.13652 -0.09102,0.13794 -0.06844,0.27446 -0.143934,0.0293 -0.162629,-0.067 -0.275167,-0.0684 z m 0.06879,0.24024 c 0.404989,0.0649 0.511175,0.42863 0.584554,0.8248 -0.216254,-0.0296 -0.340431,-0.43604 -0.618773,-0.51541 0.0071,-0.1076 -0.02328,-0.25189 0.03422,-0.30939 z m 1.237191,3.1616 c -0.137229,0.11359 -0.376412,-0.22507 -0.206375,-0.30974 0.04657,0.12559 0.173921,0.17039 0.206375,0.30974 z m -0.859366,-1.92476 c 0.128058,0.0533 0.303389,0.006 0.378179,0.0349 0.175329,0.52281 0.410279,0.98742 0.515408,1.58009 -0.283633,-0.54575 -0.682979,-0.93028 -0.893587,-1.61502 z m 1.271412,1.89054 c -0.07832,-0.0709 -0.118887,-0.17921 -0.103364,-0.34396 0.225425,-0.0268 0.328083,0.2921 0.103364,0.34396 z m -0.377825,-0.79058 c -0.0501,-0.12947 0.09419,-0.0663 0.06879,-0.1718 -0.182388,-0.40957 -0.4191,-0.97931 -0.5842,-1.51201 0.114652,-0.0727 0.159454,0.17004 0.377825,0.10337 0.249767,0.58667 0.501296,1.17052 0.652992,1.85561 -0.200025,0.0325 -0.28434,-0.41663 -0.515409,-0.27517 z m 1.202619,-0.44661 c -0.02822,-0.0247 -0.09207,-0.23742 0.03422,-0.20603 -0.01939,0.0607 0.04127,0.20179 -0.03422,0.20603 z m 0.137231,-2.81799 c -0.1016,-0.0127 -0.169333,-0.0593 -0.206023,-0.13723 0.08925,-0.0787 0.232482,-0.004 0.206023,0.13723 z m 0.481188,0.0346 c -0.173919,-0.0437 -0.297392,-0.13758 -0.343604,-0.30939 0.22366,-0.006 0.331258,0.10407 0.343604,0.30939 z m -0.343604,-0.61877 c -0.09843,-0.0275 -0.02117,-0.23001 -0.171805,-0.20602 -0.371475,0.0981 -0.696029,0.24306 -0.893233,0.5154 0.402167,0.18204 0.716846,0.45121 1.065038,0.68721 0.08431,-0.0653 0.224012,-0.0734 0.378177,-0.0684 -0.624065,0.20038 -0.494594,1.15465 -0.721784,1.7526 -0.258233,-0.78387 -0.42686,-1.6584 -0.928158,-2.19956 -0.201435,0.11606 -0.267052,-0.0938 -0.412044,-0.13759 -0.348191,0.0529 -0.419806,0.38171 -0.618421,0.58455 -0.125941,0.0222 -0.131585,-0.0748 -0.240241,-0.0691 0.587023,-0.69779 2.092325,-1.47708 3.161241,-0.92745 -0.258937,-0.0928 -0.506941,0.0427 -0.61877,0.0684 z m 1.924402,0.89358 c 0.05327,0.0836 0.07126,0.20391 0.137231,0.27517 -0.110773,-0.0381 -0.204613,-0.0931 -0.309033,-0.13758 -0.0049,-0.10795 0.08819,-0.11818 0.171802,-0.13759 z m -0.996598,-1.03117 c 0.414866,0.0208 0.728487,0.14253 0.996598,0.30939 -0.09384,0.0324 -0.07902,0.17392 -0.103365,0.27517 -0.253646,-0.23919 -0.548921,-0.43604 -0.893233,-0.58456 z m -0.06844,0.96238 c 0.01376,-0.0822 -0.06315,-0.0744 -0.03493,-0.1718 0.158044,-0.12277 0.307621,0.20602 0.03493,0.1718 z m -0.03493,-0.78987 c 0.238829,-0.0325 0.257527,0.15487 0.309386,0.30868 -0.157692,-0.0483 -0.285398,-0.12665 -0.309386,-0.30868 z m 2.577394,6.83789 c 0.04904,0.11466 0.139348,0.33409 -0.06844,0.34396 0.03316,-0.10442 -0.07373,-0.3489 0.06844,-0.34396 z m 0,-1.512 c 0.02611,0.34995 0.204258,0.84279 0.06879,1.13418 -0.02752,-0.35031 -0.385234,-0.86607 -0.06879,-1.13418 z m 0.275167,0.48119 c -0.08184,-0.59902 -0.393348,-1.29858 -0.137936,-1.92441 0.222954,0.60961 0.450144,1.42135 0.137936,1.92441 z m 0.06879,0.0688 c 0.0141,0.15769 0.251177,0.0924 0.309386,0.20602 -0.08925,0.14005 -0.1016,0.35666 -0.240594,0.44662 -0.02363,-0.19509 -0.17286,-0.44486 -0.06879,-0.65264 z m -0.412398,-4.63903 c 0.19685,-0.073 0.355248,0.16439 0.343607,0.41204 -0.200377,-0.0512 -0.312561,-0.19155 -0.343607,-0.41204 z m 0.5842,1.3402 c -0.01799,0.0914 -0.196495,-0.11818 -0.240593,0 0.05468,0.23143 0.264231,0.30868 0.481189,0.37783 0.127,0.7747 0.385234,1.99284 -0.06915,2.57739 -0.01799,-0.38311 -0.137583,-0.66392 -0.17145,-1.03117 0.05398,-0.0713 0.184505,-0.067 0.17145,-0.20602 -0.347485,-0.95109 -0.371475,-1.85561 -0.927804,-2.54282 0.321027,0.20637 0.556684,0.49742 0.756354,0.82479 z m -0.859366,3.64244 c -0.0046,0.30268 0.166512,0.7179 0,0.96237 -0.328788,-0.19932 -0.319617,-0.76835 0,-0.96237 z m -0.240594,1.0996 c 0.07832,0.0593 0.132998,0.14182 0.275167,0.13723 -0.05609,0.16193 -0.186973,0.24836 -0.343607,0.30904 0.02611,-0.145 -0.06315,-0.4064 0.06844,-0.44627 z m -2.40524,1.44286 c 0.760238,-0.4766 1.718382,-0.75565 2.13078,-1.58009 0.0092,0.34043 0.09137,0.78035 -0.171805,0.92745 -0.14746,0.01 -0.170037,-0.10477 -0.343958,-0.0684 -0.176035,0.64276 -0.94615,0.83502 -1.615017,0.72107 z m -5.189008,-0.48083 c -0.127704,-0.14676 -0.333375,-0.21626 -0.377825,-0.44627 0.293865,-0.22719 0.478015,0.19439 0.377825,0.44627 z m 1.133829,0.5842 c -0.256823,-0.006 -0.450498,-0.0766 -0.549275,-0.24024 0.242004,-0.19121 0.457552,0.0713 0.549275,0.24024 z m 3.642784,0.24059 c 0.220133,-0.0769 0.249766,-0.33655 0.412395,-0.13793 -0.293862,0.26811 -0.821266,0.48436 -1.37442,0.37888 0.15381,-0.37606 0.557387,-0.0984 0.962025,-0.24095 z m -1.511655,0.30904 c -0.218016,-0.44627 -0.913341,-0.0377 -1.168752,-0.44697 -0.06103,0.0765 -0.149931,0.12523 -0.309033,0.10371 -0.295627,-0.40252 -0.726723,-0.77752 -1.374423,-0.72178 -0.287512,-0.13652 -0.282575,-0.5655 -0.51576,-0.756 -0.167923,-0.004 -0.36195,0.0187 -0.480836,-0.0342 7.94e-4,-0.2025 -0.196498,-0.55034 -0.03457,-0.68721 0.948973,1.21708 2.376665,2.1343 4.433007,2.13007 -0.0314,0.1524 -0.320675,0.3436 -0.54963,0.4124 z m 7.731125,-4.12362 c -0.02257,-0.8449 0.02045,-1.82739 0.103717,-2.61162 0.110773,0.85972 0.356658,2.00943 -0.103717,2.61162 z m 0.137938,-4.29507 c -0.06809,-0.20673 -0.340079,-0.53799 -0.206375,-0.72179 0.08114,0.20638 0.263525,0.49177 0.206375,0.72179 z m -1.305631,-1.9932 c 0.482952,0.31856 0.660048,0.94298 0.858308,1.54623 -0.361598,-0.43956 -0.555273,-1.0474 -0.858308,-1.54623 z m -1.06539,-0.9278 c 0.225779,0.10618 0.555979,0.29104 0.515056,0.54962 -0.175331,-0.17921 -0.415925,-0.29386 -0.515056,-0.54962 z m -2.096204,-0.8248 c 0.559504,-0.0423 1.141235,0.18662 1.546225,0.41275 0.02611,0.19086 0.0314,0.40323 0.102658,0.54963 1.281994,0.87207 2.341386,2.33186 2.405944,4.19241 -0.754944,-2.31493 -1.92264,-4.21675 -4.054827,-5.15479 z m 1.683808,1.47814 c -1.204031,-0.9271 -2.733323,-1.7526 -4.845756,-1.47814 1.912408,-0.49071 4.104217,0.34572 4.845756,1.47814 z m -3.333398,-2.26836 c 0.90664,0.0635 1.887361,0.32914 2.577042,0.72178 -0.504119,-0.12594 -1.095727,-0.16439 -1.752248,-0.13793 -0.100187,-0.36901 -0.592312,-0.34608 -0.824794,-0.58385 z m -6.219825,2.71463 c 0.511175,-1.05799 1.438627,-1.70004 2.714625,-1.99285 -0.373943,0.41628 -1.090083,0.49036 -1.408289,0.96203 -0.116769,0.013 -0.05468,-0.1524 -0.206727,-0.10301 -0.500944,0.22084 -0.649817,0.97649 -1.099609,1.13383 z m -0.721783,2.19886 c 0.01622,-0.67381 0.251177,-1.41887 0.5842,-1.88983 -0.0063,0.0984 -0.0039,0.18768 0.10301,0.1718 0.56868,-0.46813 1.010005,-1.14194 1.615371,-1.61466 0.367946,-0.28752 0.856896,-0.39794 1.271763,-0.68721 0.405696,-0.2847 0.795162,-0.66323 1.305631,-0.61878 -0.105127,0.0896 -0.312915,0.0766 -0.343252,0.24095 0.673804,-0.19403 2.088796,-0.6156 2.783062,-0.0349 -1.713441,-0.38418 -2.83351,0.5214 -3.952168,0.9278 -0.738365,0.26882 -1.236134,0.54681 -1.752248,1.06539 -0.690386,0.69356 -1.214613,1.52894 -1.615369,2.43946 z m 0.206727,0.51576 c 0.01236,-0.41134 0.08996,-0.75741 0.309033,-0.96167 -0.06562,0.35842 -0.141816,0.70555 -0.309033,0.96167 z m -0.275167,0.37818 c 0.08185,0.27305 0.07021,0.63958 0.06844,0.9966 -0.123473,-0.23108 -0.179917,-0.84103 -0.06844,-0.9966 z m 1.13383,4.94841 c -0.09701,0.0325 -0.169334,-0.22401 -0.03457,-0.20637 0.02506,0.0702 0.108302,0.13617 0.03457,0.20637 z m -0.37818,-0.41204 c -0.397933,-0.91934 -0.918985,-2.08174 -0.68721,-3.40219 0.0949,1.37125 0.437092,2.4952 1.06539,3.33269 -0.116417,0.0325 -0.251884,0.0462 -0.37818,0.0695 z m 10.309225,4.22592 c -0.621945,0.5521 -1.764945,1.5434 -2.748843,1.06539 1.244952,-1.78364 3.324931,-2.76013 4.398433,-4.70746 1.140883,-2.0701 1.36525,-4.96218 0.48119,-7.04498 -0.226132,-0.53199 -0.394407,-1.14688 -0.653346,-1.58009 -0.585259,-0.98178 -1.740604,-1.29293 -2.886075,-1.82174 -1.091846,-0.50377 -2.034117,-0.87807 -3.436761,-0.72179 -1.879952,0.21061 -4.157485,0.83891 -5.188656,2.09691 -0.551392,0.6724 -0.775052,1.38254 -1.099254,2.23309 -0.131588,0.3429 -0.3302,0.58914 -0.378179,0.9278 -0.186267,1.30175 -0.05468,2.58904 0.103012,3.57364 0.353484,2.20663 1.779059,3.5941 3.67665,4.36422 1.061154,0.43109 2.404886,0.34607 3.746146,0.20637 1.119717,-0.11606 1.842206,-0.85196 2.507898,-1.47743 0.299156,-0.28187 0.708377,-0.55739 0.928158,-0.8248 1.195917,-1.45485 1.031875,-4.55083 0.102659,-6.11681 -0.144992,-0.24483 -0.434269,-0.78317 -0.652992,-0.92781 -0.09701,-0.0645 -0.308681,-0.078 -0.480835,-0.17145 -0.318913,-0.17498 -0.611365,-0.50764 -0.858663,-0.61912 -0.572558,-0.25647 -1.47955,-0.31256 -2.199569,-0.13688 -0.920398,0.22437 -2.080683,0.77364 -2.542468,1.40864 -0.30833,0.42263 -0.773996,1.10243 -0.859721,1.68381 -0.125588,0.85266 0.293158,2.02953 0.928158,2.3368 0.4318,0.20849 1.079148,0.4124 1.580446,0.37783 1.700387,-0.11783 1.610429,-2.33892 1.477785,-3.88303 0.98284,-0.47449 2.063398,0.17604 2.474032,0.82444 0.983895,1.55399 0.379587,3.9945 -0.549982,5.2578 -0.623006,0.84738 -2.364316,1.52435 -3.745441,1.37443 -1.272823,-0.13829 -2.400652,-0.6978 -3.058584,-1.58045 -0.306916,-0.41275 -0.843139,-0.67345 -1.030816,-1.06539 -0.288219,-0.60254 -0.440619,-1.53917 -0.480484,-2.19922 -0.116416,-1.91734 0.329142,-3.7151 1.33985,-4.6736 0.937332,-0.88829 2.329744,-1.57621 3.607859,-1.71802 2.00025,-0.22225 3.108677,0.42368 4.261202,1.09925 1.394883,0.81845 1.866548,1.98826 2.164998,3.9176 0.387702,-0.20497 0.0013,-0.85055 0.06914,-1.13418 0.92428,1.62136 0.878417,4.77379 -0.206727,6.15138 0.0021,0.11254 0.09807,0.13159 0.06879,0.27517 -0.177448,0.16581 -0.45226,0.23531 -0.515408,0.51541 0.07126,0.0205 0.238831,-0.0554 0.206375,0.0684 -0.97649,1.30316 -2.500136,2.05846 -3.573992,3.26461 -1.491192,0.5401 -3.588102,1.20015 -5.463469,0.61912 -1.127125,-0.3496 -1.945571,-1.21991 -2.783771,-1.75295 -0.368652,-0.67275 -1.131004,-1.08303 -1.580443,-1.71838 -0.361244,-0.51012 -0.99448,-1.41711 -1.13418,-2.13043 -0.427919,-2.18687 -0.408163,-4.63691 0.343606,-6.66609 0.01482,-0.15981 0.183798,0.048 0.240242,-0.0691 -0.01482,-0.14499 -0.135115,-0.18556 -0.103011,-0.37783 0.128763,-0.18097 0.135819,-0.4833 0.378528,-0.54998 -0.127,-0.4258 0.351721,-0.80715 0.446265,-1.23719 0.06632,-0.12171 0.143581,-0.0536 0.240593,-0.10266 -0.01659,-0.079 -0.06773,-0.17568 0,-0.24094 0.764471,-0.81669 1.63689,-1.52436 2.680759,-2.06129 0.9017,-0.72707 2.084564,-1.65488 3.642431,-1.71873 1.416402,-0.0575 3.286477,-0.2921 4.535665,0.13758 0.519641,0.17886 0.990245,0.71509 1.443566,0.99625 1.844321,1.14511 3.335867,2.36749 4.363861,4.36456 0.486481,0.9451 0.955323,2.01754 0.962377,3.23039 0.02434,4.21428 -2.832804,6.57049 -5.189009,8.65893 z m -11.579929,-0.34325 c 0.204259,0.16193 0.476602,0.25576 0.618067,0.48084 -0.215196,-0.1143 -0.6985,-0.2974 -0.618067,-0.48084 z m -0.962731,-1.09961 c 0.104775,0.0208 0.176035,0.0762 0.17145,0.20567 -0.09419,-0.031 -0.143227,-0.1083 -0.17145,-0.20567 z m -1.30563,-0.96202 c -0.129469,0.0462 -0.181327,-0.15875 -0.103362,-0.20638 0.04939,0.0533 0.138641,0.0677 0.103362,0.20638 z m -0.343252,-1.44322 c -0.03104,-0.11853 -0.148873,-0.14957 -0.137935,-0.30938 0.208491,-0.13653 0.244827,0.18556 0.137935,0.30938 z m 0,0.5835 c -0.07408,-0.0974 -0.164042,-0.17992 -0.206727,-0.30904 0.117475,0.0325 0.312912,0.16722 0.206727,0.30904 z m -0.206727,0.61877 c 0.07973,-0.0748 0.19191,0.0102 0.172154,0.13793 -0.112183,0.008 -0.165452,-0.0409 -0.172154,-0.13793 z m -0.137583,-1.20227 c -0.01024,-0.0469 -0.04868,-0.0663 -0.03422,-0.13793 0.03422,0 0.06844,0 0.103012,0 0.0099,0.0783 -0.0078,0.12911 -0.06879,0.13793 z m 0.137583,-0.51576 c -0.160515,2.7e-4 -0.20814,-0.11289 -0.240948,-0.24059 0.181327,-0.0201 0.231069,0.0903 0.240948,0.24059 z m -0.480838,1.03117 c 0.1143,0.0226 0.186621,0.0878 0.17145,0.24059 -0.15381,0.0159 -0.17145,-0.10301 -0.17145,-0.24059 z m -0.309385,-0.92851 c 0.173567,-0.0945 0.345017,0.26635 0.309385,0.37853 -0.0695,-0.15945 -0.234595,-0.22401 -0.309385,-0.37853 z m -0.309033,-0.5147 c 0.170743,0 0.1905,0.15275 0.240593,0.27446 -0.209902,0.0377 -0.16792,-0.17639 -0.240593,-0.27446 z m -0.206375,-0.44697 c -0.02928,-0.0967 -0.111125,-0.14147 -0.103362,-0.27482 0.425095,-0.0441 0.68086,0.25436 0.687562,0.51541 -0.262467,-0.0169 -0.262467,-0.38664 -0.5842,-0.24059 z m -0.03457,0.20602 c 0.0053,0.13229 0.11571,0.15875 0.103362,0.30939 -0.174977,0.0268 -0.274108,-0.29387 -0.103362,-0.30939 z m -0.206023,0.58385 c 0.176035,-0.09 0.264232,0.0974 0.275167,0.27552 -0.166159,-0.0173 -0.286457,-0.0811 -0.275167,-0.27552 z m -0.137583,-0.20602 c -0.02752,-0.15523 -0.136877,-0.22931 -0.137584,-0.41205 0.238125,-0.12206 0.378177,0.29669 0.343607,0.44662 -0.08079,0.001 -0.100896,-0.0589 -0.206023,-0.0346 z m -0.137584,0.30903 c -0.03422,-0.18592 0.153811,-0.14535 0.171802,-0.0339 -0.03951,0.0286 -0.09207,0.0459 -0.171802,0.0339 z m -0.137231,0.79093 c 0.09984,0.0261 0.197908,0.0543 0.240242,0.13723 -0.128411,0.003 -0.19685,-0.0547 -0.240242,-0.13723 z m -0.378177,-0.8248 c 0.102658,0.0124 0.174977,0.0543 0.240948,0.10266 -0.07937,0.26353 0.129117,0.23742 0.17145,0.37853 -0.234246,-0.0635 -0.416983,-0.1785 -0.412398,-0.48119 z m 0.103365,-0.5842 c -0.143933,0.0183 -0.135821,-0.11571 -0.172157,-0.20602 0.136877,-0.0109 0.186267,0.0656 0.172157,0.20602 z m -0.515408,-0.44661 c -0.0889,-0.11748 -0.147815,-0.26494 -0.171805,-0.44662 0.09384,-0.0695 0.23989,0.0399 0.377825,0.0342 0.05574,0.13864 0.118181,0.27093 0.17145,0.4124 -0.09631,0.0797 -0.214487,-0.0399 -0.37747,0 z m 0.10301,0.89323 c 0.06138,0.0875 0.10654,0.19156 0.137231,0.30938 -0.128765,0.012 -0.291748,-0.2614 -0.137231,-0.30938 z m -0.274815,-0.37747 c -0.1016,-0.0938 -0.178504,-0.21167 -0.171802,-0.41275 0.05045,-0.018 0.08678,-0.0508 0.136877,-0.0684 0.07691,0.0907 0.242713,0.41874 0.03493,0.48119 z m -0.446969,-1.03117 c 0.293511,-0.1591 0.325967,0.21766 0.378177,0.41239 -0.270227,0.13547 -0.352425,-0.1912 -0.378177,-0.41239 z m -0.790223,-1.44357 c 0.336198,0.54645 0.577498,1.18674 0.756005,1.89054 -0.361246,-0.49812 -0.662517,-1.23896 -0.756005,-1.89054 z m 4.776611,-4.70747 c 0.04057,-0.0399 0.121356,-0.0388 0.206023,-0.0346 0.0035,0.14111 -0.0046,0.27058 -0.137584,0.27481 0.0056,-0.10865 -0.09137,-0.11465 -0.06844,-0.24024 z m -0.275167,0.82444 c 0.0056,-0.10865 -0.09102,-0.11465 -0.06844,-0.24024 0.182385,-0.12276 0.469545,0.0141 0.309033,0.24024 -0.08008,0 -0.160163,0 -0.240596,0 z m -0.515408,0.41275 c -0.0081,-0.14075 -0.104069,-0.19402 -0.103011,-0.34395 0.123473,-0.0811 0.286809,0.0427 0.481542,0 0.06279,0.14393 0.181681,0.33408 0.136877,0.48083 -0.203552,-0.0141 -0.32526,-0.10936 -0.515408,-0.13688 z m 0.206375,0.41205 c 0.05715,-0.0459 0.115358,-0.0907 0.240596,-0.0688 -0.0024,0.16933 0.02893,0.37324 -0.137584,0.37853 -0.02574,-0.11219 -0.06244,-0.21273 -0.103012,-0.30974 z m -0.240594,0.44697 c 0.06421,-0.073 0.108302,-0.16616 0.240594,-0.17181 0.08502,0.20991 0.02045,0.41875 0.03422,0.65264 -0.167923,-0.0843 -0.173567,-0.3309 -0.274814,-0.48083 z m 0.102658,1.64888 c -0.05045,-0.14393 -0.15875,-0.23036 -0.17145,-0.41204 0.108302,-0.0152 0.190852,-0.17004 0.274815,-0.10337 -0.01304,0.19403 0.04974,0.46285 -0.103365,0.51541 z m -0.789868,1.27176 c -0.38594,-0.0152 -0.645232,-0.15698 -0.721784,-0.48083 0.386644,-0.006 0.794809,0.14005 0.721784,0.48083 z m 0.343604,-0.54962 c -0.132644,-0.006 -0.252942,-0.001 -0.343604,0.0346 -0.125238,-0.0695 -0.175684,-0.21378 -0.240596,-0.34396 0.186266,-0.11112 0.659341,-0.0543 0.5842,0.30939 z m -0.343604,-0.89359 c 0.05609,0.10442 0.100541,0.22014 0.10301,0.37783 -0.34784,0.005 -0.587727,-0.0991 -0.61877,-0.4124 0.208489,-0.0769 0.330551,0.0561 0.51576,0.0346 z m 0.274812,-0.51576 c -0.352777,0.0438 -0.497417,-0.12065 -0.515408,-0.41204 0.316441,-0.20603 0.462139,0.14993 0.515408,0.41204 z m 0.240596,-1.03046 c -0.0019,0.27622 -0.156988,0.24094 0,0.44661 -0.126296,0 -0.251883,0 -0.378179,0 -0.103011,-0.1598 -0.182034,-0.34466 -0.274461,-0.51505 0.204259,-0.0759 0.450498,0.0339 0.65264,0.0684 z m -0.240596,0.68721 c 0.147108,-0.133 0.33655,-0.0106 0.515056,-0.10337 0.06738,0.133 0.02928,0.31257 -0.03422,0.4124 -0.221546,-0.0413 -0.435682,-0.091 -0.480838,-0.30903 z m -0.274812,0.44661 c 0.225425,0.049 0.513643,0.036 0.480835,0.34396 -0.244123,-0.0138 -0.578908,-0.10054 -0.480835,-0.34396 z m 0.20602,0.48084 c 0.347134,-0.003 0.557742,0.12982 0.583848,0.44732 -0.28716,0.0759 -0.603956,-0.1023 -0.583848,-0.44732 z m 0.274815,0.65335 c 0.309385,-0.0441 0.290335,0.21272 0.206375,0.41204 -0.13476,-0.0713 -0.158398,-0.25365 -0.206375,-0.41204 z m -0.412044,0.44661 c 0.09913,-0.0614 0.307621,-0.0124 0.377825,-0.10301 0.176742,0.24306 0.267759,0.65158 0.171802,1.06504 -0.190852,-0.0826 -0.26035,-0.35913 -0.10301,-0.51541 -0.238831,-0.0593 -0.380648,-0.21484 -0.446617,-0.44662 z m 0.721077,-2.95522 c -0.195439,7.9e-4 -0.392289,0.003 -0.343252,-0.24059 0.179563,-0.0854 0.399696,-0.0134 0.343252,0.24059 z m -0.137583,-0.41275 c -0.15381,0.0169 -0.256823,-0.0173 -0.377473,-0.0342 -0.02151,-0.19614 -0.1778,-0.25717 -0.171802,-0.48119 0.420865,-0.21343 0.466725,0.20744 0.549275,0.51541 z m 0.30974,-0.92745 c 0.03845,0.0649 0.04374,0.16228 0.06879,0.24024 -0.15875,0.0215 -0.197204,-0.0769 -0.343606,-0.0688 0.04445,0.0459 0.04516,0.12841 -0.03493,0.13758 0.01447,-0.0822 -0.156281,0.0194 -0.10301,-0.10301 0.0011,-0.0564 0.0956,-0.0194 0.10301,-0.0684 -0.06526,-0.06 -0.211315,-0.0406 -0.205669,-0.1718 0.161571,-0.0998 0.289629,0.0882 0.515409,0.0342 z m 0.549979,0.0346 c -0.167921,-0.0614 -0.454025,-0.004 -0.446617,-0.24095 0.07479,0.0183 0.451908,0.0286 0.446617,0.24095 z m -0.5842,-0.65299 c 0.162631,-0.0138 0.236362,0.0614 0.412046,0.0342 0.0388,0.11007 0.09419,0.20391 0.103362,0.34361 -0.304446,0.006 -0.511879,-0.0843 -0.515408,-0.37783 z m -3.058581,5.73864 c 0.679802,0.21413 1.783995,0.003 1.890181,0.79022 -0.557388,-0.15416 -1.934631,-0.14887 -1.890181,-0.79022 z m 1.271762,1.23719 c -0.310092,0.0353 -0.294569,-0.25577 -0.412044,-0.41275 0.202142,-0.0787 0.455436,0.0642 0.65264,0.10372 -0.03281,0.17391 -0.0501,0.28857 0.06844,0.37782 -0.208137,-0.01 -0.135466,-0.29986 -0.343603,-0.30939 -0.04939,0.14923 0.117475,0.15805 0.03457,0.2406 z m 1.030817,-0.30903 c -0.240242,-0.0124 -0.299509,-0.20532 -0.343607,-0.41311 0.248709,0.003 0.27799,0.22613 0.343607,0.41311 z m -0.549627,-1.37478 c 0.216604,0.001 0.359833,0.0751 0.549627,0.10301 0.07267,0.21343 0.2413,0.33126 0.240593,0.61842 -0.471662,0.10231 -0.694266,-0.33479 -0.79022,-0.72143 z m 0.893233,1.44321 c -0.215196,-0.0423 -0.369006,-0.31009 -0.343606,-0.48154 0.710141,-0.21202 0.505531,0.65088 0.652639,1.10032 -0.193323,-0.11607 -0.314679,-0.3041 -0.309033,-0.61878 z m 0,1.03082 c -0.09313,0.0681 -0.187325,-0.0921 -0.206023,-0.20638 0.148873,-0.0116 0.179917,0.0945 0.206023,0.20638 z m -0.240596,-0.756 c 0.0441,-0.002 0.04762,-0.0445 0.103013,-0.0342 0.0702,0.10124 0.246237,0.24236 0.17145,0.37818 -0.161221,-0.0448 -0.2286,-0.18345 -0.274463,-0.34396 z M 49.641736,127.42715 c 0.01622,0.17145 -0.222602,0.0889 -0.206375,-0.0339 0.105482,-0.0251 0.125942,0.0349 0.206375,0.0339 z m 9.587442,21.85529 c -0.0092,-0.10054 0.07761,-0.10548 0.06844,-0.20638 -0.354897,-0.0684 -0.490715,-0.35666 -0.618067,-0.65299 -0.01093,-0.0903 0.192262,0.0325 0.137583,-0.10265 -0.07796,-0.13865 -0.257881,-0.20497 -0.447323,-0.13759 -0.312915,-0.62583 -0.479073,-1.39912 -0.75565,-2.06163 0.02963,-0.13229 0.0762,-0.27764 -0.137231,-0.24095 0.142171,0.77435 0.459671,1.37266 0.618421,2.13078 -0.772232,-0.62548 -0.661458,-2.13396 -1.237192,-2.95522 0.104421,0.6865 0.415571,1.34761 0.481187,1.95862 -0.178858,-0.005 -0.23495,-0.13123 -0.446968,-0.10301 -0.425098,-0.75459 -0.425098,-1.93499 -0.859367,-2.68041 0.104069,0.73449 0.461785,1.5748 0.446969,2.19957 -0.146754,-0.22013 -0.257527,-0.4759 -0.549979,-0.55033 0.0021,0.048 -0.01588,0.0759 -0.03422,0.10301 0.08361,0.20355 0.299156,0.27446 0.343606,0.51576 -0.0575,0.0603 -0.115006,-0.0303 -0.240593,0 -0.151342,-0.29457 -0.20955,-0.68368 -0.309388,-1.03117 0.0095,-0.0702 0.128413,-0.0325 0.137938,-0.10301 -0.454732,-0.22154 -0.216959,-1.13488 -0.618422,-1.40864 0.04833,0.4318 0.210963,0.75106 0.240242,1.20262 -0.121354,0.0497 -0.271285,-0.13088 -0.309033,-0.27481 0.01376,-0.066 0.13335,-0.0272 0.103013,-0.13794 -0.255765,-0.14041 -0.606425,0.0243 -0.824442,-0.13688 -0.224721,-0.32632 -0.127355,-0.97296 -0.413105,-1.23684 0.02434,0.43392 0.159809,0.75636 0.20673,1.16805 -0.138642,0.0236 -0.196498,-0.0328 -0.30974,-0.0342 0.03634,-0.27552 -0.231775,-0.27376 -0.240593,-0.58455 0.06632,-0.0825 0.212018,0.0822 0.206375,-0.10301 -0.186974,-0.0766 -0.445559,-0.26388 -0.515057,-0.34326 0.05256,0.0494 0.02963,0.17604 0.03422,0.27482 -0.124884,0.0102 -0.223661,-0.005 -0.309034,-0.0349 -0.211666,-0.60078 -0.235653,-1.39135 -0.446968,-1.99284 -0.04163,0.63853 0.181327,1.30669 0.274815,1.9244 -0.20673,-0.16157 -0.621242,-0.60854 -0.309034,-0.85901 -0.123473,0.0201 -0.166865,-0.0399 -0.240241,-0.0684 -0.161925,-0.46884 -0.294217,-1.1497 -0.516115,-1.44357 0.03387,0.33338 0.178152,0.55457 0.206727,0.89359 -0.02752,0.091 -0.161925,-0.0773 -0.172154,0.0688 0.04798,0.14605 0.16651,0.2226 0.172154,0.41205 -0.210254,-0.007 -0.342194,-0.0938 -0.481894,-0.17181 -0.24271,-0.66181 -0.221192,-1.58785 -0.5842,-2.13007 0.04374,0.58738 0.285398,1.27106 0.378177,1.92405 -0.419452,-0.53763 -0.726369,-1.31974 -0.96167,-2.02777 -0.04586,-0.13617 0.05186,-0.37147 -0.206375,-0.37747 0.159453,0.68792 0.446968,1.24813 0.549978,1.99284 -0.403577,-0.0783 -0.865716,-0.097 -0.99695,-0.44661 0.166159,-0.0392 0.37183,0.12664 0.446972,-0.0346 -0.129117,-0.0691 -0.351367,-0.13829 -0.515057,-0.0688 -0.407106,-0.48365 -0.499181,-1.43721 -0.584906,-2.13042 -0.09454,0.066 -0.174625,0.14569 -0.240242,0.24059 0.192265,0.52952 0.319971,1.1236 0.446265,1.71803 -0.102307,0.0508 -0.308327,-0.0459 -0.480835,-0.0339 -0.04657,-0.13723 -0.06844,-0.29845 -0.17145,-0.37817 -0.01871,0.13299 0.06068,0.16792 0.03422,0.30938 -0.346781,-0.008 -0.216606,-0.49424 -0.343606,-0.72213 0.213079,-0.0639 0.167571,0.13052 0.309388,0.13793 0.04974,-0.0642 0.188383,-0.0409 0.17145,-0.17215 -0.174625,-0.09 -0.320675,-0.14182 -0.515057,-0.13723 -0.05891,-0.14746 -0.115006,-0.2981 -0.137583,-0.48084 0.12841,-0.0462 0.237066,0.10195 0.309033,0 -0.02434,-0.1591 -0.276931,-0.09 -0.377825,-0.17216 -0.140406,-0.52387 -0.15734,-1.17086 -0.343958,-1.64959 -0.202494,0.47837 0.249766,1.19451 0.103716,1.61502 -0.427566,-0.48895 -0.332668,-1.50036 -0.790926,-1.95827 0.05433,0.63394 0.42545,1.24566 0.481187,1.99284 -0.238125,-0.0822 -0.657225,0.0159 -0.721784,-0.24059 0.03775,-0.11112 0.221898,0.0928 0.274815,-0.0342 -1.046692,-0.21378 -0.689681,-1.83056 -1.133475,-2.64619 -0.04198,0.63853 0.181682,1.30564 0.309033,1.88984 -0.166158,0.0945 -0.396168,-0.006 -0.480835,-0.10266 -0.02857,-0.21132 0.02752,-0.33902 0.06844,-0.48154 -0.45367,-0.46214 -0.248353,-1.58433 -0.618066,-2.13043 -0.03422,0.6671 0.278696,1.45838 0.309033,2.06199 -0.367945,-0.1016 -0.707319,-0.23107 -1.065742,-0.34361 -0.01516,-0.16828 -0.0702,-0.29633 -0.06844,-0.48119 0.155221,0.006 0.314677,0.0166 0.309034,-0.13758 -0.121357,-0.0162 -0.198263,-0.0766 -0.343255,-0.0684 -0.04374,-0.1397 -0.01834,-0.34784 -0.06879,-0.48154 0.07726,-0.0991 0.299509,0.10019 0.343255,-0.0684 -0.04269,-0.12912 -0.315738,-0.0275 -0.377473,-0.13759 -0.05045,-0.46496 -0.06456,-0.9659 -0.240594,-1.30562 -0.105833,0.40816 0.174977,0.89676 0.06879,1.30562 -0.188383,-0.006 -0.326321,-0.0639 -0.480838,-0.10301 -0.19332,-0.4258 -0.06985,-1.16769 -0.41275,-1.44356 0.03634,0.4579 0.311856,1.03787 0.172156,1.44356 -0.09243,0.11254 -0.07867,-0.17145 -0.206375,-0.13758 -0.05186,0.23213 -0.414514,-0.0166 -0.584551,0 -0.04198,-0.11077 0.111125,-0.0265 0.06879,-0.13723 -0.220488,-0.0377 -0.362304,-0.59125 -0.03457,-0.58385 -0.03104,-0.0836 -0.137935,-0.0914 -0.240593,-0.10371 -0.116417,-0.47872 -0.03422,-1.15641 -0.309034,-1.47744 -0.09948,0.1831 -0.536223,0.0177 -0.75565,0 0.0042,-0.27975 -0.02363,-0.52599 -0.17145,-0.65264 -0.06315,0.14394 0.06244,0.36301 0.03422,0.58385 -0.323498,0.003 -0.589844,-0.0515 -0.790927,-0.1718 0.03563,-0.21731 -0.09948,-0.41275 0,-0.58385 0.221543,-0.0716 0.481893,0.20638 0.550333,-0.0346 -0.190854,-0.1076 -0.446971,-0.14923 -0.653346,-0.24059 -0.07655,-0.22084 -0.0074,-0.58809 -0.240594,-0.653 -0.01833,0.28222 0.101952,0.42545 0.06844,0.72179 -0.202496,-0.0261 -0.464608,0.007 -0.515056,-0.17181 0.117123,-0.13652 0.264935,0.10443 0.343606,0 -0.11289,-0.0473 -0.230365,-0.0903 -0.343606,-0.13758 -0.04974,-0.4198 0.03704,-0.97649 -0.172157,-1.23684 -0.09454,0.42545 0.05045,0.94827 0,1.37442 -0.167216,0.0751 -0.373943,-0.0755 -0.617712,-0.0346 0.02045,-0.1277 -0.0882,-0.21731 0,-0.30903 0.176742,-0.0381 0.286808,0.16933 0.412044,0.0684 -0.171802,-0.0914 -0.473427,-0.0536 -0.446265,-0.34361 0.06597,-0.12206 0.456848,0.0702 0.480483,-0.17145 -0.118179,-0.0656 -0.351718,-0.0148 -0.480483,-0.0688 -0.03175,-0.3549 0.148521,-0.89711 -0.172508,-1.03117 0.02716,0.35842 0.06668,0.7553 -0.03422,1.06504 -0.0575,0 -0.114652,0 -0.172156,0 -0.141817,-0.6978 0.360891,-1.16805 0.103364,-1.85491 0.862542,-2.5594 2.379486,-4.95053 4.467577,-6.39198 0.589847,-0.40781 1.189922,-0.38241 1.958272,-0.61877 0.649462,-0.19932 1.222375,-0.55633 2.061985,-0.37783 -0.09208,0.39829 -0.698852,0.5387 -0.446969,1.06504 -0.676981,0.71085 -0.04586,1.905 0.893585,1.92476 0.133702,0.41768 0.6223,0.61947 1.030817,0.65299 0.01376,0.1277 0.1524,0.2607 0.06879,0.37817 -0.66816,-0.30515 -1.1049,-0.84208 -1.924402,-0.99695 -0.06632,-0.1972 -0.198615,-0.32808 -0.446617,-0.3436 0.0081,0.13123 -0.12559,0.2353 -0.06844,0.30939 0.390877,-0.0183 0.887942,0.28222 1.098902,0.65299 -0.141462,0.0254 -0.232478,-0.17745 -0.309033,-0.10337 0.01236,0.50306 0.668867,0.19756 0.928158,0.41275 -0.0099,-0.09 0.0127,-0.14781 0.103365,-0.13758 0.04586,0.0106 0.06527,0.0487 0.137232,0.0346 0.06526,0.16863 -0.115007,0.0917 -0.102659,0.20602 0.04974,0.0177 0.08572,0.0508 0.136877,0.0688 -0.02928,-0.10971 0.02999,-0.13087 0.06879,-0.1718 0.246591,0.20038 0.75706,0.13618 0.790575,0.54928 0.243768,0.0233 0.45085,0.21519 0.652991,0.17215 0.0074,-0.0649 -0.03916,-0.0758 -0.03528,-0.13793 0.137935,-0.009 0.322791,-0.0808 0.44732,0.0349 0.04621,0.23001 -0.09983,0.26706 -0.137583,0.41205 0.113596,0.12735 0.370771,0.11042 0.41275,0.30973 -0.559504,-0.25435 -1.227667,-0.39934 -1.546577,-0.89358 0.02963,0.15134 -0.223309,0.12171 -0.206375,0 -0.126648,-0.055 0.138993,0.008 0.06844,-0.10301 -0.153107,-0.0649 -0.29069,-0.14535 -0.480484,-0.17181 0.07373,0.13159 0.256117,0.15558 0.343252,0.27482 0.0085,0.34643 0.64911,0.35842 0.859015,0.61807 0.02822,0.097 -0.04833,0.0893 -0.03457,0.17215 0.319265,0.13935 0.518583,0.39829 0.89394,0.48084 0.115003,7.9e-4 0.0053,-0.22331 0.137935,-0.20603 0.477308,0.0949 0.84314,0.68087 1.339143,0.34361 0.0011,0.0808 -0.05891,0.10125 -0.03422,0.20673 0.303741,0.22295 0.732366,0.32067 0.8255,0.75565 -0.168982,-0.004 -0.263173,-0.26282 -0.412398,-0.1718 0.629356,0.52705 1.414288,0.89887 2.061281,1.40864 0.107598,-0.0293 0.08608,-0.18909 0.206375,-0.20603 0.1905,0.004 0.206023,0.18274 0.343607,0.24025 0.10795,0.0166 0.140403,-0.0423 0.171801,-0.10337 -0.05891,-0.18097 -0.262114,-0.21872 -0.309385,-0.41204 0.447321,-0.0116 0.479071,0.39123 0.790575,0.51541 0.125235,-0.0649 -0.03069,-0.19756 0.10301,-0.24025 0.219782,0.13865 0.417336,0.47167 0.721784,0.41205 -0.473427,-0.30515 -0.746477,-0.99483 -1.305984,-1.09961 0.05503,0.19191 0.384527,0.27129 0.343607,0.44697 -0.262115,-0.13864 -0.559155,-0.24236 -0.721783,-0.48119 0.171095,-0.0462 0.40781,-0.0275 0.549978,-0.10301 0.586672,0.36407 1.050925,0.85055 1.580447,1.27106 0.02011,0.1464 -0.185563,0.0667 -0.13688,0.24095 0.06985,0.09 0.218017,0.1023 0.343255,0.13793 -0.03422,0.23778 0.232478,0.31115 0.515408,0.23989 0.418745,0.17674 0.753533,0.43815 1.20297,0.5842 0.26388,0.61807 1.080207,0.86678 1.546225,1.16875 -0.281162,-0.34889 -0.854778,-0.40499 -1.031168,-0.85901 0.644173,0.0776 1.038931,0.40464 1.477785,0.68721 -0.02294,0.15734 0.22578,0.30057 0.309388,0.13794 -0.26529,-0.27376 -0.69074,-0.38629 -0.824796,-0.79128 0.537988,0.006 0.572206,0.59654 1.133829,0.68721 0.08361,-0.0882 0.121002,-0.22225 0.343604,-0.17216 -2.65e-4,0.81421 1.183217,0.44309 1.305983,1.13418 -0.159808,0.008 -0.37465,-0.20531 -0.481189,-0.0339 1.433689,0.38699 1.783998,1.85843 3.608211,1.85561 0.358069,0.59901 1.275644,0.15487 1.924402,0.41204 0.528108,0.48013 1.237898,0.77858 1.752248,1.27141 -0.662517,0.39935 -1.208617,-0.32279 -1.718029,-0.51505 0.287162,0.35454 0.783873,0.49882 1.099962,0.82479 -0.472723,0.14605 -0.723196,0.51365 -1.1684,0.68686 -0.05151,-0.12065 -0.09349,-0.25012 -0.206375,-0.30903 -0.06632,0.0138 -0.02681,0.13299 -0.137583,0.10336 -0.225425,-0.0998 -0.515056,-0.63041 -0.75565,-0.37818 0.3683,0.18133 0.678392,0.42051 0.962025,0.68721 -0.141465,0.14711 -0.324556,0.0879 -0.48119,0.17181 -0.168627,-0.0833 -0.283281,-0.22049 -0.446616,-0.30904 0.0822,0.20391 0.347485,0.22508 0.412043,0.44697 -0.03669,0.0769 -0.103716,0.12418 -0.205668,0.13688 -0.109009,-0.0402 -0.08467,-0.21272 -0.206375,-0.24095 -0.152752,0.17745 -0.211667,-0.12276 -0.412044,-0.10266 0.117827,0.2025 0.383821,0.25789 0.480483,0.48119 -0.03669,0.078 -0.103716,0.12489 -0.205671,0.13759 -0.336195,-0.19297 -0.575733,-0.6597 -0.962377,-0.68721 0.158044,0.39299 0.806802,0.47378 0.824442,0.89323 -0.403931,-0.19262 -0.721783,-0.65052 -1.065035,-0.79057 0.261054,0.3122 0.597958,0.54751 0.824441,0.89358 -0.251883,0.12629 -0.355954,0.3997 -0.652639,0.48119 -0.110419,-0.30198 -0.371475,-0.45332 -0.446969,-0.79022 0.340429,0.049 0.336196,0.44309 0.721783,0.44661 -0.0314,-0.0603 -0.01164,-0.17145 -0.06879,-0.20672 -0.528815,-0.0441 -0.61948,-0.70697 -1.030465,-0.75601 0.01871,0.26812 0.259644,0.31327 0.240242,0.61913 -0.09349,0.0212 -0.160867,-0.15558 -0.206375,-0.0688 0.233891,0.29315 0.449439,0.6043 0.687564,0.89358 -0.138289,0.51259 -0.697441,0.10266 -0.824796,-0.0346 0.09984,0.19756 0.28928,0.30621 0.412398,0.48084 -0.08749,0.0737 -0.117827,0.2032 -0.240593,0.24059 -0.117475,-0.22542 -0.33655,-0.35066 -0.37818,-0.65299 -0.143579,0.0293 -0.162277,-0.0667 -0.27446,-0.0684 0.189442,0.30304 0.426508,0.5588 0.5842,0.89323 -0.125942,0.0921 -0.128765,0.30692 -0.30974,0.34396 -0.31397,-0.15522 -0.367944,-0.5715 -0.65299,-0.75635 0.103717,0.42545 0.590549,0.64488 0.516113,1.13383 -0.44979,-0.27129 -0.439559,-1.00366 -0.859365,-1.30564 0.12841,0.63536 1.006826,1.31975 0.48119,1.95898 -0.122767,-0.0145 -0.183446,-0.0917 -0.343607,-0.0684 -0.05327,-0.13123 -0.0956,-0.27129 -0.206375,-0.34396 -0.0074,0.11042 0.06103,0.1457 0.03422,0.27517 -0.281517,0.018 -0.426508,-0.10019 -0.549627,-0.24095 0.01093,0.0797 -0.0056,0.13229 -0.03493,0.1718 -0.127,0.0215 -0.353483,-0.0557 -0.377473,0.0692 0.149225,0 0.297746,0 0.446617,0 0.09913,0.17568 0.174273,0.375 0.206375,0.61806 -0.203904,0.0254 -0.580319,-0.0561 -0.687563,-0.24024 0.09243,0.10231 -0.0085,0.21978 -0.03422,0.30939 0.129823,0.0307 0.204613,0.11642 0.206375,0.27446 -0.111477,0.0945 -0.440618,-0.0279 -0.549627,0.0688 0.07761,0.17957 0.263525,0.41558 0.240242,0.5842 -0.09772,0.0508 -0.362302,-0.0388 -0.377825,0.17216 0.178858,0.007 0.342548,-7.9e-4 0.480835,-0.0346 0.05045,0.0758 0.104423,0.14746 0.103365,0.27481 -0.223308,0.10583 -0.460023,-0.0533 -0.618419,0.0346 0.01024,0.28857 0.324909,0.41346 0.240242,0.68721 -0.115713,0.0219 -0.319265,-0.0441 -0.378177,0.0342 0.04974,0.35172 0.306914,0.4953 0.309737,0.89394 -0.2413,0.0448 -0.470958,-0.1016 -0.619125,-0.0346 -0.07091,0.19967 0.271992,0.21378 0.206375,0.51541 -0.160512,0.0109 -0.403225,-0.0596 -0.378177,0.13723 0.180975,0.0201 0.26035,-0.06 0.446617,-0.0342 0.09631,0.13264 0.17921,0.27905 0.240946,0.44697 -0.291394,0.0818 -0.620181,-0.21273 -0.927804,-0.0346 0.0074,0.10689 0.171098,0.0575 0.274815,0.0688 0.0381,0.14499 0.169685,0.19614 0.171801,0.37782 -0.347839,0.0183 -0.807508,-0.18909 -1.09996,0 0.387702,0.0713 0.762,0.15487 1.203325,0.1718 0.13335,0.21026 0.279398,0.40746 0.343604,0.68722 -0.151694,0.0698 -0.198612,-0.22719 -0.378177,-0.24095 -0.117123,-0.002 -0.05257,0.17674 -0.172156,0.17251 -0.582436,-0.0589 -1.1811,-0.28505 -1.786467,-0.20673 0.0046,0.0984 0.14323,0.0631 0.240596,0.0691 -0.111831,0.22577 0.02963,0.22471 0.03457,0.48119 -0.417336,0.0374 -0.430387,-0.5454 -0.584552,-0.85902 -0.173919,-0.35454 -0.345723,-0.70908 -0.618419,-0.89394 -0.0575,0.6477 0.479777,1.27988 0.549979,2.02777 -0.166862,0.0176 -0.152045,-0.1464 -0.309737,-0.13759 0.08784,0.14111 0.162629,0.29634 0.343604,0.34361 0.0035,-0.0536 -0.0046,-0.11924 0.06879,-0.10301 0.08925,0.3115 0.279048,0.52352 0.30974,0.89359 -0.207785,-0.01 -0.238125,-0.19791 -0.343958,-0.30939 z m -0.240594,0.0688 c -0.17639,-0.007 -0.204258,-0.16193 -0.240596,-0.30903 0.130881,-0.0857 0.335846,0.16863 0.240596,0.30903 z m -0.790575,-1.13383 c 0.02045,0.0716 0.08573,0.0981 0.06879,0.20567 -0.09419,-0.006 -0.184857,-0.19155 -0.06879,-0.20567 z m -0.137583,0.61878 c -0.07973,-0.012 -0.147463,-0.036 -0.17145,-0.10372 0.06526,-0.0642 0.08643,-0.004 0.17145,0 0,0.0342 0,0.0688 0,0.10372 z m -0.308682,-0.61878 c -0.159808,-0.0123 -0.226835,-0.11712 -0.274814,-0.24059 0.173214,-0.012 0.337608,0.12523 0.274814,0.24059 z m -0.516114,-0.58455 c 0.17145,0.0469 0.443441,-0.007 0.41275,0.24059 -0.135819,-0.0818 -0.371121,-0.0639 -0.41275,-0.24059 z m -0.206021,-0.54963 c 0.364067,-0.0321 0.50306,0.16193 0.51576,0.48119 -0.271991,-0.0173 -0.328789,-0.2226 -0.549981,-0.20638 0.09596,-0.13405 0.08502,-0.0942 0.03422,-0.27481 z m -0.618066,0.2406 c 0.136876,-0.0557 0.384526,0.0409 0.412043,0.20602 -0.174977,-0.0311 -0.312915,-0.0991 -0.412043,-0.20602 z m -0.30974,-0.5842 c 0.245181,0.091 0.640998,0.20214 0.5842,0.48083 -0.206023,-0.0801 -0.451909,-0.12065 -0.618067,-0.24024 0.02893,-0.12206 -0.09983,-0.20602 0.03387,-0.24059 z m -0.824442,-0.13724 c 0.145344,-0.0639 0.424392,10e-4 0.48119,0.13724 -0.141113,0.0593 -0.43674,0.0109 -0.48119,-0.13724 z m 0,-1.30598 c 0.0568,0.0579 0.186267,0.0427 0.240594,0.10266 0.01199,0.30868 0.2667,0.55774 0.17145,0.85937 -0.101952,-0.17286 -0.266346,-0.28328 -0.240242,-0.5842 -0.158044,-0.004 -0.335492,-0.27164 -0.171802,-0.37783 z m -0.549627,0.30939 c 0.452967,0.005 0.645935,0.26952 0.756002,0.61842 -0.335843,-0.12242 -0.822325,-0.0942 -0.756002,-0.61842 z m -0.137231,-0.44697 c 0.312208,-0.004 0.46849,0.14993 0.515056,0.41204 -0.285398,-0.0236 -0.563033,-0.0554 -0.515056,-0.41204 z M 54.487138,144.781 c 0.107598,0.007 0.251883,-0.0236 0.309033,0.0342 0.0019,0.0473 -0.01622,0.0755 -0.03422,0.10301 -0.112535,-0.0243 -0.258585,-0.0162 -0.274815,-0.13723 z m -0.206375,0.34361 c 0.135467,-0.0212 0.152048,0.0769 0.171805,0.1718 -0.07197,0.0617 -0.181682,-0.0473 -0.171805,-0.1718 z m -0.06844,0.96167 c 0.09842,-0.007 0.174977,0.009 0.206375,0.0692 -0.05609,0.0557 -0.216255,0.0416 -0.206375,-0.0692 z m 0.03422,-0.3429 c -0.06985,-0.079 -0.154516,-0.14358 -0.171801,-0.27552 0.149576,-0.14217 0.354541,0.19262 0.171801,0.27552 z m -0.481189,-0.79093 c 0.24765,-0.007 0.398288,0.0833 0.412398,0.30939 -0.176035,0.0624 -0.378532,-0.11783 -0.412398,-0.30939 z m -0.137584,0.34396 c 0.239538,-0.0335 0.259998,0.15311 0.309034,0.30939 -0.174977,-0.0314 -0.263525,-0.14852 -0.309034,-0.30939 z m -0.378177,-1.13418 c 0.179565,0.0727 0.512234,-0.008 0.48119,0.27517 -0.187679,-0.0198 -0.283281,-0.0208 -0.412398,-0.0342 -0.02858,-0.0748 -0.08855,-0.11748 -0.06879,-0.24095 z m -0.10301,-0.30903 c 0.264935,-0.0243 0.445204,0.0356 0.446969,0.27481 -0.117827,0.005 -0.468135,-0.0286 -0.446969,-0.27481 z m 0,0.9278 c 0.08996,-0.01 0.147812,0.0124 0.137935,0.10302 -0.08996,0.01 -0.148166,-0.0127 -0.137935,-0.10302 z m -0.309033,-0.75635 c 0.09207,-0.0674 0.22225,0.11994 0.240945,0.24094 -0.124883,0.0811 -0.26811,-0.0621 -0.240945,-0.24094 z m -0.687213,-0.34361 c 0.220488,-0.0483 0.248708,0.0949 0.446971,0.0692 0.01236,0.15875 0.12841,0.21484 0.103362,0.41204 -0.38735,0.043 -0.48895,-0.19932 -0.550333,-0.48119 z m 0.137231,0.9966 c 0.127,-0.001 0.236715,0.0155 0.240949,0.13758 -0.08643,0.0688 -0.235305,-0.0191 -0.240949,-0.13758 z m -0.274814,-0.68721 c -0.169334,0.0808 -0.197909,-0.2787 -0.06844,-0.27517 0.03916,0.0759 0.08819,0.14076 0.06844,0.27517 z m -0.41275,0.13758 c 0.01447,0.14641 0.288573,0.0328 0.275521,0.20602 -0.07162,0.0568 -0.43815,-0.13617 -0.275521,-0.20602 z m 0.137938,-1.03117 c -0.01871,-0.13017 -0.08326,-0.21449 -0.06915,-0.37747 0.603957,-0.0423 0.773642,0.34925 0.8255,0.85901 -0.324202,0.0145 -0.54892,-0.0699 -0.653343,-0.27516 -0.03034,-0.11042 0.11289,-0.0473 0.103365,-0.13759 -0.06386,-0.0275 -0.126297,-0.0568 -0.206375,-0.0688 z m -0.03457,0.54998 c 0,0.0459 0,0.0917 0,0.13759 -0.107598,0.0162 -0.140051,-0.0427 -0.171801,-0.10337 0.04022,-0.0286 0.09208,-0.0448 0.171801,-0.0342 z m -0.480835,-0.99659 c 0.280459,0.0854 0.343252,0.38981 0.412044,0.68721 -0.08079,0.0642 -0.229659,-0.0247 -0.343607,-0.0342 0.0092,-0.15769 -0.105478,-0.48507 -0.06844,-0.65299 z m -0.03457,-0.17181 c -0.08467,-0.0423 -0.2667,-0.31115 -0.10301,-0.37747 0.0024,0.13582 0.207433,0.24942 0.10301,0.37747 z m -0.515056,0.4124 c 0.117123,-0.0124 0.282929,0.10336 0.343606,0.0346 -0.157692,-0.19755 -0.62724,-0.0836 -0.618418,-0.44697 0.241651,0.01 0.469545,0.0342 0.618418,0.13759 0.08043,0.20708 0.03352,0.33126 0.10301,0.54962 -0.197202,0.20567 -0.500943,-0.12488 -0.446616,-0.27481 z m 0.102658,0.65299 c 0.182033,0.001 0.299508,0.0674 0.309388,0.2406 -0.138996,-0.0441 -0.302332,-0.0642 -0.309388,-0.2406 z m -0.309033,-0.20637 c 0.0575,0 0.114654,0 0.172156,0 -0.0019,0.0476 0.01553,0.0758 0.03422,0.10336 -0.06667,0.0617 -0.212371,0.01 -0.206376,-0.10336 z M 50.019919,141.86 c 0.33373,0.0928 0.979665,0.048 0.858663,0.48119 -0.288573,-0.15804 -0.837496,-0.0561 -0.858663,-0.48119 z m -0.206375,0.51541 c 0.13829,-0.0466 0.445558,0.004 0.41275,0.2406 -0.175329,-0.0427 -0.38876,-0.0466 -0.41275,-0.2406 z m -0.10301,-0.54998 c 0.153458,-0.0162 0.171802,0.10301 0.171802,0.24095 -0.124529,-0.008 -0.268817,-0.11854 -0.171802,-0.24095 z m -0.137935,0.92816 c -0.07761,-0.0942 -0.256472,-0.0875 -0.240242,-0.27517 0.112887,-0.0737 0.400402,0.17675 0.240242,0.27517 z m -0.446265,-1.03117 c 0.10301,-0.0776 0.253293,0.0265 0.206023,0.20602 -0.134057,-0.003 -0.233188,-0.0416 -0.206023,-0.20602 z m -0.240594,-0.48119 c 0.179917,-0.008 0.36336,-0.0194 0.309034,0.20638 -0.172863,7.9e-4 -0.300922,-0.0427 -0.309034,-0.20638 z m -0.240241,0.4124 c 0.08467,-0.005 0.1651,-0.005 0.20602,0.0349 0,0.0339 0,0.0684 0,0.10266 -0.128058,0.0138 -0.201435,-0.0272 -0.20602,-0.13758 z M 48.507561,141.86 c 0.210256,0.0646 0.401463,0.14852 0.447323,0.37818 -0.20179,-0.0564 -0.464609,-0.21484 -0.447323,-0.37818 z m -0.480484,-1.54657 c 0.07021,0.22719 0.244123,0.35136 0.274815,0.61841 -0.182033,-0.0935 -0.325967,-0.40675 -0.274815,-0.61841 z m 0.103013,0.85936 c -0.0829,0.0141 -0.07514,-0.0628 -0.17145,-0.0346 -0.03281,-0.14887 0.206727,-0.10619 0.17145,0.0346 z m -0.309388,-0.58455 c -0.173918,-0.11254 -0.279752,-0.29316 -0.378177,-0.48084 0.09596,-0.0709 0.236009,0.0437 0.343959,0.0688 0.0028,0.14605 0.05715,0.24025 0.03422,0.41205 z m -0.824793,-1.06504 c 0.257175,-0.0282 0.384175,0.0741 0.618773,0.0684 0.02893,0.0945 0.111125,0.24977 0.03422,0.34396 -0.304093,-0.0519 -0.595841,-0.11465 -0.652991,-0.4124 z m -0.309385,0.13794 c 0,-0.0695 0,-0.13794 0,-0.20673 0.179562,0.0148 0.267051,0.12206 0.274812,0.30974 -0.127352,0.001 -0.198967,-0.0529 -0.274812,-0.10301 z m 0.06879,0.51505 c 0,-0.0804 0,-0.16016 0,-0.24059 0.51435,0.001 0.704144,0.32667 0.859367,0.68721 -0.318913,-0.11642 -0.563388,-0.30727 -0.859367,-0.44662 z m 0.412044,0.41205 c 0.102306,0.0127 0.17004,0.0596 0.206375,0.13794 -0.08396,-0.0307 -0.197909,-0.0314 -0.206375,-0.13794 z m -0.343607,-0.23989 c 0.0088,0.11677 0.182388,0.0695 0.206023,0.17145 -0.106539,0.002 -0.287866,-0.0981 -0.206023,-0.17145 z m -0.309033,-0.72213 c -0.123119,-0.0257 -0.218369,-0.079 -0.240594,-0.20603 0.09913,0.004 0.225074,-0.019 0.274815,0.0342 0.01093,0.0797 -0.0053,0.13229 -0.03422,0.17181 z m -0.378177,-0.37783 c -0.1143,-0.18274 -0.285398,-0.30974 -0.274815,-0.61807 0.215197,-0.0321 0.325263,0.0409 0.48119,0.0684 -0.01093,0.22825 0.146402,0.28857 0.102658,0.54963 -0.108301,0.0473 -0.162983,-0.13829 -0.309033,0 z m -0.343252,0.13758 c 0.07973,-0.19755 0.369359,-0.0716 0.343252,0.13723 -0.147815,-0.0123 -0.300215,-0.0205 -0.343252,-0.13723 z m -0.103013,-0.27516 c -0.13617,-0.0953 -0.239183,-0.11783 -0.412395,-0.0342 -0.0702,-0.0787 -0.154871,-0.14288 -0.172157,-0.27482 0.06068,-0.008 0.172157,0.0346 0.137936,-0.0684 -0.213784,0.007 -0.321734,-0.0921 -0.378884,-0.24094 0.382413,-0.0568 1.035405,0.0829 0.8255,0.61842 z m -0.275166,0.10336 c 0.100896,0.002 0.194029,0.0124 0.172508,0.13723 -0.112535,0.009 -0.16651,-0.0406 -0.172508,-0.13723 z m -0.481187,0.10336 c 0.229303,-0.0808 0.360537,0.17286 0.515408,0.27411 -0.159457,0.0254 -0.419455,-0.12417 -0.515408,-0.27411 z m -0.309034,-0.85971 c 0.0074,-0.0268 0.02822,-0.0399 0.06844,-0.0342 0.04375,0.18627 0.207082,0.25154 0.240597,0.44662 -0.249415,0.009 -0.20673,-0.27411 -0.309034,-0.41239 z m 0.75565,-0.20603 c -0.323498,-0.0198 -0.566915,-0.1203 -0.824796,-0.20637 0,-0.0914 0,-0.18309 0,-0.27446 0.380296,0.067 0.715788,0.1591 1.065742,0.17145 0.02328,0.13723 0.07444,0.24623 0.06879,0.41275 -0.258585,0.006 -0.173566,-0.33126 -0.378528,-0.37818 -0.02857,0.14358 0.06668,0.16192 0.06879,0.27481 z m -1.271058,0.51541 c 0.236712,-0.008 0.310092,0.14817 0.412043,0.27517 -0.144991,-0.0833 -0.354541,-0.10372 -0.412043,-0.27517 z m -1.099968,-1.30564 c 0.4445,0.18591 0.900996,0.0632 1.408996,0.27481 -0.0042,0.0988 0.01905,0.22508 -0.03422,0.27517 -0.1397,0.0134 -0.105479,-0.14605 -0.206727,-0.17216 -0.265993,0.15523 -0.943681,-0.14957 -1.168048,-0.37782 z m 0.240596,0.34361 c 0.12841,0.0198 0.256821,0.0409 0.275519,0.1718 -0.140052,-0.01 -0.280107,-0.0187 -0.275519,-0.1718 z m 0.412396,-0.44662 c -0.261409,-0.002 -0.481542,-0.0455 -0.618771,-0.17216 0.158396,-0.0233 0.502709,0.0416 0.618771,0.17216 z m 0.550333,-0.61877 c -0.139345,-0.078 -0.329845,-0.10584 -0.481542,-0.17181 -0.0081,-0.15169 -0.06985,-0.25011 -0.06879,-0.41275 0.199321,-0.004 0.324556,0.0649 0.515056,0.0692 -0.0064,0.17886 0.104423,0.38453 0.03528,0.51541 z m -0.44732,0.10301 c 0.161925,-0.09 0.344662,0.0579 0.51576,0.0684 -0.02928,0.1912 0.117827,0.34607 0.03422,0.48189 -0.121353,0.0296 -0.360185,-0.0903 -0.515408,-0.13794 2.65e-4,-0.14992 0.0113,-0.30867 -0.03457,-0.41239 z m -1.1684,-0.82444 c 0.303387,-0.10337 0.560562,0.12241 0.893585,0.10301 0.04903,0.12276 0.09807,0.24518 0.103365,0.4124 -0.32879,-0.17569 -1.007182,-0.001 -0.99695,-0.51541 z m 0.06879,0.54962 c 0.38241,0.0296 0.686504,0.13829 0.996596,0.2406 -0.02822,0.1845 0.0695,0.28151 0,0.41204 -0.397227,-0.1531 -0.959909,-0.13934 -0.996596,-0.65264 z m -0.206375,0.61842 c -0.0049,-0.085 -0.006,-0.16651 0.06844,-0.1718 0.07091,0.0554 0.09384,0.18556 -0.06844,0.1718 z M 41.60087,135.7774 c 0.328084,0.0152 0.605367,0.0818 0.858663,0.1718 -0.0067,0.10795 0.02328,0.25259 -0.03422,0.30903 -0.289629,-0.14499 -0.578908,-0.29104 -0.824442,-0.48083 z m 0.377825,0.79057 c 0.01447,-0.0818 0.231423,-0.11112 0.240597,0 -0.05433,0.0692 -0.191559,0.0995 -0.240597,0 z m -0.172153,0.13759 c 0.191203,-0.0614 0.400753,0.085 0.44732,0.27481 -0.209902,-0.0314 -0.3429,-0.13864 -0.44732,-0.27481 z m -0.412047,-0.27517 c 0.189797,0.006 0.301273,0.0889 0.343607,0.24095 -0.18556,-0.009 -0.340077,-0.0497 -0.343607,-0.24095 z m -0.824793,-1.20227 c 0.296685,0.0695 0.637823,0.0945 0.824793,0.27446 -0.264583,0.0356 -0.766233,0.0106 -0.824793,-0.27446 z m 0.06879,0.61807 c 0.08749,0.004 0.176742,0.007 0.172157,0.10301 -0.10795,0.0166 -0.140758,-0.0423 -0.172157,-0.10301 z m 0.756002,-0.85866 c 0.0019,0.15064 0.024,0.32173 -0.10301,0.3436 -0.174977,-0.23741 -0.721783,-0.10301 -0.721783,-0.51576 0.263877,-0.0635 0.619477,0.0635 0.824793,0.17216 z m 0.103365,-0.13794 c -0.07973,-0.15416 -0.06173,-0.41839 -0.06879,-0.72143 0.122415,-0.0261 0.236009,0.10654 0.274461,-0.0339 -0.0829,-0.0543 -0.14605,-0.12912 -0.309034,-0.10372 -0.02082,-0.0819 -0.04904,-0.15663 -0.03422,-0.27517 0.226131,-0.091 0.508352,0.0356 0.721431,0.0692 0.07514,0.35983 0.114652,0.75565 0.137584,1.1684 -0.245182,-0.0293 -0.49389,-0.0564 -0.721432,-0.10337 z m -0.03457,0.17181 c 0.213783,-0.13864 0.509413,0.0952 0.824442,0.0691 0,0.23566 0.130881,0.5013 0.06879,0.68686 -0.310795,-0.0208 -0.52846,-0.13547 -0.824441,-0.17145 0.06703,-0.20179 -0.0702,-0.35031 -0.06879,-0.58455 z m -0.893585,-1.03082 c 0.244475,0.019 0.470606,0.0564 0.687916,0.10372 -0.0011,0.22577 0.128765,0.47872 0.03387,0.68686 -0.222956,-0.0413 -0.47131,-0.055 -0.618773,-0.17181 0.159105,-0.127 -0.3302,-0.31221 -0.10301,-0.61877 z m 0.653343,-0.0342 c -0.218016,-0.18344 -0.741185,-0.0607 -0.756353,-0.44697 0.295978,-0.01 0.46355,0.10936 0.756353,0.10337 -0.03104,0.14569 0.08961,0.24341 0,0.3436 z m -0.859718,0.9966 c -0.04657,-0.0462 -0.06527,-0.24024 0.03457,-0.2406 0.04692,0.0462 0.06526,0.23989 -0.03457,0.2406 z m -0.137232,-0.51576 c 0.0441,-0.0466 0.16228,-0.0466 0.206375,0 0,0.0346 0,0.0691 0,0.10301 -0.03986,0.0293 -0.09207,0.0459 -0.172153,0.0346 0.0032,-0.0596 -0.0074,-0.10654 -0.03422,-0.13758 z m -0.03422,-0.51506 c 0.204258,-0.0321 0.216958,0.27093 0.17145,0.37818 -0.183444,0.0113 -0.240948,-0.2473 -0.17145,-0.37818 z m -0.206375,0.99624 c 0.0949,0.0198 0.192616,0.0363 0.17145,0.17216 -0.09419,-0.0201 -0.192265,-0.0367 -0.17145,-0.17216 z m -0.240594,-0.0688 c -0.01376,-0.0663 -0.13335,-0.0272 -0.103013,-0.13723 0.07973,-0.0109 0.132292,0.005 0.171805,0.0342 0.0019,0.0593 -0.02611,0.0878 -0.06879,0.10301 z m 0.343604,-0.58349 c 0,0.0797 0,0.16051 0,0.24024 -0.183444,0.0116 -0.328435,-0.0152 -0.446617,-0.0691 -0.05292,-0.36619 0.263173,-0.25436 0.446617,-0.1711 z m -0.03422,-0.34396 c 0,0.0572 0,0.11465 0,0.17216 -0.09454,0.0519 -0.269168,-0.06 -0.377825,-0.10372 0,-0.0572 0,-0.1143 0,-0.1718 0.15734,0.003 0.238832,0.0822 0.377825,0.10336 z m -0.412398,-0.79057 c 0,-0.18345 0,-0.36654 0,-0.55034 0.243771,-0.0138 0.426157,0.0332 0.549982,0.13829 -0.02469,0.21731 0.106891,0.42969 0.03422,0.58385 -0.20461,-0.0469 -0.389112,-0.11465 -0.5842,-0.1718 z m 0.06879,0.10336 c 0.115713,0.12453 0.346075,0.13511 0.54963,0.17145 0.0042,0.14323 0.16016,0.42757 -0.06844,0.4124 -0.08396,-0.0808 0.05151,-0.0639 0.03422,-0.17145 -0.06985,-0.0328 -0.135818,-0.0702 -0.206375,-0.10337 -0.08573,0.0653 0.07232,0.17851 -0.06844,0.20638 -0.194029,-0.0279 -0.428979,-0.32914 -0.240596,-0.51541 z m -0.480835,0.37783 c -0.162632,0.0134 -0.286457,-0.0113 -0.412044,-0.0342 -0.07408,-0.42791 0.364067,-0.11571 0.412044,0.0342 z m 0.274814,-0.37783 c 0.0042,0.0843 0.0046,0.16545 -0.03457,0.20602 -0.189441,-0.14252 -0.569735,-0.0952 -0.618066,-0.37782 0.257175,0.0173 0.433916,0.11535 0.652639,0.1718 z m -0.686858,-0.75636 c 0.143579,-0.15099 0.346779,0.0684 0.617712,0 0.0762,0.20391 0.01728,0.36407 0.06915,0.55034 -0.217664,0.0716 -0.493183,-0.0737 -0.686858,-0.13759 0,-0.0462 0,-0.0917 0,-0.13793 -0.01516,-0.0949 0.127352,-0.0317 0.137229,-0.10301 -0.05362,-0.0494 -0.119592,-0.0864 -0.137229,-0.17181 z m 0.686858,1.92476 c -0.240596,-0.13794 -0.583496,-0.17286 -0.721079,-0.41275 0.188738,-0.0624 0.289983,0.14288 0.412046,0.0346 -0.06527,-0.14146 -0.340431,-0.072 -0.377825,-0.24059 0.201083,0.009 0.488244,0.18803 0.721077,0.27481 -0.0092,0.11677 0.02681,0.27905 -0.03422,0.34396 z m -0.515408,-0.10301 c 0.05997,0.12276 0.289983,0.0759 0.274812,0.27446 -0.14746,0.12841 -0.446262,-0.19826 -0.274812,-0.27446 z m -0.618773,-0.79093 c -0.01693,0.0857 0.0019,0.20743 -0.10301,0.20602 -0.146757,-0.14605 -0.349957,-0.66393 -0.102659,-0.78951 0.06668,0.29915 0.567619,0.16474 0.549627,0.54927 -0.06562,0.061 -0.226835,0.0254 -0.343958,0.0342 z m -0.171802,-2.54247 c 0.142875,0.44415 -0.11924,0.77188 -0.274815,1.03082 0.0011,-0.43392 -0.0021,-0.87313 0.274815,-1.03082 z m 0.06879,-0.24059 c -0.152048,-0.20215 0.07514,-0.57785 0.172154,-0.75601 0.02822,0.16651 0.04551,0.64171 -0.172154,0.75601 z m -0.172157,1.37442 c 0.02893,-0.10866 -0.01341,-0.28857 0.103365,-0.30939 -0.07408,0.0635 0.03563,0.3108 -0.103365,0.30939 z m 0.515761,0.79057 c -0.119238,-0.0328 0.02222,-0.11077 -0.06844,-0.1718 -0.170039,-0.0261 -0.208491,-0.0261 -0.377825,0 0.07091,-0.29563 0.201788,-0.53164 0.205669,-0.89359 0.116065,-0.0102 0.122767,-0.12946 0.275167,-0.10336 -0.0053,0.35137 0.06632,0.56903 -0.103011,0.756 0.166511,-0.0226 0.196496,0.35737 0.06844,0.41275 z m -0.137229,-3.78001 c 0.04727,-0.10548 0.200377,-0.5655 0.137229,-0.20638 -0.09807,0.5581 -0.541513,1.43334 -0.687211,1.8214 0.0074,-0.7359 0.353484,-1.18005 0.549982,-1.61502 z m 1.92405,-3.57399 c -0.620184,0.93733 -1.056217,2.05916 -1.718382,2.95557 0.281869,-1.27635 0.965552,-2.14983 1.718382,-2.95557 z m 9.1059,-3.23039 c -0.555625,0.63535 -2.022123,0.35984 -2.748492,0.8248 0.223309,-1.06327 1.556809,-0.96556 2.748492,-0.8248 z m 0.378529,0.0688 c -0.540102,1.15535 -1.937809,1.45274 -2.508602,2.5774 -0.267407,-0.17498 -0.510469,-0.1711 -0.756002,-0.37783 -0.666398,-1.97767 2.4638,-1.24213 3.264604,-2.19957 z m -1.511652,3.29918 c -0.458965,-0.0914 -0.800807,-0.29915 -0.756002,-0.89358 0.780343,-0.74225 1.687335,-1.35926 2.405237,-2.165 0.06879,1.63795 -1.496129,1.64253 -1.649235,3.05858 z m 1.924402,-2.64583 c 0.2667,0.58667 0.877713,1.13312 0.652288,1.92405 -0.175684,0.61595 -1.066097,0.91193 -1.168049,1.5808 -0.839258,0.10724 -1.278466,-0.56269 -1.133826,-1.2372 0.0889,-0.41451 0.732718,-0.65193 1.065035,-1.13382 0.283985,-0.41134 0.399698,-0.9458 0.584552,-1.13383 z m 1.476729,2.33645 c -0.153458,0.66286 -0.989896,1.7406 -1.683104,1.27141 0.01553,-0.77435 0.929216,-1.01318 1.065038,-1.68381 0.192616,-0.95144 -0.549982,-1.4725 -0.515057,-2.19922 0.59549,0.42616 1.402292,1.45486 1.133123,2.61162 z m -1.168048,1.6838 c 0.322085,-0.22542 0.790575,0.006 0.859015,0.34396 -0.291042,0.0236 -0.683683,-0.13793 -0.859015,-0.34396 z m 0.618773,0.72144 c -0.293513,-0.0956 -0.55739,-0.2212 -0.721431,-0.44627 0.331965,0.0346 0.636058,0.27905 0.721431,0.44627 z m -0.103013,-0.24025 c 0.04692,-0.17533 0.442032,0.0755 0.446265,0.27482 -0.193675,-0.0462 -0.316793,-0.1644 -0.446265,-0.27482 z m 1.374775,-1.9244 c -0.06209,0.15628 -0.436385,0.39582 -0.549978,0.54998 -0.197557,0.26705 -0.318559,0.6036 -0.653347,0.54963 0.261409,-0.53164 0.827617,-1.1176 0.721784,-2.06234 -0.06209,-0.5581 -0.366536,-1.0227 -0.446969,-1.37407 0.530577,0.38665 1.305277,1.37795 0.92851,2.3368 z m 1.167697,-0.9278 c -0.407459,-0.76095 -1.192038,-1.14406 -1.752249,-1.7526 0.94615,0.19896 1.710974,0.76305 1.752249,1.7526 z m -1.477434,-1.2372 c 0.378177,0.54434 1.402644,0.7493 1.168752,1.68381 -0.211667,0.0522 -0.356306,0.17075 -0.5842,0.20638 0.06491,-0.84526 -0.417335,-1.50637 -0.584552,-1.89019 z m 2.887134,1.03082 c -0.467784,1.38818 -1.938163,1.77341 -2.440165,3.12738 -0.554919,-0.34784 -0.892175,-0.89783 -0.412398,-1.47744 0.608541,-0.7366 2.233438,-1.02623 2.852563,-1.64994 z m -1.47814,4.05553 c -0.361244,0.13829 -0.594784,-0.13546 -0.68721,-0.37853 0.05962,-0.0896 0.23495,-0.0631 0.206375,-0.24059 -0.0568,-0.0579 -0.186622,-0.043 -0.240597,-0.10301 0.358072,-1.38289 1.714855,-1.76636 2.30223,-2.92136 -0.386998,1.3007 -1.856671,2.01789 -1.580798,3.64349 z m -0.240242,0.75565 c 0.36054,0.1203 0.707673,0.25471 0.893233,0.54963 -0.354541,-0.127 -0.642056,-0.32032 -0.893233,-0.54963 z m 0.412044,0.653 c -0.04586,-0.11536 -0.213784,-0.10725 -0.274812,-0.20638 0.06844,0 0.137228,0 0.206375,0 -0.06244,0.13335 0.195437,0.12065 0.06844,0.20638 z m 0.721783,0.0684 c -0.100894,-0.002 -0.194027,-0.0123 -0.171802,-0.13723 0.08326,0.019 0.176742,0.0293 0.171802,0.13723 z m -0.274806,-0.54997 c -0.09208,-0.0452 -0.20179,-0.0737 -0.172508,-0.24024 0.107595,0.0533 0.28857,0.0328 0.343958,0.13723 -0.08043,0.0109 -0.06386,0.11924 -0.17145,0.10301 z m 0.549627,-0.41204 c -0.7112,0.26388 -1.177219,-0.82974 -0.996598,-1.3402 0.327731,-0.9264 1.419931,-2.04894 1.718381,-2.81835 -0.187325,1.4531 -1.646415,2.73509 -0.721783,4.15855 z m 1.06539,-3.84845 c 0.220837,0.70026 0.758825,1.26753 0.549626,2.13042 -0.140051,0.57644 -0.742243,1.03223 -0.790575,1.64888 -0.409223,0.16934 -0.754239,-0.26387 -0.85866,-0.54927 -0.426156,-1.16099 0.918985,-2.28 1.030817,-3.3334 0.0081,0.049 0.05609,0.0579 0.06879,0.10337 z m 1.546225,2.26765 c 0.113945,0.95215 -0.381355,2.16253 -1.305632,1.82139 -0.534106,-0.85054 0.478015,-1.26612 0.549627,-2.13042 0.05645,-0.67839 -0.196144,-1.10349 -0.378177,-1.5808 0.348898,0.26599 1.045633,1.15358 1.134182,1.88983 z m 1.580443,-0.24059 c -0.02506,0.26423 -0.177093,0.46143 -0.515408,0.48119 -0.03986,-1.55187 -1.439334,-1.74484 -2.061634,-2.71534 0.789517,0.52212 2.70369,0.93487 2.577042,2.23415 z m 0.480835,-0.0684 c -0.08043,-0.001 -0.100541,0.0589 -0.205668,0.0339 -0.07867,-0.29881 -0.224015,-0.53199 -0.309034,-0.82445 0.248002,0.18733 0.461082,0.40958 0.514702,0.79058 z m -1.099253,4.05483 c -0.44944,-0.12489 -0.90029,-0.42651 -1.065038,-0.72214 0.372181,0.22331 0.735189,0.45579 1.065038,0.72214 z m 0.756001,-3.47099 c -0.589139,0.60149 -1.14935,1.23296 -1.443214,2.13078 -0.519287,-1.22802 0.737306,-1.8108 1.443214,-2.13078 z m -2.268008,-1.88982 c 0.746125,0.28151 1.430867,1.03892 1.374423,2.13042 -0.225073,0.1531 -0.390879,0.36477 -0.65264,0.48119 0.276225,-1.16346 -0.258939,-1.90747 -0.721783,-2.61161 z m 3.127375,1.44286 c -0.135115,1.44815 -1.965677,2.52483 -0.928158,3.88337 -0.519994,-0.11288 -0.986015,-0.42403 -1.06539,-0.89358 -0.243417,-1.44216 1.384655,-2.2673 1.993548,-2.98979 z m 0.03422,4.60516 c -0.140404,0.12453 -0.395462,-0.012 -0.550334,0.13758 -0.06914,-0.40605 -0.766937,-0.46602 -1.030816,-0.79058 0.634296,0.11043 1.111604,0.37783 1.58115,0.653 z m 0.274814,-4.63938 c 1.203677,0.7112 -0.440618,1.96426 -0.343606,3.12702 0.03916,0.47166 0.353131,0.62018 0.446617,1.16875 -0.205669,-0.0494 -0.336196,0.0409 -0.583846,0.0342 -0.308681,-0.49248 -1.016354,-0.762 -0.893588,-1.54658 0.1397,-0.89358 1.32433,-1.887 1.374423,-2.78341 z m 1.821392,4.87997 c 0.125587,0.0254 0.191204,-0.0847 0.274812,0 0.02294,0.12559 -0.07443,0.13159 -0.06879,0.24024 0.08996,0.0173 0.193675,0.11148 0.103012,0.20567 -0.113948,-0.13723 -0.248708,-0.254 -0.309034,-0.44591 z m -0.240242,0.41205 c 0.321734,-0.0702 0.382411,0.12065 0.377825,0.37853 -0.261762,0.13158 -0.586668,-0.13229 -0.377825,-0.37853 z m -0.343958,-0.0342 c 0.0021,-0.06 -0.0078,-0.10689 -0.03457,-0.13759 0.166513,-0.13017 0.297746,0.16792 0.03457,0.13759 z m 0.10301,-0.4124 c 0.07303,0.0762 0.2921,0.006 0.275167,0.1718 -0.135819,0.008 -0.356304,-0.0773 -0.275167,-0.1718 z m -0.928158,-0.27482 c -0.01341,0.12383 -0.05539,0.21873 -0.17145,0.24025 -0.118533,-0.0759 -0.276929,-0.11254 -0.343604,-0.24025 0.106892,-0.055 0.408869,-0.055 0.515054,0 z m 0.652992,0.13759 c -0.184854,0.0113 -0.348192,0.14781 -0.412044,-0.0688 0.100542,-0.066 0.414867,-0.14288 0.412044,0.0688 z m -0.274462,-0.34402 c -1.538816,-0.59831 -0.599368,-2.54494 -0.06879,-3.57399 0.308327,0.59972 0.96167,1.14018 0.859366,1.95897 -0.06526,0.52 -0.818798,0.94509 -0.790576,1.61502 z m 1.648884,0.34396 c 0.02963,0.12982 -0.153459,0.121 -0.205671,0.0688 -0.02963,-0.13018 0.153812,-0.12241 0.205671,-0.0688 z m -0.583496,-0.0688 c -0.218721,-0.0794 -0.370414,-0.22543 -0.653344,-0.2406 -0.05044,-0.83502 0.672394,-1.06574 0.687565,-1.88983 0.01833,-1.02129 -0.931685,-1.53211 -1.305632,-2.33715 1.65594,0.27446 2.840919,3.23286 1.271411,4.46758 z m 1.134181,-0.13794 c -0.149577,0 -0.298098,0 -0.447675,0 0.634294,-1.19768 0.101952,-3.08151 -0.617715,-3.77966 1.143,0.58949 2.716741,2.7118 1.06539,3.77966 z m -0.172156,2.13043 c -0.09207,0.12347 -0.301625,-0.1069 -0.240594,-0.13688 0.02858,0.0981 0.248708,0.003 0.240594,0.13688 z m -0.275519,-5.91009 c 0.743302,0.46814 1.779057,1.23119 1.890534,2.26836 0.08502,0.79304 -0.977544,2.18687 -1.683807,1.75225 0.579263,-0.0508 0.704146,-0.55633 1.099607,-0.79022 0.457554,-1.62666 -0.739067,-2.36644 -1.409344,-3.19617 0.04409,-10e-4 0.04798,-0.0441 0.10301,-0.0342 z m 1.993547,2.81799 c 0.262818,-1.20474 -0.575734,-1.86584 -1.099607,-2.50825 1.144409,-0.43004 2.646184,1.94839 1.099607,2.50825 z m -1.512005,1.58044 c 0.163335,0.0141 0.180975,-0.11712 0.343606,-0.10301 -0.03598,0.13582 -0.05892,0.28505 -0.206023,0.30868 -0.06491,-0.0487 -0.152752,-0.0762 -0.137583,-0.20567 z m -0.103011,0.51576 c 0.03986,-0.0286 0.09207,-0.0459 0.171802,-0.0339 0.02893,0.0392 0.04516,0.0921 0.03422,0.17145 -0.129469,0.0145 -0.156633,-0.0727 -0.206021,-0.13759 z m 0.240594,0.72144 c 0.01093,0.0794 -0.0053,0.13193 -0.03457,0.1718 -0.118179,-0.008 -0.149929,-0.10231 -0.17145,-0.20603 0.08467,-0.005 0.1651,-0.005 0.206023,0.0342 z m 0.927805,-0.79058 c -0.0568,0.87348 0.427212,1.7914 0.68721,2.37137 -0.751064,-0.24059 -1.500715,-1.21144 -1.443213,-2.02741 0.04092,-0.58244 0.376063,-0.8696 0.65299,-1.30598 0.421217,-0.66499 0.974373,-1.15606 1.477434,-1.47779 -0.348192,0.85831 -1.298575,1.25624 -1.374421,2.43981 z m 1.821037,-2.74885 c 0.03422,0 0.06879,0 0.103365,0 -0.770467,1.44287 -0.893585,3.83893 -0.03457,5.2578 -0.182737,0.0695 -0.351719,-0.14534 -0.652637,-0.0688 -0.611013,-0.50835 -1.084792,-1.42487 -1.030817,-2.40488 0.06985,-1.28305 1.35396,-1.75789 1.614662,-2.78413 z m 0.515763,1.1684 c 0.0762,0.87454 0.322437,1.19874 0.618419,1.88984 0.273756,0.63852 -0.155223,1.7847 0.206023,2.19956 -0.502005,0.17322 -0.826913,-0.28081 -1.030817,-0.61877 -0.108656,-0.0166 -0.121356,0.0621 -0.240596,0.0342 -0.839962,-1.51518 -0.255058,-3.80047 0.446971,-5.05107 0.07479,0.45156 -0.04163,1.06433 0,1.54622 z m 0.240594,-1.03152 c 0.0074,-0.0261 0.02858,-0.0392 0.06879,-0.0339 0.478367,1.85137 2.193573,2.86632 1.5113,5.46417 -1.296106,-0.0233 -0.703439,-1.64924 -0.962025,-2.47438 -0.236008,-0.75389 -0.950735,-1.73214 -0.618066,-2.95593 z m 0.27446,-0.5147 c 0.739775,1.21991 2.586215,2.50049 2.74955,4.15784 0.05327,0.54187 -0.35701,1.15852 -0.378529,1.5808 -0.221546,0.14005 -0.547865,0.0991 -0.75565,-0.0342 0.555625,-2.80212 -1.453092,-3.47804 -1.718029,-5.6702 0.04375,-0.002 0.04763,-0.0441 0.102658,-0.0342 z m 3.917598,1.92405 c 0.643467,0.67522 1.335617,2.38725 0.137583,2.81764 0.09349,-0.51365 -0.07937,-0.96027 -0.240593,-1.27106 -0.411692,-0.79128 -0.880888,-1.52118 -1.580798,-1.95862 -0.446265,-0.2794 -1.057275,-0.393 -1.237192,-0.92816 0.989894,0.25647 2.15124,0.53234 2.921,1.3402 z m -0.136877,2.64654 c 0,-0.1838 0,-0.36689 0,-0.55069 0.153458,0.0752 0.192262,0.50977 0,0.55069 z m -0.378179,0.96202 c 0.547864,-0.0864 0.881946,0.62724 1.236487,0.96168 0.166511,-0.037 0.45085,0.0353 0.515409,0.20637 -0.7874,0.11959 -1.222023,-0.72425 -1.751896,-1.16805 z m -1.512359,-3.98639 c 0.838907,0.45862 2.174523,1.85174 1.615017,3.43641 -0.08819,0.24977 -0.355952,0.4124 -0.652637,0.51541 0.543983,-1.70674 -0.72108,-2.83774 -0.96238,-3.95182 z m 1.030817,5.73864 c -0.08996,0.0811 -0.230717,0.11324 -0.378177,0.13759 -0.582435,-0.25295 -1.144058,-0.73273 -1.718027,-1.09961 0.278342,0.0141 0.522462,-0.005 0.721783,-0.0692 0.451909,0.34996 0.985309,0.61842 1.374421,1.03117 z m 1.237192,-0.44661 c -0.111477,0.21201 -0.615596,0.25188 -0.790575,0.10301 0.01482,0.0653 0.09878,0.0621 0.06879,0.1718 -0.772935,0.19191 -1.31727,-0.68369 -1.889829,-1.03117 0.606071,0.14464 0.894644,-0.133 1.202971,-0.37747 0.104775,0.17744 0.307271,0.0642 0.446617,0 0.504473,0.31997 0.928864,0.72002 1.340204,1.13383 -0.267758,-0.0413 -0.461433,-0.26353 -0.515763,-0.4124 -0.527754,0.20002 -0.8001,-0.58385 -1.305277,-0.51541 0.518584,0.27093 0.927452,0.65228 1.442861,0.92781 z m 1.993548,0.1718 c -0.279048,-0.0155 -0.512586,0.0148 -0.756709,0.0342 0.05327,-0.2159 0.650523,-0.17463 0.756709,-0.0342 z m 0.17145,-0.85937 c -0.166865,0.0279 -0.209198,-0.24659 -0.378177,-0.10301 0.02858,0.20038 0.213077,0.24518 0.275166,0.41204 -0.201437,0.007 -0.182739,-0.20672 -0.378179,-0.20602 -0.134408,0.20602 0.148521,0.25365 0.206375,0.37818 -1.099254,-0.14393 -1.748719,-0.74754 -2.405592,-1.409 0.156988,-0.10371 0.324557,-0.0349 0.549982,-0.10301 0.02963,0.0854 -0.0092,0.23813 0.10301,0.2406 0.113948,-0.0692 0.06421,-0.30198 0.137583,-0.4124 0.563388,0.46708 1.411817,0.64982 1.889832,1.20262 z m 8.384468,6.4262 c -1.014941,-1.84891 -2.55411,-3.17253 -4.226983,-4.36421 -0.113946,-0.0236 -0.0381,-0.23601 -0.137229,-0.27482 -2.035175,-0.97719 -3.882673,-2.14242 -5.773208,-3.2646 0.515408,-0.28963 0.440266,-1.23049 0.171802,-1.89019 -0.33514,-0.82444 -1.576917,-1.88136 -2.57669,-2.13042 -0.640644,-0.15946 -1.285169,-0.11818 -1.718379,-0.48084 -0.255413,-0.21413 -0.493538,-1.31903 -0.790575,-1.33985 -0.407458,-0.0296 -0.613129,1.41217 -1.099608,1.47708 -0.235657,-2.18122 -2.695222,-2.13818 -4.260849,-2.98979 -0.442031,-0.13547 -0.796218,-1.12289 -1.237192,-1.03082 -0.314676,0.066 -0.234243,0.74295 -0.549626,0.89359 -0.231775,-0.0243 -0.364422,-0.43462 -0.515763,-0.65264 -0.750711,-0.81809 -2.092325,-1.04598 -2.989086,-1.71838 -0.128058,-0.30762 -0.278693,-0.59267 -0.446968,-0.85901 -0.705908,0.27904 -1.035757,0.93451 -1.752955,1.20262 -0.252941,-1.01635 -0.6985,-1.67781 -1.545518,-2.06164 -0.832202,-0.37711 -1.841852,-0.44696 -2.061985,-1.44356 -0.400757,-0.15805 -0.56868,0.47625 -0.859367,0.65299 -0.70838,0.20673 -1.55293,-0.16828 -2.164998,0.10301 -2.247548,-0.18556 -4.479573,0.7172 -5.91044,1.92476 -0.779637,0.65687 -1.522942,1.63054 -2.130777,2.57669 -0.329494,0.51329 -0.613833,0.9532 -0.789869,1.58115 -0.230364,0.82056 -0.764471,1.43121 -0.825148,2.40559 -0.0635,1.03187 -0.103716,2.06481 -0.10301,3.05823 1.837267,1.45203 3.569404,3.21204 5.567185,4.60445 2.002367,1.3963 3.807177,3.03248 5.841649,4.29543 0.295626,0.18344 0.657225,0.42262 0.79022,0.79022 2.307521,1.47637 4.5212,3.47168 6.804025,5.01685 1.135946,0.76941 2.178405,1.67887 3.298825,2.40595 1.177221,0.76341 2.27824,1.56739 3.367617,2.30187 0.142523,0.0963 0.265993,0.2928 0.378177,0.48154 0.128058,0.0363 0.05433,-0.12876 0.17145,-0.10301 0.569382,0.42757 1.28799,0.7045 1.71838,1.27071 0.51576,-2.7e-4 1.108427,0.48789 1.580443,0.75635 0.602546,-0.0956 1.221671,0.28787 1.684163,0.54998 1.455208,-0.0751 4.047771,0.47872 5.292019,-0.41239 0.139348,0.3122 0.360891,0.43603 0.927806,0.37817 1.092552,-0.11218 2.320571,-0.9465 3.02401,-1.51236 0.529167,-0.4258 1.25095,-1.08867 1.752248,-1.71802 0.927452,-1.16347 1.919111,-2.29694 2.439811,-3.71087 0.358423,-0.97367 0.824793,-2.77284 0.549981,-4.12398 -0.200025,-0.98178 -0.689329,-1.77941 -0.893588,-2.64583"
       inkscape:connector-curvature="0" />
    <path
       id="path1656"
       style="fill:#000000;fill-opacity:1;fill-rule:evenodd;stroke:none;stroke-width:0.03527778"
       d="m 44.177561,131.68835 c 0.332317,0.50447 0.945798,0.72708 1.340557,1.16911 -0.250474,-0.44803 -0.851959,-0.84455 -1.340557,-1.16911"
       inkscape:connector-curvature="0" />
    <path
       id="path1658"
       style="fill:#000000;fill-opacity:1;fill-rule:evenodd;stroke:none;stroke-width:0.03527778"
       d="m 45.930868,131.75679 c 0.421568,0.4385 0.962728,0.75565 1.44286,1.13453 -0.324557,-0.39722 -0.894998,-0.84596 -1.44286,-1.13453"
       inkscape:connector-curvature="0" />
    <path
       id="path1660"
       style="fill:#000000;fill-opacity:1;fill-rule:evenodd;stroke:none;stroke-width:0.03527778"
       d="m 65.139614,135.70896 c 0.448029,0.42227 0.940858,0.80045 1.443566,1.1684 -0.314325,-0.41945 -0.97437,-0.79022 -1.443566,-1.1684"
       inkscape:connector-curvature="0" />
    <path
       id="path1662"
       style="fill:#000000;fill-opacity:1;fill-rule:evenodd;stroke:none;stroke-width:0.03527778"
       d="m 49.503801,135.84619 c 0.377825,0.58455 0.993775,0.93098 1.477785,1.40899 -0.30621,-0.49565 -0.950383,-1.13312 -1.477785,-1.40899"
       inkscape:connector-curvature="0" />
    <path
       id="path1664"
       style="fill:#000000;fill-opacity:1;fill-rule:evenodd;stroke:none;stroke-width:0.03527778"
       d="m 68.30121,137.70216 c -0.219782,-0.19262 -0.494242,-0.33091 -0.756357,-0.48155 0.173215,0.23954 0.464257,0.3609 0.756357,0.48155"
       inkscape:connector-curvature="0" />
    <path
       id="path1666"
       style="fill:#000000;fill-opacity:1;fill-rule:evenodd;stroke:none;stroke-width:0.03527778"
       d="m 57.854755,143.06226 c -0.404284,-0.20249 -0.688269,-0.52564 -1.065387,-0.75565 0.140758,0.2988 0.927451,0.78493 1.099608,0.8248 -0.03351,-10e-4 -0.02681,-0.0423 -0.03422,-0.0691"
       inkscape:connector-curvature="0" />
    <path
       id="path1668"
       style="fill:#000000;fill-opacity:1;fill-rule:evenodd;stroke:none;stroke-width:0.03527778"
       d="m 47.339509,127.46172 c 0.04304,0.30127 0.405342,0.44838 0.687562,0.30904 0.06915,-0.1016 0.07267,-0.27023 0.137232,-0.37748 -0.166865,-0.36371 -0.711552,-0.30374 -0.824794,0.0684"
       inkscape:connector-curvature="0" />
  </g>
</svg>
