<?xml version="1.0" encoding="UTF-8" standalone="no"?>
<!-- Created with Inkscape (http://www.inkscape.org/) -->

<svg
   xmlns:dc="http://purl.org/dc/elements/1.1/"
   xmlns:cc="http://creativecommons.org/ns#"
   xmlns:rdf="http://www.w3.org/1999/02/22-rdf-syntax-ns#"
   xmlns:svg="http://www.w3.org/2000/svg"
   xmlns="http://www.w3.org/2000/svg"
   xmlns:sodipodi="http://sodipodi.sourceforge.net/DTD/sodipodi-0.dtd"
   xmlns:inkscape="http://www.inkscape.org/namespaces/inkscape"
   width="32.562969mm"
   height="22.563864mm"
   viewBox="0 0 32.562969 22.563864"
   version="1.1"
   id="svg4625"
   sodipodi:docname="tarta.svg"
   inkscape:version="0.92.3 (2405546, 2018-03-11)">
  <defs
     id="defs4619" />
  <sodipodi:namedview
     id="base"
     pagecolor="#ffffff"
     bordercolor="#666666"
     borderopacity="1.0"
     inkscape:pageopacity="0.0"
     inkscape:pageshadow="2"
     inkscape:zoom="5.6"
     inkscape:cx="50.628976"
     inkscape:cy="-3.8966505"
     inkscape:document-units="mm"
     inkscape:current-layer="layer1"
     showgrid="false"
     inkscape:window-width="3840"
     inkscape:window-height="2066"
     inkscape:window-x="-11"
     inkscape:window-y="-11"
     inkscape:window-maximized="1" />
  <metadata
     id="metadata4622">
    <rdf:RDF>
      <cc:Work
         rdf:about="">
        <dc:format>image/svg+xml</dc:format>
        <dc:type
           rdf:resource="http://purl.org/dc/dcmitype/StillImage" />
        <dc:title></dc:title>
      </cc:Work>
    </rdf:RDF>
  </metadata>
  <g
     inkscape:label="Layer 1"
     inkscape:groupmode="layer"
     id="layer1"
     transform="translate(-34.714595,-120.41734)">
    <path
       id="path852"
       style="fill:#000000;fill-opacity:1;fill-rule:evenodd;stroke:none;stroke-width:0.03527778"
       d="m 51.221545,121.44705 c -0.102926,-0.0562 -0.0028,-0.32147 -0.105418,-0.37772 -0.02594,-0.005 -0.05078,0.002 -0.07623,-0.002 -0.312683,0.75977 0.902103,1.02642 1.320411,0.59003 -0.368244,-0.0586 -0.782073,-0.30907 -1.13897,-0.21309"
       inkscape:connector-curvature="0" />
    <path
       id="path854"
       style="fill:#000000;fill-opacity:1;fill-rule:evenodd;stroke:none;stroke-width:0.03527778"
       d="m 56.350917,121.81277 c -0.05033,-0.25509 -0.366722,-0.23743 -0.559712,-0.34654 -0.249491,0.51172 0.602944,0.89805 0.863676,0.44416 -0.05469,-0.13709 -0.125892,-0.1078 -0.303964,-0.0976"
       inkscape:connector-curvature="0" />
    <path
       id="path856"
       style="fill:#000000;fill-opacity:1;fill-rule:evenodd;stroke:none;stroke-width:0.03527778"
       d="m 47.165892,122.15309 c -0.149257,-0.11151 -0.321127,-0.19885 -0.608205,-0.16891 -0.103052,0.0318 -0.08401,0.18341 -0.199254,0.20439 -0.0608,-0.11864 -0.02976,-0.33814 0.04577,-0.40422 -0.06803,-0.0245 -0.1338,-0.0505 -0.2282,-0.048 -0.516903,1.16603 1.916711,0.8493 1.338927,0.0844 -0.152019,0.0758 -0.142056,0.3101 -0.349046,0.33236"
       inkscape:connector-curvature="0" />
    <path
       id="path858"
       style="fill:#000000;fill-opacity:1;fill-rule:evenodd;stroke:none;stroke-width:0.03527778"
       d="m 52.114441,122.19315 c -0.0067,0.25968 -0.25813,0.28053 -0.296726,0.50905 0.06389,0.0624 0.09861,-0.0307 0.176099,-0.0276 -0.02955,-0.23684 0.165485,-0.25427 0.222489,-0.40657 -0.04904,-0.0101 -0.02096,-0.0977 -0.101863,-0.0748"
       inkscape:connector-curvature="0" />
    <path
       id="path860"
       style="fill:#000000;fill-opacity:1;fill-rule:evenodd;stroke:none;stroke-width:0.03527778"
       d="m 50.504538,122.69294 c -0.06179,0.13887 -0.05866,0.34168 -0.222006,0.38134 -0.130505,-0.24059 -0.543323,-0.15314 -0.553797,0.13316 -0.185935,-0.023 -0.283692,-0.13571 -0.506347,-0.12008 0.217221,0.63125 1.533734,0.40806 1.460321,-0.3209 -0.06125,-0.0229 -0.06844,-0.10064 -0.178178,-0.0736"
       inkscape:connector-curvature="0" />
    <path
       id="path862"
       style="fill:#000000;fill-opacity:1;fill-rule:evenodd;stroke:none;stroke-width:0.03527778"
       d="m 54.597271,122.89504 c 0.06735,0.0135 0.127181,-0.10561 0.07409,-0.12725 -0.0075,0.0597 -0.08704,0.0477 -0.07409,0.12725"
       inkscape:connector-curvature="0" />
    <path
       id="path864"
       style="fill:#000000;fill-opacity:1;fill-rule:evenodd;stroke:none;stroke-width:0.03527778"
       d="m 43.853901,123.80997 c -0.138202,-0.27468 -0.544447,0.023 -0.709433,-0.21825 -0.280544,0.7014 1.060122,0.74484 1.11205,0.13748 -0.14859,-0.14507 -0.266179,0.0598 -0.402725,0.0802"
       inkscape:connector-curvature="0" />
    <path
       id="path866"
       style="fill:#000000;fill-opacity:1;fill-rule:evenodd;stroke:none;stroke-width:0.03527778"
       d="m 54.836817,123.90183 c -0.07245,-0.15448 -0.421399,-0.15635 -0.581551,-0.0688 -0.02173,-0.0708 0.03468,-0.0657 0.02358,-0.12643 -0.109975,-0.0148 -0.218568,-0.13901 -0.303895,-0.0973 -0.111497,0.69839 1.257207,0.78992 1.41553,0.18451 -0.178825,-0.13236 -0.290773,0.16254 -0.553694,0.10778"
       inkscape:connector-curvature="0" />
    <path
       id="path868"
       style="fill:#000000;fill-opacity:1;fill-rule:evenodd;stroke:none;stroke-width:0.03527778"
       d="m 59.810902,123.99191 c -0.222013,-0.129 -0.5531,-0.0593 -0.680004,0.10869 -0.07481,-0.0336 -0.09668,-0.12207 -0.20371,-0.12358 -0.01647,0.0501 -0.07598,0.0583 -0.09985,0.10195 5.67e-4,0.20439 0.237104,0.16595 0.256792,0.35044 0.539132,0.12233 1.278881,-0.34099 0.924267,-0.81935 -0.06896,0.12408 -0.09146,0.29306 -0.197583,0.38125"
       inkscape:connector-curvature="0" />
    <path
       id="path870"
       style="fill:#000000;fill-opacity:1;fill-rule:evenodd;stroke:none;stroke-width:0.03527778"
       d="m 61.355621,124.3511 c 0.210312,0.0577 0.39742,0.13836 0.508437,0.29722 0.0064,-0.0357 0.05533,-0.0297 0.07516,-0.0515 -0.05636,-0.22518 -0.405214,-0.45026 -0.583577,-0.2456"
       inkscape:connector-curvature="0" />
    <path
       id="path872"
       style="fill:#000000;fill-opacity:1;fill-rule:evenodd;stroke:none;stroke-width:0.03527778"
       d="m 45.787671,125.04841 c 0.19085,0.98321 1.222007,0.1596 1.231847,-0.44428 -0.37404,-0.0477 -0.535467,0.51773 -0.977559,0.56738 -0.07619,-0.0499 -0.114028,-0.13922 -0.254288,-0.1231"
       inkscape:connector-curvature="0" />
    <path
       id="path874"
       style="fill:#000000;fill-opacity:1;fill-rule:evenodd;stroke:none;stroke-width:0.03527778"
       d="m 61.664038,124.77669 c -7e-5,0.0254 6.77e-4,0.0509 5.39e-4,0.0756 0.23032,0.42317 0.43473,0.73706 0.395808,1.3836 -0.0815,1.34268 -0.602019,2.60105 -1.269265,3.55013 -0.391563,0.55736 -1.067448,0.85189 -1.243743,1.47948 0.249035,-0.13509 0.43064,-0.41362 0.673321,-0.66455 0.226539,-0.23415 0.521974,-0.45404 0.69816,-0.69024 0.156805,-0.21016 0.258991,-0.55529 0.443727,-0.86395 0.613125,-1.0223 1.361863,-3.28641 0.376576,-4.27114 -0.02557,-0.005 -0.05042,0.002 -0.07535,-6.9e-4"
       inkscape:connector-curvature="0" />
    <path
       id="path876"
       style="fill:#000000;fill-opacity:1;fill-rule:evenodd;stroke:none;stroke-width:0.03527778"
       d="m 49.811468,125.85724 c 0.05542,0.13909 0.220846,0.16551 0.207118,0.37592 0.188334,0.13875 0.277489,-0.1255 0.426828,-0.1818 0.200219,-0.0755 0.559638,0.0411 0.551856,-0.25962 -0.357837,0.0132 -0.915764,-0.2795 -1.185819,0.0651"
       inkscape:connector-curvature="0" />
    <path
       id="path878"
       style="fill:#000000;fill-opacity:1;fill-rule:evenodd;stroke:none;stroke-width:0.03527778"
       d="m 43.508415,126.49018 c -0.354088,-0.15579 -0.551903,0.16508 -0.651612,0.41202 -0.224058,0.0546 -0.306942,-0.17395 -0.455075,-0.0449 0.343899,0.60627 1.498398,0.1098 1.50826,-0.52355 -0.173834,-0.26197 -0.262715,0.0924 -0.40157,0.15642"
       inkscape:connector-curvature="0" />
    <path
       id="path880"
       style="fill:#000000;fill-opacity:1;fill-rule:evenodd;stroke:none;stroke-width:0.03527778"
       d="m 55.853006,126.4895 c 3.42e-4,0.0499 -0.06834,0.033 -0.0489,0.10147 0.04165,-0.003 0.08439,0.002 0.12619,-0.001 0.0028,-0.0631 -0.03973,-0.0785 -0.0773,-0.1"
       inkscape:connector-curvature="0" />
    <path
       id="path882"
       style="fill:#000000;fill-opacity:1;fill-rule:evenodd;stroke:none;stroke-width:0.03527778"
       d="m 58.9981,127.66248 c 0.09759,-0.0544 0.192083,-0.006 0.252884,0.0474 -0.04763,0.0471 -0.264299,0.0511 -0.252884,-0.0474 z m -0.562705,-0.59859 c -0.08832,-0.0975 -0.105167,-0.26743 -0.131708,-0.42794 -0.0596,-0.007 -0.09521,-0.0387 -0.176708,-0.0235 -0.03327,0.82906 0.914147,1.76689 1.68011,1.14077 -0.60946,-0.0515 -0.725647,-0.84151 -1.3717,-0.68932"
       inkscape:connector-curvature="0" />
    <path
       id="path884"
       style="fill:#000000;fill-opacity:1;fill-rule:evenodd;stroke:none;stroke-width:0.03527778"
       d="m 47.211899,127.93449 c -0.289708,0.11619 -0.665456,0.0877 -0.853373,0.38905 -0.08198,-0.052 -0.232449,-0.14385 -0.329492,-0.0977 0.388839,0.76539 1.621558,0.14625 1.608438,-0.59979 -0.248295,-0.10518 -0.232049,0.22984 -0.425573,0.30843"
       inkscape:connector-curvature="0" />
    <path
       id="path886"
       style="fill:#000000;fill-opacity:1;fill-rule:evenodd;stroke:none;stroke-width:0.03527778"
       d="m 41.834156,127.8995 c -0.02092,0.0292 -0.0324,0.0682 -0.02393,0.12648 0.07802,0.0169 0.04863,0.0173 0.12654,-0.001 0.0073,-0.0585 -0.0052,-0.0967 -0.02679,-0.12596 -0.02556,-0.005 -0.05043,0.002 -0.07571,-6.8e-4"
       inkscape:connector-curvature="0" />
    <path
       id="path888"
       style="fill:#000000;fill-opacity:1;fill-rule:evenodd;stroke:none;stroke-width:0.03527778"
       d="m 42.731235,131.01886 c 1.447704,0.77158 3.102278,1.55542 4.719389,1.93574 -2.085926,-0.95441 -4.457794,-1.61607 -6.046692,-3.08076 0.143582,0.56112 0.835421,0.88305 1.327303,1.14502"
       inkscape:connector-curvature="0" />
    <path
       id="path890"
       style="fill:#000000;fill-opacity:1;fill-rule:evenodd;stroke:none;stroke-width:0.03527778"
       d="m 59.100102,129.80684 c 0.09655,0.0196 0.09717,-0.0548 0.125218,-0.10283 -0.09684,-0.0192 -0.09711,0.055 -0.125218,0.10283"
       inkscape:connector-curvature="0" />
    <path
       id="path892"
       style="fill:#000000;fill-opacity:1;fill-rule:evenodd;stroke:none;stroke-width:0.03527778"
       d="m 53.521727,133.9405 c -1.283304,0.12031 -2.359793,-0.0412 -3.410023,-0.16013 -0.543883,-0.0617 -1.11425,-0.0509 -1.693256,-0.13051 -1.125517,-0.15498 -2.260144,-0.73585 -3.22093,-1.19704 -0.625897,-0.30062 -1.236684,-0.50318 -1.827879,-0.83607 -0.822272,-0.46224 -1.768061,-0.6651 -2.188683,-1.38691 -0.002,0.30192 0.264721,0.55948 0.463699,0.70122 0.359346,0.25683 0.953785,0.41224 1.421439,0.66421 1.349013,0.72607 2.828257,1.512 4.366863,1.96547 1.134573,0.33469 2.447209,0.35595 3.717048,0.48427 1.281389,0.13044 2.700999,0.0716 3.90991,-0.22439 -0.461284,-0.0602 -0.999335,0.0691 -1.538183,0.11996"
       inkscape:connector-curvature="0" />
    <path
       id="path894"
       style="fill:#000000;fill-opacity:1;fill-rule:evenodd;stroke:none;stroke-width:0.03527778"
       d="m 55.807045,133.0032 c -0.643507,0.10605 -1.414496,0.1039 -2.118659,0.15324 -3.416003,0.23589 -6.352693,-0.2566 -8.275995,-1.69078 5.65e-4,0.0337 0.0011,0.0678 0.0015,0.10138 0.59404,0.68955 1.663572,1.06494 2.768223,1.32889 1.797704,0.42936 3.695713,0.54089 5.835675,0.35711 0.992844,-0.0859 2.006545,-0.064 2.848302,-0.36313 -0.400901,-0.0194 -0.785631,0.0683 -1.058835,0.1143"
       inkscape:connector-curvature="0" />
    <path
       id="path896"
       style="fill:#000000;fill-opacity:1;fill-rule:evenodd;stroke:none;stroke-width:0.03527778"
       d="m 59.146098,131.4726 c -0.309385,0.46984 -1.101932,0.33243 -1.761714,0.45097 -0.813212,0.14638 -1.689558,0.50419 -2.441433,0.58528 1.424334,-0.16397 2.743383,-0.47764 4.105578,-0.73206 0.03322,-0.11569 0.275363,-0.13828 0.173581,-0.30505 -0.02628,-0.005 -0.05077,0.002 -0.07607,-6.7e-4"
       inkscape:connector-curvature="0" />
    <path
       id="path898"
       style="fill:#000000;fill-opacity:1;fill-rule:evenodd;stroke:none;stroke-width:0.03527778"
       d="m 47.872857,132.39422 c 0.521074,0.42879 1.849088,0.62528 2.680003,0.32039 -1.075068,0.0732 -1.898509,-0.14742 -2.680003,-0.32039"
       inkscape:connector-curvature="0" />
    <path
       id="path900"
       style="fill:#000000;fill-opacity:1;fill-rule:evenodd;stroke:none;stroke-width:0.03527778"
       d="m 56.415047,135.19188 c -0.131779,0.0205 -0.244814,0.0607 -0.301175,0.15524 0.0803,0.0192 0.251408,-0.0637 0.301175,-0.15524"
       inkscape:connector-curvature="0" />
    <path
       id="path902"
       style="fill:#000000;fill-opacity:1;fill-rule:evenodd;stroke:none;stroke-width:0.03527778"
       d="m 40.943606,137.60411 c -0.0759,0.14199 -0.191179,0.24596 -0.246776,0.40734 0.407799,-0.0948 0.819078,-0.66163 0.921833,-0.97053 -0.263432,0.1368 -0.334355,0.58356 -0.675057,0.56319"
       inkscape:connector-curvature="0" />
    <path
       id="path904"
       style="fill:#000000;fill-opacity:1;fill-rule:evenodd;stroke:none;stroke-width:0.03527778"
       d="m 41.750502,137.49363 c -0.178295,0.21795 -0.513172,0.41242 -0.623158,0.61385 0.259752,-0.0559 0.476731,-0.36507 0.674157,-0.56413 -0.0029,-0.0307 -0.0079,-0.0595 -0.05101,-0.0497"
       inkscape:connector-curvature="0" />
    <path
       id="path906"
       style="fill:#000000;fill-opacity:1;fill-rule:evenodd;stroke:none;stroke-width:0.03527778"
       d="m 41.877963,137.59285 c -0.13065,0.27262 -0.449357,0.62426 -0.417992,0.88912 0.197637,-0.11106 0.449754,-0.63512 0.417992,-0.88912"
       inkscape:connector-curvature="0" />
    <path
       id="path908"
       style="fill:#000000;fill-opacity:1;fill-rule:evenodd;stroke:none;stroke-width:0.03527778"
       d="m 44.541337,138.59495 c 0.232582,-0.26408 0.585445,-0.62484 0.795417,-0.99413 -0.346518,0.23628 -0.710946,0.58563 -0.795417,0.99413"
       inkscape:connector-curvature="0" />
    <path
       id="path910"
       style="fill:#000000;fill-opacity:1;fill-rule:evenodd;stroke:none;stroke-width:0.03527778"
       d="m 43.048937,138.38658 c 0.327937,0.14146 0.569859,-0.41661 0.800291,-0.61593 -0.03581,-0.003 -0.04282,-0.041 -0.07602,-0.0491 -0.184773,0.27706 -0.54608,0.38178 -0.724242,0.66511"
       inkscape:connector-curvature="0" />
    <path
       id="path912"
       style="fill:#000000;fill-opacity:1;fill-rule:evenodd;stroke:none;stroke-width:0.03527778"
       d="m 59.978141,137.54649 c -0.192369,0.26201 -0.503504,0.6711 -0.467383,0.99002 0.223983,-0.2473 0.444881,-0.62877 0.467383,-0.99002"
       inkscape:connector-curvature="0" />
    <path
       id="path914"
       style="fill:#000000;fill-opacity:1;fill-rule:evenodd;stroke:none;stroke-width:0.03527778"
       d="m 59.841928,138.78517 c 0.136431,-0.3575 0.37004,-0.61998 0.493051,-0.99108 -0.03215,0.002 -0.03564,-0.0319 -0.07653,-0.024 -0.135905,0.31031 -0.513316,0.64279 -0.416527,1.015"
       inkscape:connector-curvature="0" />
    <path
       id="path916"
       style="fill:#000000;fill-opacity:1;fill-rule:evenodd;stroke:none;stroke-width:0.03527778"
       d="m 48.476077,138.34474 c -0.154719,0.2209 -0.496399,0.63737 -0.3162,0.93765 0.04683,-0.3692 0.305018,-0.53296 0.367612,-0.88763 -0.0058,-0.0284 -0.0284,-0.039 -0.05142,-0.05"
       inkscape:connector-curvature="0" />
    <path
       id="path918"
       style="fill:#000000;fill-opacity:1;fill-rule:evenodd;stroke:none;stroke-width:0.03527778"
       d="m 54.031367,138.42786 c -0.335528,0.35382 -0.825161,0.55823 -1.150026,0.92253 0.03233,0.0609 0.104394,0.0804 0.177757,0.0991 0.297344,-0.3672 0.72125,-0.61025 1.023199,-0.97227 -0.0057,-0.0277 -0.02835,-0.0387 -0.05094,-0.0494"
       inkscape:connector-curvature="0" />
    <path
       id="path920"
       style="fill:#000000;fill-opacity:1;fill-rule:evenodd;stroke:none;stroke-width:0.03527778"
       d="m 56.838408,138.79721 c -0.223643,0.36366 -0.683048,0.76242 -0.692658,1.16965 0.229365,-0.36012 0.678503,-0.76546 0.692658,-1.16965"
       inkscape:connector-curvature="0" />
    <path
       id="path922"
       style="fill:#000000;fill-opacity:1;fill-rule:evenodd;stroke:none;stroke-width:0.03527778"
       d="m 52.626146,139.12651 c -0.204806,0.37368 -0.502181,0.65753 -0.642708,1.09382 0.272078,-0.27533 0.674555,-0.68779 0.642708,-1.09382"
       inkscape:connector-curvature="0" />
    <path
       id="path924"
       style="fill:#000000;fill-opacity:1;fill-rule:evenodd;stroke:none;stroke-width:0.03527778"
       d="m 66.474238,132.03842 c 0.0827,-0.3104 0.46552,-0.54295 0.543497,-0.94048 0.0594,0.44774 -0.319198,0.68557 -0.543497,0.94048 z m -1.333836,0.34484 c -0.126269,0.29517 0.143191,0.44081 0.184999,0.65407 0.06977,0.35767 -0.193618,0.82501 -0.390929,1.06533 -0.491968,0.59913 -1.579425,1.12068 -2.415826,0.63563 -0.122024,0.37987 0.0086,0.80767 -0.288234,1.16472 -0.323404,0.38846 -1.075197,0.87673 -1.42755,0.9517 -0.692127,0.14623 -1.16487,-0.15775 -1.495673,-0.51177 -0.07408,0.0553 -0.165558,0.0394 -0.226494,0.0532 -0.332516,0.90917 -1.492283,1.63738 -2.834998,1.44843 -0.477303,-0.0668 -0.815833,-0.51419 -1.269704,-0.58983 -0.02576,-0.11501 0.08627,-0.1774 0.0224,-0.25269 -0.206062,-0.17449 -0.365507,0.0326 -0.375617,0.25667 -0.6379,1.35521 -3.768279,1.10658 -4.29388,-0.1738 0.140905,-0.17365 0.158486,-0.62306 -0.233762,-0.52777 -0.569636,1.65463 -3.691593,1.3199 -4.217972,-0.14937 -0.02447,-0.0912 0.09928,-0.0365 0.151468,-0.0528 -0.161904,-0.31712 -0.378496,-0.004 -0.554924,0.0831 -0.155089,0.53145 -1.356195,1.08768 -2.109022,0.8847 -0.349367,-0.0945 -0.980851,-0.33333 -1.1675,-0.46527 -0.398774,-0.28401 -0.386326,-0.85783 -0.820673,-1.02534 -0.151647,0.13873 -0.247811,0.008 -0.37959,-0.0707 -1.20782,1.09298 -3.406324,-0.14111 -3.074762,-1.62833 -1.040502,-0.31847 -2.358566,-0.56291 -2.219512,-1.89125 0.01788,-0.17421 0.163764,-0.54971 0.269379,-0.68489 0.08619,-0.11122 0.343388,-0.23204 0.32331,-0.35752 -0.03175,-0.20192 -0.228167,-0.0793 -0.403871,-0.0459 -0.140499,-0.0296 0.06886,-0.0802 0.02273,-0.17693 -0.0928,0.002 -0.18459,0.002 -0.277452,0.004 -1.023052,-0.64675 0.251056,-2.22125 0.85107,-2.63616 0.146961,-0.10178 0.279545,-0.0964 0.299998,-0.20567 0.03882,-0.2052 -0.211049,-0.23713 -0.231607,-0.35028 -0.238295,-1.6974 1.248576,-1.90017 2.318288,-2.40206 0.135634,-0.009 0.06907,0.18529 0.204258,0.17446 0.143229,-0.0105 0.108218,-0.1939 0.326513,-0.13024 -0.0682,0.36653 -0.412613,0.54701 -0.620724,0.84085 -0.588361,0.83169 -0.987075,2.04556 -1.068897,3.39583 -0.02148,0.36463 0.0055,0.75473 0.08877,1.05945 -0.14791,-0.0528 -0.09294,-0.31363 -0.281354,-0.32518 -0.227826,0.25524 0.247391,0.50358 0.16116,0.78087 0.279617,0.69713 0.684348,1.31315 1.259618,1.85251 0.772696,0.72489 1.660916,1.50425 2.923928,1.68064 0.89667,0.1258 1.807362,0.2812 2.681811,0.47204 0.570462,0.12452 1.090603,0.22682 1.544996,0.38466 0.471384,0.16391 1.110024,0.14183 1.693744,0.1811 1.266202,0.0856 2.522258,0.28167 3.665152,0.40956 0.125087,-0.008 0.07188,-0.15522 0.09844,-0.20351 1.91595,-0.0198 4.165399,0.0582 5.82693,-0.39939 2.728827,-0.40278 5.323844,-1.48659 6.801528,-3.23975 0.492102,-0.58367 0.814913,-1.42631 0.753743,-2.30675 -0.09383,-1.37185 -0.645838,-2.43325 -1.204389,-3.54478 0.798235,0.18697 1.400546,0.57519 1.831781,1.13897 0.05928,0.0683 0.142692,-0.0461 0.201706,0.0227 0.236271,0.39646 0.771304,1.07087 0.06746,1.31192 0.329691,0.68664 1.12447,1.02595 1.034065,2.00668 -0.06276,0.6792 -0.770143,0.91338 -0.965733,1.52675 -0.322776,0.15873 -0.547267,-0.0626 -0.758475,-0.0915 z m -1.024301,2.94117 c -0.01901,-0.0769 0.02484,-0.0922 0.02373,-0.15159 0.09885,-0.0151 0.0483,0.17462 -0.02373,0.15159 z m -1.037603,-0.21482 c 0.232737,0.0547 0.483426,-0.005 0.706442,-0.0336 -0.08806,0.12566 -0.594345,0.17233 -0.706442,0.0336 z m -0.414368,1.1666 c -0.07954,0.0973 -0.145448,0.20759 -0.24914,0.28059 -0.06801,-0.14097 0.09825,-0.26924 0.24914,-0.28059 z m -0.01008,1.26266 c -0.110332,0.037 -0.002,-0.15092 -0.0771,-0.15069 -0.07225,0.19588 -0.212429,0.32521 -0.348206,0.45867 0.07817,-0.28183 0.268534,-0.66888 0.545099,-0.8398 0.008,-0.12731 -0.03046,-0.20755 -0.104092,-0.25074 -0.35738,0.0656 -0.408668,0.43235 -0.62336,0.63869 0.06679,-0.54199 0.628204,-0.81714 0.893652,-1.24863 -0.11099,-0.0978 -0.159881,0.076 -0.251222,0.0794 0.113105,-0.1891 0.342515,-0.26424 0.397187,-0.50992 0.08891,0.001 0.161394,-0.01 0.201339,-0.0532 -0.219751,-0.13769 -0.452269,0.33192 -0.676106,0.4376 0.02649,-0.21501 0.219657,-0.48399 0.345008,-0.68591 -0.02412,-0.0687 -0.07855,0.0359 -0.151264,0.002 -0.0011,-0.0507 -0.0014,-0.10112 -0.0019,-0.15204 0.254382,0.16981 0.8543,0.1556 1.136115,0.0117 -0.267022,0.81164 -0.786827,1.59296 -1.285199,2.2627 z m -1.199982,0.94841 c 0.1713,-0.33157 0.296418,-0.70847 0.619955,-0.89102 -0.06373,0.33583 -0.345438,0.67631 -0.619955,0.89102 z m 0.103667,0.22639 c 0.02027,-0.064 0.03146,-0.13585 0.125019,-0.12781 -0.03186,0.0524 -0.03903,0.12834 -0.125019,0.12781 z m -0.401151,0.20664 c 0.04256,-0.14161 0.15138,-0.21774 0.197514,-0.35573 0.144307,0.13042 -0.114303,0.28278 -0.197514,0.35573 z m -0.24775,0.38202 c -0.02557,-0.0595 0.07158,-0.21229 0.174209,-0.22973 -0.01462,0.1189 -0.09669,0.1719 -0.174209,0.22973 z m -0.457712,-0.24705 c -0.301511,0.0123 -0.351833,0.27178 -0.498978,0.43553 -0.09286,0.002 -0.03911,-0.14764 -0.1532,-0.12441 -0.220146,0.13946 -0.210064,0.36142 -0.24454,0.65921 0.41931,0.17149 0.426157,-0.67149 0.772666,-0.8172 0.08044,0.02 0.09484,0.10699 0.128159,0.17491 -0.351086,0.67128 -1.027986,1.02531 -1.673564,1.40919 0.250157,-0.18843 0.386684,-0.4863 0.571119,-0.7392 -0.05226,-0.0341 -0.14378,0.0664 -0.252422,0.002 -0.111312,0.0744 -0.08821,0.2802 -0.29951,0.25624 -0.0035,-0.1474 0.173974,-0.1995 0.04606,-0.32881 -0.164381,0.28029 -0.342116,0.54736 -0.519502,0.81435 -0.02504,0.0764 0.05669,0.0439 0.101635,0.0496 -0.12955,0.1729 -0.372113,0.23585 -0.628095,0.28525 0.266008,-0.38054 0.525747,-0.7674 0.819627,-1.12101 0.0041,-0.0723 -0.0082,-0.12847 -0.05267,-0.15077 -0.241448,0.52169 -0.814567,0.84941 -0.942145,1.40036 -0.154605,0.0736 -0.274333,0.18054 -0.502455,0.18283 0.01153,-0.15894 0.214019,-0.33737 0.296729,-0.50905 0.07705,-0.0174 0.07481,0.0429 0.151596,0.0238 0.287719,-0.44262 0.576466,-0.88365 0.943605,-1.24864 -0.01496,-0.0524 0.02912,-0.16629 -0.02701,-0.17659 -0.09137,0.11046 -0.137039,0.26564 -0.273699,0.33171 0.389687,-0.89979 0.797402,-1.78263 1.102021,-2.76507 -0.03588,-0.10696 -0.188418,-0.0856 -0.104158,-0.25107 0.239535,0.13777 0.586634,0.16518 0.886773,0.24126 -0.277577,0.31916 -0.677452,0.51944 -0.948832,0.8446 0.06079,0.15387 0.298419,-0.0194 0.377178,-0.0804 0.08847,-0.32697 0.556732,-0.48413 0.747691,-0.79222 0.159294,0.0615 0.356714,-0.0635 0.455354,0.0704 0.134506,-3.4e-4 0.135224,-0.13447 0.276346,-0.12948 -0.0731,0.23774 -0.505154,0.33717 -0.649315,0.58837 0.376958,0.18657 0.740786,-0.26942 1.030228,-0.41659 -0.197636,0.016 -0.481112,0.29262 -0.703307,0.28658 0.435678,-0.37291 0.867016,-0.74966 1.426437,-1.0018 -0.43154,0.92483 -1.042013,1.89236 -1.606483,2.77115 -0.01934,-0.0573 -0.02479,-0.12886 -0.05331,-0.17615 z m -3.707724,2.29262 c -0.03778,-0.23631 0.192163,-0.42763 0.244136,-0.65944 0.0679,0.0497 0.09449,0.14226 0.153894,0.20007 -0.14406,0.14264 -0.270696,0.30094 -0.39803,0.45937 z m 0.08542,-3.30815 c 0.655594,-0.17522 1.440873,-0.22304 1.809092,-0.6787 -0.25614,0.44978 -1.03691,0.73165 -1.809092,0.6787 z m -1.646016,-0.40888 c 0.185691,-0.11332 0.448338,0.11376 0.55846,0.2458 -0.216227,-0.0512 -0.385599,-0.14965 -0.55846,-0.2458 z m 0.548452,3.52781 c 0.03137,-0.11966 0.08957,-0.21219 0.147357,-0.30501 0.04935,0.0986 -0.05312,0.26297 -0.147357,0.30501 z m 0.906108,-0.18803 c 0.01593,-0.11774 0.09627,-0.17217 0.1228,-0.27976 0.0025,-0.079 -0.06546,-0.0854 -0.127394,-0.0989 -0.06978,0.39163 -0.413726,0.70215 -0.566801,1.09237 -0.0032,0.055 0.08935,0.0105 0.126423,0.0236 0.09895,-0.10292 0.145708,-0.25618 0.222697,-0.38147 0.03866,0.088 0.06659,0.18723 0.203852,0.17419 -0.269553,0.24397 -0.500155,0.52563 -0.95182,0.59258 0.112939,-0.36375 0.375917,-0.58052 0.518591,-0.91516 -0.06884,-0.009 -0.181554,0.15494 -0.249625,0.23 -0.0058,-0.20482 0.14027,-0.47828 0.270213,-0.63437 -0.0098,-0.0328 -0.0453,-0.0389 -0.05127,-0.0752 -0.159956,-0.0389 -0.111166,0.12511 -0.226107,0.12912 0.01117,-0.096 -0.01265,-0.15751 -0.07763,-0.17573 -0.122879,-0.004 -0.08646,0.14869 -0.199743,0.15384 -0.02009,-0.0221 -0.02821,-0.0563 -0.02681,-0.10082 -0.297909,0.2164 -0.312753,0.70947 -0.748039,0.79228 0.0749,-0.1601 0.171123,-0.29921 0.246772,-0.4573 -0.01499,-0.0528 -0.0538,-0.0807 -0.07689,-0.12558 -0.126812,-0.0274 -0.121543,0.16234 -0.226195,0.0788 -0.02762,-0.096 0.100748,-0.0789 0.02325,-0.15222 -0.385353,0.40626 -0.720042,0.86053 -0.992936,1.37571 -0.0334,0.003 -0.0672,-8.3e-4 -0.100312,0.002 0.171775,-0.7137 0.87867,-1.25361 1.03537,-1.98198 -0.379188,0.3788 -0.512107,0.99658 -0.968169,1.29973 0.378698,-0.56989 0.766271,-1.13112 1.063758,-1.78047 -0.304817,0.27701 -0.477204,0.68249 -0.72021,1.01866 0.03554,-0.64732 0.556187,-1.2524 0.708312,-1.95253 -0.0078,-0.0517 -0.05139,-0.0665 -0.07695,-0.10006 -0.192087,0.14514 -0.159192,0.51037 -0.29422,0.71052 -0.0012,-0.59921 0.391085,-1.03124 0.842588,-1.27281 -0.0098,-0.0325 -0.04462,-0.039 -0.05155,-0.0746 -0.230249,0.0597 -0.375525,0.32923 -0.550732,0.35969 0.01789,-0.29818 0.11069,-0.52322 0.192365,-0.75939 0.256096,0.24886 0.651269,0.35535 1.040944,0.46682 -0.187047,0.27464 -0.594046,0.33471 -0.774898,0.61529 0.351494,0.22568 0.712971,-0.33299 0.901378,-0.59136 0.110482,0.0396 0.258949,0.0417 0.37959,0.0707 -0.09475,0.19851 -0.330589,0.25907 -0.449155,0.43486 -0.02017,0.0978 0.06294,0.089 0.07779,0.15055 -0.109188,0.32205 -0.516561,0.6039 -0.41708,0.96408 0.342058,-0.37198 0.447928,-0.97547 0.893092,-1.24781 -0.03424,-0.0633 -0.111468,0.0386 -0.17664,0.0266 0.129966,-0.37783 0.564793,-0.31141 1.005595,-0.36582 -0.08771,0.26429 -0.461778,0.24788 -0.523875,0.53669 0.161204,0.0898 0.454388,-0.0993 0.476152,-0.30892 0.29019,-0.29863 0.808741,-0.37462 1.179178,-0.59504 -0.103088,0.14076 -0.258617,0.22994 -0.374227,0.3581 -0.0035,0.0633 0.03972,0.0785 0.07695,0.10003 0.190285,-0.0304 0.177476,-0.25913 0.374922,-0.28241 -0.09406,0.36473 -0.304986,0.61633 -0.417359,0.96449 -0.07078,0.0204 -0.06539,-0.0351 -0.12648,-0.0239 -0.163028,0.46472 -0.446078,0.81118 -0.640688,1.24472 -0.05574,-0.0962 0.06994,-0.22994 0.0967,-0.32895 -0.0037,-0.0643 -0.03766,-0.0976 -0.102127,-0.10017 -0.149537,0.28638 -0.409819,0.46525 -0.596725,0.7147 0.117317,0.17092 -0.08038,0.38148 -0.196679,0.48208 z m -1.27262,1.15155 c -0.05824,-0.0555 -1.01e-4,-0.12612 0.0227,-0.17724 0.09238,-0.017 0.07043,0.21629 -0.0227,0.17724 z m -0.303101,0.0282 c -0.05043,0.002 -0.100662,0.003 -0.151311,0.002 0.13263,-0.15338 0.175718,-0.39391 0.32163,-0.53442 0.02909,-0.008 0.04467,0.003 0.0508,0.0246 -0.04155,0.20032 -0.179679,0.30695 -0.221102,0.50799 z m -0.806562,0.1103 c -0.08166,-0.01 -0.217503,0.0366 -0.227378,-0.0475 0.169076,-0.15076 0.283576,-0.35486 0.422717,-0.53572 0.0078,-0.0504 -0.0068,-0.0785 -0.05191,-0.0747 0.07457,-0.17658 0.208119,-0.29561 0.297279,-0.45813 0.103387,-0.0282 -0.0012,0.15476 0.127806,0.0991 -0.150997,0.37688 -0.374395,0.68266 -0.56854,1.01689 z m 0.227094,-0.028 c 0.01087,-0.13077 0.118929,-0.16653 0.173649,-0.25479 0.09959,-7.4e-4 0.01921,0.18493 0.128287,0.17559 -0.05077,0.0678 -0.231186,0.11045 -0.301948,0.0792 z m -1.14141,-0.44012 c -0.109639,-0.0537 0.04108,-0.20455 0.02095,-0.32856 -0.01441,-0.0362 -0.03994,-0.0612 -0.07639,-0.075 -0.162004,0.0174 -0.163136,0.19055 -0.249415,0.28099 -0.03555,-0.19323 0.209884,-0.32719 0.220679,-0.55824 -0.0222,-0.0365 -0.03882,-0.0795 -0.101777,-0.0743 -0.331013,0.2088 -0.398914,0.67483 -0.695724,0.91722 0.01673,-0.20234 0.184691,-0.46607 0.269384,-0.68488 -0.01508,-0.0362 -0.04028,-0.0611 -0.077,-0.0745 -0.184941,0.0876 -0.432064,0.4211 -0.321143,0.55908 -0.07452,-0.0524 -0.190235,0.0324 -0.199812,0.17938 0.05563,0.003 0.08045,-0.0202 0.07487,-0.077 0.05673,0.16435 -0.06894,0.36452 -0.09392,0.53182 -0.106404,-0.21832 0.02583,-0.56781 -0.211146,-0.67953 0.03261,-0.22052 0.386271,-0.46068 0.219704,-0.63351 -0.225205,0.32049 -0.371816,0.71808 -0.618705,1.01763 -0.175517,-0.42231 0.117242,-0.74837 0.239882,-1.03816 0.0035,-0.0635 -0.03972,-0.0785 -0.07695,-0.10003 -0.26376,0.18317 -0.367441,0.52242 -0.57132,0.76403 -0.244481,-0.38876 0.296581,-0.7002 0.290385,-1.01313 -0.354236,0.29457 -0.518246,0.77459 -0.767935,1.17066 -0.107025,-0.55459 0.427897,-0.86592 0.538349,-1.37003 -0.310932,0.0902 -0.379415,0.62538 -0.620449,0.86631 -0.323518,-0.49775 0.39992,-0.9248 0.31168,-1.34177 -0.274699,0.36354 -0.454905,0.81941 -0.691758,1.22049 -0.177084,-0.75763 0.33266,-1.34476 0.607155,-1.95154 -0.31516,0.002 -0.303297,0.5344 -0.547248,0.68821 0.100178,-0.90824 0.974279,-1.06125 1.419123,-1.63289 0.319881,0.003 0.549764,0.10123 0.834528,0.14074 -0.185972,0.38368 -0.617511,0.52828 -0.873131,0.84392 -0.01271,0.0898 0.09016,0.0607 0.07779,0.15056 -0.07175,0.21698 -0.395079,0.4394 -0.269312,0.68521 0.350827,-0.57277 0.717894,-1.12856 1.166861,-1.60504 0.806726,-0.0322 1.581338,-0.18816 2.011895,-0.65592 -0.116734,0.15564 -0.138297,0.49766 -0.09252,0.73316 -0.100668,0.10147 -0.255898,0.14966 -0.324421,0.28154 0.0089,0.0931 0.142771,0.0578 0.203158,0.0985 -0.238558,1.02278 -0.612897,1.91279 -1.026259,2.76473 z m -0.750613,0.5646 c -0.194033,-0.12187 0.02621,-0.37922 0.09552,-0.48111 0.05421,0.14579 -0.105241,0.29612 -0.09552,0.48111 z m -1.008338,0.11301 c -0.07184,-0.19948 0.140135,-0.3255 0.170312,-0.50675 0.161383,0.17204 -0.01788,0.55691 -0.170312,0.50675 z m -0.326734,0.10502 c -0.11322,-0.007 -0.103163,-0.0852 -0.05274,-0.15109 0.09109,-0.025 0.03655,0.0993 0.05274,0.15109 z m -0.184025,-0.57876 c -0.01233,-0.0952 0.04839,-0.11901 0.07338,-0.17706 0.05623,0.0397 -0.0068,0.17418 -0.07338,0.17706 z m 0.103117,0.17547 c 0.05836,0.0192 0.02683,0.15614 -0.04897,0.12703 -0.02258,-0.0805 0.03904,-0.0783 0.04897,-0.12703 z m -0.504953,-0.0186 c -0.0058,-0.18034 0.121146,-0.23093 0.146593,-0.38105 0.217673,0.11219 -0.07955,0.39315 -0.146593,0.38105 z M 50.801,142.6057 c -0.24319,-0.0771 0.01618,-0.2662 0.02003,-0.40353 0.02594,0.005 0.05043,-0.002 0.07572,6.8e-4 0.02416,0.189 -0.04637,0.28645 -0.09566,0.40456 z m -0.48353,-0.29665 c 0.04518,2.1e-4 0.05317,-0.0315 0.10079,-0.027 -0.01771,0.0771 0.02713,0.0914 0.02701,0.15111 -0.101513,0.0198 -0.144138,-0.0223 -0.127733,-0.12468 z m -0.184999,-0.65406 c 0.01767,-0.13281 0.10196,-0.20023 0.122378,-0.32998 0.132428,0.0877 0.02332,0.34944 -0.122378,0.32998 z m 0.05407,0.27662 c 0.0115,-0.0795 -0.04658,-0.088 -0.02737,-0.17615 0.05949,-0.008 0.09403,-0.0412 0.176643,-0.0266 -0.05495,0.0631 -0.03993,0.19392 -0.14909,0.20364 z m -0.07717,-4.21489 c -0.03273,-0.1 -0.09599,-0.30335 -0.0046,-0.3786 0.04006,-0.01 0.04366,0.023 0.07596,0.0247 -0.01397,0.12778 -0.0232,0.25966 -0.07138,0.35385 z m 0.01083,0.88377 c 0.06055,-0.0823 0.172548,-0.11438 0.225061,-0.20476 0.03313,0.17469 -0.138402,0.36403 -0.195497,0.53251 -0.05923,-0.0588 -0.01215,-0.22656 -0.02963,-0.32775 z m 0.06218,0.90795 c -0.08565,-0.5979 0.370394,-1.05637 0.586836,-1.52178 -0.22674,-0.0997 -0.40683,0.37339 -0.626707,0.36079 0.05585,-0.26923 0.146159,-0.5053 0.192436,-0.78488 0.384782,0.23605 0.59814,0.64776 1.119561,0.7437 -0.203891,0.35804 -0.5861,0.54196 -0.898735,0.79353 0.02834,-0.18878 0.213418,-0.32753 0.195916,-0.48226 -0.325446,0.16532 -0.305671,0.66641 -0.569307,0.8909 z m -0.312667,-0.7784 c -0.154514,0.0242 -0.246185,0.10903 -0.249135,0.28059 0.158579,0.0134 0.109091,-0.17646 0.250326,-0.18019 -0.02042,0.66774 -0.06963,1.50172 -0.124664,2.17262 -0.02163,0.26043 -0.154502,0.63987 -0.395311,0.71185 0.01537,-0.29446 0.217638,-0.53323 0.166692,-0.8101 -0.248101,0.16574 -0.252839,0.56845 -0.419445,0.81323 -0.352363,-0.16725 0.14784,-0.63716 -0.03499,-0.83272 -0.109274,0.002 -0.114858,0.10426 -0.17497,0.15372 -0.0816,-0.0611 0.09308,-0.17192 -0.0031,-0.25276 -0.208211,0.17128 -0.238714,0.51539 -0.394964,0.73765 -0.17091,-0.13785 -0.233499,0.0726 -0.351695,0.13014 0.05366,-0.32848 0.336309,-0.67705 0.266108,-0.96239 -0.28367,0.13064 -0.142028,0.6763 -0.521513,0.71339 0.0977,-0.32013 0.326632,-0.51235 0.36755,-0.88795 -0.247876,0.2649 -0.383912,0.63922 -0.568681,0.96625 -0.13487,-0.34432 -0.123499,-0.77206 0.08627,-1.16286 -0.319871,0.17 -0.325632,0.64695 -0.492573,0.96582 -0.08016,-0.002 -0.120444,-0.015 -0.226833,0.0533 -0.06121,-0.39816 0.271288,-0.74347 0.264231,-1.08853 -0.209276,0.13622 -0.216262,0.47006 -0.344728,0.68551 -0.101517,-0.006 -0.101218,-0.11762 -0.228547,-0.0979 -0.08725,0.1927 0.141383,0.41671 0.05825,0.60502 -0.115693,-0.035 -0.07369,-0.23114 -0.20531,-0.25013 0.05684,-0.55801 0.252564,-0.93964 0.385841,-1.46868 -0.299925,0.15611 -0.25466,0.64967 -0.442964,0.91414 -0.381693,-0.32187 0.172153,-1.02609 0.10818,-1.44022 -0.264484,0.14059 -0.119982,0.68062 -0.444704,0.76279 -0.003,-0.45941 0.248695,-1.04274 0.0576,-1.43975 -0.136204,0.1627 -0.056,0.54205 -0.141228,0.80984 -0.07923,-0.21713 -0.06597,-0.60567 -0.08672,-0.88232 0.277681,-0.2114 0.521706,-0.45541 0.748459,-0.71617 -0.350513,-8.9e-4 -0.461742,0.44588 -0.775383,0.56472 -0.09219,-0.36517 -0.03936,-0.7776 0.01099,-1.136 0.414775,0.30716 0.94357,0.49835 1.473272,0.68865 -0.260805,0.37771 -0.727588,0.55362 -0.973664,0.9461 0.340137,-0.003 0.662248,-0.62538 1.075793,-0.796 0.05036,-0.0681 0.02293,-0.0964 0.04912,-0.15221 0.264355,0.0269 0.491905,0.092 0.783601,0.0914 -0.09073,0.12867 -0.248794,0.29345 -0.426131,0.25748 -0.08477,0.25907 -0.381854,0.30963 -0.472677,0.56158 0.07325,0.094 0.11493,-0.0521 0.175937,-0.0526 0.0048,0.14068 -0.163834,0.28125 -0.04565,0.37904 0.403004,-0.75363 0.987293,-1.33081 2.05238,-1.43864 -0.280989,0.49019 -0.776983,0.77096 -1.121291,1.19977 0.0038,0.081 0.05849,0.11049 0.152573,0.099 0.291445,-0.5048 0.790191,-0.80837 1.171524,-1.22607 -0.02225,0.32742 -0.0573,0.64258 -0.03785,1.01075 z m -1.044404,3.37023 c -0.0083,-0.0587 0.003,-0.0973 0.02393,-0.12648 0.04076,-0.01 0.04331,0.0232 0.07592,0.0245 -0.008,0.0587 -0.01467,0.11858 -0.09985,0.10205 z m -0.150976,0.0278 c -0.126785,-0.0828 -0.02029,-0.3461 0.02004,-0.42938 0.104511,0.0606 -0.07073,0.25738 -0.02004,0.42938 z m -0.408813,-0.42439 c 0.05593,0.18968 0.08848,0.40328 0.133316,0.60444 -0.312495,0.0115 -0.29304,-0.47958 -0.133316,-0.60444 z m -0.432322,-0.22178 c 0.09848,0.0223 0.03196,0.15766 0.0027,0.20218 -0.09885,-0.0224 -0.032,-0.15803 -0.0027,-0.20218 z m 0.08333,0.63032 c -0.344571,0.008 0.06568,-0.41276 0,0 z m -1.573525,-0.71262 c -0.07336,-0.0871 -0.161317,-0.15878 -0.155493,-0.32666 0.01714,0.003 0.03341,-0.003 0.05007,-0.002 0.134459,-3.5e-4 0.158982,0.21883 0.10533,0.32739 z m -0.237375,-0.80525 c 0.112712,0.001 0.07768,0.18151 0.05395,0.25188 -0.08822,-0.0121 -0.03923,-0.16452 -0.05395,-0.25188 z m -0.213234,1.16416 c 0.04177,-0.13462 0.08159,-0.26995 0.121337,-0.40558 0.112956,0.10598 0.202755,0.23514 0.282462,0.37528 -0.112002,0.023 -0.296649,0.0823 -0.403814,0.0302 z m -0.127529,-0.17538 c -0.198596,-0.45411 -0.03981,-1.18863 -0.04606,-1.64024 -0.008,-0.0887 -0.111291,0.0469 -0.100674,-0.0241 0.140071,-0.35176 0.0355,-0.79539 0.162939,-1.06239 0.179092,0.30012 0.04963,0.77882 0.140846,1.18482 -0.434856,0.33646 0.16938,1.16345 -0.157025,1.54208 z m -0.21523,-3.10238 c 0.01217,-0.0798 0.04221,-0.14153 0.07297,-0.20323 0.07862,0.0475 0.07291,0.18098 0.154175,0.22556 -0.143542,0.17487 -0.02979,0.5179 -0.320865,0.58456 0.0046,-0.18131 0.185569,-0.39869 0.244962,-0.60898 -0.05583,-0.0653 -0.08263,0.0797 -0.151262,0.002 z m -0.445184,2.83292 c -0.188803,-0.33346 0.109759,-0.95142 0.136633,-1.23839 -0.295237,0.12846 -0.269703,0.78307 -0.568885,0.99106 -0.123966,-0.28461 0.146008,-0.73348 0.113955,-1.01116 -0.284889,0.1632 -0.208062,0.80989 -0.519359,0.86499 0.02591,-0.39926 0.129981,-0.85292 0.162658,-1.16366 -0.20638,0.12337 -0.208516,0.44519 -0.269105,0.71032 -0.08516,-0.007 -0.183466,0.0282 -0.174415,0.17874 0.07405,0.0204 0.07983,-0.15136 0.124871,-0.0768 -0.01776,0.13967 -0.0063,0.3096 -0.07061,0.40402 -0.09194,-0.0163 -0.03683,-0.18332 -0.05369,-0.27636 -0.03884,-0.0834 -0.0616,0.0529 -0.126148,0.0256 -0.01064,-0.49494 0.212504,-1.081 0.207388,-1.56769 -0.276461,0.0292 -0.344439,0.26176 -0.422927,0.48474 -0.115031,-0.14619 -0.06308,-0.46285 -0.158978,-0.62928 -0.149532,0.2217 0.0075,0.61738 -0.08975,0.91015 -0.182213,-0.55471 -0.328799,-1.14614 -0.550813,-1.65966 0.134447,-0.0683 0.207178,-0.19695 0.324765,-0.28164 -3.66e-4,-0.58247 0.806343,-0.31486 1.232544,-0.3686 -0.171717,0.28138 -0.486663,0.42308 -0.647716,0.71495 0.0098,0.0332 0.0453,0.0389 0.05163,0.0752 0.321747,-0.28788 0.674611,-0.71152 1.047546,-1.02267 0.260413,-0.217 0.710665,-0.22651 0.800291,-0.61592 0.05855,0.32357 -0.248555,0.50545 -0.343962,0.76156 0.01765,0.0616 0.147646,0.0755 0.177269,0.0485 0.109996,-0.0757 0.02799,-0.33855 0.24886,-0.30602 0.044,0.64048 -0.506249,0.89729 -0.6898,1.39695 0.177188,-0.0256 0.153075,-0.24972 0.350431,-0.25681 -0.02692,0.14071 -0.129592,0.20597 -0.121606,0.38016 0.0034,0.0644 0.08498,0.0489 0.152067,0.0484 0.02649,0.22126 -0.188979,0.32566 -0.09434,0.53152 0.187962,0.0425 0.152309,-0.13347 0.275711,-0.15495 -0.0181,0.33955 -0.106049,0.61179 -0.216784,0.86115 -0.02013,0.11459 0.127203,0.0572 0.128296,0.14973 -0.215279,0.28838 -0.183277,0.81908 -0.416176,1.09076 z m 0.328204,-0.0288 c 0.0018,-0.0726 -0.01557,-0.16518 0.02282,-0.20247 0.03497,0.0117 0.06387,0.22693 -0.02282,0.20247 z m -0.199878,0.17902 c 0.05936,0.008 0.05776,0.0771 0.102467,0.10011 -0.03218,0.0637 -0.184088,-0.0411 -0.102467,-0.10011 z m -0.506285,-0.11975 c 0.02429,-0.0932 0.09093,-0.1442 0.09796,-0.25409 0.03977,0.0788 0.05123,0.18592 0.05459,0.30242 -0.07992,0.0104 -0.09951,-0.035 -0.152418,-0.0483 z M 43.706904,140.549 c -0.163545,-0.0797 -0.229403,-0.25944 -0.258391,-0.47698 0.38831,0.0712 0.236353,-0.57747 0.444771,-0.76246 0.04174,0.41416 -0.138151,0.82935 -0.18638,1.23944 z m -0.996569,-3.01736 c 0.152247,0.0234 0.258184,0.0932 0.430446,0.0957 -0.05407,0.19704 -0.178386,0.32471 -0.374017,0.38322 -0.07734,-0.15568 -0.03977,-0.27044 0.04598,-0.3791 -0.0163,-0.0515 -0.127615,-0.006 -0.102425,-0.0998 z m -0.09204,0.70791 c 0.222145,0.43657 0.41862,0.90011 0.497865,1.48342 -0.19557,-0.4644 -0.43546,-0.88317 -0.497865,-1.48342 z m -0.105466,1.69268 c -0.03856,-0.0319 -0.116465,-0.13511 -0.151894,-0.0234 -0.04208,-0.17401 0.08367,-0.39969 0.118967,-0.58231 0.146098,0.1581 0.03719,0.30795 -0.01923,0.4799 0.09423,0.0263 0.03905,-0.0949 0.125148,-0.0772 -0.02334,0.0685 -0.05411,0.13018 -0.07305,0.20285 z m -0.217913,-1.3355 c 0.288287,0.36085 -0.01,0.95249 -0.238483,1.18957 -0.03605,-0.40952 0.194035,-0.77483 0.238483,-1.18957 z m -1.117496,-2.53569 c 0.02892,-0.0212 0.06736,-0.0343 0.126151,-0.0256 0.08021,0.17416 0.180265,0.32652 0.308341,0.45109 -0.184898,2.3e-4 -0.352269,-0.23518 -0.434271,-0.42409 z m 0.720024,3.09592 c -0.141114,0.034 -0.132825,0.32984 -0.274121,0.28147 0.03877,-0.28676 0.179616,-0.57722 0.16607,-0.83548 -0.229563,0.16681 -0.243292,0.54359 -0.342851,0.8375 -0.09572,-0.10969 0.09027,-0.26587 0.02074,-0.3537 -0.133255,0.0182 -0.126388,0.17621 -0.224439,0.23014 -0.154787,-0.21393 0.06552,-0.61325 -0.01024,-0.83283 -0.03375,0.003 -0.06754,-8.3e-4 -0.10066,0.003 -0.06373,0.16585 -0.166073,0.29932 -0.12008,0.50636 -0.257256,-0.18826 -0.313723,-0.58231 -0.440467,-0.90339 -0.07981,0.002 -0.03068,0.13606 -0.124738,0.12739 -0.238544,-0.53943 -0.617275,-0.9348 -0.701789,-1.63212 0.244516,0.0137 0.43206,-0.0276 0.630902,-0.0581 0.06508,0.1092 -0.286312,0.23355 -0.272233,0.45759 0.292238,-0.25483 0.589707,-0.50492 0.848571,-0.79279 0.06279,0.029 0.09958,0.0853 0.127943,0.14979 -0.145411,0.26508 -0.491994,0.33462 -0.649244,0.58874 0.29409,0.13187 0.421463,-0.3166 0.651197,-0.4123 0.414792,0.0614 0.565066,0.39257 0.940199,0.49396 -0.0055,0.58542 0.189529,0.96403 0.295834,1.43501 -0.341388,0.32366 -0.340794,0.9812 -0.538065,1.44543 -0.208695,-0.18619 0.200479,-0.50689 0.117576,-0.73372 z m -6.926345,-8.92694 c -0.06439,-0.18729 0.01664,-0.4485 0.09382,-0.5821 0.08286,0.20636 -0.05586,0.41123 -0.09382,0.5821 z m 1.137751,-1.88219 c -0.215571,0.3294 -0.515176,0.57775 -0.694686,0.9429 0.04291,-0.39863 0.27755,-0.8259 0.694686,-0.9429 z m 2.335952,-2.98232 c -0.04071,0.11788 -0.237927,0.0831 -0.351286,0.13041 0.06416,-0.0952 0.232057,-0.0893 0.351286,-0.13041 z m 26.287209,4.62376 c 0.02706,2.45398 -1.932578,3.40093 -3.657412,4.31155 1.492528,-1.17023 2.86647,-2.45687 3.657412,-4.31155 z m -6.501894,0.91344 c -0.246224,0.13841 -0.742541,0.36392 -1.008374,0.11302 0.256835,-0.045 0.709631,-0.0338 1.008374,-0.11302 z m -2.001321,-0.55615 c 0.251882,0.0293 0.29449,-0.14526 0.400666,-0.25722 0.0072,0.13123 -0.238403,0.45784 0.08235,0.50329 0.140999,-0.002 0.09112,-0.1931 0.249694,-0.17971 0.151181,0.68722 0.71448,-0.48423 1.003303,-0.54217 -0.118343,0.27491 -0.353141,0.43701 -0.419591,0.76258 0.0045,0.0803 0.113311,0.0542 0.152509,0.0987 0.256156,-0.27405 0.498407,-0.56047 0.746994,-0.84204 -0.0021,0.24048 -0.412481,0.51073 -0.468848,0.86416 -0.857296,0.15627 -1.656705,-0.0571 -1.976626,-0.60661 0.103095,-0.0908 0.18981,-0.19752 0.299579,-0.28176 -0.04387,0.14044 -0.195972,0.32669 -0.07005,0.48081 z m 2.752565,0.0669 c 0.0079,0.0656 -0.0076,0.10893 -0.0743,0.10215 -0.008,-0.0657 0.0079,-0.10899 0.0743,-0.10215 z m 0.399758,-0.35802 c 0.0072,0.11538 -0.06192,0.37108 -0.247882,0.38135 0.03133,-0.17717 0.180212,-0.23955 0.247882,-0.38135 z m 0.774831,-0.61564 c 0.02701,0.17659 -0.144414,0.37377 -0.322611,0.43322 0.105746,-0.14562 0.198485,-0.30452 0.322611,-0.43322 z m -19.945494,-4.2223 c -0.211066,0.45611 -0.75462,1.07463 -1.03794,1.83013 -0.275331,0.73561 -0.735768,1.60606 -0.649032,2.5829 0.09611,1.09356 0.229197,2.09268 0.841489,2.76681 0.165402,0.0947 0.268109,0.25336 0.483595,0.297 1.784915,1.42477 4.557334,1.83788 7.22365,2.35965 -1.996847,-0.7809 -5.221675,-0.96448 -6.741371,-2.16373 -0.203651,-0.16024 -0.347172,-0.69152 -0.687238,-0.44611 -0.340703,-0.46782 -0.747508,-0.92996 -0.828125,-1.60538 -0.09789,-0.82516 -0.212028,-1.73233 0.02142,-2.39869 0.437171,-1.25084 0.905445,-2.52099 1.726706,-3.25274 -0.475856,0.90576 -1.165797,1.95809 -1.247354,3.24686 -0.05918,0.93799 0.324954,1.89189 0.363461,2.87376 0.269218,-0.8595 -0.282288,-1.87932 -0.187304,-2.90118 0.06933,-0.74156 0.407368,-1.38012 0.581276,-2.00151 0.174749,1.08226 -0.40872,2.07759 -0.315571,3.08372 0.0635,0.67769 0.46148,1.12428 0.552623,1.78545 0.168014,-0.7349 -0.445653,-1.22404 -0.380899,-2.21667 0.02503,-0.37971 0.149695,-0.78847 0.212471,-1.21432 0.138362,-0.94474 0.06276,-2.03623 0.650073,-2.50726 -0.147039,1.82084 -0.425858,4.39106 0.423856,5.67491 -0.427152,-1.36924 -0.641738,-3.86908 -0.270317,-5.55057 0.07398,-0.33674 0.261182,-0.7548 0.569381,-0.89053 -0.08546,0.84533 -0.29666,1.80175 -0.21845,2.72919 0.02826,0.33808 0.143884,0.66636 0.138118,0.98228 -0.0032,0.19614 -0.111867,0.43397 -0.06784,0.63277 0.03606,0.16369 0.290941,0.36895 0.410899,0.54977 0.194068,0.29398 0.293005,0.57555 0.514008,0.7511 0.694205,0.55221 1.794255,0.517 2.653074,0.19478 0.451887,0.90299 1.092347,1.78511 2.342929,1.63689 0.698755,-0.0825 1.437139,-0.37173 1.96076,-0.68048 0.197004,0.42927 1.164348,0.20315 1.619022,0.28295 -0.225645,-0.31409 -1.176911,-0.1051 -1.594462,-0.30821 0.05692,-0.20262 0.215574,-0.30534 0.271263,-0.50878 0.282884,0.11858 0.607781,0.0151 0.960029,0.0136 0.411388,0.63916 1.208905,1.59714 2.19189,1.68998 1.377903,0.12963 2.500242,-0.39002 2.731411,-1.62452 -0.0014,-0.10898 0.155253,-0.0647 0.149302,-0.17854 0.06994,-0.39814 -0.277542,-1.19669 -0.245917,-1.53671 0.05241,-0.56794 0.776939,-1.04481 0.940058,-1.5516 -0.468412,0.11758 -0.582657,0.9276 -0.996624,1.09791 0.152001,-0.60096 0.577389,-1.06566 0.686956,-1.62422 -0.221135,0.25824 -0.336485,0.61883 -0.64626,0.7908 0.01546,-0.5417 0.469906,-0.61279 0.414371,-1.16658 -0.219679,0.0439 -0.180807,0.55446 -0.471909,0.61174 -0.0016,-0.31735 0.173049,-0.4631 0.243643,-0.71004 0.678002,-0.32801 1.104465,-1.01827 2.185266,-0.91029 0.937452,0.0934 1.99021,0.61545 2.414792,1.33362 0.471621,0.79744 0.398044,1.85176 -0.29678,2.52773 -0.330605,0.0158 -0.429317,0.43706 -0.674498,0.61411 0.08559,-0.23263 0.347658,-0.3968 0.319885,-0.65984 -0.218288,0.0146 -0.173601,0.11638 -0.173375,0.25435 -0.316623,0.24771 -0.358641,0.76368 -0.848013,0.84372 0.154993,-0.32303 0.428983,-0.52937 0.646669,-0.79057 -0.332302,0.14115 -0.531978,0.62812 -0.924194,0.79384 0.137365,-0.37674 0.516523,-0.60965 0.568058,-0.99162 -0.387106,0.0885 -0.61975,0.67391 -0.974428,0.79425 0.133151,-0.39104 0.672315,-0.63276 0.618214,-1.04234 -0.485356,0.25785 -0.708559,0.77168 -1.198802,1.02474 0.174545,-0.39439 0.479589,-0.66285 0.719379,-0.99336 -0.436832,0.18949 -0.683488,0.77865 -1.19936,0.97379 0.1774,-0.49985 0.610966,-0.75054 0.792355,-1.24652 -0.371136,0.31114 -0.62342,0.73823 -1.099169,0.94751 0.1529,-0.52423 0.522386,-0.83647 0.715961,-1.32154 -0.406256,0.31906 -0.65321,0.92516 -1.122476,1.0994 0.183555,-0.46083 0.461534,-0.82969 0.665806,-1.27083 -0.312074,0.12137 -0.455091,0.7519 -0.822825,0.81801 0.110124,-0.44477 0.535777,-0.8064 0.54043,-1.19291 -0.121202,0.214 -0.332763,0.34032 -0.447627,0.56103 0.06341,0.0322 0.07775,-0.10097 0.100788,-0.027 -0.153338,0.14481 -0.449361,0.30622 -0.573066,0.61272 0.188825,-0.0898 0.298646,-0.39012 0.448881,-0.43441 -0.05957,0.22972 -0.274261,0.42311 -0.218458,0.68432 0.161771,0.11302 0.161225,-0.1172 0.301597,-0.10498 -0.04165,0.12598 -0.105987,0.2294 -0.14687,0.35558 -0.08368,-0.02 -0.17636,-0.12707 -0.278709,-0.0472 0.182746,0.28934 0.533322,0.85048 0.871464,1.02409 0.252932,0.13088 0.89692,0.45062 1.216548,0.41435 0.573611,-0.0643 1.239527,-0.45654 1.784677,-0.60276 0.722388,-0.73197 1.589535,-1.77492 1.273643,-3.19666 0.775716,-0.65177 1.24243,-2.32375 0.463621,-3.31304 0.385302,-0.11622 1.356245,0.29736 1.496505,0.56227 0.210741,0.39639 0.0624,1.27664 -0.0035,1.74191 -0.385821,2.73153 -1.903512,4.84464 -3.686412,6.0796 -1.515959,0.73168 -3.257043,1.2444 -4.874451,1.87756 1.211057,-0.13536 2.261372,-0.67961 3.29377,-1.0758 0.407379,-0.1561 0.823798,-0.20474 1.182033,-0.36777 0.603342,-0.27577 1.245226,-0.83396 1.72595,-1.28389 0.540661,-0.50582 1.243046,-1.45346 1.614834,-2.14027 0.115449,-0.21401 0.246532,-0.54173 0.343057,-0.81241 0.371514,-1.04505 0.647531,-2.4834 0.635526,-3.76908 0.350865,0.16324 0.777529,0.88099 0.444438,1.2566 0.239645,0.48963 -0.232663,1.43027 -0.455552,1.94943 -1.440168,3.36056 -4.270801,6.1127 -8.195331,6.89245 -1.180251,0.2346 -2.583365,0.0551 -3.710714,0.0457 -0.408525,-0.003 -0.931447,-0.19376 -1.417471,-0.31098 -0.856176,-0.20588 -1.725795,-0.17774 -2.579679,-0.37185 -1.005147,-0.22906 -2.180561,-0.67585 -3.119568,-1.17293 -1.323339,-0.70122 -2.619828,-1.35307 -3.139954,-2.81418 -0.03774,-0.0925 -0.0063,-0.1986 -0.02851,-0.25249 -0.361478,0.15008 0.01258,0.49171 0.08373,0.63028 0.264621,0.51458 0.511838,0.98583 0.925249,1.32664 1.490747,1.2297 4.069612,2.36648 6.595827,2.59456 1.011429,0.0913 1.887985,0.46857 2.910015,0.56999 0.541229,0.0537 0.99761,-0.0338 1.540052,0.006 -0.06033,0.14073 -0.304784,0.10153 -0.426748,0.18217 0.529173,0.005 1.036208,-0.12324 1.538028,-0.17073 5.273034,-0.49626 8.116859,-4.21596 9.715345,-8.47591 1.028319,0.70324 -0.01945,2.57336 -0.513852,3.31347 -0.510712,0.76341 -1.12253,1.37828 -1.692824,1.96459 -1.263391,1.30074 -3.026801,1.97593 -4.304644,3.03219 3.169587,-1.65364 6.111026,-3.53068 7.130102,-7.28268 0.209568,0.44768 0.582321,1.07853 0.526113,1.71009 -0.05214,0.58588 -0.750069,1.56393 -1.086921,1.95716 -0.938155,1.09734 -1.860506,2.24085 -3.246864,2.8424 -0.638917,0.27765 -1.475497,0.51645 -2.236685,0.81031 -0.04377,0.0172 -0.132869,0.043 -0.17588,0.0529 -2.128256,0.4622 -4.872599,0.51714 -7.289806,0.51877 -0.339586,-8e-5 -0.713824,-0.0468 -0.9608,-0.13956 -0.584592,0.16148 -1.59406,-0.0122 -2.47483,-0.071 -0.785677,-0.0521 -1.534079,-0.408 -2.203155,-0.5277 -0.250972,-0.045 -0.47959,-0.0305 -0.657251,-0.11805 -0.109726,-0.0542 -0.173849,-0.18258 -0.280382,-0.22402 -0.385115,-0.14905 -1.101749,-0.0586 -1.668135,-0.13073 -0.273786,-0.0348 -0.502177,-0.18735 -0.709435,-0.21825 -0.109291,-0.0168 -0.255856,0.018 -0.353859,0.004 -0.697782,-0.10837 -1.345699,-0.60918 -1.730063,-1.11487 -1.124136,-0.62673 -1.651975,-1.73742 -1.707811,-3.38727 -0.01627,-0.47947 0.158732,-0.78265 0.33833,-1.21576 0.20162,-0.48806 0.245385,-1.03204 0.46112,-1.49553 0.387032,-0.83211 0.801863,-1.48236 1.490581,-1.93645 z m 0.446029,-0.68755 c -0.401894,0.18986 -0.697384,0.48342 -1.025708,0.7449 -0.108187,-0.48824 0.491015,-0.80558 1.025708,-0.7449 z m 1.310268,1.82648 c -0.102943,0.38191 -0.394804,0.5795 -0.467598,0.99077 -0.166609,-0.4596 0.01116,-1.19246 0.05454,-1.69216 0.206743,0.16322 0.213543,0.531 0.413058,0.70139 z m 0.03436,-1.28752 c 0.08376,0.0556 -0.03738,0.32351 -0.147282,0.35529 0.02346,-0.14364 0.03804,-0.29597 0.147282,-0.35529 z m -0.08106,-0.42808 c 8.3e-5,-0.67996 0.561071,-1.40103 1.269271,-1.50527 1.047076,-0.15422 1.820404,0.42779 2.184585,1.10883 -0.425392,0.30011 -0.54713,0.89592 -0.918775,1.24883 -0.04203,-0.24949 0.148995,-0.46668 0.344658,-0.76167 0.0028,-0.0638 -0.04079,-0.0785 -0.0777,-0.10027 -0.172506,0.022 -0.208523,0.1789 -0.376382,0.2065 0.03538,-0.11938 0.076,-0.23581 -0.05359,-0.27708 -0.166989,0.045 -0.249724,0.17216 -0.401222,0.23216 0.0685,-0.0748 0.194489,-0.24372 0.07172,-0.35393 -0.13475,-0.008 -0.149917,0.10329 -0.250941,0.12894 -0.01722,0.0686 0.118924,-0.0185 0.101637,0.0497 -0.194258,0.317 -0.334155,0.68811 -0.77274,0.7669 0.0489,-0.25316 0.323276,-0.51853 0.217347,-0.76028 -0.373309,0.22601 -0.500501,0.69207 -0.846764,0.94445 0.06834,-0.3159 0.320908,-0.45123 0.343544,-0.81178 -0.272505,0.31567 -0.503647,0.67217 -0.796039,0.96874 -0.01457,-0.44496 0.557584,-0.91054 0.412695,-1.31757 -0.175348,0.21091 -0.267286,0.50335 -0.522208,0.6377 0.02334,-0.30139 0.252358,-0.40271 0.294843,-0.68516 0.101767,-0.0588 0.228391,-0.0934 0.275229,-0.2055 -0.260947,-0.0298 -0.384306,0.28961 -0.499248,0.48588 z m 3.157673,-1.90721 c -0.05491,0.14651 -0.147362,0.25505 -0.248369,0.35663 -0.09096,0.0106 -0.122334,-0.0451 -0.202733,-0.0483 0.17337,-0.0621 0.209086,-0.4737 0.451102,-0.30835 z m 0.265354,1.08227 c -0.146629,-0.0204 -0.273844,-0.281 -0.383977,-0.4242 0.182822,0.0845 0.312476,0.22462 0.383977,0.4242 z m 0.339713,-1.14022 c -0.04131,0.30882 -0.193501,0.50948 -0.345145,0.71109 -0.128703,-0.0465 -0.217626,-0.13414 -0.305144,-0.22387 0.164022,-0.21373 0.386063,-0.37115 0.650289,-0.48722 z m -0.02984,1.69165 c -0.08761,0.10576 -0.201506,0.18544 -0.350295,0.23162 0.04053,-0.15199 0.192974,-0.19419 0.350295,-0.23162 z m -0.853914,4.45376 c 0.02909,0.32137 0.03771,1.00541 -0.08515,1.28875 -0.170633,-0.34166 0.02033,-0.93259 0.08515,-1.28875 z m -0.60021,-3.62772 c 0.01069,-0.0819 0.03711,-0.14738 0.150131,-0.12802 -0.0305,0.0596 -0.08096,0.18251 -0.150131,0.12802 z m -0.554773,0.0321 c 0.06367,-0.15683 0.284832,-0.36874 0.473787,-0.48562 0.110763,0.12978 -0.156582,0.30931 -0.196539,0.45687 -0.1132,-0.011 -0.189074,0.0136 -0.277175,0.0294 z m -1.105229,0.44304 c 0.109422,-0.3005 0.34465,-0.47885 0.49584,-0.73824 -0.05803,0.25061 -0.240535,0.59661 -0.49584,0.73824 z m -0.575568,0.38537 c -0.05034,-0.18139 0.103014,-0.1652 0.09685,-0.30418 0.02594,0.005 0.05007,-0.002 0.07607,6.8e-4 -0.0343,0.12488 -0.06818,0.25008 -0.172818,0.30528 z m 0.01477,3.28189 c -0.09945,-0.0346 -0.09696,-0.17343 -0.154385,-0.25068 0.158645,-0.19148 0.217636,-0.37979 0.2698,-0.63466 0.1239,0.2566 -0.07141,0.62735 -0.115415,0.88534 z m 0.717223,0.82406 c -0.643534,-0.25084 0.345989,-1.04693 0.385352,-1.51926 0.0067,0.43967 -0.267816,1.03497 -0.385352,1.51926 z m 0.598113,-0.61329 c -0.0029,0.22159 -0.184999,0.48483 -0.192087,0.78487 -0.04165,0.003 -0.0844,-0.002 -0.126189,0.001 -0.04244,-0.30909 0.238289,-0.51388 0.318289,-0.78639 z m 0.111972,0.85694 c -0.01705,-0.46102 0.352336,-0.96622 0.461054,-1.47001 0.02909,-0.008 0.04517,0.004 0.05087,0.0249 -0.127797,0.42414 -0.15744,1.15907 -0.511911,1.44504 z m 1.159031,-0.14034 c -0.02906,0.0297 -0.08871,0.03 -0.151332,0.0278 -0.0225,-0.10524 0.04782,-0.12 0.04836,-0.2024 0.06167,0.0306 0.08316,0.10245 0.103032,0.17513 z m -0.329569,-0.1221 c 0.01452,-0.42257 0.268977,-1.00682 0.184569,-1.44105 -0.204372,0.34449 -0.235617,0.99168 -0.30903,1.5939 -0.08739,0.0478 -0.18464,0.0855 -0.327269,0.0801 0.114658,-0.41222 0.346385,-0.71023 0.389806,-1.19128 -0.126211,0.28437 -0.218287,0.60199 -0.368516,0.86263 -0.0095,-0.42077 0.383562,-1.02187 0.235288,-1.41675 -0.347229,0.22704 -0.361558,0.77824 -0.592335,1.11815 -0.01971,-0.39544 0.278496,-0.82285 0.288305,-1.19023 -0.302217,0.43643 -0.424189,1.04952 -0.81594,1.39881 0.04472,-0.51327 0.394971,-1.07224 0.285165,-1.49294 -0.394736,0.36351 -0.504542,1.00407 -0.892606,1.37419 -0.03993,-0.38864 0.292373,-0.86796 0.212472,-1.21431 -0.151664,0.21814 -0.191278,0.54496 -0.369638,0.73669 -0.08794,-0.34158 0.224727,-0.85913 0.111034,-1.23881 -0.233542,0.0964 -0.212027,0.44193 -0.422515,0.56082 -0.06638,-0.1603 0.06886,-0.35946 -0.03114,-0.50427 -0.133342,-0.006 -0.07152,0.17923 -0.122856,0.25356 -0.177926,-1.49747 0.730854,-2.5909 1.958656,-2.87666 0.259924,-0.0606 0.536511,-0.01 0.758696,0.11669 -0.03607,0.88678 0.247116,1.62812 0.70714,2.08675 -0.119225,0.37393 -0.391446,0.59862 -0.569167,0.91565 -0.01302,0.0995 0.104756,0.0638 0.127801,0.12501 -0.09044,0.50168 -0.192176,0.99332 -0.437885,1.34331 z m 3.33563,-5.8727 c 0.06227,0.72895 0.201145,1.37867 0.602574,1.75956 0.101542,0.0158 0.143658,-0.0265 0.226726,-0.028 -0.02056,0.24549 -0.150486,0.38503 -0.142974,0.6585 -0.0611,0.0647 -0.0548,-0.0527 -0.151872,-0.0234 -0.14247,0.14341 -0.255972,0.31569 -0.423763,0.43424 0.03296,-0.23537 0.281605,-0.38719 0.218941,-0.63377 -0.228502,-0.003 -0.07122,0.23632 -0.198068,0.30481 -0.02933,5.3e-4 -0.02169,-0.045 -0.02575,-0.0752 -0.0506,0.0429 -0.116897,0.0697 -0.124396,0.15318 0.0079,0.0534 0.07763,-0.037 0.100232,-0.052 0.04327,0.10981 -0.116325,0.23536 -0.147281,0.35532 -0.07439,-0.0258 -0.0517,-0.15132 -0.128158,-0.17492 0.01348,-0.17838 0.240639,-0.3853 0.119456,-0.53175 -0.211189,0.20959 -0.144391,0.69006 -0.571957,0.6887 0.03052,-0.11663 -0.04743,-0.12194 -0.07833,-0.17561 0.0023,-0.13524 0.160055,-0.31178 -0.02952,-0.35328 -0.03517,0.24798 -0.145093,0.42389 -0.193549,0.659 -0.12197,0.0473 -0.214298,0.12333 -0.377442,0.13079 0.111675,-0.25746 0.303806,-0.43568 0.446309,-0.66212 -0.200662,0.0456 -0.298804,0.40595 -0.498002,0.53669 -0.01164,-0.30573 0.360735,-0.57541 0.342366,-0.88809 -0.263321,0.21687 -0.296912,0.65787 -0.621002,0.81538 0.103927,0.12788 -0.02336,0.45484 -0.171567,0.40603 -0.02201,-0.16212 0.128708,-0.1569 0.147639,-0.27953 -0.06553,-0.12637 -0.158884,0.13292 -0.150911,0.002 0.118743,-0.25808 0.286687,-0.46826 0.343754,-0.78663 -0.242365,0.32094 -0.556069,0.80923 -0.540912,1.21814 -0.32564,0.26419 -0.478255,0.69743 -0.693221,1.06876 -0.22754,-0.18145 0.07142,-0.31107 0.170245,-0.50709 0.06596,-0.13034 0.07709,-0.35964 0.170311,-0.50678 0.140953,-0.22146 0.366302,-0.53014 0.495559,-0.76371 -0.16268,0.034 -0.230678,0.3737 -0.449157,0.43483 0.0351,-0.46467 0.292433,-0.71234 0.313423,-1.19043 -0.14677,0.008 -0.138365,0.16453 -0.1987,0.25533 -0.07878,0.0292 -0.06152,-0.0392 -0.101286,-0.0497 0.0241,0.21128 -0.0772,0.4182 -0.197377,0.40635 0.03663,-0.2497 -0.0049,-0.43782 -0.0087,-0.70665 0.06905,0.003 0.05025,-0.0428 0.10135,-0.003 0.0052,-0.10778 -0.07513,-0.12772 -0.128581,-0.1752 -0.188893,0.18191 -0.03684,0.69611 -0.114096,0.9864 -0.425123,-0.60629 0.02071,-1.87174 0.577304,-2.3048 0.523934,-0.40695 1.374932,-0.73983 2.090267,-0.40436 z m -0.693018,-0.95098 c 0.0081,0.20366 -0.191634,0.62448 -0.598738,0.58788 0.172438,-0.22218 0.398495,-0.39226 0.598738,-0.58788 z m 0.356211,0.24807 c -0.110562,0.11159 -0.159795,0.40556 -0.374503,0.33266 0.06574,-0.1684 0.254741,-0.21663 0.374503,-0.33266 z m 0.578705,-0.15845 c -0.0456,0.22953 -0.159452,0.39253 -0.219567,0.60835 -0.09594,-0.0294 -0.15389,-0.0984 -0.229034,-0.14846 0.04748,-0.23638 0.304514,-0.40061 0.448601,-0.45989 z m 0.329858,2.19243 c -0.142355,-0.24976 0.16563,-0.39587 0.296516,-0.53417 -0.09018,0.18679 -0.129998,0.42202 -0.296516,0.53417 z m 0.547873,-2.65773 c 2.65e-4,-0.0593 -0.04384,-0.0739 -0.02701,-0.15108 0.857325,-0.85129 2.721307,-0.26769 3.464154,0.43676 0.151638,0.1441 0.21762,0.41699 0.309184,0.55156 -0.266297,0.42156 -0.467281,0.90734 -0.638321,1.42144 -0.216262,-0.068 -0.325791,-0.24503 -0.559224,-0.29595 0.01561,-0.18416 0.189829,-0.21409 0.299089,-0.30646 0.07655,0.0684 -0.06686,0.13302 -0.02206,0.25262 0.0084,0.0766 0.143918,0.10065 0.202305,0.0479 -0.15332,-0.15278 0.04691,-0.39833 0.171003,-0.50691 0.005,-0.0735 -0.0487,-0.086 -0.07757,-0.12543 -0.2176,0.12853 -0.335398,0.35448 -0.575156,0.46146 0.0604,-0.19033 0.220033,-0.28425 0.297353,-0.45777 0.0035,-0.0634 -0.03973,-0.0786 -0.07661,-0.10013 -0.261454,0.10258 -0.413348,0.31215 -0.651401,0.43713 0.06448,-0.27094 0.456107,-0.351 0.421463,-0.63645 -0.278122,0.0612 -0.360635,0.31341 -0.600684,0.41148 -0.01309,-0.15414 0.100347,-0.18449 0.147977,-0.27964 -0.04416,-0.13659 -0.199887,-0.0373 -0.252674,0.0266 -0.07012,-0.0706 0.0699,-0.14692 0.07312,-0.22841 -0.01461,-0.0357 -0.03985,-0.0609 -0.07663,-0.0745 -0.02095,0.001 -0.02455,0.0254 -0.05033,0.0258 -0.220388,0.49133 -0.535842,1.02238 -1.097017,1.09908 0.01188,-0.16256 0.08427,-0.2672 0.146726,-0.38033 0.06583,-0.0645 0.08575,0.0621 0.152996,0.0734 0.07781,-0.0731 0.116883,-0.18446 0.198487,-0.25458 -0.04892,-0.0355 -0.110384,-0.0575 -0.177487,-0.0737 -0.365353,0.22627 -0.440607,0.73395 -0.821716,0.94387 0.04342,-0.2647 0.230976,-0.38882 0.26966,-0.6594 -0.347189,0.33449 -0.414339,0.94305 -0.843633,1.1972 0.104107,-0.57188 0.467769,-1.02317 0.561655,-1.52189 -0.219253,0.38438 -0.531628,0.67799 -0.744075,1.06967 -0.02557,-0.005 -0.05007,0.002 -0.07571,-6.7e-4 -0.009,-0.52333 0.389105,-1.06178 0.561233,-1.57215 -0.06435,-0.0555 -0.103561,0.0644 -0.124738,0.1274 -0.05425,0.006 -0.01263,-0.0895 -0.02674,-0.1256 -0.256391,0.23958 -0.276996,0.71041 -0.543431,0.94082 -0.05361,-0.80105 0.187122,-1.5296 0.785537,-1.77709 z m 0.993423,-1.32514 c -0.04397,-0.12084 0.146017,-0.079 0.176337,-0.0524 0.01801,0.0776 -0.143503,0.10665 -0.176337,0.0524 z m 3.404441,-0.31977 c 0.234343,0.16468 0.541015,0.43893 0.588936,0.67438 0.07068,0.34672 -0.0024,0.69192 0.163873,1.00783 -0.129615,0.0561 -0.291034,0.0816 -0.452985,0.10632 0.07108,-0.10761 0.227106,-0.27558 0.121468,-0.40489 -0.297903,2e-4 -0.311391,0.27832 -0.551635,0.3347 -0.0203,-0.25553 0.360321,-0.24289 0.27154,-0.48331 -0.332756,0.17393 -0.463726,0.54475 -0.849619,0.6672 0.06763,-0.23452 0.360908,-0.3767 0.345357,-0.61016 -0.15008,0.16897 -0.263554,0.37466 -0.422787,0.53536 -0.103762,-0.0124 -0.148285,-0.0862 -0.228132,-0.12349 -0.0145,-0.26347 0.192701,-0.31023 0.271607,-0.48296 0.01783,-0.0691 -0.05108,-0.0501 -0.05183,-0.10026 -0.089,0.0148 -0.137184,0.0652 -0.200552,0.10341 0.08157,0.18863 -0.105973,0.23875 -0.172397,0.35553 -0.166748,-0.10166 -0.351715,-0.18429 -0.433789,-0.37356 0.103742,-0.0264 0.152842,0.004 0.200571,-0.10342 -0.0034,-0.0482 -0.08391,0.0306 -0.150909,0.002 -0.0011,-0.17983 0.287152,-0.19597 0.197239,-0.38119 -0.199715,0.14842 -0.328016,0.61432 -0.67694,0.3871 0.02068,-0.25416 0.269784,-0.2853 0.347581,-0.4841 -0.231485,0.007 -0.391212,0.3003 -0.524707,0.48619 -0.114237,-0.0349 -0.0579,-0.12029 -0.0021,-0.17679 -0.05616,0.018 -0.125426,0.0777 -0.176289,0.0266 0.06281,-0.16316 0.188995,-0.26458 0.27272,-0.407 -0.02261,-0.0368 -0.03887,-0.0798 -0.102218,-0.0746 -0.129918,0.12479 -0.161249,0.3796 -0.347303,0.50957 -0.101167,0.0198 -0.144261,-0.0229 -0.227307,-0.0231 0.115366,-0.18485 0.126012,-0.33715 0.271399,-0.50808 0.0035,-0.0632 -0.03972,-0.0786 -0.07696,-0.10003 -0.157657,0.13737 -0.187646,0.39909 -0.372419,0.50975 -0.151347,-0.0428 -0.285118,-0.11529 -0.455,-0.0704 0.05829,-0.27509 0.294763,-0.37678 0.44728,-0.56097 -0.0096,-0.10918 -0.141116,-0.0936 -0.203988,-0.14902 -0.109673,0.004 -0.179965,0.14279 -0.276331,0.0797 0.677218,-1.16772 2.528366,-0.8221 3.456356,-0.16913 z m 3.185313,2.40968 c 0.112421,-0.11493 0.146808,-0.30596 0.349671,-0.33282 -0.0164,0.20047 -0.134466,0.30108 -0.170796,0.4821 -0.107029,-0.001 -0.151929,-0.0662 -0.178875,-0.14928 z m -2.256579,-0.78035 c 0.158822,-0.16098 0.269812,-0.36834 0.422506,-0.53496 0.01834,0.18366 -0.17411,0.37814 -0.245515,0.55805 -0.09899,-0.0102 -0.13058,0.0548 -0.17698,-0.023 z m -1.55912,0.44861 c -0.07157,-0.0816 0.02143,-0.16338 0.124043,-0.15315 0.004,0.0953 -0.04752,0.13646 -0.124043,0.15315 z m 0.606189,0.068 c -0.07893,0.13931 -0.173008,0.26363 -0.349532,0.30765 0.05548,-0.1621 0.207144,-0.23038 0.349532,-0.30765 z m -0.503283,0.13233 c -0.01138,-0.0477 -0.05523,-0.0622 -0.05171,-0.12545 0.411281,-0.0732 0.535053,-0.55682 0.875983,-0.6166 -0.09362,0.42429 -0.582425,0.46286 -0.824288,0.74205 z m 0.111807,2.877 c 0.134436,-0.0136 0.124627,-0.28511 0.2488,-0.23054 -0.06499,0.14452 -0.07849,0.33941 -0.221731,0.40679 -0.0087,-0.059 -0.04127,-0.0941 -0.02697,-0.17625 z m 2.46496,1.33288 c -0.0057,-0.14662 0.0422,-0.24145 0.09699,-0.32936 0.02849,-0.005 0.04445,0.004 0.05039,0.0244 -0.01868,0.13123 -0.03967,0.26 -0.147355,0.30502 z m 0.0037,0.32775 c 0.216455,0.0449 0.23035,-0.1073 0.300412,-0.20538 0.02946,-0.008 0.04516,0.004 0.05114,0.0246 -0.0419,0.15046 -0.125111,0.26045 -0.197926,0.38134 -0.135201,0.0176 -0.14467,-0.0898 -0.15362,-0.20051 z m -0.04709,2.29805 c 0.294908,0.1601 0.166697,0.53218 0.06056,0.80725 -0.05815,-0.21223 -0.156909,-0.6002 -0.06056,-0.80725 z m -0.184594,-2.69865 c -0.290574,0.13769 -0.677438,0.35126 -0.933842,0.0622 0.05097,-0.15008 0.162369,-0.24073 0.222705,-0.38146 0.0551,0.0968 -9.35e-4,0.30745 0.130723,0.32679 0.158642,0.0138 0.16202,-0.12419 0.198976,-0.22988 0.101286,0.0238 0.07582,0.17752 0.228688,0.14853 0.155723,-0.0641 0.112653,-0.3227 0.196262,-0.45647 0.140641,0.14302 -0.0231,0.3822 -0.04348,0.53063 z m 0.214077,1.00707 c -0.188447,-0.18186 -0.346287,-0.39485 -0.537037,-0.57375 0.03411,-0.10001 0.127311,-0.14191 0.250187,-0.15501 -0.100122,0.35943 0.251874,0.51742 0.28685,0.72876 z m -2.620392,-1.65917 c -0.01244,-0.0867 0.0077,-0.14162 0.02248,-0.20239 0.0701,0.0278 0.06717,0.19398 -0.02248,0.20239 z m -0.321418,0.55953 c -0.05981,0.0418 -0.14547,0.0577 -0.226329,0.0781 -0.02318,-0.14678 0.07326,-0.17774 0.09713,-0.2787 0.103715,0.004 0.08931,0.13034 0.12918,0.20059 z m -0.05559,-2.42329 c 0.0093,-0.0909 0.03956,-0.1608 0.124254,-0.17796 0.07223,0.0888 -0.0082,0.19458 -0.124254,0.17796 z m 0.30152,-0.12942 c 0.08831,0.14744 -0.146296,0.40291 -0.168994,0.60785 -0.131427,-0.0789 -0.258156,-0.16148 -0.307157,-0.32483 0.288572,0.0906 0.342734,-0.15219 0.476151,-0.28302 z m -1.593976,-0.2835 c 0.04835,-0.25234 0.341146,-0.26576 0.448535,-0.46021 0.02946,-0.008 0.04553,0.004 0.0512,0.0248 -0.05593,0.19486 -0.232419,0.27228 -0.297284,0.45812 -0.08619,0.0145 -0.141797,-0.008 -0.202448,-0.0228 z m -0.379517,-0.0962 c 0.05377,-0.0803 0.127855,-0.14095 0.224579,-0.1795 -0.03675,0.0884 -0.09338,0.26287 -0.224579,0.1795 z m -0.328595,-0.021 c 0.08305,-0.0941 0.130371,-0.22228 0.27467,-0.25645 -0.06625,0.0992 -0.146698,0.29914 -0.27467,0.25645 z m -0.811754,3.79618 c 0.132437,0.13776 0.264461,0.27523 0.259022,0.55231 -0.120823,-0.14828 -0.206937,-0.33245 -0.259022,-0.55231 z m -1.101061,-1.27347 c 6.52e-4,0.0502 0.0011,0.10083 0.0013,0.15175 -0.230135,0.014 -0.322983,-0.11225 -0.48186,-0.17159 0.06894,-0.1075 0.16176,-0.19207 0.224159,-0.30554 0.02875,-0.008 0.04481,0.004 0.05079,0.0246 0.0071,0.10751 -0.06466,0.1369 -0.04745,0.25324 0.03803,0.0958 0.155142,0.0715 0.252898,0.0475 z m -1.584772,4.56347 c -0.235193,0.0193 -0.527222,-0.12394 -0.684804,-0.26903 0.20292,0.11581 0.470543,0.16514 0.684804,0.26903 z m 1.261082,-0.11632 c -0.221657,0.0633 -0.593664,0.0164 -0.757509,0.009 0.08389,-0.32647 0.299211,-0.73849 0.492288,-1.04123 0.03022,0.28883 -0.324744,0.64966 -0.190066,0.96164 0.400227,-0.1005 0.354556,-0.63495 0.594774,-0.89116 0.06919,0.31143 -0.339213,0.67688 -0.139489,0.96115 z m 0.879188,-0.33945 c -0.176643,0.11921 -0.352618,0.23817 -0.602222,0.28522 0.148022,-0.45317 0.349039,-0.85559 0.539737,-1.26857 0.05489,0.26748 -0.282125,0.80236 0.06244,0.98335 z m 0.32483,-0.28127 c -0.05962,0.0595 -0.132231,0.20718 -0.224859,0.15403 0.05599,-0.18521 0.100389,-0.38394 0.169479,-0.55728 0.05871,0.0931 0.0044,0.30173 0.05535,0.40325 z m 0.212958,-1.16374 c -0.290491,0.19912 -0.242906,0.72678 -0.51873,0.94033 -0.01135,-0.24901 0.177851,-0.49387 0.06782,-0.68273 -0.432509,0.28569 -0.483935,0.94185 -0.817051,1.32286 -0.105156,-0.38566 0.403709,-0.83317 0.162586,-1.11224 -0.271172,0.18386 -0.320519,0.58448 -0.570704,0.78942 0.0052,-0.26335 0.209279,-0.45791 0.167944,-0.68349 -0.393541,0.0942 -0.481777,0.8383 -0.844116,1.12075 0.02695,-0.4142 0.182927,-0.70257 0.213446,-1.11314 -0.244296,0.26851 -0.263204,0.75732 -0.364344,1.16512 -0.10741,-0.009 -0.165125,-0.0692 -0.253595,-0.0973 0.08657,-0.29784 0.28354,-0.48816 0.394475,-0.76237 -0.167632,0.086 -0.259115,0.4622 -0.498207,0.56152 -0.04995,-0.414 0.242988,-0.81881 0.18645,-1.2391 -0.166314,0.39422 -0.283344,0.83676 -0.361774,1.31702 -0.127892,0.0102 -0.181328,-0.0529 -0.228822,-0.12335 0.136895,-0.29041 0.294786,-0.55972 0.367337,-0.91307 -0.162477,0.27344 -0.291987,0.57965 -0.443518,0.8632 -0.140645,-0.34821 0.228172,-1.0226 0.108246,-1.43989 -0.168195,0.38454 -0.119463,0.98099 -0.33735,1.31694 -0.07733,-0.0317 -0.12187,-0.0964 -0.178525,-0.1493 0.03439,-0.42393 0.285655,-0.63626 0.341038,-1.03914 -0.176112,0.21069 -0.217402,0.55294 -0.420214,0.73719 0.0048,-0.45411 0.218006,-1.04899 0.20816,-1.5175 -0.09055,0.061 -0.106084,0.19564 -0.147769,0.30473 -0.08897,-0.10275 0.1019,-0.25413 -0.05374,-0.30221 -0.120371,0.24044 -0.185886,0.53387 -0.268129,0.81149 -0.0037,0.0545 0.08962,0.01 0.126767,0.0235 0.08099,-0.0455 0.04215,-0.20835 0.09712,-0.27872 0.08939,0.21768 -0.07811,0.60027 -0.115073,0.85937 -0.179899,-0.27841 -0.360339,-0.5337 -0.265002,-1.00649 0.218691,-1.08617 0.912904,-2.31254 2.497852,-2.15127 0.568259,0.0577 0.992325,0.36092 1.422129,0.66405 0.191676,0.41664 0.261803,0.95864 0.570643,1.25511 0.072,0.69398 0.08289,1.27152 -0.308203,1.59445 -0.111758,-0.3513 0.191952,-0.74671 0.06282,-1.03571 z m 1.1604,-0.0649 c 0.02139,0.0655 -0.0022,0.27209 -0.02086,0.37887 -0.134206,-0.0286 -0.122369,-0.34851 0.02086,-0.37887 z m -0.562844,-0.59932 c 0.0015,0.0769 0.01641,0.16607 -0.07388,0.15237 -0.0014,-0.0767 -0.01639,-0.1657 0.07388,-0.15237 z m -0.144294,0.55742 c 0.180801,0.0354 0.372534,-0.045 0.55525,0.0185 -0.150139,0.2833 0.03912,0.58395 0.136942,0.88189 -0.206391,0.0808 -0.528901,0.0484 -0.806955,0.0604 0.06595,-0.20796 0.243934,-0.6235 0.11479,-0.96065 z m 1.062156,-1.88118 c -0.202265,0.51802 -0.392761,1.04668 -0.510025,1.64701 -0.06722,-8.3e-4 -0.143585,0.013 -0.176981,-0.023 0.04088,-0.17613 0.177484,-0.25909 0.196609,-0.45651 -0.186051,0.0764 -0.145924,0.37337 -0.348485,0.43322 0.1079,-0.49321 0.295223,-0.90876 0.36128,-1.44343 -0.230375,0.26617 -0.302174,0.90258 -0.565897,1.21905 -0.141964,-0.47514 0.248199,-1.11739 0.05538,-1.64162 -0.106926,0.23568 -0.167399,0.51806 -0.268405,0.76015 -0.143425,-0.12775 -0.246839,-0.42496 -0.209697,-0.65357 -0.163444,-0.17343 -0.382902,-0.28925 -0.535775,-0.473 -0.03623,0.0151 -0.0616,0.04 -0.07528,0.0768 0.127454,0.27854 0.509897,0.29549 0.488962,0.72581 -0.273743,-0.17142 -0.435618,-0.45694 -0.764746,-0.57121 -0.03093,-0.22254 -0.193336,-0.46771 -0.0076,-0.63066 -0.0057,-0.0365 -0.07556,-0.008 -0.07611,-0.0495 -0.009,-0.36627 0.09373,-0.62342 0.343822,-0.73639 0.224923,-1.45714 2.80045,-1.41728 3.279501,-0.21743 0.469871,0.18755 0.370611,1.06538 0.296672,1.53617 -0.05138,-0.0405 -0.0213,-0.16545 -0.103443,-0.17537 -0.170512,0.0583 -0.193884,0.25977 -0.323721,0.35725 -0.07179,-0.02 -0.03197,-0.15444 -0.07785,-0.20087 -0.290782,0.19022 -0.340199,0.61636 -0.595538,0.84099 0.0082,-0.17409 0.09895,-0.19532 0.04551,-0.37971 -0.128688,0.0905 -0.103013,0.3316 -0.273205,0.38232 0.02058,0.12392 0.02078,0.15263 0.0035,0.27711 -0.254776,0.0329 -0.201459,0.36869 -0.346549,0.50972 -0.03773,-0.34412 0.266938,-0.80838 0.187915,-1.11321 z m 1.514822,4.12127 c 0.002,-0.0646 0.09809,-0.037 0.0999,-0.10176 0.04447,0.004 0.05817,0.0422 0.05178,0.0999 -0.03201,0.0351 -0.118465,0.0358 -0.151664,0.002 z m 0.433573,0.34841 c -0.139404,-0.0276 -0.346571,0.014 -0.380142,-0.12158 0.15053,0.0164 0.401342,-0.0706 0.380142,0.12158 z m 0.09601,-0.43051 c -0.08149,-0.0808 0.08119,-0.1351 0.07277,-0.22834 0.0569,0.0579 -0.06097,0.15597 -0.07277,0.22834 z m 1.283272,-0.31838 c -0.01256,-0.14203 0.07798,-0.38638 0.119524,-0.55729 0.113794,0.0936 0.0046,0.38222 0.0064,0.53031 -0.07148,-0.0203 -0.06483,0.0362 -0.126149,0.0256 z m -1.055065,0.44228 c 0.09149,-0.23558 0.252769,-0.40241 0.320033,-0.66094 0.09352,0.12055 -0.05632,0.42388 -0.04278,0.63219 -0.05336,0.0472 -0.184392,0.0176 -0.277176,0.0295 z m 0.93471,0.0386 c 0.08374,-0.0925 0.07903,-0.27197 0.249066,-0.28095 0.102708,0.031 0.117966,0.15208 0.154384,0.25068 -0.371111,0.17816 -0.918714,0.31729 -1.43572,0.26999 0.363465,-0.0528 0.707064,-0.22843 1.03223,-0.2399 z m 0.80884,-1.97892 c -0.213532,0.32324 -0.192718,0.87589 -0.337564,1.26591 -0.152367,-0.14969 0.09952,-0.51598 -0.05899,-0.68068 -0.171623,-0.0176 -0.115304,0.18702 -0.249763,0.20525 0.0055,-0.0999 -0.01226,-0.17552 -0.07897,-0.201 -0.298243,0.29049 -0.227594,0.94053 -0.53981,1.21828 -0.127729,-0.48153 0.321572,-0.85639 0.211776,-1.24006 -0.112285,0.016 -0.12798,0.12552 -0.174075,0.20455 -0.06894,0.0186 -0.05136,-0.0497 -0.101593,-0.0493 -0.24987,0.31378 -0.491409,0.63532 -0.745956,0.94353 -0.04684,-0.34631 0.320167,-0.63436 0.29109,-0.9633 -0.32822,0.3452 -0.453062,0.88804 -0.843909,1.17174 0.09454,-0.38997 0.32969,-0.64269 0.416316,-1.04012 -0.306471,0.20009 -0.40695,0.60022 -0.69656,0.81679 0.07283,-0.37784 0.339796,-0.56667 0.417509,-0.93971 -0.217633,0.22451 -0.357554,0.36995 -0.624623,0.53795 0.0023,-0.29695 0.154492,-0.44764 0.218455,-0.68434 -0.171844,0.0977 -0.590414,0.725 -0.290046,0.96311 0.189397,-0.0554 0.152694,-0.33299 0.348141,-0.38321 -0.05511,0.23784 -0.218273,0.3691 -0.27008,0.60918 -0.191292,-0.0763 -0.251108,-0.2879 -0.383903,-0.42383 0.0672,-0.11836 0.182765,-0.18755 0.223117,-0.33123 -0.06723,-0.0557 -0.104068,0.1302 -0.226019,0.10376 -0.05492,-0.1586 0.150117,-0.26492 0.145684,-0.45598 -0.186747,0.0746 -0.209994,0.31 -0.29707,0.48325 -0.07589,-0.0502 -0.126832,-0.12557 -0.154106,-0.22519 0.100221,0.0147 0.135629,-0.0344 0.175665,-0.0781 -0.132323,-0.311 0.09578,-0.50378 0.141856,-0.78442 -0.226764,0.16088 -0.371291,0.40278 -0.368802,0.78722 -0.874805,-1.20029 0.429238,-2.62282 1.248677,-3.14579 0.233194,0.0182 0.580865,-0.0457 0.808157,0.0402 -0.596828,0.49047 -1.617393,0.56666 -1.901691,1.36153 0.181054,-0.13905 0.309731,-0.32938 0.524441,-0.43579 0.375715,0.58138 1.268981,0.37722 1.43572,-0.26997 7.9e-4,-0.0865 -0.07491,-0.0933 -0.127392,-0.12476 -0.131788,0.0375 -0.169854,0.16707 -0.249347,0.25546 -0.30982,0.0276 -0.537312,-0.009 -0.705454,0.135 -0.06824,0.0186 -0.05127,-0.0493 -0.101635,-0.0496 0.266882,-0.28726 0.820755,-0.54947 1.228784,-0.69668 0.949284,-0.34122 1.809704,0.57612 2.036534,1.41397 -0.149843,0.21455 -0.03414,0.54356 -0.217969,0.7349 -0.07717,0.0188 -0.04965,-0.0686 -0.12664,-0.0488 z m 0.03113,0.50422 c -0.06235,-0.086 -0.05254,-0.33512 0.0457,-0.40455 0.116406,0.0849 -0.0534,0.26519 -0.0457,0.40455 z m -0.265411,0.98819 c 0.09078,-0.19485 0.263382,-0.20361 0.328595,0.021 -0.07441,0.11833 -0.204537,0.18279 -0.273975,0.30627 -0.112066,-0.07 -7.11e-4,-0.21262 -0.05468,-0.32718 z m 1.847051,-5.80439 c -0.0027,0.14859 -0.385479,0.35382 -0.600198,0.46203 0.130855,-0.22168 0.377056,-0.33062 0.600198,-0.46203 z m -1.200187,0.94918 c 0.02163,-0.0996 0.02895,-0.15799 -0.02797,-0.22673 -0.272726,0.19065 -0.240157,0.6799 -0.493818,0.88913 -0.08295,-0.30082 0.215879,-0.5663 0.140876,-0.8597 -0.235425,0.25313 -0.238244,0.86353 -0.517961,0.99051 0.0286,-0.38902 0.336292,-0.63463 0.315785,-0.98786 -0.337233,0.3358 -0.434131,0.90593 -0.843977,1.17139 0.01865,-0.53083 0.459591,-0.64926 0.516498,-1.14225 -0.383101,0.23296 -0.46056,0.76446 -0.718602,1.11938 -0.09129,0.0122 -0.163921,-0.002 -0.227507,-0.0222 0.03599,-0.5137 0.342518,-0.76342 0.439761,-1.21718 -0.215128,0.12278 -0.311419,0.57771 -0.597139,0.71445 0.04772,-0.48112 0.501258,-0.81942 0.439413,-1.24299 -0.307464,0.30777 -0.521055,0.7065 -0.795555,1.04519 0.214071,-0.0487 0.321628,-0.41794 0.497583,-0.58692 -0.0036,0.3626 -0.359468,0.59675 -0.391063,1.01472 0.009,0.0328 0.04502,0.0393 0.05127,0.0752 0.174373,0.0208 0.245787,-0.0593 0.27516,-0.17998 0.0567,0.10504 -0.05888,0.25725 -0.07076,0.37922 -0.297811,0.0414 -0.308535,-0.21171 -0.607855,-0.16896 -0.05836,-0.26144 0.364437,-0.35117 0.144503,-0.53231 0.10484,-0.57921 0.437004,-0.93739 0.588023,-1.4713 -0.263521,0.29162 -0.429863,0.6783 -0.745822,0.91833 0.05787,-0.45112 0.387552,-0.85158 0.513723,-1.31923 -0.110373,0.0257 -0.197087,0.28952 -0.348835,0.35747 0.121004,0.25283 -0.185134,0.4712 -0.218315,0.73496 -0.0912,-0.009 -0.07876,-0.12415 -0.128504,-0.17483 0.01392,-0.0947 0.08651,-0.13181 0.123978,-0.20345 -0.03019,-0.10336 -0.112423,-0.005 -0.202185,-0.0233 0.125129,-0.49331 0.345364,-0.89301 0.48784,-1.36917 -0.245988,0.0842 -0.153661,0.49813 -0.47351,0.51109 5.39e-4,-0.0436 -0.01955,-0.0653 -0.05171,-0.0756 0.189224,-0.0896 0.197036,-0.35634 0.348001,-0.48378 -0.01602,-0.0832 -0.09592,-0.0349 -0.151894,-0.0235 0.437594,-0.6626 1.139803,-1.38558 2.157439,-1.11262 0.01729,0.0851 0.04252,0.16136 0.102978,0.20066 0.804991,-0.39763 1.306948,0.45787 1.727762,0.86269 0.02992,0.37763 0.251856,0.77618 0.141142,1.18472 -0.670433,0.21907 -1.042017,0.72941 -1.398887,1.25448 z m 1.563355,-2.19062 c 3.4e-5,-0.042 -10e-4,-0.084 -0.0012,-0.12629 0.07714,-0.0395 0.07972,0.1642 0.0012,0.12629 z m 0.261523,0.70384 c -0.202157,0.0135 -0.13124,-0.25731 -0.182003,-0.40196 0.09492,0.0151 0.14544,0.0383 0.176281,-0.0527 0.125388,0.0756 -0.107571,0.30446 0.0057,0.45457 z m 0.379521,0.0962 c -0.01976,-0.0943 0.02708,-0.12315 0.0999,-0.12759 0.01131,0.0863 -0.0058,0.14413 -0.0999,0.12759 z m -1.214966,-4.37757 c 1.080983,0.53415 2.121029,1.90967 1.608741,3.53948 -0.251817,0.1374 -0.35719,0.54746 -0.623785,0.58847 -0.0073,-0.46505 0.401396,-0.73784 0.515526,-1.16759 -0.29869,0.20685 -0.389191,0.61761 -0.747691,0.76635 -0.0274,-0.48451 0.405738,-0.73399 0.541613,-1.14245 -0.312208,0.12067 -0.435934,0.63782 -0.773012,0.81728 -0.0036,-0.0472 -0.0175,-0.0843 -0.05154,-0.10067 0.07706,-0.36718 0.432622,-0.58831 0.468428,-0.9144 -0.231952,0.17302 -0.32611,0.47992 -0.59853,0.61301 -0.01734,-0.35888 0.282116,-0.62121 0.39252,-0.93882 -0.318012,-0.009 -0.396807,0.42681 -0.725847,0.48862 0.07535,-0.28346 0.253536,-0.46688 0.344176,-0.73641 -0.05935,-0.0797 -0.112102,0.0556 -0.201571,0.028 0.09594,0.25123 -0.268001,0.44238 -0.268548,0.76125 -0.09119,-0.0272 -0.218024,-0.15097 -0.20454,-0.19993 0.08854,-0.13798 0.234623,-0.22028 0.32413,-0.35699 -0.192662,-0.0297 -0.241818,0.29606 -0.475872,0.30849 -0.06229,-0.31639 0.373697,-0.47732 0.318361,-0.78602 -0.158913,0.0276 -0.196672,0.17334 -0.32532,0.23069 -0.01768,0.0866 0.10331,0.0305 0.07723,0.1255 -0.07904,0.10548 -0.128263,0.24056 -0.222843,0.33083 -0.06492,-0.0105 -0.116545,-0.0339 -0.15272,-0.0739 0.05209,-0.1406 0.21259,-0.17466 0.274323,-0.30635 -0.190008,0.006 -0.184026,0.20327 -0.376036,0.20644 -0.03798,-0.18417 0.206313,-0.20508 0.09587,-0.37945 -0.196192,0.0311 -0.206405,0.24713 -0.298049,0.38209 -0.07925,-0.006 -0.185429,0.0177 -0.22752,-0.0223 0.03026,-0.2862 0.252401,-0.3858 0.294639,-0.66032 -0.196467,0.17438 -0.295473,0.4434 -0.446306,0.66213 -0.15472,-0.012 -0.310176,-0.0223 -0.429889,-0.0706 0.06983,-0.37295 0.383703,-0.63844 0.391688,-0.98931 -0.184609,0.2853 -0.392623,0.54819 -0.697879,0.7157 0.07201,-0.44489 0.280496,-0.75712 0.36386,-1.19166 -0.118186,0.2591 -0.343803,0.41294 -0.497368,0.63794 -0.02436,-0.17965 -0.06212,-0.34552 -0.131835,-0.47859 0.441354,-0.53968 1.551225,-1.13818 2.465641,-0.68629 z M 55.6802,120.65963 c -0.105834,0.073 -0.278531,-0.004 -0.403722,0.005 0.08818,-0.11026 0.298953,-0.0631 0.403722,-0.005 z m 2.967009,5.16366 c -0.236515,-0.0557 -0.528845,-0.0547 -0.658853,-0.21874 0.178823,-0.20045 0.339006,0.0783 0.605701,0.0174 0.04379,0.0404 0.0642,0.10469 0.05315,0.20135 z m 1.246464,0.74206 c -0.169413,-0.006 -0.315072,-0.25645 -0.434065,-0.39901 0.236837,0.0389 0.295546,0.25953 0.434065,0.39901 z m 0.456324,0.14561 c 5.65e-4,0.0337 6.54e-4,0.0674 0.0011,0.10115 -0.07907,0.009 -0.113287,-0.0207 -0.102467,-0.10011 0.03341,-0.003 0.06723,8.2e-4 0.101385,-0.003 z m 0.217423,1.28492 c -0.03917,-0.11276 -0.08898,-0.21558 -0.08021,-0.37755 0.10846,0.055 0.112171,0.24988 0.08021,0.37755 z m -0.113465,-0.98314 c 0.225663,-0.0631 0.276753,-0.29567 0.475453,-0.38459 0.03372,0.2328 -0.208952,0.41151 -0.346817,0.56014 -0.06335,-0.0375 -0.116528,-0.0855 -0.128634,-0.17555 z m -1.335743,-3.9469 c 0.553597,-0.0478 1.150611,0.36355 1.498526,0.73907 0.431144,0.46533 1.171315,1.69033 0.509072,2.39156 -0.176191,0.18623 -0.281002,0.55666 -0.648066,0.63915 0.07677,-0.48141 0.478872,-0.64617 0.617589,-1.06772 -0.364023,0.18502 -0.434378,0.65691 -0.848503,0.79312 0.01681,-0.33318 0.253448,-0.45069 0.370468,-0.68619 -0.232031,-0.0161 -0.310684,0.32631 -0.525127,0.41007 -0.07437,0.0796 0.09866,0.049 0.0519,0.17642 -0.483862,-0.14674 0.136081,-0.58671 0.191801,-0.88613 -0.234098,0.0213 -0.312727,0.41011 -0.472535,0.58635 -0.109324,-0.0244 -0.144335,-0.12503 -0.204468,-0.19959 0.119184,-0.17446 0.311527,-0.27764 0.346532,-0.53385 -0.339939,0.0408 -0.221445,0.39344 -0.473016,0.53579 -0.09947,-0.009 -0.137739,-0.08 -0.203085,-0.12406 0.04227,-0.24288 0.334918,-0.36804 0.26952,-0.63423 -0.113058,0.023 -0.137147,0.13198 -0.250599,0.15475 0.0321,0.0763 0.0961,-0.0381 0.126764,0.0235 -0.101875,0.14702 -0.172766,0.41092 -0.374362,0.38326 -0.07041,-0.0719 0.01269,-0.13436 0.02288,-0.20211 -0.07633,0.0129 -0.170033,0.0959 -0.251967,0.0266 -0.05495,-0.23657 0.218084,-0.34605 0.270847,-0.55898 -0.141249,0.028 -0.401812,0.23836 -0.398861,0.40884 -0.09509,-0.0306 -0.229032,-0.0209 -0.304028,-0.072 0.03645,-0.28022 0.24896,-0.38874 0.345708,-0.61021 -0.21113,0.0435 -0.347415,0.37585 -0.472057,0.58696 -0.122421,-0.13613 -0.183589,0.0371 -0.3283,-0.0213 0.154026,-0.34834 0.334683,-0.67061 0.517478,-0.99112 -0.336419,0.14585 -0.382716,0.78956 -0.745115,0.99405 -0.02767,-0.0941 0.06205,-0.0728 0.04912,-0.15221 -0.04585,-0.0158 -0.109451,0.0933 -0.202206,0.003 0.07103,-0.18738 0.229033,-0.001 0.352242,-0.10517 -0.08916,-0.5034 0.252308,-0.77825 0.415274,-1.11572 -0.329737,-0.5131 0.236515,-0.85027 0.746435,-0.89299 z m 8.042605,7.29756 c -0.249798,-0.49195 -0.582562,-1.03354 -0.951963,-1.42714 0.404645,-0.31438 -0.0046,-0.97229 -0.243455,-1.3097 -0.466,-0.65944 -1.468665,-1.19373 -2.315235,-1.46112 -0.01231,-0.86553 -0.550994,-1.191 -0.929634,-1.68019 -0.588828,-0.0933 -0.956853,-0.74048 -1.6719,-0.45882 -0.525196,-0.70329 -1.808258,-1.59851 -2.786731,-0.77331 -0.07812,-0.63492 -0.336937,-0.94578 -0.67388,-1.40535 -0.421069,-0.57619 -1.122532,-1.15462 -1.808755,-1.36624 -0.917889,-0.28304 -1.772611,0.43187 -2.210032,0.93631 -0.520367,-0.2532 -0.997109,-0.84587 -1.703276,-0.96413 -0.996497,-0.16605 -1.702753,0.2921 -2.28942,0.6592 -0.13745,0.36705 -0.583563,0.55874 -0.466269,1.09189 0.143793,0.0723 0.197108,-0.0879 0.326726,-0.10512 -0.154461,-0.0957 -0.120618,-0.31186 -0.0056,-0.45426 0.0294,0.0902 0.119347,0.17772 0.205863,0.27517 -0.428888,0.56313 -1.300714,0.69272 -1.62458,1.35799 -0.07996,-0.11561 -0.180064,0.0143 -0.302946,0.003 0.03355,-0.0751 0.02955,-0.15669 -0.02773,-0.20159 -0.29817,0.12446 -0.48991,0.48586 -0.750334,0.56416 0.03958,-0.16977 0.317737,-0.31408 0.144984,-0.53168 -0.234074,0.0101 -0.371133,0.36106 -0.526943,0.28425 0.114125,-0.10803 0.28719,-0.28079 0.22138,-0.48254 -0.395944,0.42016 -0.640938,1.25268 -1.322709,1.22852 0.270671,-0.14392 0.356343,-0.46674 0.572443,-0.66401 -0.07867,-0.0239 -0.09621,0.1355 -0.150487,0.0522 0.130983,-0.2968 0.425157,-0.56385 0.468566,-0.86376 -0.318953,0.18024 -0.40919,0.79759 -0.76968,1.01932 -0.07878,-0.39438 0.381504,-0.47413 0.469893,-0.78853 -0.193926,0.0709 -0.285379,0.36776 -0.475249,0.35975 0.09954,-0.16275 0.281311,-0.44783 0.168777,-0.65885 -0.240397,0.0312 -0.405574,0.26894 -0.577449,0.2851 0.0763,-0.24159 0.243527,-0.3945 0.26938,-0.68487 -0.162614,-0.0693 -0.242495,0.14095 -0.350921,0.20621 0.120744,0.0332 0.130304,-0.17086 0.226192,-0.0788 -0.0497,0.11784 -0.08431,0.25033 -0.172887,0.33081 -0.156109,-0.18744 -0.242488,-0.0273 -0.404012,-0.0207 0.02983,-0.21999 0.128698,-0.37326 0.322672,-0.4329 0.04403,-0.11563 0.11258,-0.20659 0.121755,-0.35535 0.648101,-0.74808 1.998581,-0.63754 2.850664,-0.1864 0.386128,0.20416 0.438056,0.81148 0.841553,0.69641 -0.192773,-0.23923 -0.367735,-0.66418 -0.69135,-0.84996 -0.174505,-0.099 -0.418522,-0.12492 -0.609317,-0.2449 -0.24395,-0.1531 -0.389847,-0.29726 -0.635471,-0.32029 -0.517179,-0.0482 -1.379538,0.32417 -1.758791,0.65273 -0.333316,0.28939 -0.457462,0.76743 -0.743379,1.14537 -0.01629,0.11959 0.154205,0.18133 0.104576,0.25133 -1.300678,-0.32394 -2.602564,0.0595 -2.889405,1.14639 -0.267688,0.0466 -0.655208,-0.0244 -0.780912,0.16098 -0.700363,-0.18085 -1.427915,0.24168 -1.63001,0.85304 -0.631712,-0.21036 -1.210157,0.0419 -1.813949,0.35046 -0.828175,0.42441 -1.49552,1.4303 -1.104942,2.48751 -0.812812,0.15588 -1.539301,1.26811 -1.590172,2.08984 -0.04006,0.65251 0.571019,1.16625 1.076535,1.32457 -0.961499,1.10943 0.344264,3.16141 1.778283,2.90673 0.0015,0.12618 0.003,0.25241 0.0045,0.37827 0.444269,0.83978 0.924852,1.64264 1.942047,1.89484 0.785788,2.19368 1.871845,4.07956 4.197957,4.6944 0.06668,0.007 0.01895,-0.0984 0.100038,-0.077 0.862508,0.31429 1.691793,1.05298 2.887474,0.77207 0.723543,0.51268 2.273348,0.91655 3.210277,0.31393 0.649597,1.08629 2.679709,0.70713 3.510492,0.13344 0.604768,0.30472 1.614949,-0.11321 2.270567,-0.12945 0.542308,-0.0125 0.833807,-0.50636 1.203254,-0.67089 1.252229,0.30212 2.037549,-0.67925 2.889824,-1.09613 0.42315,-0.78127 1.405868,-0.85619 2.027194,-1.43878 0.245963,-0.23036 0.502459,-0.63025 0.745679,-0.94311 0.746239,-0.95871 1.374004,-2.10352 1.90522,-3.1534 0.322055,-0.63761 1.460004,-1.15636 1.033913,-2.13371 0.898372,-0.36834 1.999725,-1.02913 1.738884,-2.2934 -0.01066,-0.049 -0.05631,-0.15831 -0.07793,-0.2012"
       inkscape:connector-curvature="0" />
    <path
       id="path926"
       style="fill:#000000;fill-opacity:1;fill-rule:evenodd;stroke:none;stroke-width:0.03527778"
       d="m 44.414113,128.29683 c 0.199339,-0.0801 0.410481,-0.28069 0.474556,-0.40957 -0.123246,0.17021 -0.451179,0.14153 -0.474556,0.40957"
       inkscape:connector-curvature="0" />
    <path
       id="path928"
       style="fill:#000000;fill-opacity:1;fill-rule:evenodd;stroke:none;stroke-width:0.03527778"
       d="m 40.539315,137.53391 c 0.324223,-0.0921 0.555644,-0.48788 0.824083,-0.71723 -0.238721,0.15854 -0.720187,0.42714 -0.824083,0.71723"
       inkscape:connector-curvature="0" />
  </g>
</svg>
