<?xml version="1.0" encoding="UTF-8" standalone="no"?>
<!-- Created with Inkscape (http://www.inkscape.org/) -->

<svg
   xmlns:dc="http://purl.org/dc/elements/1.1/"
   xmlns:cc="http://creativecommons.org/ns#"
   xmlns:rdf="http://www.w3.org/1999/02/22-rdf-syntax-ns#"
   xmlns:svg="http://www.w3.org/2000/svg"
   xmlns="http://www.w3.org/2000/svg"
   xmlns:sodipodi="http://sodipodi.sourceforge.net/DTD/sodipodi-0.dtd"
   xmlns:inkscape="http://www.inkscape.org/namespaces/inkscape"
   width="28.576437mm"
   height="25.515364mm"
   viewBox="0 0 28.576437 25.515364"
   version="1.1"
   id="svg4625"
   sodipodi:docname="tort.svg"
   inkscape:version="0.92.3 (2405546, 2018-03-11)">
  <defs
     id="defs4619" />
  <sodipodi:namedview
     id="base"
     pagecolor="#ffffff"
     bordercolor="#666666"
     borderopacity="1.0"
     inkscape:pageopacity="0.0"
     inkscape:pageshadow="2"
     inkscape:zoom="5.6"
     inkscape:cx="-63.743663"
     inkscape:cy="52.876438"
     inkscape:document-units="mm"
     inkscape:current-layer="layer1"
     showgrid="false"
     inkscape:window-width="3840"
     inkscape:window-height="2066"
     inkscape:window-x="-11"
     inkscape:window-y="-11"
     inkscape:window-maximized="1" />
  <metadata
     id="metadata4622">
    <rdf:RDF>
      <cc:Work
         rdf:about="">
        <dc:format>image/svg+xml</dc:format>
        <dc:type
           rdf:resource="http://purl.org/dc/dcmitype/StillImage" />
        <dc:title></dc:title>
      </cc:Work>
    </rdf:RDF>
  </metadata>
  <g
     inkscape:label="Layer 1"
     inkscape:groupmode="layer"
     id="layer1"
     transform="translate(-64.975689,-132.48705)">
    <g
       id="g7144"
       transform="rotate(-18,79.65939,144.9292)">
      <path
         inkscape:connector-curvature="0"
         d="m 86.868392,136.48831 c 0.0822,0.0212 0.155575,0.0205 0.180623,-0.0949 -0.02434,-0.0102 -0.04868,-0.0204 -0.07303,-0.03 -0.03069,0.0529 -0.06914,0.0875 -0.107598,0.12488"
         style="fill:#000000;fill-opacity:1;fill-rule:evenodd;stroke:none;stroke-width:0.03527778"
         id="path2440" />
      <path
         inkscape:connector-curvature="0"
         d="m 77.394192,133.60259 c 0.0441,-0.006 0.07655,-0.0395 0.09772,-0.1009 -0.01976,-0.0317 -0.05151,-0.0586 -0.110422,-0.0737 -0.03104,0.073 -0.07973,0.15311 0.0127,0.17463"
         style="fill:#000000;fill-opacity:1;fill-rule:evenodd;stroke:none;stroke-width:0.03527778"
         id="path2442" />
      <path
         inkscape:connector-curvature="0"
         d="m 74.399464,132.79226 c 0.01516,-0.0261 0.04868,-0.0106 0.08219,0.006 0.02646,-0.0645 0.05292,-0.12876 0.07937,-0.19297 -0.024,-0.0102 -0.04833,-0.0201 -0.07232,-0.03 -0.0067,0.0998 -0.127,0.17074 -0.08925,0.21696"
         style="fill:#000000;fill-opacity:1;fill-rule:evenodd;stroke:none;stroke-width:0.03527778"
         id="path2444" />
      <path
         inkscape:connector-curvature="0"
         d="m 86.70153,140.11451 c -0.168981,0.10584 -0.32385,0.24589 -0.445558,0.46496 0.195085,-0.012 0.393345,-0.26916 0.445558,-0.46496"
         style="fill:#000000;fill-opacity:1;fill-rule:evenodd;stroke:none;stroke-width:0.03527778"
         id="path2446" />
      <path
         inkscape:connector-curvature="0"
         d="m 92.878667,142.8556 c -0.111828,0.042 0.0056,0.16898 -0.0896,0.2166 -2.63525,0.70838 -5.635274,0.54152 -8.796163,-0.0109 1.496483,0.40394 2.929466,0.50483 4.319764,0.53764 0.612424,0.0141 1.235782,0.0995 1.782586,0.0568 0.675571,-0.054 1.371954,-0.19615 2.037291,-0.28964 0.376767,-0.0529 0.79093,-0.10654 1.097847,-0.33796 0.01588,-0.14287 -0.25118,-0.17639 -0.351722,-0.1725"
         style="fill:#000000;fill-opacity:1;fill-rule:evenodd;stroke:none;stroke-width:0.03527778"
         id="path2448" />
      <path
         inkscape:connector-curvature="0"
         d="m 84.191867,142.57867 c -0.800452,-0.0667 -1.619953,-0.18486 -2.495902,-0.37854 -0.848076,-0.18767 -1.818923,-0.27834 -2.608791,-0.65122 -1.279877,-0.60396 -2.855032,-1.36525 -4.073525,-1.95933 0.993068,0.60501 2.172758,1.13242 3.28154,1.69016 -2.395363,-0.68157 -4.080582,-2.05246 -5.489224,-3.24767 -0.360891,-0.30657 -0.8001,-0.52353 -1.076325,-0.81034 -0.308681,-0.31855 -0.444148,-0.86959 -0.66181,-1.20297 1.437217,1.26612 2.926292,2.7231 4.840817,3.6576 -0.846315,-0.47131 -1.654175,-1.02588 -2.36573,-1.65135 -0.714375,-0.62759 -1.526468,-1.14194 -2.118428,-1.77483 -0.232834,-0.2487 -0.400757,-0.74682 -0.743657,-0.72954 0.306565,0.57115 0.508352,1.34726 0.974373,1.81187 0.269521,0.26846 0.67945,0.49777 1.014942,0.756 0.325967,0.25153 0.642408,0.54187 0.970137,0.79446 1.43369,1.10666 2.93723,1.94204 4.67713,2.54705 1.842203,0.63994 3.796241,1.34303 5.651851,1.62137 -1.002241,-0.32562 -2.315985,-0.47449 -3.322814,-0.97332 2.649008,0.74225 5.056013,0.56656 7.446433,0.75283 0.337608,0.0268 0.693915,0.13088 1.021292,0.0543 -0.01553,-0.007 -0.0321,-0.0134 -0.04762,-0.0201 -1.550459,-0.25611 -3.16865,-0.14393 -4.874684,-0.28645"
         style="fill:#000000;fill-opacity:1;fill-rule:evenodd;stroke:none;stroke-width:0.03527778"
         id="path2450" />
      <path
         inkscape:connector-curvature="0"
         d="m 75.937222,139.7441 c 0.05574,0.007 0.146402,0.0953 0.178504,0.0459 -0.04727,-0.0349 -0.131234,-0.12242 -0.178504,-0.0459"
         style="fill:#000000;fill-opacity:1;fill-rule:evenodd;stroke:none;stroke-width:0.03527778"
         id="path2452" />
      <path
         inkscape:connector-curvature="0"
         d="m 89.67968,149.8032 c -0.02928,-0.0282 -0.04375,-0.0624 -0.04269,-0.1023 0.02717,-0.11113 0.0889,-0.13794 0.151697,-0.16334 0.07055,0.0257 0.1524,0.0783 0.2032,0.0554 -0.117475,-0.48472 -0.691447,0.0159 -0.468138,0.31538 0.204258,0.0903 0.371123,0.091 0.48895,-0.0243 -0.04269,-0.13794 -0.197202,-0.007 -0.333021,-0.0808"
         style="fill:#000000;fill-opacity:1;fill-rule:evenodd;stroke:none;stroke-width:0.03527778"
         id="path2454" />
      <path
         inkscape:connector-curvature="0"
         d="m 67.166107,140.08206 c -0.05574,0.055 -0.09313,0.0794 -0.09278,0.1591 0.06385,0.054 0.191558,-0.12876 0.09278,-0.1591"
         style="fill:#000000;fill-opacity:1;fill-rule:evenodd;stroke:none;stroke-width:0.03527778"
         id="path2456" />
      <path
         inkscape:connector-curvature="0"
         d="m 70.554539,142.26716 c -0.06844,0.0956 0.04868,0.11254 0.0032,0.19826 -0.05962,8e-4 -0.1016,0.0441 -0.174274,0.013 -0.05856,-0.1524 0.09031,-0.26353 0.172157,-0.35172 -0.185208,-0.0473 -0.261057,0.17216 -0.346782,0.36442 0.174625,0.45332 0.927807,-0.20179 0.345724,-0.22401"
         style="fill:#000000;fill-opacity:1;fill-rule:evenodd;stroke:none;stroke-width:0.03527778"
         id="path2458" />
      <path
         inkscape:connector-curvature="0"
         d="m 67.095551,140.87122 c 0.01976,-0.009 0.103716,-0.0914 0.04974,-0.12065 -0.04269,0.0247 -0.125941,0.0667 -0.04974,0.12065"
         style="fill:#000000;fill-opacity:1;fill-rule:evenodd;stroke:none;stroke-width:0.03527778"
         id="path2460" />
      <path
         inkscape:connector-curvature="0"
         d="m 78.896674,145.98368 c 0.01693,0.0134 0.01976,0.0321 0.0049,0.0586 0.45861,0.25894 0.397578,-0.37994 -0.0049,-0.0586"
         style="fill:#000000;fill-opacity:1;fill-rule:evenodd;stroke:none;stroke-width:0.03527778"
         id="path2462" />
      <path
         inkscape:connector-curvature="0"
         d="m 82.828734,147.60258 c -0.1016,0.12453 0.09596,0.20002 -0.02716,0.27093 -0.115007,0.0233 -0.08572,-0.15593 -0.201438,-0.19544 -0.09737,0.0917 -0.166862,0.23248 -0.115358,0.34713 0.3302,0.20885 0.757766,-0.32455 0.343958,-0.42262"
         style="fill:#000000;fill-opacity:1;fill-rule:evenodd;stroke:none;stroke-width:0.03527778"
         id="path2464" />
      <path
         inkscape:connector-curvature="0"
         d="m 76.927467,145.28588 c -0.0099,0.0236 -0.01939,0.0487 -0.02963,0.0723 0.05786,0.0589 0.10513,0.0575 0.150638,-0.0229 -0.02752,-0.0639 -0.05962,-0.0272 -0.121005,-0.0494"
         style="fill:#000000;fill-opacity:1;fill-rule:evenodd;stroke:none;stroke-width:0.03527778"
         id="path2466" />
      <path
         inkscape:connector-curvature="0"
         d="m 68.551465,142.06255 c 0.10654,-0.0448 0.448734,0.0878 0.448382,0.21273 -0.158398,0.25929 -0.394407,0.33337 -0.681215,0.28398 -0.04339,-0.0684 0.120298,-0.22295 0.02752,-0.27058 -0.09666,0.0896 -0.194027,0.25541 -0.12559,0.37148 0.390525,0.09 0.704498,-0.004 0.895705,-0.39335 0.0074,-0.25506 -0.483659,-0.42298 -0.564799,-0.20426"
         style="fill:#000000;fill-opacity:1;fill-rule:evenodd;stroke:none;stroke-width:0.03527778"
         id="path2468" />
      <path
         inkscape:connector-curvature="0"
         d="m 75.072915,144.72003 c -0.215548,-0.33479 -0.631118,0.25647 -0.24906,0.26388 0.0388,-0.0896 -0.07408,-0.11607 0.0063,-0.22261 0.04374,-0.10442 0.189087,0.037 0.24271,-0.0413"
         style="fill:#000000;fill-opacity:1;fill-rule:evenodd;stroke:none;stroke-width:0.03527778"
         id="path2470" />
      <path
         inkscape:connector-curvature="0"
         d="m 68.437872,142.26998 c 0.119943,0.0162 0.228245,0.005 0.296685,-0.10371 -0.12206,-0.0205 -0.237067,-0.024 -0.296685,0.10371"
         style="fill:#000000;fill-opacity:1;fill-rule:evenodd;stroke:none;stroke-width:0.03527778"
         id="path2472" />
      <path
         inkscape:connector-curvature="0"
         d="m 79.793789,147.36833 c -0.0039,-0.40781 0.644876,-0.23706 0.48401,0.0586 -0.0635,0.11501 -0.389115,0.11642 -0.48401,-0.0586 z m 0.148518,-0.3616 c -0.131233,0.18204 -0.347133,0.35031 -0.169685,0.55069 0.697087,0.38347 0.917575,-0.68792 0.169685,-0.55069"
         style="fill:#000000;fill-opacity:1;fill-rule:evenodd;stroke:none;stroke-width:0.03527778"
         id="path2474" />
      <path
         inkscape:connector-curvature="0"
         d="m 71.312305,143.50929 c 0.108654,0.0385 0.202142,0.0226 0.162629,0.15205 -0.03845,0.0656 -0.09525,0.0892 -0.170037,0.0709 -0.08043,-0.0194 -0.02363,-0.0963 -0.124532,-0.1076 -0.07691,0.0317 -0.04833,0.12171 -0.04516,0.17851 0.261763,0.14922 0.396171,-0.007 0.496358,-0.24624 -0.05962,-0.0617 -0.27587,-0.26423 -0.319262,-0.0476"
         style="fill:#000000;fill-opacity:1;fill-rule:evenodd;stroke:none;stroke-width:0.03527778"
         id="path2476" />
      <path
         inkscape:connector-curvature="0"
         d="m 88.611467,151.02734 c 0.06456,-0.1277 0.228248,-0.23495 0.330555,-0.11782 -0.07056,0.13299 -0.223308,0.22083 -0.330555,0.11782 z m 0.405342,-0.36865 c -0.0575,0.0691 -0.117827,0.13159 -0.24271,0.0406 -0.120298,0.0945 -0.257175,0.14852 -0.323144,0.37465 0.222602,0.37959 0.857602,-0.0713 0.565854,-0.41522"
         style="fill:#000000;fill-opacity:1;fill-rule:evenodd;stroke:none;stroke-width:0.03527778"
         id="path2478" />
      <path
         inkscape:connector-curvature="0"
         d="m 84.748199,149.38022 c -0.03775,0.1076 -0.172509,0.16405 -0.143227,0.27905 0.09419,-0.0286 0.183443,-0.0691 0.24412,-0.18133 -0.04198,-0.0289 -0.01553,-0.0864 -0.100893,-0.0977"
         style="fill:#000000;fill-opacity:1;fill-rule:evenodd;stroke:none;stroke-width:0.03527778"
         id="path2480" />
      <path
         inkscape:connector-curvature="0"
         d="m 89.161801,152.15658 c 0.141464,0.079 0.305506,-0.0864 0.403579,-0.2286 -0.03951,-0.43427 -0.756356,0.0314 -0.403579,0.2286"
         style="fill:#000000;fill-opacity:1;fill-rule:evenodd;stroke:none;stroke-width:0.03527778"
         id="path2482" />
      <path
         inkscape:connector-curvature="0"
         d="m 74.652051,145.675 c -0.07408,0.22966 -0.2286,0.32984 -0.380646,0.23777 -0.0254,0.0646 -0.06526,0.13406 -0.0448,0.17886 0.03351,0.0127 0.04798,0.0335 0.06244,0.054 0.18133,-0.0596 0.355955,-0.13546 0.463198,-0.37323 -0.04127,-0.0293 -0.01516,-0.0868 -0.100189,-0.0974"
         style="fill:#000000;fill-opacity:1;fill-rule:evenodd;stroke:none;stroke-width:0.03527778"
         id="path2484" />
      <path
         inkscape:connector-curvature="0"
         d="m 75.642299,146.42077 c -0.08643,-0.024 -0.13476,-0.0638 -0.08078,-0.14605 0.08678,0.024 0.134053,0.0638 0.08078,0.14605 z m -0.02151,-0.29069 c -0.47484,-0.0148 0.0039,0.7807 0.200377,0.33655 0.06773,-0.1531 -0.126648,-0.33408 -0.200377,-0.33655"
         style="fill:#000000;fill-opacity:1;fill-rule:evenodd;stroke:none;stroke-width:0.03527778"
         id="path2486" />
      <path
         inkscape:connector-curvature="0"
         d="m 87.785264,151.25136 c -0.04939,0.25576 -0.315738,0.22189 -0.3048,0.46672 0.26811,0.30374 0.719312,-0.33338 0.3048,-0.46672"
         style="fill:#000000;fill-opacity:1;fill-rule:evenodd;stroke:none;stroke-width:0.03527778"
         id="path2488" />
      <path
         inkscape:connector-curvature="0"
         d="m 82.96138,149.74464 c -0.02434,-0.254 0.292804,-0.13829 0.349602,-0.025 -0.06914,0.1217 -0.222602,0.0413 -0.349602,0.025 z m 0.06738,-0.36724 c -0.124883,0.0642 -0.297037,0.29457 -0.213077,0.44873 0.49036,0.38383 1.03646,-0.33549 0.213077,-0.44873"
         style="fill:#000000;fill-opacity:1;fill-rule:evenodd;stroke:none;stroke-width:0.03527778"
         id="path2490" />
      <path
         inkscape:connector-curvature="0"
         d="m 84.624726,150.09107 c -0.02858,0.0328 -0.146402,0.091 -0.09384,0.1591 0.02574,-0.0787 0.192616,-0.0642 0.09384,-0.1591"
         style="fill:#000000;fill-opacity:1;fill-rule:evenodd;stroke:none;stroke-width:0.03527778"
         id="path2492" />
      <path
         inkscape:connector-curvature="0"
         d="m 80.450659,148.5138 c 0.04127,0.0557 0.139348,0.0882 0.09525,0.17992 -0.05292,0.0173 -0.07761,0.10266 -0.160867,0.0466 -0.06173,-0.0141 0.05892,-0.10406 -0.04233,-0.1023 -0.08255,-0.005 -0.149929,0.0233 -0.204258,0.0854 0.125238,0.60784 0.968729,-0.33831 0.312208,-0.20955"
         style="fill:#000000;fill-opacity:1;fill-rule:evenodd;stroke:none;stroke-width:0.03527778"
         id="path2494" />
      <path
         inkscape:connector-curvature="0"
         d="m 85.903192,151.09719 c 0.04269,-0.13194 0.275873,-0.17074 0.222605,0.007 -0.05856,0.0356 -0.12559,0.0508 -0.222605,-0.007 z m -0.166158,0.12877 c 0.237773,0.0843 0.45579,0.0878 0.54328,-0.0864 0.232833,-0.46496 -0.694622,-0.38171 -0.54328,0.0864"
         style="fill:#000000;fill-opacity:1;fill-rule:evenodd;stroke:none;stroke-width:0.03527778"
         id="path2496" />
      <path
         inkscape:connector-curvature="0"
         d="m 69.377317,144.23637 c 0.01553,-0.12277 0.115713,-0.042 0.15593,-0.10513 0.145343,0.084 -0.08961,0.25929 -0.15593,0.10513 z m -0.07938,0.19261 c 0.223309,0.0921 0.463905,-0.0773 0.433565,-0.30056 -0.20955,-0.26317 -0.489302,0.0716 -0.433565,0.30056"
         style="fill:#000000;fill-opacity:1;fill-rule:evenodd;stroke:none;stroke-width:0.03527778"
         id="path2498" />
      <path
         inkscape:connector-curvature="0"
         d="m 78.61304,148.17972 c -0.07973,0.10725 0.0095,0.14287 -0.04092,0.23707 -0.111828,0.0201 -0.195791,0.10583 -0.335137,0.06 0.01905,-0.14076 0.168275,-0.13688 0.133702,-0.25541 -0.151693,-0.0201 -0.281165,0.18732 -0.30339,0.32632 0.28293,0.17462 0.582084,-8e-4 0.753182,-0.254 -0.01236,-0.0621 -0.131234,-0.13935 -0.207434,-0.11395"
         style="fill:#000000;fill-opacity:1;fill-rule:evenodd;stroke:none;stroke-width:0.03527778"
         id="path2500" />
      <path
         inkscape:connector-curvature="0"
         d="m 81.475126,149.72489 c 0.04304,-0.0723 0.126296,-0.0473 0.165806,-0.12912 -0.122767,-0.007 -0.224367,0.037 -0.278342,0.19615 0.165807,0.21836 0.506236,0.11994 0.597959,-0.14923 -0.05221,-0.0519 -0.05398,-0.12382 -0.129469,-0.16581 -0.0067,0.21308 -0.224015,0.44768 -0.355954,0.24801"
         style="fill:#000000;fill-opacity:1;fill-rule:evenodd;stroke:none;stroke-width:0.03527778"
         id="path2502" />
      <path
         inkscape:connector-curvature="0"
         d="m 83.905059,151.28981 c 0.05821,0.0755 -0.07197,0.22966 -0.04621,0.31962 0.184854,-0.27447 0.379942,-0.52564 0.588079,-0.74542 -0.02999,-0.0138 -0.02082,-0.0444 -0.06209,-0.0536 -0.15875,0.16264 -0.288574,0.39441 -0.47978,0.47943"
         style="fill:#000000;fill-opacity:1;fill-rule:evenodd;stroke:none;stroke-width:0.03527778"
         id="path2504" />
      <path
         inkscape:connector-curvature="0"
         d="m 70.577115,145.2947 c -7.93e-4,0.0603 0.157692,0.054 0.148874,0.11783 -0.04692,0.19403 -0.299509,0.22895 -0.368655,0.0737 -0.05009,0.0804 -0.01976,0.12806 -0.02117,0.18874 0.238125,0.0755 0.363715,-0.11853 0.520348,-0.23707 0.0028,-0.10901 -0.185208,-0.2413 -0.2794,-0.14323"
         style="fill:#000000;fill-opacity:1;fill-rule:evenodd;stroke:none;stroke-width:0.03527778"
         id="path2506" />
      <path
         inkscape:connector-curvature="0"
         d="m 86.871922,152.51148 c 0.06773,-0.11465 0.24906,-0.11324 0.304445,0.0127 -0.04374,0.11924 -0.233537,0.0847 -0.304445,-0.0127 z m 0.09913,-0.2413 c -0.135819,0.0536 -0.277284,0.27022 -0.168275,0.41028 0.519289,0.28469 0.879829,-0.39758 0.168275,-0.41028"
         style="fill:#000000;fill-opacity:1;fill-rule:evenodd;stroke:none;stroke-width:0.03527778"
         id="path2508" />
      <path
         inkscape:connector-curvature="0"
         d="m 88.141215,152.9214 c -0.03775,0.0956 -0.0039,0.16158 -0.01693,0.2466 0.198615,0.0769 0.364419,0.0751 0.461433,-0.0921 -0.02998,-0.18133 -0.324201,-0.18521 -0.4445,-0.15452"
         style="fill:#000000;fill-opacity:1;fill-rule:evenodd;stroke:none;stroke-width:0.03527778"
         id="path2510" />
      <path
         inkscape:connector-curvature="0"
         d="m 74.676392,147.60258 c 0.01905,-0.12947 0.218017,-0.1143 0.130175,0.0254 -0.03598,0.009 -0.07726,0.006 -0.130175,-0.0254 z m -0.05962,0.14464 c 0.7747,0.0635 -0.140407,-0.82762 0,0 v 0"
         style="fill:#000000;fill-opacity:1;fill-rule:evenodd;stroke:none;stroke-width:0.03527778"
         id="path2512" />
      <path
         inkscape:connector-curvature="0"
         d="m 67.88013,145.19945 c -0.07162,0.10302 0.08678,0.11113 0.02752,0.20885 -0.09455,0.0744 -0.240242,0.0691 -0.353483,-0.0328 -0.02752,0.31962 0.445203,0.18697 0.527753,0.0198 -0.0141,-0.0818 -0.07161,-0.22507 -0.201787,-0.19579"
         style="fill:#000000;fill-opacity:1;fill-rule:evenodd;stroke:none;stroke-width:0.03527778"
         id="path2514" />
      <path
         inkscape:connector-curvature="0"
         d="m 69.16283,146.26378 c -2.64e-4,0.0981 -0.131233,0.1263 -0.07902,0.19262 0.07796,-0.0991 0.224015,-0.037 0.320323,-0.0935 0.09278,0.0212 0.04092,0.10265 0.115004,0.13193 0.02011,-0.0476 0.07796,-0.004 0.08749,-0.0765 -0.08925,-0.18274 -0.278694,-0.0765 -0.443794,-0.15452"
         style="fill:#000000;fill-opacity:1;fill-rule:evenodd;stroke:none;stroke-width:0.03527778"
         id="path2516" />
      <path
         inkscape:connector-curvature="0"
         d="m 82.066734,152.05604 c -0.02963,-0.0843 0.05997,-0.17392 0.113242,-0.20708 0.117123,0.018 0.01341,0.12735 0.105129,0.15593 -0.04868,0.0741 -0.116065,0.10583 -0.218371,0.0512 z m -0.252587,-0.41451 c 0.109712,0.0741 0.316793,0.025 0.327729,0.16369 -0.121709,0.11853 -0.259292,0.29351 -0.08643,0.41557 0.70767,0.0938 0.333375,-0.81845 -0.2413,-0.57926"
         style="fill:#000000;fill-opacity:1;fill-rule:evenodd;stroke:none;stroke-width:0.03527778"
         id="path2518" />
      <path
         inkscape:connector-curvature="0"
         d="m 79.970882,151.3907 c -0.01728,-0.12171 0.115007,-0.12347 0.184857,-0.037 -0.03528,0.0762 -0.09878,0.084 -0.184857,0.037 z m -0.146402,0.0808 c 0.168979,0.12629 0.503767,0.1397 0.558094,-0.0526 0.09243,-0.32738 -0.650523,-0.44204 -0.558094,0.0526"
         style="fill:#000000;fill-opacity:1;fill-rule:evenodd;stroke:none;stroke-width:0.03527778"
         id="path2520" />
      <path
         inkscape:connector-curvature="0"
         d="m 69.01819,146.68394 c 0.07161,0.0272 0.112536,-0.0187 0.160515,-0.0473 -0.05645,-0.0226 -0.112183,-0.0462 -0.168981,-0.0695 -0.0441,0.0582 0.02787,0.0684 0.0085,0.11677"
         style="fill:#000000;fill-opacity:1;fill-rule:evenodd;stroke:none;stroke-width:0.03527778"
         id="path2522" />
      <path
         inkscape:connector-curvature="0"
         d="m 77.718397,150.9709 c 0.03563,-0.009 0.07761,-0.005 0.130175,0.0257 0.0042,0.0907 -0.186267,0.0586 -0.130175,-0.0257 z m -0.224015,0.13335 c 0.176742,0.13299 0.448382,0.13405 0.557035,-0.0526 -0.01447,-0.32067 -0.644525,-0.29456 -0.557035,0.0526"
         style="fill:#000000;fill-opacity:1;fill-rule:evenodd;stroke:none;stroke-width:0.03527778"
         id="path2524" />
      <path
         inkscape:connector-curvature="0"
         d="m 70.112155,152.04228 c 0.05433,-0.0272 0.183796,-0.17533 0.09948,-0.24165 -0.03528,0.0469 -0.138997,0.17392 -0.09948,0.24165"
         style="fill:#000000;fill-opacity:1;fill-rule:evenodd;stroke:none;stroke-width:0.03527778"
         id="path2526" />
      <path
         inkscape:connector-curvature="0"
         d="m 92.268715,150.50241 c -0.166158,0.0804 -0.291393,0.26 -0.468489,0.31468 -0.02082,-0.12771 0.201083,-0.25612 0.197204,-0.34185 -0.309388,0.0409 -0.37959,0.65405 -0.727429,0.60325 0.05715,-0.12735 0.235304,-0.35665 0.363714,-0.47095 -0.297743,0.005 -0.396875,0.48824 -0.702381,0.47237 0.07937,-0.23989 0.255765,-0.24871 0.35278,-0.44697 -0.210963,-0.01 -0.293159,0.28645 -0.46355,0.37288 -0.178859,-0.18203 0.232478,-0.24624 0.192968,-0.40005 -0.165452,-0.009 -0.245533,0.37571 -0.432858,0.16052 0.06385,-0.19826 0.196498,-0.23142 0.275167,-0.39441 -0.152049,-0.0455 -0.190852,0.18098 -0.29845,0.24412 -0.154869,-0.25576 0.295626,-0.47342 0.404989,-0.70802 -0.220839,-0.018 -0.276225,0.36054 -0.488246,0.36336 -0.09948,-0.29775 0.464608,-0.64276 0.401463,-0.90699 -0.160867,0.0459 -0.191558,0.40393 -0.381707,0.37888 0.0635,-0.28328 0.308327,-0.34854 0.272699,-0.59302 -0.0956,-0.0783 -0.159105,0.0445 -0.2032,-0.055 0.05256,-0.2988 0.219778,-0.58632 0.251177,-0.88441 0.08255,-0.7874 -0.575027,-1.59174 -1.325034,-1.16594 -0.222602,0.1263 -0.478015,0.38065 -0.611365,0.59479 -0.460375,0.73554 0.01587,1.58044 -0.356303,2.16605 -0.03881,-0.22013 -0.122063,-0.0691 -0.23989,-0.23953 -0.06985,-0.0254 -0.08573,0.0822 -0.117475,0.14852 -0.04022,0.0162 -0.09666,-0.008 -0.154517,-0.0349 -0.156633,0.20003 -0.319616,0.38382 -0.513998,0.49319 -0.0021,-0.24554 0.23848,-0.32209 0.353483,-0.44662 -0.0067,-0.0437 -0.0046,-0.0914 -0.06668,-0.11183 -0.133702,0.0473 -0.223308,0.19861 -0.342193,0.28222 0.02294,-0.18521 0.212725,-0.38488 0.353131,-0.44697 -0.227896,0.012 -0.342196,0.29704 -0.53199,0.40111 -0.02188,-0.2159 0.252942,-0.28046 0.324909,-0.51506 -0.269169,0.0716 -0.526344,0.52423 -0.612775,0.73519 -0.06032,-0.0279 -0.01447,-0.10054 0.0113,-0.16474 -0.024,-0.0621 -0.06915,-0.005 -0.14464,-0.0593 0.163335,-0.23672 0.362302,-0.57573 0.599016,-0.76906 -0.296685,-0.037 -0.450143,0.67593 -0.806098,0.65582 0.194382,-0.49989 0.722842,-0.94051 0.783167,-1.28588 -0.206375,0.0967 -0.31891,0.41875 -0.52352,0.51823 -0.02294,-0.42757 0.700616,-0.83643 0.69497,-1.20862 -0.131233,-0.0769 -0.129117,0.16863 -0.248002,0.12313 0.123119,-0.33726 0.736952,-1.20121 0.114652,-1.30669 -0.173212,-0.0293 -0.611362,0.27728 -0.696735,0.39017 -0.610307,0.80892 -1.053394,2.16782 -1.502127,3.44311 -0.335492,0.95532 -0.33655,1.84538 -0.13194,2.51283 -0.12841,0.18768 -0.264231,0.35666 -0.406752,0.50906 -0.09137,-0.1337 0.204962,-0.30021 0.178504,-0.43391 -0.209195,0.0413 -0.272695,0.43321 -0.493887,0.44555 0.03563,-0.17004 0.252235,-0.26529 0.281162,-0.47695 -0.25682,0.11959 -0.363712,0.59831 -0.65546,0.63324 0.06879,-0.35031 0.385585,-0.51048 0.521758,-0.85725 -0.282575,0.16897 -0.443442,0.63006 -0.753181,0.73342 0.0956,-0.27093 0.345371,-0.41205 0.398639,-0.62512 -0.26035,0.0462 -0.355248,0.49001 -0.615598,0.53587 0.04127,-0.28787 0.225073,-0.47625 0.394407,-0.68369 -0.231423,-0.0127 -0.26176,0.45967 -0.508,0.41134 0.07902,-0.34325 0.46849,-0.381 0.4572,-0.63006 -0.239184,0.0825 -0.341842,0.49177 -0.592315,0.54645 0.121356,-0.43462 0.555273,-0.61065 0.600075,-0.90946 -0.20955,0.0706 -0.325612,0.36795 -0.513292,0.49354 0.07126,-0.50483 0.693209,-0.76165 0.859367,-1.19733 -0.192262,-0.0152 -0.26317,0.26176 -0.404987,0.36901 -0.104071,-0.0462 -0.06103,-0.18662 -0.155223,-0.036 0.04833,-0.58349 0.456493,-0.97507 0.726368,-1.42134 -0.138641,0.0346 -0.206375,0.23954 -0.327377,0.3168 -0.06421,-0.30128 0.292807,-0.48895 0.395465,-0.82444 -0.01304,-0.067 -0.174273,0.0878 -0.212373,-0.031 0.157692,-0.38841 0.405342,-0.56091 0.589844,-0.88547 0.02893,-0.0921 -0.112887,-0.11289 -0.153104,-0.17604 0.07303,-0.13511 0.39652,-0.33902 0.208137,-0.50659 -0.125587,0.16193 -0.264935,0.28999 -0.414867,0.393 -0.02681,0.16086 0.09631,0.26211 -0.06279,0.42545 -0.160515,-0.46849 0.41275,-1.02165 0.252235,-1.50354 -0.110419,-0.0593 -0.11712,0.13441 -0.228245,0.0751 0.01447,-0.1524 -0.02011,-0.28469 -0.02011,-0.43109 0.08008,-0.11077 0.0388,0.13194 0.104775,0.15593 0.08537,0.0286 0.135112,-0.0286 0.180269,-0.0949 -0.05009,-0.1009 -0.180269,-0.18803 -0.303035,-0.15346 -0.109715,-0.79975 -0.871715,-2.06728 -1.786467,-2.51248 -0.310092,-0.15135 -0.67663,-0.078 -0.995892,-0.18486 -0.146404,-0.0483 -0.256823,-0.15346 -0.40005,-0.19262 -0.391231,-0.10759 -0.767291,0.0893 -1.119365,0.0469 -0.677685,0.52917 -1.610431,1.4157 -1.928989,2.56223 -0.03669,0.12947 -0.116769,0.23072 -0.173567,0.35207 -0.344662,0.73766 -0.427919,1.49542 -0.521052,2.15477 -0.05715,0.11606 -0.05468,-0.0459 -0.120298,-0.0494 -0.134054,0.10936 -0.19826,0.38664 -0.339019,0.48119 -0.131585,-0.1517 0.268817,-0.35737 0.25259,-0.54505 -0.172156,0.0339 -0.242713,0.31151 -0.391583,0.40253 -0.3048,-0.2406 0.424392,-0.33091 0.238477,-0.57891 -0.18415,0.1658 -0.33796,0.40428 -0.534107,0.54222 -0.2286,-0.27164 0.435682,-0.39476 0.288925,-0.69921 -0.174977,0.0452 -0.201083,0.44591 -0.430387,0.35877 -2.64e-4,-0.14534 0.193321,-0.1972 0.25541,-0.34607 -0.05115,-0.14499 -0.197908,-0.31574 -0.335843,-0.2794 -0.09878,0.1009 0.09454,0.0801 0.08043,0.14605 -0.07197,0.13017 -0.167216,0.20673 -0.259291,0.28787 -0.08643,-0.11712 0.07585,-0.33796 -0.0099,-0.45509 0.08361,-0.0487 0.274108,-0.2099 0.197204,-0.34219 -0.13335,2.6e-4 -0.159456,0.25717 -0.312208,0.21026 0.09842,-0.32315 0.329845,-0.32738 0.475191,-0.53799 0.06032,-0.0984 -0.104775,-0.10301 -0.09525,-0.18027 0.06174,-0.10724 0.162277,-0.12312 0.229659,-0.21555 -0.01622,-0.11289 0.04127,-0.25682 0.0085,-0.36301 -0.149931,-0.0896 -0.1905,0.0857 -0.281871,0.13723 0.04551,-0.3048 0.410282,-0.2607 0.51929,-0.57573 0.01765,-0.0674 -0.1143,-0.0723 -0.115006,-0.13229 0.0762,-0.15169 0.181681,-0.23495 0.265289,-0.37007 -0.139348,-0.68121 0.593725,-1.23825 0.683332,-2.00307 0.108654,-0.64805 -0.198967,-1.35749 -0.820915,-1.63583 -1.141942,-0.51047 -2.372077,0.756 -3.005315,2.09127 -0.68862,1.45203 -1.330677,3.16724 -1.819627,4.69441 -0.06138,-0.0279 -0.0019,-0.10583 -0.02328,-0.15028 -0.339373,0.66745 -0.412044,1.45203 -1.02235,2.00484 -0.0448,0.0914 0.05362,0.12382 0.09454,0.18026 -0.09631,0.0871 -0.174625,0.22014 -0.283986,0.27764 -0.0028,0.055 0.0381,0.091 0.09137,0.12241 -0.109712,0.0568 -0.208844,0.13865 -0.312208,0.20955 -0.116769,-0.005 0.04727,-0.12594 -0.02257,-0.15028 -0.09772,0.0378 -0.127707,0.23813 -0.254707,0.20602 0.0049,-0.10618 0.136525,-0.14993 0.08996,-0.21731 -0.168627,0.10019 -0.192617,0.29457 -0.353129,0.44662 -0.105482,-0.0131 -0.218017,-0.0427 -0.319265,-0.0466 0.06279,-0.1524 0.01482,-0.25929 -0.117475,-0.3302 0.02893,-0.19826 0.21096,-0.24094 0.206727,-0.36618 -0.213783,-0.0487 -0.278694,0.25894 -0.430035,0.35877 -0.116417,-0.0843 -0.0053,-0.26387 -0.0053,-0.39687 0.07549,-0.0254 0.024,0.0166 0.06315,0.0536 0.14111,-0.19085 0.427212,-0.375 0.315735,-0.63112 0.07867,-0.13052 0.214842,-0.12417 0.312209,-0.21025 1.016706,-1.65241 1.401233,-3.61456 1.923698,-5.35693 0.331962,-1.10879 0.62512,-2.29483 0.506941,-3.28895 0.02257,-0.0603 0.0448,-0.11783 0.08431,-0.13476 0.0508,-0.89359 0.02363,-1.75472 -0.674159,-2.3368 -0.530929,-0.47343 -1.57127,-1.44886 -2.424641,-1.16734 -0.07796,-0.0409 0.03845,-0.16228 -0.02681,-0.2085 -0.203552,0.31045 -0.440266,0.54257 -0.624064,0.89959 -0.109713,-0.11924 0.123473,-0.40182 0.125941,-0.51188 -0.228952,0.0903 -0.407458,0.635 -0.279045,0.81491 -0.05115,0.16616 -0.186267,0.12912 -0.278342,0.19615 -0.09349,-0.0279 0.0032,-0.13441 -0.07091,-0.17004 -0.1778,0.30833 -0.391584,0.52987 -0.598313,0.7687 -0.08149,-0.0127 -0.05433,-0.0709 -0.135467,-0.0836 -0.244475,0.27799 -0.351012,0.75742 -0.68227,0.90347 -0.184857,-0.28469 0.28857,-0.55704 0.332316,-0.73731 -0.128764,-0.005 -0.193675,0.14323 -0.288221,0.21943 -0.09842,-0.0251 -0.09983,-0.091 -0.207079,-0.11289 -0.06879,0.0268 -0.121708,0.091 -0.161925,0.18697 -0.111125,-0.0734 0.01341,-0.24518 -0.09384,-0.32067 0.04763,-0.15699 0.182033,-0.1069 0.226131,-0.27376 -0.168629,-0.0684 -0.201438,0.18909 -0.336198,0.20003 -0.129469,-0.29422 0.3175,-0.32174 0.389115,-0.60184 0.176035,0.0409 0.313618,-0.0127 0.478718,0 0.62865,-0.31009 0.666044,-1.15711 0.933802,-1.78753 0.769057,-1.8101 1.92264,-3.42935 3.219098,-4.11868 0.686152,-0.14287 1.341615,-0.61524 2.068336,-0.50235 -0.424392,0.57608 -0.283279,1.22802 0.275166,1.524 -0.386291,0.84031 0.06456,1.33173 0.281517,1.92087 0.101954,0.0854 0.11924,-0.0325 0.198263,-0.003 0.881237,0.81703 2.167466,0.68263 2.894541,0.23248 -0.184856,0.42439 -0.324204,0.91687 -0.231423,1.31551 0.08608,0.37183 0.418394,0.9719 0.8255,1.21426 1.137002,0.67733 2.800702,0.58843 3.623382,-0.031 0.354893,1.12959 2.11455,1.3716 3.148187,1.46508 0.08149,0.036 0.0882,-0.1083 0.17004,-0.0709 0.228952,0.17428 0.803981,-0.0476 1.125714,-0.12876 0.817738,0.83115 2.293761,1.14935 3.027186,0.4565 1.306335,1.15322 3.619852,1.26717 4.046714,-0.64665 1.3716,0.94086 1.495071,1.98332 0.938742,3.40466 -0.316796,0.81069 -0.874183,1.66265 -1.18745,2.47297 -0.571148,1.4785 -1.254125,3.02895 -0.453673,4.18536 z m -3.231798,-2.76931 c 0.27164,-0.55315 1.299282,-0.9525 1.387123,-0.21872 -0.45226,0.0663 -0.96661,0.23601 -1.387123,0.21872 z m -1.01882,2.06269 c 0.106185,0.10513 -0.09913,0.22155 -0.15734,0.24554 -0.03104,-0.0935 0.105127,-0.19262 0.15734,-0.24554 z m -1.258358,-0.57502 c 0.10442,0.0557 -0.05257,0.19544 -0.0889,0.21766 -0.06315,-0.0727 0.02611,-0.1838 0.0889,-0.21766 z m -1.57339,2.794 c -0.08467,-0.0378 -0.06421,-0.11995 -0.02716,-0.20849 0.121708,0.0367 0.09172,0.14781 0.02716,0.20849 z m 4.415366,1.19732 c -0.04621,0.11289 -0.126648,0.1457 -0.238476,0.0991 -0.04375,-0.14323 0.175683,-0.21167 0.238476,-0.0991 z m 0.736249,-1.44568 c -0.02574,0.0505 0.08079,0.0462 0.110066,0.0737 -0.0829,0.0564 -0.162983,0.11924 -0.300215,0.0455 0.08008,-0.09 0.119592,-0.0889 0.161574,-0.18732 -0.474488,-0.012 -0.221192,0.49 0.08431,0.34466 -0.07973,0.33267 -0.306562,0.72743 -0.379236,1.05692 -0.304093,-0.10513 -0.697441,-0.15452 -0.800451,0.0938 -0.141113,0.34008 0.485775,0.41416 0.586316,0.0159 0.287512,0.0797 -0.06879,0.42791 -0.09384,0.63817 -0.924983,0.24871 -1.896181,-0.13652 -2.747785,-0.7934 -0.55739,-0.42897 -1.081265,-0.73272 -1.781175,-0.67627 0.01447,-0.2667 0.4572,-0.57009 -0.03528,-0.80469 0.122766,-1.16769 0.865716,-2.75907 1.352198,-3.89996 0.1905,-0.055 0.421568,-0.0109 0.643818,0.0113 0.02223,-0.20179 -0.281516,-0.16545 -0.437795,-0.23671 0.171095,-0.42016 0.42827,-0.63359 0.75706,-0.67557 0.18415,0.4893 -0.469193,1.15887 -0.646993,1.70815 -0.236363,-0.0727 -0.476605,-0.15311 -0.577147,0.10089 -0.03034,0.0526 0.05891,0.0554 0.04269,0.10195 0.228246,0.0998 0.264229,-0.25999 0.518935,-0.0967 -0.432151,0.86607 -0.510823,1.57586 0.08255,1.92405 0.264936,0.15523 1.049867,0.10654 1.317977,-0.0494 0.979665,-0.57114 0.496007,-1.45661 0.708025,-2.47297 0.504122,-0.0254 1.053397,-0.31397 1.557515,-0.28963 0.267758,0.0131 0.152048,0.63677 0.07796,0.90664 -0.131588,0.48119 -0.344313,1.30387 -0.474133,1.83586 -0.08961,0.37041 -0.0042,0.64276 0.14605,0.87806 0.138993,-0.008 0.27305,0.0596 0.386995,0.1591 0.01693,0.1965 -0.14605,0.25894 -0.259995,0.28787 z m -5.2197,1.23578 c 0.167216,0.0847 0.10301,0.22684 0.01516,0.37324 -0.09067,-0.0152 -0.09067,-0.0688 -0.124177,-0.1076 0.116062,-0.0515 0.09208,-0.15487 0.109009,-0.26564 z m -1.609022,-1.36736 c -0.08996,-0.0177 -0.05186,-0.12065 0.0013,-0.14041 0.09102,0.008 0.0064,0.0903 -0.0013,0.14041 z m -3.7719,-6.7998 c 0.102307,-0.1852 0.259292,-0.23953 0.381355,-0.37959 0.650875,-0.16616 1.38571,-0.0342 2.153708,0.18204 1.037167,0.29175 1.721909,1.35608 1.925109,2.17487 -1.580092,-0.3944 -3.461809,-0.92568 -4.460172,-1.97732 z m -1.992841,4.42631 c 0.08961,-0.27094 -0.01622,-0.60855 0.05256,-0.88124 0.268817,-1.06398 0.822677,-2.62855 1.651707,-3.32564 0.02681,-0.0222 0.0575,-0.0466 0.101952,-0.0423 1.292931,1.0548 3.104443,1.55575 4.721577,2.02847 0.05362,0.19791 0.07408,0.40887 0.04692,0.64029 -0.201438,-0.018 -0.554215,0.37712 -0.354542,0.58703 0.131937,-0.0423 0.111829,-0.38489 0.299509,-0.38453 0.02893,0.38594 0.08608,1.0361 -0.04586,1.61748 -0.177094,0.78458 -0.396521,1.72191 -0.940504,2.01048 -0.01799,0.13406 0.06209,0.22719 0.185912,0.30198 -0.107244,0.24377 -0.15381,0.44521 -0.273402,0.73378 -1.334206,0.0914 -2.663825,0.19297 -4.302125,-0.44591 0.02963,-0.14641 0.387702,-0.16687 0.163335,-0.32738 -0.14111,-0.0268 -0.02363,0.12806 -0.07938,0.19297 -0.110418,0.006 -0.219427,0.0169 -0.324908,0.0353 -1.161695,-0.48154 -1.878187,-1.14829 -2.339975,-1.92229 0.408517,0.19579 0.662871,0.0226 0.983546,0.01 0.05785,-0.34361 0.354894,-0.52811 0.453671,-0.82832 z m -1.490837,-0.078 c 0.06985,-0.19967 0.213428,-0.22295 0.31397,-0.3503 -0.01236,0.14746 -0.17145,0.35454 -0.31397,0.3503 z m 0.54892,-3.52566 c -0.06632,-0.019 -0.06491,-0.066 -0.03245,-0.12629 0.06668,0.0187 0.06562,0.0663 0.03245,0.12629 z m -1.392767,-2.57669 c 0.556332,-0.86607 2.564697,-0.26599 2.188988,0.98601 -0.759531,-0.11077 -1.719791,-0.42791 -2.188988,-0.98601 z m -2.04752,3.19123 c 0.493535,-1.12113 1.081262,-2.42112 1.81892,-3.11609 0.55104,0.56797 1.542699,0.97579 2.396067,1.09961 0.01976,0.4826 -0.315383,0.81421 -0.549979,1.26859 -0.05433,0.0127 -0.1524,-0.0847 -0.26529,-0.10936 -0.08925,0.019 -0.179564,0.23672 -0.129116,0.31327 0.06385,0.073 0.14605,0.0328 0.251177,0.0755 -0.503412,1.30352 -1.527527,2.91924 -1.004711,4.01497 -0.402873,-0.19862 -0.670983,-0.45332 -0.849841,-0.74507 0.135115,-0.13582 0.200025,-0.32562 0.07197,-0.44944 -0.07832,0.0349 0.01693,0.11077 -0.05468,0.20285 -0.06173,-0.0208 -0.05927,-0.0684 -0.100542,-0.0977 -0.08608,-0.0141 -0.113945,0.11183 -0.176741,0.1531 -0.565854,-0.15875 -0.727779,-0.62512 -1.208617,-0.69532 -0.130175,-0.0854 0.111125,-0.32597 -0.06385,-0.393 -0.145343,0.0272 -0.01834,0.2339 -0.124531,0.37183 -0.234596,-0.0257 -0.159102,-0.26564 -0.03598,-0.32455 -0.209195,-0.0399 -0.300212,0.20531 -0.542925,0.0864 0.09596,-0.33973 0.230365,-0.69568 0.378884,-1.05692 0.09031,-0.0543 0.22225,-0.0106 0.324204,-0.0356 0.152046,-0.26987 0.06738,-0.44061 -0.134408,-0.56303 z m -1.807633,4.86869 c 0.02434,0.0102 0.04833,0.0201 0.07267,0.03 0.02117,0.0466 -0.02188,0.15064 -0.0695,0.16863 -0.08714,-0.0303 -0.07232,-0.16404 -0.0032,-0.19861 z m -0.408165,0.64981 c 0.03669,0.0159 -0.02045,0.20073 -0.08396,0.13512 0.01304,-0.0808 0.06103,-0.078 0.08396,-0.13512 z m 17.457915,4.73428 c -0.254355,0.33867 -1.232607,0.4385 -1.797405,0.52917 -0.67945,0.109 -1.334204,0.0769 -1.972379,0.0628 -1.594908,-0.0367 -2.896306,0.12171 -4.55154,-0.18203 -1.3716,-0.25188 -3.269898,-0.51964 -4.840464,-1.25977 -0.373237,-0.17533 -0.792337,-0.30021 -1.147937,-0.50095 -0.11783,-0.0656 -0.221898,-0.2106 -0.336198,-0.2794 -0.631119,-0.37817 -1.45274,-0.58666 -1.956152,-1.00294 -0.30339,-0.24977 -0.948267,-0.67698 -1.386772,-0.88089 1.424165,-0.95673 1.251657,-3.01907 2.112788,-4.85634 0.843844,0.0723 1.289402,0.48437 1.933575,0.85267 0.238125,0.13652 0.333375,0.34325 0.518229,0.52352 0.178858,0.17498 0.412398,0.25858 0.625123,0.39864 0.321733,0.21131 0.497769,0.47766 0.748242,0.7874 0.551392,0.68262 1.293635,1.03681 2.014008,1.47778 1.72085,0.59655 3.248377,0.72955 4.606925,0.45861 -0.342548,0.62195 -0.372181,1.38113 0.133702,1.66265 0.992365,0.5528 2.471208,-0.62089 1.934633,-1.68522 0.948973,-0.34749 1.670757,0.79233 2.569988,1.22696 0.596194,0.28822 1.150054,0.15804 1.774471,0.2794 -0.486834,0.63958 -0.479071,1.71661 -0.982837,2.38795 z m -17.78988,-4.47569 c 0.01976,-0.0811 0.07338,-0.0804 0.107598,-0.12489 0.04198,0.009 0.0321,0.0399 0.06279,0.0536 -0.03175,0.085 -0.07867,0.13158 -0.170392,0.0713 z m -1.292577,-0.0811 c 0.07232,0.0314 -7.94e-4,0.20003 -0.08361,0.13511 -0.0321,-0.0727 0.03916,-0.10936 0.08361,-0.13511 z m 14.884048,6.32636 c -1.926521,0.34784 -4.212873,-0.066 -6.555671,-0.72531 -0.442383,-0.12453 -0.894292,-0.21237 -1.343729,-0.29951 -0.427921,-0.0825 -0.90664,-0.10689 -1.290815,-0.22084 -0.751768,-0.2233 -1.456973,-0.65863 -2.107141,-0.98036 -0.347485,-0.17216 -0.747535,-0.23531 -1.071034,-0.41275 -2.4003,-1.31939 -4.328935,-2.8 -5.728051,-4.58682 -0.398992,-0.51012 -0.560565,-1.21497 -0.693209,-1.80904 1.099254,0.92357 1.714146,2.12266 3.313994,2.7753 0.01164,0.60007 0.721431,1.4665 1.447093,1.07526 1.232607,0.73696 2.477559,1.51519 3.785307,2.17876 0.306916,0.15593 0.6604,0.2353 0.9652,0.39758 0.1524,0.0811 0.25894,0.22754 0.408165,0.30939 0.482952,0.26458 1.067151,0.33372 1.651351,0.51011 0.32244,0.0977 0.651934,0.30057 0.960967,0.33937 0.271992,0.0342 0.578557,0.0265 0.966965,0.11642 0.911225,0.21132 1.820333,0.22261 2.724502,0.30374 0.999066,0.0889 2.0447,0.0826 2.925585,0.0194 0.65899,-0.0469 1.233665,0.0303 1.821392,-0.0395 0.563388,-0.0674 1.089731,-0.20672 1.707798,-0.3122 0.03387,-0.006 0.05715,-0.019 0.09278,-0.0183 0.01765,0.0124 0.01376,0.0339 0.03775,0.0437 -1.038225,1.06574 -2.595034,1.07739 -4.019196,1.33562 z m 3.68441,-0.79657 c 0.04551,-0.0339 0.0762,-0.10407 0.160515,-0.0466 -0.03246,0.066 -0.08432,0.0857 -0.160515,0.0466 z m -1.570566,0.59478 c 0.179565,-0.1778 0.452966,-0.12947 0.661458,-0.23565 -0.05327,0.10125 -0.443442,0.21061 -0.661458,0.23565 z m -10.000898,-0.6484 c 0.437091,-0.0547 1.006123,0.2092 1.508479,0.3115 -0.354541,0.0381 -1.036815,-0.073 -1.508479,-0.3115 z m -10.952337,-8.54323 c 0.03104,-0.072 0.200025,7.9e-4 0.134408,0.0836 -0.06032,-0.0212 -0.11783,-0.0441 -0.134408,-0.0836 z m 0.311853,0.26952 c -0.09666,0.0459 -0.119591,-0.109 -0.162628,-0.15169 0.07303,-0.036 0.118533,0.10936 0.162628,0.15169 z m 2.475797,2.34492 c -0.456497,-0.16934 -0.911225,-0.51259 -1.080913,-0.86784 0.433564,0.25894 0.644173,0.61066 1.080913,0.86784 z m 0.597603,0.33055 c -0.176035,-0.30692 -0.608893,-0.4378 -0.942268,-0.72637 -0.14111,-0.12171 -0.2286,-0.28998 -0.368652,-0.40569 -0.22578,-0.18521 -0.524933,-0.24166 -0.780698,-0.43392 -0.154869,-0.11677 -0.182385,-0.32879 -0.3048,-0.49248 -0.288573,-0.38523 -0.674865,-0.78564 -0.81139,-1.18039 0.284692,-0.78141 0.56233,-1.651 0.846667,-2.33116 1.067154,1.00859 3.258963,1.97274 4.589639,1.66405 -0.244123,0.90805 -0.555976,1.82069 -1.10631,2.61938 -0.286808,0.41628 -1.16064,0.51082 -1.122188,1.28658 z m 0.629357,-0.502 c -0.06491,-0.0293 -0.06491,0.0201 -0.09596,-0.0395 0.0099,-0.073 0.06773,-0.0289 0.08749,-0.0769 0.04022,0.0236 0.0381,0.0642 0.0085,0.11642 z m 0.05151,-0.26106 c 0.05821,0.0307 0.07055,0.11219 -0.0013,0.14005 -0.04163,-0.0374 -0.06914,-0.11289 0.0013,-0.14005 z m 1.798812,-4.0266 c -0.09243,-0.0212 -0.105127,-0.0759 -0.14887,-0.11748 0.06068,-0.10936 0.129117,-0.20073 0.258233,-0.14746 -0.06209,0.0974 -0.01236,0.21484 -0.109363,0.26494 z m 1.048457,-4.05307 c -0.02469,0.0564 0.01236,0.0882 -0.03528,0.15487 -0.04692,0.0208 -0.15099,-0.0222 -0.169333,-0.0702 0.03281,-0.1143 0.100541,-0.14252 0.20461,-0.0847 z m -3.197577,-4.22204 c 0.185208,-0.31433 0.73942,-0.30833 1.182862,-0.13371 0.498475,0.1965 1.178631,0.76553 1.619956,1.20333 0.42545,0.42192 0.575027,1.19909 0.422982,1.78153 -1.498248,-0.69251 -2.776008,0.0254 -4.126796,-0.93734 0.04269,-0.55985 0.740129,-1.28305 0.883708,-1.66722 0.0381,-0.10195 -0.03422,-0.16052 0.01728,-0.24659 z m -1.887363,4.58258 c 0.336198,-0.768 0.570442,-1.64359 0.906992,-2.47615 1.029054,0.60466 2.1717,0.52564 3.180646,0.63288 0.125587,0.0208 -0.02574,0.15699 0.06103,0.19403 0.384175,0.11325 0.623006,-0.15134 0.962025,0.19897 -0.04304,0.29774 0.04692,0.5394 0.02574,0.82868 -0.342548,0.01 -0.571148,0.46213 -0.118182,0.62829 -0.190852,1.08162 -0.626885,2.19146 -0.82691,3.24203 -0.08079,0.0109 -0.121005,-0.0723 -0.212725,-0.0314 -0.284692,0.16863 -0.33655,0.60184 0.04657,0.63994 -0.06809,0.16828 -0.109363,0.32491 -0.140055,0.47802 -0.222954,0.12065 -0.478718,0.16333 -0.762704,0.13793 0.129469,-0.14005 0.06103,-0.33584 -0.145698,-0.39899 -0.0013,0.14711 0.09067,0.25506 0.122415,0.38911 -0.107246,0.0956 -0.276931,0.0392 -0.460023,-0.0487 0.01341,-0.11112 0.08925,-0.0727 0.117123,-0.14887 -0.164042,-0.0762 -0.23213,0.0808 -0.353838,0.10795 -0.829379,-0.29527 -2.334683,-0.63288 -2.722737,-1.403 0.263525,-0.12735 0.354542,0.22155 0.446617,0.35313 0.17427,-0.27622 -0.371475,-0.66639 -0.63994,-0.43285 -0.140407,-0.048 -0.18556,-0.13583 -0.249767,-0.2152 0.159809,-0.59619 0.424392,-1.37336 0.591609,-1.98508 0.398285,0.008 0.910166,-0.72708 0.171801,-0.69074 z m -0.04515,0.17851 c 0.09066,-0.0568 0.238125,-0.11325 0.338667,-0.002 -0.07973,0.20779 -0.217313,0.27729 -0.375708,0.29704 0.03387,-0.10724 0.0011,-0.18697 0.03704,-0.29527 z m 0.5842,-2.24155 c -0.0321,-0.1771 0.0053,-0.36337 0.140404,-0.47837 0.07373,0.10936 -0.105127,0.32349 -0.140404,0.47837 z m 0.224367,-1.09256 c 0.04798,0.0198 0.09595,0.0399 0.144637,0.0596 -0.04868,0.10725 -0.08784,0.23707 -0.195792,0.20109 0.024,-0.0896 0.0035,-0.16123 0.05116,-0.26071 z m -0.469548,0.45579 c -0.06632,-0.0279 -0.01058,-0.13758 0.03493,-0.15452 0.02468,0.01 0.04833,0.0194 0.07267,0.0293 -0.01553,0.091 -0.06844,0.0907 -0.107598,0.12523 z m -1.112309,0.30374 c 0.0039,-0.0907 0.07867,-0.37112 0.18274,-0.37641 0.09878,0.10195 -0.01516,0.42792 -0.18274,0.37641 z m -0.188039,-1.12148 c 0.02011,-0.14569 0.180271,-0.36689 0.36689,-0.27234 -0.08114,0.19015 -0.240594,0.19015 -0.36689,0.27234 z m 3.847748,-5.43983 c -0.272698,0.57714 -0.914752,1.09608 -1.272468,1.78964 0.267051,-0.78387 0.767643,-1.41817 1.272468,-1.78964 z m 3.734507,1.00224 c -0.118888,-0.0236 -0.06456,-0.11994 -0.06068,-0.19438 0.10513,0.0293 0.09031,0.10865 0.06068,0.19438 z m 0.151693,0.31609 c -0.02963,0.0723 -0.05891,0.14499 -0.08925,0.21696 -0.0381,-0.0438 -0.08573,-0.084 -0.08043,-0.14605 0.04092,-0.061 0.08043,-0.12453 0.169685,-0.0709 z m 0.05398,0.41733 c -0.101952,-0.0173 -0.06138,-0.0942 -0.115358,-0.13229 0.06632,-0.0857 0.187325,0.0409 0.115358,0.13229 z m 0.322085,-0.23424 c -0.03316,-0.12382 -0.0508,-0.1397 -0.13335,-0.22401 0.06456,-0.18098 0.150638,-0.3108 0.307623,-0.26847 -0.05856,0.1584 -0.01588,0.41769 -0.174273,0.49248 z m -0.05362,0.54187 c -0.05221,-0.0497 -0.0056,-0.20708 0.04092,-0.23672 0.06138,0.0462 0.03493,0.19544 -0.04092,0.23672 z m 0.422627,0.3436 c -0.05151,-0.0254 -0.02716,-0.0825 0.0013,-0.14075 0.07408,0.0243 0.04974,0.12135 -0.0013,0.14075 z m 0.18415,-0.0374 c 0.0013,-0.0836 0.02752,-0.0843 0.08432,-0.13441 0.09701,0.0208 -0.01728,0.20637 -0.08432,0.13441 z m 0.220133,-0.19085 c -0.02045,-0.0543 0.03704,-0.19297 0.08961,-0.21731 0.09913,0.0243 0.01622,0.28469 -0.08961,0.21731 z m 0.05644,0.13581 c 0.09984,0.0183 -0.01553,0.12665 -0.02117,0.18874 -0.08643,-0.0265 -0.03563,-0.16228 0.02117,-0.18874 z m 0.295275,0.0367 c -0.05997,-0.0279 -0.01447,-0.10019 0.01164,-0.16439 0.07973,0.0251 0.0441,0.14182 -0.01164,0.16439 z m 0.238479,-0.0991 c -0.08749,-0.0307 -0.07232,-0.16368 -0.0028,-0.19861 0.04586,0.0473 0.04304,0.115 0.0028,0.19861 z m -0.04233,0.37748 c -0.07691,-0.0483 0.0053,-0.16228 0.01693,-0.24695 0.09772,0.0265 0.02752,0.22649 -0.01693,0.24695 z m 0.30621,-0.12806 c -0.171098,-0.0289 -0.0575,-0.27199 0.03704,-0.29457 0.115358,0.0395 0.03881,0.23848 -0.03704,0.29457 z m 0.333727,0.0811 c -0.02822,0.0758 -0.102658,0.042 -0.174977,0.0123 0.03175,-0.0794 0.0088,-0.13617 0.06526,-0.22683 0.0388,0.0713 0.03845,0.15734 0.109712,0.21449 z m 0.320323,-0.0938 c -0.024,-0.01 -0.04833,-0.0194 -0.07232,-0.0296 0.01341,-0.0321 0.02646,-0.0642 0.03986,-0.0963 0.06668,0.0191 0.06491,0.066 0.03246,0.12594 z m 0.07655,-0.39123 c 0.01341,-0.0321 0.02646,-0.0646 0.03951,-0.0967 0.06703,0.019 0.06597,0.0663 0.03281,0.12664 -0.02363,-0.0102 -0.04868,-0.0201 -0.07232,-0.03 z m -0.450144,-3.42936 c 0.36054,0.53587 0.531284,1.15112 1.156759,1.57657 0.03246,0.17921 0.148873,0.32385 0.29069,0.45826 0.01588,0.41169 -0.224722,0.97578 -0.530932,1.2199 -0.07514,-0.0282 -0.102658,-0.0769 -0.148873,-0.11747 0.06703,-0.11254 0.132292,-0.22684 0.183446,-0.37642 -0.185563,0.0825 -0.294923,0.34714 -0.4699,0.45544 -0.06703,-0.17286 0.212725,-0.26776 0.257527,-0.48613 -0.236715,0.121 -0.398285,0.4191 -0.583493,0.66216 -0.09525,-0.0603 -0.08255,-0.1658 -0.123122,-0.248 0.108657,-0.20814 0.359482,-0.31291 0.4064,-0.50941 -0.311502,0.11395 -0.500591,0.52529 -0.77752,0.7232 -0.176038,-0.30022 0.149225,-0.52705 0.318204,-0.77153 -0.303036,0.1524 -0.514702,0.52282 -0.801511,0.71367 -0.174273,-0.30409 0.274109,-0.68086 0.477661,-0.8188 -0.279046,-0.12312 -0.419452,0.49283 -0.711904,0.49671 -0.01834,0.17745 -0.168982,0.28646 -0.30339,0.32632 0.01447,-0.52775 0.465315,-0.81915 0.733425,-1.16487 -0.464256,0.13265 -0.6985,0.81774 -1.100667,1.0982 -0.129468,-0.52494 0.480132,-1.02588 0.817034,-1.29928 -0.280107,0.0159 -0.443442,0.3115 -0.63994,0.52599 -0.130879,-0.0522 -0.05115,-0.19191 -0.181327,-0.24377 0.134408,-0.15558 0.27799,-0.29069 0.425098,-0.41734 -0.241654,-0.0353 -0.461788,0.3937 -0.683683,0.56445 -0.19544,-0.37641 0.321027,-0.63324 0.5461,-0.84667 -0.21308,-0.13088 -0.395113,0.44238 -0.608542,0.31362 0.0448,-0.26635 0.514702,-0.36759 0.490712,-0.64417 -0.200377,0.0459 -0.326318,0.27164 -0.554566,0.25082 0.664281,-0.57926 1.447448,-0.87241 2.116314,-1.44145 z m 1.562807,1.20756 c 0.02294,-0.0564 0.04551,-0.11289 0.06949,-0.16862 0.08855,0 -0.0071,0.23071 -0.06949,0.16862 z m 0.09983,-0.3817 c 0.02188,-0.0607 0.04445,-0.11783 0.08432,-0.13476 0.12065,0.0279 -0.0035,0.17885 -0.08432,0.13476 z m -0.08749,1.03575 c -0.108653,-0.0677 -0.04022,-0.11959 0.0074,-0.22295 0.06385,0.0451 0.04127,0.19226 -0.0074,0.22295 z m -0.4953,1.54482 c -0.06844,-0.0473 -0.0046,-0.0773 0.02574,-0.13053 0.06032,0.0279 0.01976,0.11359 -0.02574,0.13053 z m 2.251782,-4.23475 c 0.594431,0.93733 1.60796,1.70074 1.739193,2.83175 -0.06773,0.0773 -0.153458,0.11112 -0.248353,0.12312 -0.123825,-0.048 -0.03034,-0.18697 -0.123122,-0.248 -0.07267,0.001 -0.06738,0.1905 -0.137935,0.19685 -0.1397,-0.0413 -0.122415,-0.14852 -0.15734,-0.23354 0.04092,-0.0773 0.113597,-0.0783 0.137938,-0.19756 -0.238125,-0.0113 -0.429331,0.0882 -0.631473,0.16334 -0.09137,-0.0751 -0.05327,-0.20461 -0.03563,-0.32491 -0.244475,-0.06 -0.306562,0.31856 -0.526344,0.31926 -0.124883,-0.0215 -0.0056,-0.14428 -0.0949,-0.17991 -0.236008,0.0572 -0.379235,0.3369 -0.642408,0.32737 0.0702,-0.32102 0.473075,-0.31855 0.43674,-0.58173 -0.325615,0.1143 -0.506942,0.57256 -0.840317,0.66958 0.05715,-0.35208 0.439915,-0.51365 0.657225,-0.77329 -0.115007,-0.0512 -0.156282,0.0741 -0.238477,0.0995 -0.04304,-0.0487 -0.104423,-0.0896 -0.138642,-0.14182 0.03845,-0.0822 0.123119,-0.0561 0.165452,-0.12911 -0.104068,-0.14993 -0.206023,0.0645 -0.282223,0.13758 -0.0956,-0.0201 0.0011,-0.1203 -0.04657,-0.16016 -0.256116,0.0251 -0.259291,0.65652 -0.525285,0.65828 -0.04833,-0.44802 0.315735,-0.79234 0.59549,-0.96767 -0.124883,-0.0836 -0.271992,0.1704 -0.40358,0.22825 -0.07444,-0.0289 -0.07338,-0.0892 -0.115003,-0.13194 0.02822,-0.15522 0.12347,-0.15064 0.195437,-0.20144 0.06421,-0.29703 -0.245886,-0.1785 -0.371475,-0.12488 0.551746,-0.43427 1.095729,-0.88582 1.631598,-1.3589 z m 1.540581,1.87537 c -0.03246,-0.0727 0.03951,-0.10901 0.08361,-0.13476 0.09772,0.0208 -0.01659,0.20672 -0.08361,0.13476 z m 0.512585,-1.31198 c 0.341842,0.33655 0.403932,0.79057 0.748949,1.12607 -0.132292,0.20214 0.08467,0.25787 0.08784,0.40322 -0.03669,0.0737 -0.210256,0.0663 -0.218723,0.0508 -0.10936,-0.0145 0.06421,-0.1464 -0.08079,-0.14605 0.02646,-0.0646 0.05292,-0.12841 0.07973,-0.19297 0.01871,-0.0878 -0.149577,-0.0977 -0.187325,-0.16157 -0.178152,0.0688 -0.259644,0.3683 -0.492477,0.3048 -0.03704,-0.19897 0.375002,-0.15064 0.264935,-0.37007 -0.128058,-0.0526 -0.128058,0.2032 -0.27164,0.11325 0.03916,-0.11889 0.151697,-0.17921 0.0508,-0.26106 -0.138641,-0.0444 -0.182385,0.13829 -0.321027,0.0935 0.02928,-0.10266 0.156986,-0.1263 0.123825,-0.23072 -0.118181,-0.0603 -0.178151,0.0194 -0.252941,0.0649 -0.0829,-0.0317 0.04727,-0.1524 -0.03669,-0.18415 -0.129469,-0.10442 -0.136525,0.0871 -0.256469,0.007 0.1143,-0.35137 0.537634,-0.37007 0.762,-0.61701 z m 0.287867,1.69792 c -0.08326,0.0896 -0.192968,0.11324 -0.292452,0.16227 -0.08396,-0.14816 0.178504,-0.2226 0.06667,-0.36794 0.119944,-0.0797 0.244827,-0.14746 0.341842,-0.28258 0.09772,0.14429 -0.2032,0.33514 -0.116065,0.48825 z m -0.472368,0.73625 c 0.05503,-0.0233 0.09208,0.0628 0.192262,0.0794 -0.09031,0.13335 -0.183796,0.2607 -0.303742,0.32632 -0.08996,-0.0818 0.09067,-0.27728 0.11148,-0.40569 z m -0.391584,1.36207 c -0.07408,-0.0353 -0.137231,-0.0759 -0.105129,-0.15593 0.07655,-0.0261 0.185208,0.0557 0.105129,0.15593 z m -0.343254,-1.01565 c -0.149577,-0.0321 -0.02574,-0.24871 0.05115,-0.26105 0.09842,0.0264 0.01236,0.23318 -0.05115,0.26105 z m 0.281871,-0.13793 c 0.118179,0.12382 -0.10019,0.3436 -0.235305,0.29809 -0.02363,-0.1718 0.14323,-0.24976 0.235305,-0.29809 z m -0.364421,0.61136 c -0.08361,0.0328 -0.154869,-0.0522 -0.08078,-0.14605 0.08114,0.0265 0.104423,0.0765 0.08078,0.14605 z m -0.185561,-0.7814 c -0.08502,-0.0367 -0.0822,-0.17533 0.0071,-0.2226 0.024,0.01 0.04798,0.0198 0.07232,0.0296 -0.03493,0.0727 7.94e-4,0.15945 -0.07937,0.19297 z m 0.02222,-0.32914 c -0.01728,-0.12771 0.110067,-0.0935 0.161219,-0.18698 0.02963,0.0723 -0.08325,0.21167 -0.161219,0.18698 z m -0.290689,0.0212 c 0.116416,0.0868 0.1397,-0.0501 0.246946,0.0169 -0.03775,0.14993 -0.152755,0.11359 -0.206023,0.22542 -0.08678,-0.0501 -0.08713,-0.13652 -0.04092,-0.24236 z m -0.92075,0.0438 c 0.01093,-0.085 0.06915,-0.0586 0.09772,-0.10019 0.07655,0.0413 -0.01376,0.16757 -0.09772,0.10019 z m -1.342319,0.51964 c -0.0321,-0.0723 0.03951,-0.10936 0.08396,-0.13511 0.08396,0.0554 0.02011,0.1725 -0.08396,0.13511 z m 0.378884,-0.5775 c -0.139701,-0.21978 0.210256,-0.39158 0.300566,-0.52458 0.05891,0.18168 -0.162631,0.49742 -0.300566,0.52458 z m -0.186974,0.79728 c -0.0515,-0.0251 -0.02716,-0.0822 0.0011,-0.14041 0.07302,0.0155 0.130175,-0.008 0.170391,-0.0709 0.08749,0.0981 -0.127703,0.12842 -0.17145,0.21132 z m 0.03211,-0.35313 c -0.08079,-0.06 0.03563,-0.23671 0.127704,-0.17321 -0.0099,0.12135 -0.04621,0.13017 -0.127704,0.17321 z m -0.08361,0.61454 c -0.0141,0.0441 -0.0501,0.0384 -0.06386,0.0864 -0.149577,-0.0554 0.0011,-0.20356 0.06386,-0.0864 z m -0.126297,-0.92675 c 0.03246,0.0134 0.06421,0.0261 0.09666,0.0399 -0.01304,0.0808 -0.06032,0.0776 -0.08396,0.13441 -0.08678,-0.0444 -0.06456,-0.12065 -0.0127,-0.17427 z m -0.699203,2.58904 c -0.0568,0.0706 -0.111125,0.14781 -0.171805,0.21202 -0.19332,-0.10266 0.07197,-0.47696 0.171805,-0.21202 z m 0.135112,-0.39582 c 0.111831,0.0536 -0.01622,0.20673 -0.04657,0.31962 -0.188383,-0.0543 -0.02928,-0.25048 0.04657,-0.31962 z m 0.04057,1.20227 c -0.104071,-0.0568 -0.02294,-0.1905 0.01341,-0.30551 0.03175,0.0134 0.06421,0.0265 0.09631,0.0399 -0.0032,0.0727 -0.03845,0.22577 -0.109712,0.26564 z m 0.367593,-0.89288 c 0.08396,0.11676 -0.125235,0.4064 -0.20461,0.56479 -0.251531,-0.16086 0.09595,-0.42968 0.20461,-0.56479 z m -0.220839,1.29116 c -0.110771,-0.0127 -0.02787,-0.20778 0.04516,-0.1785 0.110773,0.0123 0.02787,0.20708 -0.04516,0.1785 z m 0.847021,0.5461 c -0.06421,-0.0265 -0.142171,-0.0473 -0.159456,-0.0935 0.03633,-0.19297 0.270933,-0.0459 0.159456,0.0935 z m 0.02506,-0.6103 c 0.143581,-0.10372 0.249063,-0.29845 0.391583,-0.40252 0.0127,0.22119 -0.09595,0.64735 -0.29351,0.78175 -0.08608,-0.10407 -0.06032,-0.25505 -0.09807,-0.37923 z m 0.282575,0.82162 c -0.06138,-0.0212 -0.117475,-0.0441 -0.13476,-0.0833 0.05115,-0.0639 0.202848,-0.0381 0.13476,0.0833 z m 0.275167,-0.87348 c 0.0956,0.10971 -0.05115,0.41592 -0.102304,0.52211 -0.162983,-0.0949 0.01447,-0.38347 0.102304,-0.52211 z m 0.101954,0.91616 c -0.05574,-0.007 -0.09313,0.0314 -0.164396,-0.0113 -0.02999,-0.0854 0.0949,-0.0914 0.141465,-0.13899 0.04092,0.0363 0.03845,0.091 0.02294,0.15028 z m 0.252942,-0.54504 c -0.02822,0.12418 0.01659,0.30551 -0.110773,0.40605 -0.120298,-0.0748 -0.08078,-0.43921 0.110773,-0.40605 z m 0.391229,0.55633 c -0.138994,-0.0416 -0.09701,-0.15945 -0.157692,-0.23389 0.0762,-0.121 0.146405,-0.25753 0.231775,-0.35631 0.05574,0.1524 0.08043,0.41593 -0.07408,0.5902 z m 0.441679,-0.0441 c -0.04198,0.0755 -0.142875,0.0102 -0.223308,-0.007 0.02151,-0.0607 0.04409,-0.11748 0.08431,-0.13476 0.02011,0.0582 0.115358,0.085 0.138996,0.14182 z m 0.274812,-0.87383 c 0.08326,0.19192 -0.08431,0.50694 -0.191558,0.73943 -0.406045,-0.18169 0.09419,-0.50624 0.191558,-0.73943 z m 0.201438,0.19615 c 0.115004,0.0653 0.0822,0.19226 0.03528,0.32455 -0.13829,-0.0557 -0.07655,-0.19438 -0.03528,-0.32455 z m -0.09666,0.43956 c 0.02469,0.0427 0.08643,0.0709 0.09102,0.12171 -0.05856,0.0832 -0.148519,0.0921 -0.252235,0.0656 0.03175,-0.11465 0.10795,-0.12453 0.161218,-0.18732 z m 0.25118,0.0751 c 0.04551,-0.11571 0.140758,-0.11148 0.195792,-0.20108 0.07232,0.11183 -0.08678,0.2346 -0.195792,0.20108 z m 0.309737,-0.88794 c -0.02294,0.0896 -0.02928,0.1718 -0.08537,0.27481 -0.242359,-0.2794 0.152045,-0.62441 0.323495,-0.85407 -0.299154,0.0501 -0.427212,0.51047 -0.675217,0.68121 -0.142168,-0.21202 0.192617,-0.51541 0.326322,-0.65546 -0.362657,0.0427 -0.61454,0.76271 -0.912284,1.11972 -0.221546,-0.49283 0.48895,-0.98743 0.726721,-1.42205 -0.319617,0.097 -0.474486,0.58773 -0.721429,0.85972 -0.115713,-0.0177 -0.04551,-0.1143 -0.138996,-0.14182 -0.04586,0.3168 -0.144637,0.57009 -0.351719,0.78599 -0.19685,-0.63641 0.488244,-1.19803 0.839965,-1.62842 -0.319971,0.0935 -0.510117,0.50235 -0.748948,0.79163 -0.07443,0.0328 -0.07443,-0.054 -0.168982,-0.0695 -0.115003,0.25117 -0.08219,0.50024 -0.2921,0.64135 -0.0088,-0.65123 0.534459,-1.10102 0.940507,-1.53106 -0.423334,0.11959 -0.758473,0.86325 -1.1938,1.11654 0.01236,-0.12453 0.09067,-0.27693 0.0092,-0.36336 0.234243,-0.25294 0.436385,-0.58279 0.705202,-0.75353 -0.422982,0.10336 -0.65405,0.66781 -1.007534,0.93945 -0.07197,-0.03 -0.05609,-0.0963 -0.115006,-0.13159 -0.250825,0.23495 -0.115004,0.6283 -0.413808,0.73201 0.06915,-0.79586 0.842433,-1.18145 1.136298,-1.73249 -0.288219,0.0434 -0.473075,0.33443 -0.684036,0.56444 0.02893,0.0819 0.100188,-0.1404 0.180269,-0.0953 -0.156985,0.139 -0.301625,0.54999 -0.49389,0.44592 -0.135466,0.26634 -0.279752,0.51047 -0.451908,0.68791 -0.01871,-0.67627 0.571148,-1.01776 0.948621,-1.41393 -0.024,-0.0889 -0.271288,0.15699 -0.242713,0.0406 0.10654,-0.12806 0.23848,-0.19509 0.337963,-0.34008 -0.43815,0.13229 -0.680508,0.73237 -1.103842,0.89959 -0.01905,-0.5581 0.392994,-0.8816 0.791634,-1.16911 -0.375005,0.0416 -0.557742,0.54786 -0.926748,0.60572 0.10301,-0.26846 0.413456,-0.44485 0.607483,-0.65264 -0.196498,-0.0981 -0.345017,0.3182 -0.546452,0.36759 -0.249063,-0.38629 0.435679,-0.64699 0.624417,-0.89993 -0.374298,0.0459 -0.74013,0.52564 -1.088321,0.79304 0.263173,-0.68192 1.024821,-0.9913 1.549048,-1.3649 0.370064,-0.34431 0.748948,-0.66498 1.176514,-0.86924 -0.107246,1.2767 1.447094,1.8609 1.533877,3.05717 -0.216606,0.2152 -0.04022,0.69039 -0.394406,0.68404 z m 0.658283,-0.91369 c -0.01058,0.0547 -0.04268,0.0571 -0.0642,0.0868 -0.07937,-0.0205 -0.05574,-0.084 -0.02222,-0.15099 0.05398,0.0109 0.0568,0.0427 0.08643,0.0642 z m 2.468034,-3.66643 c 0.472016,0.64277 1.096433,1.22168 1.575154,1.86161 -0.230013,0.20003 -0.394758,0.55422 -0.693563,0.58844 0.121709,-0.28575 0.430038,-0.37042 0.518938,-0.57574 -0.224721,0.11078 -0.553508,0.17039 -0.571854,0.49777 -0.121354,-0.10195 -0.04621,-0.2868 -0.180269,-0.38453 -0.179565,0.266 -0.491773,0.51506 -0.809625,0.59796 0.159808,-0.22472 0.379942,-0.30268 0.575733,-0.44026 0.01447,-0.0967 -0.06526,-0.0441 -0.134408,-0.0836 0.02822,-0.091 0.06844,-0.15522 0.113242,-0.20708 -0.365477,0.0674 -0.561975,0.79163 -0.93204,0.68792 0.124531,-0.13265 0.24765,-0.26776 0.381706,-0.37889 -0.248708,-0.0526 -0.4191,0.49671 -0.71261,0.49671 -0.0042,-0.15275 0.191204,-0.20179 0.240946,-0.38029 -0.106537,-0.048 -0.238125,0.25894 -0.361596,0.33055 -0.177096,-0.0681 -0.03634,-0.24483 0.06138,-0.28504 -0.437799,0.13193 -0.727075,0.62018 -1.159934,0.76341 0.231775,-0.36971 0.525992,-0.58985 0.801862,-0.85443 -0.145695,-0.22049 -0.317145,0.28116 -0.46355,0.37324 -0.279752,-0.13088 -0.458258,0.27481 -0.696383,0.39017 0.04868,-0.387 0.652992,-0.75847 0.75565,-1.01459 -0.186267,0.12771 -0.361244,0.28258 -0.597958,0.28963 -0.006,-0.41804 0.467783,-0.49847 0.588788,-0.74436 -0.442738,0.20109 -0.758825,0.7052 -1.210382,0.88336 0.220133,-0.40464 0.535517,-0.9705 1.00965,-1.22026 -0.398992,0.0173 -0.548568,0.63253 -0.974018,0.58667 0.245178,-0.33832 0.543983,-0.54857 0.80292,-0.85443 -0.280104,-0.0801 -0.495652,-0.006 -0.664985,0.1771 -0.07373,-0.14253 -0.03104,-0.33303 -0.04939,-0.49954 0.07585,0.0487 0.0042,0.1584 0.08537,0.20461 0.880182,-0.3182 1.807985,-0.52105 2.701219,-0.8061 z m 1.371954,1.3268 c -0.08079,-0.0328 -0.160163,-0.0663 -0.104775,-0.15628 0.09349,0.0272 0.133702,0.0776 0.104775,0.15628 z m 1.273175,0.12877 c -0.152754,0.0713 -0.321733,0.33937 -0.472723,0.25717 0.06244,-0.13899 0.207433,-0.22225 0.207433,-0.36618 -0.07832,-0.10231 -0.143581,0.0123 -0.246943,-0.0169 2.64e-4,-0.0737 0.02999,-0.15911 -0.02716,-0.20885 -0.192617,-0.0155 -0.212373,0.38559 -0.405693,0.36901 -0.04868,-0.2159 0.04268,-0.40041 -0.02257,-0.62971 0.484364,-0.67875 0.772583,0.20708 0.967671,0.59549 z m 2.197452,0.14322 c 0.412044,0.74119 0.742598,1.51554 1.057275,2.29729 -0.234598,0.0124 -0.301273,0.42898 -0.527756,0.45932 0.03281,-0.11289 0.08643,-0.17568 0.132998,-0.25541 -0.09384,-0.0325 -0.128059,0.0755 -0.189794,0.11959 -0.01659,-0.15452 0.141817,-0.27093 0.17286,-0.35207 -0.03104,-0.0219 -0.08749,0.0504 -0.144991,-0.06 -0.199319,0.0494 -0.270934,0.40428 -0.454732,0.49 0.03316,-0.18062 0.141465,-0.40005 0.243772,-0.6611 -0.0374,-0.0847 -0.05186,-0.17815 -0.123825,-0.248 -0.235305,0.0949 -0.394759,0.44591 -0.234599,0.63676 -0.23495,-0.34855 -0.658283,-0.79093 -0.61101,-1.32397 -0.335846,0.0462 -0.539046,0.64875 -0.928865,0.40745 0.02574,-0.0705 0.07761,-0.15275 0.05468,-0.2032 -0.161925,0.01 -0.225425,0.25682 -0.41769,0.19474 0.09525,-0.15452 0.220485,-0.23707 0.365125,-0.2727 0.04551,-0.0582 -0.02752,-0.0684 -0.0085,-0.11642 -0.237773,0.0522 -0.4064,0.27058 -0.58561,0.46426 -0.08678,-0.024 -0.04233,-0.10231 -0.08114,-0.14641 0.09278,-0.22507 0.255411,-0.28257 0.391936,-0.40287 -0.205669,-0.13511 -0.312561,0.36442 -0.536575,0.34361 -0.07937,-0.0466 -0.01728,-0.1524 -0.08502,-0.20426 0.03387,-0.0794 0.09066,-0.10372 0.113948,-0.20743 -0.130529,-0.0554 -0.268816,0.28257 -0.448733,0.2667 0.06809,-0.32138 0.369358,-0.32209 0.40287,-0.56727 -0.131937,-0.054 -0.183443,0.20673 -0.300212,0.0455 0.08855,-0.16792 0.307621,-0.31009 0.492125,-0.30515 0.767996,0.019 1.591379,-0.0914 2.251427,-0.399 z m 0.461433,2.30576 c 0.02363,0.0102 0.04798,0.0194 0.07232,0.0296 -0.04092,0.12665 -0.126294,0.14429 -0.196144,0.20144 -0.04621,-0.0991 0.08855,-0.16722 0.123825,-0.23107 z m -0.170039,0.55069 c -0.02363,0.0557 -0.04692,0.11218 -0.0695,0.16862 -0.119591,-0.0236 -0.06527,-0.26423 0.0695,-0.16862 z m -3.127375,-2.61338 c 0.111831,0.0265 0.115713,0.0981 0.128764,0.1658 -0.05503,0.0924 -0.123825,0.15029 -0.224014,0.13371 0.01198,-0.0878 0.02963,-0.25294 0.09525,-0.29951 z m -0.162629,0.80715 c -0.217313,0.11818 -0.214842,0.49848 -0.475898,0.53764 -0.03845,-0.12806 0.09419,-0.16475 0.161573,-0.18733 -0.01799,-0.18238 0.130527,-0.37818 0.314325,-0.35031 z m -0.731663,-0.0751 c 0.06174,-0.22613 0.306917,-0.41134 0.461433,-0.57185 0.05468,0.0102 0.05715,0.0427 0.08643,0.0639 -0.176035,0.18486 -0.34149,0.39476 -0.547865,0.508 z m -2.114902,0.34184 c 0.03246,0.0134 0.06456,0.0265 0.09631,0.0399 -0.0056,0.0953 -0.180975,0.0564 -0.09631,-0.0399 z m -0.366183,-0.20708 c 0.02893,-0.0741 0.08961,-0.073 0.132291,-0.115 0.04163,0.0568 -0.06703,0.15628 -0.132291,0.115 z m -0.750359,0.93204 c 0.05786,-0.16474 0.189442,-0.15169 0.273757,-0.254 0.006,0.12771 -0.153813,0.26952 -0.273757,0.254 z m -0.285398,1.37795 c 0.04269,-0.10372 0.05503,-0.26247 0.148873,-0.36195 0.05574,0.0646 -0.0046,0.40217 -0.148873,0.36195 z m 0.259647,0.19156 c -0.05962,-0.17498 0.09525,-0.375 0.222953,-0.47272 0.0049,0.15663 -0.147812,0.34819 -0.222953,0.47272 z m 0.842785,0.008 c 0.03069,0.14676 -0.05292,0.64418 -0.272344,0.59338 0.09419,-0.16969 0.09842,-0.41381 0.272344,-0.59338 z m 0.234243,0.80151 c 0.106188,0.0166 0.0381,0.18415 -0.04974,0.1203 0.01693,-0.0399 0.03316,-0.0797 0.04974,-0.1203 z m 0.191207,-0.73871 c 0.0575,0.11571 -0.05927,0.30374 -0.105482,0.46355 -0.135818,-0.0833 0.08079,-0.31362 0.105482,-0.46355 z m 0.233185,0.94156 c -0.103717,-0.0663 0.02681,-0.28081 0.09067,-0.35736 0.08255,0.0653 -0.01659,0.29069 -0.09067,0.35736 z m 0.09031,0.12206 c 0.04057,0.0166 0.08043,0.0332 0.121002,0.0497 -0.0032,0.10125 -0.210257,0.0487 -0.121002,-0.0497 z m 0.594783,0.13194 c -0.0762,-0.007 -0.131233,0.037 -0.222604,-0.007 -0.02294,-0.12806 0.115713,-0.2159 0.176741,-0.29351 0.123122,0.0557 0.0508,0.19191 0.04586,0.30056 z m 0.153459,-0.30339 c 0.08996,-0.58455 0.581728,-0.90205 0.931685,-1.16769 0.04198,0.009 0.03246,0.0399 0.06279,0.0536 -0.329141,0.37783 -0.602191,0.88935 -0.994478,1.11407 z m 1.26365,0.0127 c 0.124528,-0.14922 0.221191,-0.36512 0.334785,-0.53904 0.02787,0.11006 -0.194734,0.67027 -0.334785,0.53904 z m -0.150284,0.0226 c 0.02188,-0.41734 0.508704,-0.78599 0.631471,-1.12219 -0.490009,0.19826 -0.629354,1.23896 -1.165929,1.32503 0.126645,-0.27057 0.33161,-0.35383 0.470958,-0.59584 -0.132646,0.0656 -0.225425,0.22649 -0.352425,0.30657 0.158396,-0.4124 0.711552,-0.77717 0.801159,-1.19345 -0.258588,0.12982 -0.468842,0.65264 -0.773642,0.92251 -0.202848,-0.30056 0.357717,-0.5281 0.449792,-0.88688 -0.03034,-0.007 -0.04092,-0.0233 -0.03881,-0.0437 -0.187325,-0.0815 -0.268465,0.09 -0.398285,0.14605 -0.09066,-0.002 0.01376,-0.0861 -0.07655,-0.0882 -0.3048,0.40323 -0.70132,0.58738 -1.017058,0.96344 -0.0067,0.036 0.05186,0.0448 0.08643,0.0639 -0.09596,0.0427 -0.142523,0.20214 -0.225776,0.27376 -0.127355,-0.52705 0.721076,-1.07986 0.954616,-1.49649 -0.366183,0.19368 -0.606425,0.6858 -0.935215,0.96873 -0.02716,-0.14182 0.108657,-0.35137 -0.0095,-0.45543 -0.212725,0.11288 -0.335139,0.44273 -0.515056,0.63429 -0.08184,-0.60043 0.4064,-1.24354 0.688975,-1.6062 -0.382058,0.28081 -0.655812,0.82268 -1.042458,1.09397 0.06068,-0.60149 0.387704,-0.88301 0.724958,-1.28094 -0.489302,0.35913 -0.887587,0.93768 -1.293987,1.49825 -0.07021,-0.70168 0.509058,-1.27212 0.93627,-1.58927 -0.257175,-0.0391 -0.483658,0.40287 -0.717195,0.57926 -0.08079,-0.0466 -0.107246,-0.11571 -0.153813,-0.17603 0.202848,-0.21731 0.403931,-0.43886 0.649817,-0.55069 -0.402167,-0.0695 -0.662162,0.6156 -1.044221,0.75459 0.05186,-0.58173 0.55386,-0.70273 0.708729,-1.03399 -0.456494,0.0272 -0.778579,0.78246 -1.197679,1.05833 0.746125,-1.39029 1.96991,-1.63371 3.025775,-2.28 0.513292,0.70556 1.119362,1.3716 1.660171,2.06552 0.06915,0.65757 -0.447321,1.26471 -0.831496,1.74519 z m 1.471435,0.60607 c 0.09454,-0.20426 0.255059,-0.25012 0.381352,-0.37888 -0.03634,0.1531 -0.197553,0.4191 -0.381352,0.37888 z m 1.119011,-0.0473 c 0.05045,-0.15099 0.145698,-0.19473 0.225779,-0.27376 0.006,0.096 -0.09913,0.33585 -0.225779,0.27376 z m 0.580673,0.0984 c -0.09172,0.0991 -0.19544,0.17075 -0.325967,0.17569 0.02717,-0.16722 0.218017,-0.33126 0.314325,-0.49107 0.116065,0.0586 -0.04727,0.23319 0.01164,0.31538 z m -0.195792,-0.27834 c 0.04762,-0.18626 0.171098,-0.23424 0.18274,-0.37606 -0.385588,-0.0138 -0.518583,0.57644 -0.863955,0.6597 0.125942,-0.32456 0.43533,-0.45403 0.5207,-0.7165 -0.437795,0.1323 -0.573262,0.9899 -1.103487,0.89959 0.08608,-0.11324 0.196496,-0.16828 0.283279,-0.27799 -0.04198,-0.11324 -0.118533,0.0949 -0.207785,0.0268 0.196143,-0.34361 0.452966,-0.54222 0.690385,-0.7874 0.03034,-0.0522 -0.05856,-0.0554 -0.04233,-0.10231 -0.337961,0.21273 -0.608542,0.58597 -0.989894,0.69251 0.100894,-0.30445 0.411692,-0.51012 0.626182,-0.70097 -0.337963,-0.042 -0.578557,0.5595 -0.907699,0.69814 0.05362,-0.33761 0.583494,-0.64734 0.644525,-0.94756 -0.367593,0.26988 -0.628298,0.79446 -1.027289,0.98743 0.02893,0.1076 0.0702,0.21025 0.195088,0.27799 -0.1905,0.0194 -0.474488,-0.25048 -0.566915,-0.40288 0.69215,-0.41733 0.868185,-1.54234 0.544335,-2.14524 0.59055,-0.37324 1.168755,-0.77611 1.793523,-1.0668 0.257527,0.19791 0.298802,0.4692 0.466725,0.78458 0.448733,0.84243 1.243542,1.47108 0.343252,2.45427 -0.165804,-0.12065 0.01516,-0.27622 -0.01976,-0.43144 -0.202497,0.037 -0.524582,0.51647 -0.561624,0.47413 z m 1.328915,-2.13254 c 0.0049,-0.21343 0.239183,-0.28998 0.315383,-0.49071 0.12841,0.19473 -0.210608,0.38946 -0.315383,0.49071 z m -0.11924,2.68675 c -0.0314,-0.013 -0.06421,-0.0261 -0.09631,-0.0395 -0.0067,-0.097 0.0822,-0.121 0.137583,-0.19685 0.1016,0.0307 -0.03492,0.16122 -0.04127,0.23636 z m 0.698148,-0.0508 c 0.07408,-0.19649 0.342546,-0.3249 0.475192,-0.53798 -0.02363,0.12347 -0.262821,0.5461 -0.475192,0.53798 z m 1.108427,-0.36195 c -0.01976,0.0808 -0.07338,0.0804 -0.107598,0.12489 -0.04268,-0.0434 0.03881,-0.18874 0.107598,-0.12489 z m -0.01164,0.16475 c 0.04022,0.12171 -0.168981,0.44979 -0.319264,0.43286 0.01939,-0.1718 0.225425,-0.28363 0.319264,-0.43286 z m 0.0024,-3.63749 c 0.03669,1.26365 1.083029,2.10608 1.021998,3.4103 -0.08961,0.0561 -0.161573,0.15487 -0.282575,0.13794 -0.02222,-0.11289 0.146756,-0.10936 0.167923,-0.26952 -0.0063,-0.0441 -0.0049,-0.0914 -0.06703,-0.11219 -0.272343,0.066 -0.427212,0.41346 -0.645583,0.60855 0.01199,-0.31786 0.49883,-0.53411 0.410281,-0.79023 -0.26811,-0.005 -0.361598,0.41169 -0.610306,0.45403 0.08502,-0.15769 0.1143,-0.17075 0.201438,-0.28364 -0.394407,0.17181 -0.68298,0.59796 -1.049515,0.83715 0.01588,-0.37783 0.698148,-0.69815 0.645232,-1.08832 -0.226132,0.0159 -0.33514,0.31467 -0.5461,0.36724 0.07267,-0.18521 0.347485,-0.25894 0.28081,-0.47625 -0.36054,0.20461 -0.626885,0.63676 -0.977548,0.86642 0.107598,-0.27129 0.512588,-0.65475 0.764823,-0.89782 -0.427215,0.0617 -0.627592,0.66887 -1.044223,0.75459 0.145698,-0.37182 0.540104,-0.55668 0.778933,-0.86395 -0.0019,-0.0254 -0.0039,-0.0519 -0.02822,-0.0681 -0.358775,0.115 -0.598665,0.51399 -0.932392,0.68826 -0.03351,0.0536 0.115358,0.0318 0.04269,0.10196 -0.263877,-0.16863 0.238125,-0.43674 0.354894,-0.58738 -0.01905,-0.10089 -0.100187,0.0438 -0.164746,-0.0113 0.148519,-0.28645 0.454377,-0.4392 0.5588,-0.67239 -0.20814,-0.0843 -0.230716,0.27799 -0.413808,0.25224 0.146754,-0.22155 0.324554,-0.37078 0.498827,-0.52741 -0.0019,-0.0261 -0.0032,-0.0519 -0.02822,-0.0684 -0.269875,0.0879 -0.433917,0.42933 -0.669219,0.59937 0.02752,-0.24941 0.269875,-0.54998 0.492125,-0.78528 0.0042,-0.0349 -0.02681,-0.055 -0.01871,-0.0917 -0.08396,-0.0614 -0.137935,0.0529 -0.17921,-0.0459 0.46214,-0.52211 0.935918,-1.01565 1.438627,-1.43828 z m 1.865138,7.73501 c 0.617008,-1.24954 1.1049,-2.64937 0.65546,-3.51014 -0.254707,-0.48648 -0.841023,-0.91793 -1.285523,-1.26259 -0.264229,-0.94756 -0.934509,-1.73885 -1.008944,-2.75661 -0.01199,-0.16334 0.09878,-0.34396 -0.08255,-0.48542 -0.455435,0.26635 -0.814917,0.76059 -1.340908,0.85866 -0.404284,-0.81104 -0.86219,-1.59879 -1.025173,-2.51002 -0.569736,0.32668 -1.221317,0.45791 -1.904294,0.514 -0.460375,-0.3877 -0.52564,-1.05868 -1.05551,-1.47849 -0.296333,0.2286 -0.668163,0.48895 -0.89394,0.73202 -0.528815,-0.29069 -0.85725,-0.98002 -1.195565,-1.47991 -0.545745,0.17745 -1.029403,0.50377 -1.61925,0.57503 -0.298095,-0.54222 -0.601485,-1.1878 -0.96167,-1.63724 -0.246946,0.15169 -0.806805,0.77435 -1.057982,0.72072 -0.380648,-0.0811 -0.682625,-1.08867 -0.926748,-1.31198 -0.855133,0.74401 -1.693333,1.53035 -2.67476,1.97309 -0.0314,-0.0734 -0.10301,-0.13018 -0.108302,-0.21414 0.297744,-0.0896 0.100894,-0.32702 0.295627,-0.58314 -0.123473,-0.0723 -0.148518,0.0907 -0.280458,-0.003 -0.07655,0.14569 -0.09701,0.23918 -0.163335,0.32773 -0.198967,-0.22331 -0.238125,-0.51329 -0.326322,-0.78282 -0.587727,0.20814 -1.019175,0.95956 -1.621366,0.85549 -0.01199,-0.13159 0.229306,-0.21837 0.192616,-0.40005 -0.314325,0.39581 -0.676275,0.67874 -1.026935,0.98707 0.178152,-0.43815 0.626182,-0.72743 0.70344,-1.0922 -0.1905,0.1337 -0.285046,0.49812 -0.509413,0.5521 -0.07726,-0.25435 0.394406,-0.4311 0.354896,-0.58738 -0.263525,0.16687 -0.445913,0.52882 -0.709083,0.69533 -0.02857,-0.0885 -0.03563,-0.18556 -0.05645,-0.27693 0.104775,-0.24518 0.385588,-0.32174 0.413456,-0.59161 -0.207081,0.19121 -0.358068,0.5147 -0.611365,0.59443 0.06562,-0.45297 0.51788,-0.66393 0.799042,-0.91193 0.575733,-0.50906 1.279525,-0.86043 1.982258,-1.04599 0.401463,0.65864 0.669222,1.47955 1.199798,2.01754 -0.255058,-0.80645 -0.741539,-1.51589 -1.193448,-2.24014 -1.000828,0.41099 -1.956503,0.93063 -2.783416,1.7593 -0.05715,-0.0226 -0.05397,-0.0709 -0.134409,-0.0836 -1.753658,0.3683 -3.958166,0.8382 -4.843991,3.33657 -0.121354,0.34184 -0.293862,0.66498 -0.427212,1.03752 -0.217313,0.60783 -0.498124,1.98684 -1.062215,2.10114 -0.179565,0.036 -0.52846,-0.0815 -0.682273,-0.0554 -0.283279,0.0476 -0.770819,0.67133 -0.842434,0.95038 -0.07267,0.27869 0.201438,0.53834 0.03528,0.80433 0.243768,0.10689 0.17286,0.3115 0.334785,0.42016 0.595135,0.40075 1.245307,-0.15734 1.643944,-0.22542 -0.740479,2.66311 -1.636536,5.5252 -2.513542,8.16045 0.179213,0.70873 0.470958,1.44921 1.059392,2.01613 0.226131,0.21766 0.393348,0.44485 0.560916,0.62547 0.94968,1.02941 2.367492,2.09973 3.806122,2.94993 0.51435,0.30374 1.099608,0.69426 1.5748,0.9017 0.248708,0.10901 0.56656,0.18344 0.830085,0.31397 1.11619,0.55104 2.354085,1.03787 3.603977,1.45521 0.837848,0.28011 1.842558,0.37042 2.765073,0.5461 0.920398,0.17568 1.851377,0.22119 2.637366,0.23954 1.713442,0.0409 3.363736,0.0952 4.885974,-0.35737 0.657225,-0.19508 1.407935,-0.28399 1.675341,-0.91793 0.250119,-0.59125 0.556329,-1.10031 0.845609,-1.71132 0.21872,-0.46179 0.28222,-1.10631 0.53481,-1.64112 0.383116,-0.80857 0.620183,-1.4852 0.977548,-2.30541 0.452967,-0.005 1.243893,-0.2995 1.42875,-0.93521 0.06562,-0.22507 -0.230013,-0.61912 -0.294923,-0.99589 -0.232834,-1.34549 0.694266,-3.14819 1.42734,-4.63056"
         style="fill:#000000;fill-opacity:1;fill-rule:evenodd;stroke:none;stroke-width:0.03527778"
         id="path2528" />
      <path
         inkscape:connector-curvature="0"
         d="m 89.935797,137.80735 c 0.113945,0.0504 0.0095,0.0681 -0.01093,0.16474 0.128058,0.0166 0.138289,-0.21837 0.128764,-0.31397 -0.04163,0.0441 -0.09596,0.0572 -0.117826,0.14923"
         style="fill:#000000;fill-opacity:1;fill-rule:evenodd;stroke:none;stroke-width:0.03527778"
         id="path2530" />
      <path
         inkscape:connector-curvature="0"
         d="m 84.652949,138.65048 c -0.162984,0.0261 -0.330552,0.29316 -0.377825,0.43674 0.115006,-0.17145 0.2667,-0.25541 0.377825,-0.43674"
         style="fill:#000000;fill-opacity:1;fill-rule:evenodd;stroke:none;stroke-width:0.03527778"
         id="path2532" />
      <path
         inkscape:connector-curvature="0"
         d="m 75.009415,139.53172 c -0.323143,-0.16615 -0.739775,-0.50341 -0.977548,-0.57185 0.271288,0.19967 0.61454,0.4766 0.977548,0.57185"
         style="fill:#000000;fill-opacity:1;fill-rule:evenodd;stroke:none;stroke-width:0.03527778"
         id="path2534" />
      <path
         inkscape:connector-curvature="0"
         d="m 78.400315,150.06673 c 0.12065,-0.22578 0.343959,-0.44591 0.607484,-0.17286 -0.01516,0.0265 -0.01236,0.0448 0.0042,0.0579 -0.115358,0.22366 -0.41275,0.25047 -0.611717,0.11501 z m -0.08361,0.13511 c 0.353483,0.12983 0.614892,0.0363 0.815623,-0.20002 -0.03493,-0.51506 -0.954265,-0.27623 -0.815623,0.20002"
         style="fill:#000000;fill-opacity:1;fill-rule:evenodd;stroke:none;stroke-width:0.03527778"
         id="path2536" />
      <path
         inkscape:connector-curvature="0"
         d="m 89.385815,148.6662 c 0.252236,0.12524 0.434975,0.0847 0.567974,-0.0762 -0.02611,-0.26811 -0.689682,-0.30551 -0.567974,0.0762"
         style="fill:#000000;fill-opacity:1;fill-rule:evenodd;stroke:none;stroke-width:0.03527778"
         id="path2538" />
      <path
         inkscape:connector-curvature="0"
         d="m 75.830682,144.52388 c -0.159102,0.0476 -0.20814,0.33373 -0.08573,0.41593 0.343958,0.23177 0.423333,-0.51576 0.08573,-0.41593"
         style="fill:#000000;fill-opacity:1;fill-rule:evenodd;stroke:none;stroke-width:0.03527778"
         id="path2540" />
      <path
         inkscape:connector-curvature="0"
         d="m 86.157899,149.31214 c -0.09349,0.16333 -0.313973,0.20884 -0.31891,0.4325 0.269168,0.31221 0.624768,-0.28504 0.31891,-0.4325"
         style="fill:#000000;fill-opacity:1;fill-rule:evenodd;stroke:none;stroke-width:0.03527778"
         id="path2542" />
    </g>
  </g>
</svg>
