<?xml version="1.0" encoding="UTF-8" standalone="no"?>
<!-- Created with Inkscape (http://www.inkscape.org/) -->
<?xml-stylesheet type="text/css" href="bird_in_parts_2.css" ?>

<svg
   xmlns:dc="http://purl.org/dc/elements/1.1/"
   xmlns:cc="http://creativecommons.org/ns#"
   xmlns:rdf="http://www.w3.org/1999/02/22-rdf-syntax-ns#"
   xmlns:svg="http://www.w3.org/2000/svg"
   xmlns="http://www.w3.org/2000/svg"
   xmlns:sodipodi="http://sodipodi.sourceforge.net/DTD/sodipodi-0.dtd"
   xmlns:inkscape="http://www.inkscape.org/namespaces/inkscape"
   version="1.1"
   id="svg3713"
   width="547.62372"
   height="291.89621"
   viewBox="0 0 547.62372 291.89621"
   sodipodi:docname="bird_in_parts_2.svg"
   inkscape:version="0.92.3 (2405546, 2018-03-11)">
  <metadata
     id="metadata3719">
    <rdf:RDF>
      <cc:Work
         rdf:about="">
        <dc:format>image/svg+xml</dc:format>
        <dc:type
           rdf:resource="http://purl.org/dc/dcmitype/StillImage" />
        <dc:title></dc:title>
      </cc:Work>
    </rdf:RDF>
  </metadata>
  <defs
     id="defs3717" />
  <sodipodi:namedview
     pagecolor="#ffffff"
     bordercolor="#666666"
     borderopacity="1"
     objecttolerance="10"
     gridtolerance="10"
     guidetolerance="10"
     inkscape:pageopacity="0"
     inkscape:pageshadow="2"
     inkscape:window-width="3840"
     inkscape:window-height="2066"
     id="namedview3715"
     showgrid="false"
     inkscape:zoom="3.3587572"
     inkscape:cx="414.36646"
     inkscape:cy="83.240987"
     inkscape:window-x="-11"
     inkscape:window-y="-11"
     inkscape:window-maximized="1"
     inkscape:current-layer="svg3713" />

     <!-- <path class="draw curve"

        d="m 4.1042745,0.08897712 c 0,0 -27.5399495,152.28847288 69.6686205,124.45079288 97.208575,-27.837679 16.8217,42.42641 19.65013,67.73339 2.82843,25.30698 135.615655,0.29773 135.615655,0.29773 0,0 76.81412,-14.14214 47.78552,-33.19681 -29.02858,-19.05466 -72.9109,73.09388 3.12616,50.61396 57.19843,-16.91039 122.95478,34.59135 125.72537,34.37586"
        id="path4569"
        inkscape:connector-curvature="0"
        sodipodi:nodetypes="csscssc" /> -->

     <path class="draw body"

        d="m 405.67573,244.3639 c 0,0 23.36842,13.68421 53.36842,13.36842 30,-0.31579 46.93454,-13.17186 46.93454,-13.17186 0,0 43.69704,-30.51236 37.06546,-72.40709 -6.63158,-41.89474 -45.36842,-32.52632 -45.36842,-32.52632 0,0 -27.78948,3.89474 -25.78948,39.05263 2,35.1579 -36.21053,60.84211 -124.63157,63.26316 13.15789,-5.15789 124.63157,-62.94737 124.63157,-62.94737"
        id="path4546"
        inkscape:connector-curvature="0" />

     <path class="draw"

        d="m 347.25468,241.94284 -22.84211,10.94737 c 0,0 70.52632,10.63158 103.47368,-23.47369"
        id="path4557"
        inkscape:connector-curvature="0" />

    <path class="draw left_leg"

       d="m 419.80731,250.65337 23.65789,32.3421 -24.10526,-0.10526"
       id="path4559"
       inkscape:connector-curvature="0"
       sodipodi:nodetypes="ccc" />

   <path class="draw rigth_leg"
      d="m 451.3344,257.4282 25.18343,26.9357"
      id="path4563"
      inkscape:connector-curvature="0" />

    <path class="draw peak"
       d="m 527.14941,144.36389 19.47368,-6 -9.05263,17.26316"
       id="path4565"
       inkscape:connector-curvature="0" />

   <path class="draw pawns"
      d="m 496.72836,285.206 -53.26316,-2.21053 28.63158,8.42106"
      id="path4561"
      inkscape:connector-curvature="0" />

    <ellipse
        class="draw eye"
        id="path4548"
        cx="513.9389"
        cy="155.15337"
        rx="5.7368422"
        ry="5.6315789" />



        <script type="text/javascript">
            const elements = document.querySelectorAll('.draw');
            let prevDelay = 0;
            elements.forEach((element, index) => {
                element.style.strokeDasharray = element.getTotalLength()*1.05;
                element.style.strokeDashoffset = element.getTotalLength()*1.05;
                element.style.animationDuration = element.getTotalLength()*4 + 'ms';
                element.style.animationDelay =  prevDelay + 'ms';
                prevDelay += element.getTotalLength()*2.83;
            })
        </script>

</svg>
