<?xml version="1.0" encoding="UTF-8" standalone="no"?>
<!-- Generator: Adobe Illustrator 19.0.0, SVG Export Plug-In . SVG Version: 6.00 Build 0)  -->

<svg
   xmlns:dc="http://purl.org/dc/elements/1.1/"
   xmlns:cc="http://creativecommons.org/ns#"
   xmlns:rdf="http://www.w3.org/1999/02/22-rdf-syntax-ns#"
   xmlns:svg="http://www.w3.org/2000/svg"
   xmlns="http://www.w3.org/2000/svg"
   xmlns:sodipodi="http://sodipodi.sourceforge.net/DTD/sodipodi-0.dtd"
   xmlns:inkscape="http://www.inkscape.org/namespaces/inkscape"
   version="1.1"
   id="Capa_1"
   x="0px"
   y="0px"
   viewBox="0 0 382.498 382.498"
   style="enable-background:new 0 0 382.498 382.498;"
   xml:space="preserve"
   sodipodi:docname="cake.svg"
   inkscape:version="0.92.3 (2405546, 2018-03-11)"><metadata
   id="metadata43"><rdf:RDF><cc:Work
       rdf:about=""><dc:format>image/svg+xml</dc:format><dc:type
         rdf:resource="http://purl.org/dc/dcmitype/StillImage" /></cc:Work></rdf:RDF></metadata><defs
   id="defs41" /><sodipodi:namedview
   pagecolor="#ffffff"
   bordercolor="#666666"
   borderopacity="1"
   objecttolerance="10"
   gridtolerance="10"
   guidetolerance="10"
   inkscape:pageopacity="0"
   inkscape:pageshadow="2"
   inkscape:window-width="3840"
   inkscape:window-height="2066"
   id="namedview39"
   showgrid="false"
   inkscape:zoom="2.4679868"
   inkscape:cx="76.611126"
   inkscape:cy="175.755"
   inkscape:window-x="-11"
   inkscape:window-y="-11"
   inkscape:window-maximized="1"
   inkscape:current-layer="Capa_1" />
<g
   id="g6">
	<g
   id="g4">
		<path
   d="M372.65,229.378c0.023-0.346,0.023-0.694,0-1.04c-0.2-0.448-0.441-0.876-0.72-1.28l-0.72-0.96l-142.32-136    c-1.161-1.133-2.64-1.887-4.24-2.16c-12.195-1.702-24.487-2.611-36.8-2.72c-4.696-3.652-10.171-6.171-16-7.36    c-1.36-14.72,0.24-48,27.68-62.72c3.888-2.209,5.249-7.152,3.04-11.04c-2.209-3.888-7.152-5.249-11.04-3.04    c-35.6,19.28-37.92,59.44-37.12,76.72c-7.137,1.599-13.68,5.176-18.88,10.32c-58.48,8.8-101.68,34.88-125.12,75.68v0.4v0.48    c-0.4,0.937-0.617,1.942-0.64,2.96v142.88c-0.064,3.912,2.711,7.296,6.56,8l346.96,64h1.44c4.418,0,8-3.582,8-8v-143.36    c0,0,0,0,0-0.56C372.733,230.177,372.706,229.776,372.65,229.378z M163.69,92.498c12.725-0.044,23.076,10.235,23.12,22.96    c0.044,12.725-10.235,23.076-22.96,23.12c-12.725,0.044-23.076-10.235-23.12-22.96c0-0.027,0-0.053,0-0.08    C140.73,102.845,150.996,92.542,163.69,92.498z M126.01,105.938L126.01,105.938c-0.823,3.107-1.253,6.306-1.28,9.52    c-0.632,21.552,16.326,39.536,37.878,40.168c21.552,0.632,39.536-16.326,40.168-37.878c0.169-5.761-0.94-11.488-3.246-16.77    c9.04,0.48,16,1.28,19.2,1.68l121.44,116.08l-308.64-56.96C51.29,133.298,83.13,114.658,126.01,105.938z M26.01,303.778v-38.4    l330.96,59.6l0.08,39.92L26.01,303.778z M26.01,249.138v-24l330.96,59.6l0.08,24.16L26.01,249.138z M26.01,209.058v-32    l245.52,45.36l85.36,16l0.16,30.48L26.01,209.058z"
   id="path2" />
	</g>
</g>
<g
   id="g8">
</g>
<g
   id="g10">
</g>
<g
   id="g12">
</g>
<g
   id="g14">
</g>
<g
   id="g16">
</g>
<g
   id="g18">
</g>
<g
   id="g20">
</g>
<g
   id="g22">
</g>
<g
   id="g24">
</g>
<g
   id="g26">
</g>
<g
   id="g28">
</g>
<g
   id="g30">
</g>
<g
   id="g32">
</g>
<g
   id="g34">
</g>
<g
   id="g36">
</g>
<path
   style="fill:#e0bab9;fill-opacity:1;stroke:#e0bab9;stroke-width:1.0129714;stroke-miterlimit:4;stroke-dasharray:none;stroke-opacity:0"
   d="M 191.23897,278.81588 C 100.53751,262.42707 26.278846,248.97869 26.219713,248.93059 c -0.05913,-0.0481 -0.05913,-5.36656 0,-11.81881 l 0.107515,-11.73137 162.480602,29.26757 c 89.36434,16.09716 163.71137,29.47906 165.21563,29.73755 l 2.73503,0.46998 v 11.91646 c 0,6.55405 -0.13676,11.89964 -0.3039,11.8791 -0.16714,-0.0205 -74.51417,-13.44638 -165.21562,-29.83519 z"
   id="path45"
   inkscape:connector-curvature="0" /><path
   style="fill:#d40000;fill-opacity:1;stroke:#e0bab9;stroke-width:1.0129714;stroke-miterlimit:4;stroke-dasharray:none;stroke-opacity:0"
   d="m 160.40497,138.12625 c -8.74787,-1.37159 -16.12214,-7.87155 -18.64266,-16.43234 -1.03231,-3.50618 -0.96657,-8.95284 0.1516,-12.56085 2.44951,-7.90378 8.47277,-13.66821 16.36817,-15.664788 13.77303,-3.482908 27.3484,6.504581 28.19419,20.742648 0.73978,12.45345 -8.67927,23.12425 -21.2167,24.03631 -1.53394,0.11159 -3.71851,0.0572 -4.8546,-0.12098 z"
   id="path852"
   inkscape:connector-curvature="0" /><path
   style="fill:#ffffff;fill-opacity:1;stroke:#e0bab9;stroke-width:1.0129714;stroke-miterlimit:4;stroke-dasharray:none;stroke-opacity:0"
   d="M 185.38808,190.00857 C 101.2742,174.46694 32.393768,161.57112 32.320456,161.35118 c -0.265279,-0.79584 8.416167,-11.0145 13.910517,-16.37365 8.598251,-8.38666 17.424039,-14.83857 28.771555,-21.03283 12.692782,-6.9286 30.526642,-13.3404 47.300752,-17.00601 2.76115,-0.60339 3.51281,-0.65788 3.35365,-0.24313 -0.67833,1.76772 -1.15736,7.7769 -0.95067,11.92577 0.29165,5.85432 1.34709,9.95338 3.92105,15.22823 8.1767,16.75669 27.04653,25.37299 45.20764,20.64262 11.31987,-2.94845 21.39011,-11.66669 25.92475,-22.44418 2.08254,-4.94961 2.69825,-7.85488 2.92104,-13.78327 0.22281,-5.9287 -0.18877,-9.25131 -1.73345,-13.99393 -0.50809,-1.55998 -0.85891,-2.90243 -0.77961,-2.98323 0.19375,-0.19741 15.85931,1.14193 17.44598,1.49156 0.94288,0.20776 15.78572,14.16915 59.96791,56.40665 32.29319,30.8718 59.44423,56.804 60.33565,57.62711 0.91541,0.84526 1.35625,1.48712 1.01297,1.47488 -0.33428,-0.0119 -69.42823,-12.73756 -153.54211,-28.2792 z"
   id="path854"
   inkscape:connector-curvature="0" /><path
   style="fill:#ffffff;fill-opacity:1;stroke:#e0bab9;stroke-width:1.0129714;stroke-miterlimit:4;stroke-dasharray:none;stroke-opacity:0"
   d="m 347.03396,266.93456 c -7.26778,-1.3496 -80.17022,-14.53969 -268.788636,-48.63137 -28.272737,-5.11013 -51.566014,-9.29115 -51.762835,-9.29115 -0.200898,0 -0.357856,-6.931 -0.357856,-15.80235 0,-9.93017 0.145934,-15.80236 0.392715,-15.80236 1.173105,0 325.564942,60.13434 329.329462,61.04966 l 0.91168,0.22167 v 14.94805 c 0,13.98473 -0.0457,14.9449 -0.70908,14.89918 -0.39,-0.0269 -4.44695,-0.74298 -9.01545,-1.59133 z"
   id="path856"
   inkscape:connector-curvature="0" /><path
   style="fill:#ffffff;fill-opacity:1;stroke:#e0bab9;stroke-width:1.0129714;stroke-miterlimit:4;stroke-dasharray:none;stroke-opacity:0"
   d="M 190.93689,334.07779 26.128264,303.62356 26.126449,284.681 c -0.0013,-13.28599 0.128762,-18.94256 0.435458,-18.94256 0.240501,0 63.738611,11.40187 141.106913,25.3375 77.3683,13.93563 151.56369,27.29166 164.87864,29.68006 l 24.20901,4.34256 8.1e-4,19.75294 c 8.1e-4,15.55203 -0.10671,19.74524 -0.50548,19.71673 -0.27857,-0.0199 -74.67036,-13.74061 -165.31511,-30.49044 z"
   id="path858"
   inkscape:connector-curvature="0" /></svg>